<?xml version="1.0" encoding="utf-8"?>
<svg xmlns="http://www.w3.org/2000/svg">
<symbol id="i_history" xmlns="http://www.w3.org/2000/svg" viewBox="0 0 56.49 47.4"><g id="Capa_2" data-name="Capa 2"><g id="Capa_1-2" data-name="Capa 1"><path class="cls-1" d="M45.56,29.86a2.22,2.22,0,0,1-.86,1.82V43.59a2.1,2.1,0,0,1-2.09,2.09h-26a2.1,2.1,0,0,1-2.09-2.09V13.75H33.94a.86.86,0,0,0,.8-.54.87.87,0,0,0-.2-.94,6.06,6.06,0,0,1-1.88-4.41,6.14,6.14,0,0,1,9-5.46h0l.08,0a5.79,5.79,0,0,1,3,5.07v4.13c.58-.25,1.15-.47,1.71-.67V7.5A7.5,7.5,0,0,0,38.92,0H7.3l.06.86L7.27,0h0A7.89,7.89,0,0,0,0,7.86a7.77,7.77,0,0,0,2.4,5.65.85.85,0,0,0,.6.24h9.77V43.59a3.82,3.82,0,0,0,3.81,3.81h26a3.81,3.81,0,0,0,3.8-3.81V29.24l-.88.37A1.9,1.9,0,0,1,45.56,29.86ZM3.36,12A6.08,6.08,0,0,1,1.72,7.86,6.17,6.17,0,0,1,7.36,1.74h.06l.23,0H33.9a7.86,7.86,0,0,0-3,6.14A7.77,7.77,0,0,0,32.14,12Z"/><path class="cls-1" d="M28.18,39.28a.81.81,0,0,1-.42-.12A.85.85,0,0,1,27.44,38C34.84,25.13,48.81,14.42,49,14.32a.86.86,0,0,1,1.21.16A.87.87,0,0,1,50,15.69c-.13.1-13.83,10.6-21.06,23.15A.87.87,0,0,1,28.18,39.28Z"/><path class="cls-1" d="M37.36,35.09h0L30.67,35a.86.86,0,0,1-.85-.86l0-8.23a.83.83,0,0,1,.2-.55l5-5.91a.87.87,0,0,1,1.43.16l.29.55,1.15-2.65a.87.87,0,0,1,.23-.31,29,29,0,0,1,17.55-6.69.87.87,0,0,1,.64.29.89.89,0,0,1,.2.68c-1.21,8.88-9.79,16-10.15,16.25a.72.72,0,0,1-.21.12L43.49,29l.31.19a.88.88,0,0,1,.41.71.86.86,0,0,1-.36.72l-6,4.3A.9.9,0,0,1,37.36,35.09Zm-5.82-1.76,5.55,0L41.79,30l-.62-.38a.89.89,0,0,1-.41-.8.86.86,0,0,1,.52-.72l4-1.73c.87-.73,7.74-6.76,9.27-14a28,28,0,0,0-15.25,6.1l-1.79,4.12a.84.84,0,0,1-.76.52A.88.88,0,0,1,36,22.6l-.53-1-3.92,4.68Z"/></g></g></symbol>
<symbol id="i_save" xmlns="http://www.w3.org/2000/svg" viewBox="0 0 44.67 46.7"><g id="Capa_2" data-name="Capa 2"><g id="Capa_1-2" data-name="Capa 1"><path class="cls-1" d="M34,21.22a2.14,2.14,0,1,0-2.13,2.13A2.13,2.13,0,0,0,34,21.22Z"/><path class="cls-1" d="M10.6,46.7A3.09,3.09,0,0,1,7.71,45L6,41.71c-1-1.8-1.94-3.66-2.88-5.51A28.84,28.84,0,0,1,.47,29.74,16.53,16.53,0,0,1,2.79,16.61a17.29,17.29,0,0,1,5.54-5.29A16.3,16.3,0,0,1,10.6,10.2a1.27,1.27,0,0,1,1,2.33,16.13,16.13,0,0,0-1.93.94A14.77,14.77,0,0,0,4.92,18a13.91,13.91,0,0,0-2,11.17,26.94,26.94,0,0,0,2.44,5.89c.93,1.83,1.91,3.68,2.86,5.47L10,43.77a.61.61,0,0,0,.66.4h3.87c.47,0,.57-.1.58-.58s0-.82,0-1.23v-.56a1.27,1.27,0,0,1,.41-.93,1.23,1.23,0,0,1,1-.33l1.13.11c.81.08,1.57.16,2.33.19s1.73,0,2.64-.08l.46,0A1.8,1.8,0,0,1,25,42c.13.34.28.67.44,1l.33.75a.56.56,0,0,0,.64.41h1.47c.82,0,1.66,0,2.49,0,.41,0,.53-.12.53-.55v-.75c0-1,0-2,0-3A2.35,2.35,0,0,1,32,37.61a15.32,15.32,0,0,0,5.09-5.1,12.34,12.34,0,0,0,.68-1.31c.15-.32.31-.66.49-1a2.56,2.56,0,0,1,1-1c.74-.42,1.54-.84,2.6-1.37.18-.09.25-.15.25-.44V22.53a.7.7,0,0,0-.06-.35,1,1,0,0,0-.36-.06H41c-.38,0-.77,0-1.16,0a1.77,1.77,0,0,1-1.54-1.06,14.88,14.88,0,0,0-4.1-5.81c-.09-.08-.15-.16-.2-.21l0,0a1.27,1.27,0,0,1-.2-1.41l.46-.94c.43-.88.87-1.76,1.29-2.64v0a3.08,3.08,0,0,0,.18-.42s0-.06,0-.09a.1.1,0,0,0-.08-.05,14.35,14.35,0,0,0-8.18,1.26,2.53,2.53,0,0,1-1.9.21,16.12,16.12,0,0,0-4.14-.54,1.27,1.27,0,1,1,0-2.53h0a17.88,17.88,0,0,1,4.82.63h0l.05,0A16.69,16.69,0,0,1,35.84,6.9a2.67,2.67,0,0,1,2.34,3.27,4.1,4.1,0,0,1-.36.93h0c-.43.89-.87,1.77-1.3,2.65l-.05.11a17.68,17.68,0,0,1,4,5.72H41c.24,0,.49,0,.75,0a2.74,2.74,0,0,1,2.92,2.93c0,1,0,2,0,3v1.85A2.91,2.91,0,0,1,43,30.08c-1,.5-1.76.9-2.45,1.28l0,0c-.15.29-.29.58-.44.9-.24.5-.49,1-.79,1.52a18,18,0,0,1-5.92,5.94h0c0,1.05,0,2.1,0,3.12,0,.25,0,.5,0,.75a2.92,2.92,0,0,1-3,3.07h-4a3.06,3.06,0,0,1-3-2c-.09-.22-.19-.44-.3-.68s-.23-.5-.34-.77h-.05c-.93.06-1.9.11-2.87.08-.75,0-1.49-.09-2.22-.17,0,.15,0,.31,0,.46a3,3,0,0,1-3.1,3.05H10.6Z"/><g id="_4A6FX9" data-name="4A6FX9"><path class="cls-1" d="M15.5,13.73h0a6.81,6.81,0,0,1-4.85-2,6.92,6.92,0,0,1-2-4.88,6.71,6.71,0,0,1,2-4.8A6.88,6.88,0,0,1,15.5,0h0a6.9,6.9,0,0,1,6.86,6.86,6.88,6.88,0,0,1-6.88,6.87Zm0-2.48h0a4.39,4.39,0,1,0,0-8.77h0a4.41,4.41,0,0,0-3.13,1.31,4.2,4.2,0,0,0-1.26,3,4.38,4.38,0,0,0,4.38,4.43Z"/></g><g id="_4A6FX9-2" data-name="4A6FX9"><path class="cls-1" d="M15.5,18h0A11.16,11.16,0,0,1,10.2,16.7a1.24,1.24,0,0,1,1.18-2.19,8.73,8.73,0,0,0,11.07-2.43,1.24,1.24,0,1,1,2,1.5A11.26,11.26,0,0,1,15.5,18Z"/></g></g></g></symbol>
<symbol id="i_multi_save" xmlns="http://www.w3.org/2000/svg" viewBox="0 0 44.68 46.7"><g id="Layer_2" data-name="Layer 2"><g id="Capa_1" data-name="Capa 1"><path class="cls-1" d="M31.87,19.07a2.14,2.14,0,1,0,0,4.28h0a2.14,2.14,0,0,0,0-4.28Z"/><path class="cls-1" d="M41.75,19.58H40.47a17.55,17.55,0,0,0-4-5.72l.05-.11c.43-.88.87-1.76,1.3-2.65a3.9,3.9,0,0,0,.36-.93,2.14,2.14,0,0,0,.06-.35,2.66,2.66,0,0,0-2.4-2.92A16.74,16.74,0,0,0,26.3,8.52h-.05a18.42,18.42,0,0,0-4-.61,6,6,0,0,0,.09-1A6.83,6.83,0,0,0,10.65,2.05a6.77,6.77,0,0,0-2,4.8,7,7,0,0,0,1.09,3.73c-.48.23-1,.47-1.41.74a17.39,17.39,0,0,0-5.54,5.29A16.56,16.56,0,0,0,.47,29.74,29.08,29.08,0,0,0,3.12,36.2C4.06,38.05,5,39.91,6,41.71L7.71,45a3.09,3.09,0,0,0,2.89,1.7v-.07h4.08a3,3,0,0,0,2.94-3.05v-.46a20.34,20.34,0,0,0,2.22.17c1,0,1.94,0,2.87-.08h.05c.11.27.23.53.34.77s.21.46.3.68a3.06,3.06,0,0,0,3,2h4.24a2.92,2.92,0,0,0,2.76-3.07V39.72a17.88,17.88,0,0,0,5.92-5.94c.3-.52.55-1,.79-1.52.15-.32.29-.61.44-.9C41.24,31,42,30.58,43,30.08a2.89,2.89,0,0,0,1.67-2.72V22.51c0-.13,0-.26,0-.38A2.76,2.76,0,0,0,41.75,19.58ZM12.37,3.79A4.41,4.41,0,0,1,15.5,2.48h.42a4.39,4.39,0,1,1-.42,8.77v0h-.05a4.39,4.39,0,0,1-4.33-4.43A4.22,4.22,0,0,1,12.37,3.79Zm29.74,23.6c0,.29-.07.35-.25.44-1.06.53-1.86,1-2.6,1.37a2.6,2.6,0,0,0-1,1c-.18.34-.34.68-.49,1a10.84,10.84,0,0,1-.68,1.31A15.23,15.23,0,0,1,32,37.61a2.38,2.38,0,0,0-1.1,2.25v3.75c0,.43-.12.55-.53.55h-4a.57.57,0,0,1-.64-.41L25.44,43c-.16-.33-.31-.66-.44-1a1.79,1.79,0,0,0-1.92-1.24h-.46a22,22,0,0,1-2.64.08c-.76,0-1.52-.11-2.33-.19l-1.13-.11a1.24,1.24,0,0,0-1,.33,1.31,1.31,0,0,0-.41.93v.56c0,.41,0,.75,0,1.23s-.11.58-.58.58H10.66a.62.62,0,0,1-.66-.4L8.22,40.53c-1-1.79-1.93-3.64-2.86-5.47a27.32,27.32,0,0,1-2.44-5.89A13.93,13.93,0,0,1,4.92,18a14.79,14.79,0,0,1,4.75-4.53,16.35,16.35,0,0,1,1.93-.94h0a6.84,6.84,0,0,0,9.75-2.11h.07a16.06,16.06,0,0,1,4.14.54,2.51,2.51,0,0,0,1.9-.21,14.42,14.42,0,0,1,8.18-1.26.08.08,0,0,1,.08,0v.09a1.9,1.9,0,0,1-.18.42c-.42.88-.86,1.76-1.29,2.64l-.46.94A1.3,1.3,0,0,0,34,15c0,.05.11.13.2.21a14.79,14.79,0,0,1,4.1,5.81,1.77,1.77,0,0,0,1.54,1.06h1.85a1,1,0,0,1,.36.06.61.61,0,0,1,.06.35Z"/><polygon class="cls-1" points="15.51 13.73 15.49 13.73 15.48 13.73 15.51 13.73"/><path class="cls-1" d="M24.45,13.58a1.24,1.24,0,0,0-.25-1.75,1.26,1.26,0,0,0-1.75.25,8.73,8.73,0,0,1-11.07,2.43A1.24,1.24,0,0,0,10.2,16.7,11.17,11.17,0,0,0,15.5,18,11.25,11.25,0,0,0,24.45,13.58Z"/><polygon class="cls-1" points="22.67 23.09 19.14 23.09 19.14 26.82 15.22 26.82 15.22 30.21 19.14 30.21 19.14 33.94 22.67 33.94 22.67 30.21 26.59 30.21 26.59 26.82 22.67 26.82 22.67 23.09"/></g></g></symbol>
<symbol id="i_medical_care" xmlns="http://www.w3.org/2000/svg" viewBox="0 0 70.93 64"><g id="Capa_2" data-name="Capa 2"><g id="Capa_1-2" data-name="Capa 1"><path class="cls-1" d="M49.27,30.76H40.59V22.08A1.07,1.07,0,0,0,39.52,21h-8.1a1.08,1.08,0,0,0-1.08,1.08v8.68H21.66a1.08,1.08,0,0,0-1.08,1.07v8.1A1.09,1.09,0,0,0,21.66,41h8.68v8.68a1.08,1.08,0,0,0,1.08,1.07h8.1a1.07,1.07,0,0,0,1.07-1.07V41h8.68a1.08,1.08,0,0,0,1.08-1.08v-8.1A1.07,1.07,0,0,0,49.27,30.76Z"/><path class="cls-1" d="M64.3,64H6.64A6.65,6.65,0,0,1,0,57.36V13.21A6.65,6.65,0,0,1,6.64,6.57H64.3a6.64,6.64,0,0,1,6.63,6.64V57.36A6.64,6.64,0,0,1,64.3,64ZM6.64,11.08a2.13,2.13,0,0,0-2.12,2.13V57.36a2.12,2.12,0,0,0,2.12,2.12H64.3a2.12,2.12,0,0,0,2.12-2.12V13.21a2.13,2.13,0,0,0-2.12-2.13Z"/><path class="cls-1" d="M46.23,11.08A2.26,2.26,0,0,1,44,8.83a4.31,4.31,0,0,0-4.31-4.31H31.27A4.31,4.31,0,0,0,27,8.83a2.26,2.26,0,0,1-4.52,0A8.84,8.84,0,0,1,31.27,0h8.39a8.84,8.84,0,0,1,8.83,8.83A2.26,2.26,0,0,1,46.23,11.08Z"/><path class="cls-1" d="M19.33,10a1.13,1.13,0,0,1-1.12-1.13v-1A.83.83,0,0,0,17.39,7H11.71a.82.82,0,0,0-.82.81v1a1.13,1.13,0,1,1-2.25,0v-1a3.08,3.08,0,0,1,3.07-3.07h5.68a3.08,3.08,0,0,1,3.07,3.07v1A1.13,1.13,0,0,1,19.33,10Z"/><path class="cls-1" d="M61.17,10A1.13,1.13,0,0,1,60,8.83v-1A.82.82,0,0,0,59.22,7H53.55a.82.82,0,0,0-.82.81v1a1.13,1.13,0,0,1-2.26,0v-1a3.08,3.08,0,0,1,3.08-3.07h5.67A3.08,3.08,0,0,1,62.3,7.85v1A1.14,1.14,0,0,1,61.17,10Z"/></g></g></symbol>
<symbol id="i_cashier" xmlns="http://www.w3.org/2000/svg" viewBox="0 0 65.41 74.93"><g id="Capa_2" data-name="Capa 2"><g id="Capa_1-2" data-name="Capa 1"><path class="cls-1" d="M59.07,65.94h-.19a1.79,1.79,0,0,1-1.59-2c.06-.59,1.48-14.47,2.45-19.82a65.58,65.58,0,0,1,1.74-7.7c1.14-4.81-.72-6.13-1.1-6.35a3.58,3.58,0,0,1-1-.78A136.7,136.7,0,0,0,47.73,17.16V39.72a3.13,3.13,0,0,1-3.13,3.13h-.06a4,4,0,0,1-2.77-1.11,17.38,17.38,0,0,1-3.2-4.81A4.74,4.74,0,0,1,38.09,35c-.08-2.49-2-7.52-4.06-8.76a1,1,0,0,0-1.14-.09c-1.5.75-1.44,5,.15,10.17a8.65,8.65,0,0,1,.37,2.15,86.16,86.16,0,0,0,1.41,11A27,27,0,0,0,40.92,62a1.8,1.8,0,0,1,.49,1.23v1a1.79,1.79,0,1,1-3.57,0v-.29a30.6,30.6,0,0,1-6.53-13.73,91.8,91.8,0,0,1-1.46-11.5,5,5,0,0,0-.22-1.27C26.47,27.12,29.31,23.94,31.29,23a4.64,4.64,0,0,1,4.57.21c3.63,2.17,5.7,8.78,5.8,11.72a1.29,1.29,0,0,0,.13.53,14.11,14.11,0,0,0,2.37,3.67V13.61a1.79,1.79,0,0,1,2.42-1.67c.59.23,4.11,2,15.52,15l0,0c1.09.61,4.53,3.18,2.8,10.35,0,0,0,.1,0,.15a62,62,0,0,0-1.64,7.29c-1,5.21-2.4,19.4-2.41,19.54A1.79,1.79,0,0,1,59.07,65.94Z"/><path class="cls-1" d="M58.76,74.93H39.69a4,4,0,0,1-4-4V66.4a4,4,0,0,1,4-4H58.76a4,4,0,0,1,4,4v4.49A4,4,0,0,1,58.76,74.93Zm-19.07-9a.47.47,0,0,0-.47.46v4.49a.48.48,0,0,0,.47.47H58.76a.48.48,0,0,0,.47-.47V66.4a.47.47,0,0,0-.47-.46Z"/><path class="cls-1" d="M52.13,15.84H47.51a1.85,1.85,0,0,1,0-3.7h4.62a4.22,4.22,0,1,0,0-8.43H7.92a4.22,4.22,0,0,0,0,8.43h4.4a1.85,1.85,0,1,1,0,3.7H7.92A7.92,7.92,0,0,1,7.92,0H52.13a7.92,7.92,0,0,1,0,15.84Z"/><path class="cls-1" d="M32.09,45.77H16.94a4.62,4.62,0,0,1-4.61-4.62v-33a1.78,1.78,0,0,1,1.78-1.79H45.94a1.79,1.79,0,0,1,1.79,1.79v7a1.79,1.79,0,0,1-3.57,0V10H15.89v31.2a1.06,1.06,0,0,0,1.05,1.05H32.09a1.79,1.79,0,0,1,0,3.57Z"/><path class="cls-1" d="M51.32,10H8.73a1.79,1.79,0,0,1,0-3.57H51.32a1.79,1.79,0,0,1,0,3.57Z"/><rect class="cls-1" x="19.46" y="8.17" width="6.56" height="35.81"/></g></g></symbol>
<symbol id="i_consumer" xmlns="http://www.w3.org/2000/svg" viewBox="0 0 41.49 40.29"><g id="Capa_2" data-name="Capa 2"><g id="Capa_1-2" data-name="Capa 1"><path class="cls-1" d="M15.9,40.29a4.56,4.56,0,1,1,4.56-4.56A4.57,4.57,0,0,1,15.9,40.29Zm0-6.73a2.18,2.18,0,1,0,2.17,2.17A2.18,2.18,0,0,0,15.9,33.56Z"/><path class="cls-1" d="M30.86,40.29a4.56,4.56,0,1,1,4.56-4.56A4.56,4.56,0,0,1,30.86,40.29Zm0-6.73A2.18,2.18,0,1,0,33,35.73,2.17,2.17,0,0,0,30.86,33.56Z"/><path class="cls-1" d="M34.19,27.42H15.63a1.18,1.18,0,0,1-1.12-.81L7,5.16a.44.44,0,0,0-.25-.27L.72,2.29A1.19,1.19,0,0,1,1.66.1L7.73,2.7A2.8,2.8,0,0,1,9.3,4.38L16.48,25H34L39,9.61H15.15a1.2,1.2,0,0,1,0-2.39h24.2a2.15,2.15,0,0,1,2,2.81l-5.16,15.9A2.14,2.14,0,0,1,34.19,27.42Z"/><path class="cls-1" d="M38,15.49H17.91a1.19,1.19,0,0,1,0-2.38H38a1.19,1.19,0,0,1,0,2.38Z"/><path class="cls-1" d="M36.76,21.22H19.82a1.19,1.19,0,0,1,0-2.38H36.76a1.19,1.19,0,1,1,0,2.38Z"/><path class="cls-1" d="M35.37,32.71H13.61a2.16,2.16,0,0,1-2-2.85v0l1.1-3A2.85,2.85,0,0,1,15.32,25h6.57a1.2,1.2,0,0,1,0,2.39H15.32a.44.44,0,0,0-.41.28l-1,2.62H35.37a1.2,1.2,0,0,1,0,2.39Z"/><path class="cls-1" d="M15.9,40.29a4.56,4.56,0,1,1,4.56-4.56A4.57,4.57,0,0,1,15.9,40.29Zm0-6.73a2.18,2.18,0,1,0,2.17,2.17A2.18,2.18,0,0,0,15.9,33.56Z"/><path class="cls-1" d="M30.86,40.29a4.56,4.56,0,1,1,4.56-4.56A4.56,4.56,0,0,1,30.86,40.29Zm0-6.73A2.18,2.18,0,1,0,33,35.73,2.17,2.17,0,0,0,30.86,33.56Z"/></g></g></symbol>
<symbol id="i_credit" xmlns="http://www.w3.org/2000/svg" viewBox="0 0 74.38 50.45"><g id="Capa_2" data-name="Capa 2"><g id="Capa_1-2" data-name="Capa 1"><path class="cls-1" d="M73.66,20.56a3.32,3.32,0,0,0-2.84-1.13h-.18a3.62,3.62,0,0,0-3.83-.12A16.49,16.49,0,0,0,64.21,21c-1.12.9-2.29,1.82-3.53,2.8-1.65,1.31-3.33,2.65-4.92,3.94a10.75,10.75,0,0,0-2.71-1,34.57,34.57,0,0,0-4.25-.55,27.31,27.31,0,0,1-4.49-.62,51.33,51.33,0,0,1-6.94-2.29,32.19,32.19,0,0,0-7.95-2.52,18.08,18.08,0,0,0-15.15,4.58,14.79,14.79,0,0,1-2.11,1.46l-1,.64c-.1.06-.4.2-.73.36l-.79-1.79L0,29.12,9.4,50.45l8.72-5.08-.79-1.78c1-.44,1.67-.74,1.93-.88A12.88,12.88,0,0,1,30,42c3.81,1.24,7.63,2.2,11.54,3.15a12.34,12.34,0,0,0,3,.37A11.58,11.58,0,0,0,50,44.14c1.45-.78,2.93-1.56,4.37-2.32,3-1.57,6.08-3.2,9.08-4.87a12.75,12.75,0,0,0,3.76-3.11c1.74-2.2,3.38-4.53,5-6.77.5-.71,1-1.44,1.52-2.15a4.06,4.06,0,0,0,.61-1.41A3.26,3.26,0,0,0,73.66,20.56ZM10.55,46.94,3.36,30.64,8.25,29.1,15,44.35Zm61.32-24a1.62,1.62,0,0,1-.22.58c-.52.72-1,1.45-1.53,2.16-1.57,2.22-3.19,4.51-4.89,6.67a10,10,0,0,1-3,2.47c-3,1.66-6.06,3.29-9,4.85L48.8,42a9.15,9.15,0,0,1-6.7.81c-3.86-.94-7.64-1.89-11.37-3.11a15.38,15.38,0,0,0-12.63.88c-.22.12-1,.46-1.76.79L11.4,30.13c.63-.3.93-.46,1.08-.55l1-.6a16.19,16.19,0,0,0,2.47-1.73,15.52,15.52,0,0,1,13.17-4,29.54,29.54,0,0,1,7.34,2.35A51.78,51.78,0,0,0,43.7,28a30.48,30.48,0,0,0,4.89.7,32.18,32.18,0,0,1,4,.5h.05a8.1,8.1,0,0,1,2.59,1h0A1.56,1.56,0,0,1,56,31.45,2.06,2.06,0,0,1,55.07,33a5.41,5.41,0,0,1-4.17,1.21c-.73-.08-1.45-.22-2.21-.36l-1.14-.2-2-.35c-1.62-.28-3.31-.58-5-.8a13.06,13.06,0,0,0-6.31.63,1.23,1.23,0,1,0,.84,2.31A10.61,10.61,0,0,1,40.2,35c1.63.22,3.28.51,4.89.79l2.06.35,1.09.2c.77.14,1.56.28,2.36.38a7.94,7.94,0,0,0,6-1.73,4.48,4.48,0,0,0,1.84-3.63,3.6,3.6,0,0,0-.71-2c1.45-1.18,3-2.39,4.47-3.56L65.75,23A14.24,14.24,0,0,1,68,21.48a1.17,1.17,0,0,1,1.33,0,2.63,2.63,0,0,0,.9.36,3.09,3.09,0,0,0,.74,0h0a.94.94,0,0,1,.78.25A.83.83,0,0,1,71.87,22.91Z"/><path class="cls-1" d="M48.54,23.08a11.45,11.45,0,0,1-7.65-3.73h0a11.56,11.56,0,1,1,8,3.75ZM50.16,2l-.29,0a9.56,9.56,0,0,0-7.51,16h0a9.56,9.56,0,1,0,7.8-16Z"/><path class="cls-1" d="M53.69,11.88a3,3,0,0,0-1.24-1.08,12.72,12.72,0,0,0-2.81-.86,2.62,2.62,0,0,1-1-.35.58.58,0,0,1-.22-.42.68.68,0,0,1,.27-.54,1.17,1.17,0,0,1,.78-.22,1.51,1.51,0,0,1,1,.3,1.46,1.46,0,0,1,.47.95l2.83-.17a3,3,0,0,0-1.16-2.2,4.38,4.38,0,0,0-2.25-.66V5.85H48.5v.84A4.56,4.56,0,0,0,47.38,7a2.91,2.91,0,0,0-1.31,1,2.51,2.51,0,0,0-.43,1.41,2.35,2.35,0,0,0,.85,1.87,6.41,6.41,0,0,0,2.81,1.18,4,4,0,0,1,1.53.56.88.88,0,0,1,.34.68.92.92,0,0,1-.35.7,1.46,1.46,0,0,1-1,.3,1.61,1.61,0,0,1-1.33-.59,2.27,2.27,0,0,1-.37-1.06l-2.86.18a3.8,3.8,0,0,0,1.08,2.42,3.59,3.59,0,0,0,2.15.87v1h1.85v-.94a5.26,5.26,0,0,0,1.77-.38A3.16,3.16,0,0,0,53.56,15a3,3,0,0,0,.52-1.72A2.67,2.67,0,0,0,53.69,11.88Z"/></g></g></symbol>
<symbol id="i_deposit" xmlns="http://www.w3.org/2000/svg" viewBox="0 0 59.76 39.41"><g id="Capa_2" data-name="Capa 2"><g id="Capa_1-2" data-name="Capa 1"><path class="cls-1" d="M4.36,37.86a1.1,1.1,0,0,1-.2-2.18L7.9,35a.23.23,0,0,0,.18-.22l.29-14a.24.24,0,0,0-.06-.17.24.24,0,0,0-.16-.07l-7.06-.07a1.1,1.1,0,1,1,0-2.19l7.06.07a2.4,2.4,0,0,1,1.71.74,2.37,2.37,0,0,1,.68,1.73l-.28,14a2.44,2.44,0,0,1-2,2.33l-3.73.68Z"/><path class="cls-1" d="M20.18,35.88c-.46,0-.94,0-1.45-.06-5.42-.47-9.57-1.06-9.62-1.06a1.11,1.11,0,0,1-.93-1.24,1.09,1.09,0,0,1,1.24-.93s4.14.58,9.5,1c4.76.42,7-1.58,7.14-1.71l.13-.11,10.33-7.26A2.06,2.06,0,0,0,34.45,21c-1.14.54-3.85,1.75-5.93,2.68A3.33,3.33,0,0,1,25,18.12l6.37-5.52-5.42,0a3,3,0,0,0-1.76.57l-10.6,7.93a4.81,4.81,0,0,1-3.42.92h0l-.84-.11a1.09,1.09,0,1,1,.28-2.17l.84.11a2.58,2.58,0,0,0,1.84-.51l10.61-7.92a5.08,5.08,0,0,1,3.09-1l8.31.08a1.1,1.1,0,0,1,1,.72A1.09,1.09,0,0,1,35,12.37l-8.55,7.41a1.14,1.14,0,0,0-.13,1.58,1.12,1.12,0,0,0,1.33.31c1.69-.75,4.7-2.09,5.88-2.65a4.26,4.26,0,0,1,4.27,7.33L27.51,33.57A11.08,11.08,0,0,1,20.18,35.88Z"/><path class="cls-1" d="M32.48,39.41H32.4a1.12,1.12,0,0,1-.76-.38l-5.1-6a1.1,1.1,0,0,1,1.67-1.42l4.38,5.13L57.12,15.21,46.27,2.64,26.76,19.46a1.11,1.11,0,0,1-1.55-.12,1.09,1.09,0,0,1,.12-1.54L45.67.27a1.1,1.1,0,0,1,1.55.11L59.49,14.6a1.09,1.09,0,0,1-.1,1.54l-26.19,23A1.09,1.09,0,0,1,32.48,39.41Z"/><path class="cls-1" d="M40.05,25.94l-.45,0a1.09,1.09,0,1,1,.15-2.18,4.47,4.47,0,0,0,1.75-8.68,4.46,4.46,0,0,0-5.67,2.77,4.91,4.91,0,0,0-.15.51,1.09,1.09,0,0,1-2.14-.46,6.77,6.77,0,0,1,.22-.77A6.65,6.65,0,0,1,42.22,13a6.66,6.66,0,0,1-2.17,13Z"/></g></g></symbol>
<symbol id="i_student" xmlns="http://www.w3.org/2000/svg" viewBox="0 0 42.96 44.89"><g id="Capa_2" data-name="Capa 2"><g id="Capa_1-2" data-name="Capa 1"><g id="jWdYF1"><path class="cls-1" d="M3.9,25.42V22.71a21.23,21.23,0,0,1,.47-5.84,15.48,15.48,0,0,1,7.91-9.65c1-.52,2-.87,3-1.33.15-.07.35-.29.33-.43C15.34,3,17.6.92,19.89.24a6,6,0,0,1,7,3.08,12.85,12.85,0,0,1,.56,2.46c.78.34,1.71.67,2.59,1.12C34.14,9,37.15,12,38.44,16.47a21.06,21.06,0,0,1,.6,4.2c.09,1.36,0,2.73,0,4.1v.65c.39,0,.73,0,1.07,0A2.91,2.91,0,0,1,43,28.37q0,4.22,0,8.42A3.93,3.93,0,0,1,38.81,41a.68.68,0,0,0-.66.4,6.62,6.62,0,0,1-6,3.5q-10.68,0-21.37,0a6.64,6.64,0,0,1-6-3.49A.68.68,0,0,0,4.14,41,3.93,3.93,0,0,1,0,36.79C0,34,0,31.22,0,28.43a2.92,2.92,0,0,1,2.94-3C3.25,25.41,3.55,25.42,3.9,25.42ZM21.43,42.94H32a4.9,4.9,0,0,0,5.14-5.12q0-8.58,0-17.16A12.51,12.51,0,0,0,32.67,11,17.2,17.2,0,0,0,12.75,9.17c-4.55,2.73-7,6.69-6.91,12.1s0,10.91,0,16.36A6.86,6.86,0,0,0,6,39.13a4.86,4.86,0,0,0,4.92,3.8ZM17.64,5.27a18.62,18.62,0,0,1,7.69,0c.15-1.66-1.8-3.38-3.77-3.32C19.2,2,17.3,4,17.64,5.27ZM3.9,39v-7.7L2,31.17c0,2,0,4,0,6A1.89,1.89,0,0,0,3.9,39Zm35.15,0A1.87,1.87,0,0,0,41,37c0-1.19,0-2.37,0-3.56V31.16l-2,.16Zm0-9.67c.67,0,1.33.18,1.76-.47a.87.87,0,0,0,0-1.05c-.46-.64-1.11-.37-1.73-.41ZM3.87,27.37c-.63.05-1.3-.22-1.74.45a.87.87,0,0,0,.05,1.1c.46.57,1.09.37,1.69.38Z" transform="translate(0)"/><path class="cls-1" d="M21.46,40H13a3,3,0,0,1-3.27-3.24q0-4.59,0-9.18A3,3,0,0,1,13,24.38H30a3,3,0,0,1,3.24,3.2c0,3.08,0,6.15,0,9.23A3,3,0,0,1,30,40Zm-9.74-9.84v.47q0,3,0,6.09c0,1,.3,1.33,1.32,1.33H29.93c1,0,1.3-.32,1.3-1.3V30.61c0-.17,0-.34,0-.44Zm9.77-1.89h5.34c1.14,0,2.27,0,3.4,0A1,1,0,0,0,31.17,27a1,1,0,0,0-1.07-.66H12.83a1.12,1.12,0,0,0-.32,0,1,1,0,0,0-.77,1.07c.06.56.43.85,1.17.85Z" transform="translate(0)"/><path class="cls-1" d="M21.08,9.72c4.35.16,8,1.2,10.85,4a12,12,0,0,1,1,1.15,1,1,0,0,1-.11,1.44.94.94,0,0,1-1.41-.24c-3.55-4.83-12.06-5.85-17.4-2.25a17.27,17.27,0,0,0-2.43,2.26,1,1,0,0,1-1.3.32,1,1,0,0,1-.44-1.16,1.67,1.67,0,0,1,.28-.46,12.92,12.92,0,0,1,8-4.69C19.18,9.91,20.33,9.82,21.08,9.72Z" transform="translate(0)"/><path class="cls-1" d="M33.18,19.61c0,.34,0,.68,0,1a1,1,0,0,1-.93.93.92.92,0,0,1-1-.85,21.3,21.3,0,0,1,0-2.26.94.94,0,0,1,1-.86,1,1,0,0,1,.92.89c0,.37,0,.75,0,1.13Z" transform="translate(0)"/><path class="cls-1" d="M21.44,36.08c-.34,0-.68,0-1,0a.94.94,0,0,1-.9-1,.91.91,0,0,1,.89-1,17.13,17.13,0,0,1,2.15,0,.89.89,0,0,1,.87,1,.93.93,0,0,1-.91.94c-.36,0-.72,0-1.08,0Z" transform="translate(0)"/><path class="cls-1" d="M15.6,36.09c-.32,0-.64,0-1,0a1,1,0,0,1-1-1,.93.93,0,0,1,.92-1c.68,0,1.37,0,2.05,0a1,1,0,0,1,.95,1,1,1,0,0,1-1,1C16.29,36.11,15.94,36.09,15.6,36.09Z" transform="translate(0)"/><path class="cls-1" d="M27.33,36.09c-.34,0-.68,0-1,0a1,1,0,0,1-.94-1,.93.93,0,0,1,.92-.94,18.22,18.22,0,0,1,2.09,0,.92.92,0,0,1,.91,1,.94.94,0,0,1-.94,1C28,36.11,27.67,36.09,27.33,36.09Z" transform="translate(0)"/></g></g></g></symbol>
<symbol id="i_investment" xmlns="http://www.w3.org/2000/svg" viewBox="0 0 34.94 35.75"><g id="Capa_2" data-name="Capa 2"><g id="Capa_1-2" data-name="Capa 1"><path class="cls-1" d="M22.25,22.29A3.47,3.47,0,0,0,20.78,21a14.54,14.54,0,0,0-3.36-1,3.12,3.12,0,0,1-1.2-.43.66.66,0,0,1-.26-.5.82.82,0,0,1,.32-.64,1.41,1.41,0,0,1,.94-.26,1.81,1.81,0,0,1,1.19.35A1.87,1.87,0,0,1,19,19.65l3.37-.2A3.55,3.55,0,0,0,21,16.83,5.13,5.13,0,0,0,18.27,16V15.1h-2.2v1a5.1,5.1,0,0,0-1.34.36,3.37,3.37,0,0,0-1.55,1.24,3,3,0,0,0-.52,1.69,2.83,2.83,0,0,0,1,2.23A7.78,7.78,0,0,0,17,23a4.63,4.63,0,0,1,1.83.67,1.09,1.09,0,0,1,.4.81,1.08,1.08,0,0,1-.42.83,1.73,1.73,0,0,1-1.18.36,1.92,1.92,0,0,1-1.58-.7,2.63,2.63,0,0,1-.44-1.27l-3.4.22a4.42,4.42,0,0,0,1.28,2.88,4.27,4.27,0,0,0,2.56,1v1.19h2.2V27.93a6.33,6.33,0,0,0,2.11-.45,3.86,3.86,0,0,0,1.72-1.43A3.66,3.66,0,0,0,22.72,24,3.23,3.23,0,0,0,22.25,22.29Z"/><path class="cls-1" d="M21.24,35.75H13.7a25.49,25.49,0,0,1-5.53-.48,10.65,10.65,0,0,1-5.59-2.89C.72,30.42-.14,27.63,0,24.07a16.39,16.39,0,0,1,2.08-7.2,22.25,22.25,0,0,1,4-5.18,26.62,26.62,0,0,1,5.71-4.23.92.92,0,0,1,.43-.11H22.66a.92.92,0,0,1,.43.11,26.62,26.62,0,0,1,5.71,4.23,22.25,22.25,0,0,1,4,5.18,16.26,16.26,0,0,1,2.08,7.2c.17,3.56-.7,6.35-2.56,8.31a10.65,10.65,0,0,1-5.59,2.89A25.49,25.49,0,0,1,21.24,35.75ZM12.52,9.24a25.85,25.85,0,0,0-5.1,3.84A20.15,20.15,0,0,0,3.74,17.8,14.53,14.53,0,0,0,1.9,24.15a12.08,12.08,0,0,0,.48,4.24A7,7,0,0,0,4,31.08c2.35,2.46,6.24,2.79,9.75,2.79h7.54c3.51,0,7.4-.33,9.75-2.79a7,7,0,0,0,1.57-2.69A12.08,12.08,0,0,0,33,24.15a14.59,14.59,0,0,0-1.85-6.37A20.41,20.41,0,0,0,27.49,13a25.6,25.6,0,0,0-5.07-3.8Z"/><path class="cls-1" d="M21.71,9.24a.95.95,0,0,1-.82-1.4l2.75-5a21.06,21.06,0,0,0-12.33,0l2.74,5a.94.94,0,0,1-1.65.91L9.61,3.64a1.8,1.8,0,0,1-.09-1.55A1.82,1.82,0,0,1,10.68,1,23,23,0,0,1,24.26,1a1.82,1.82,0,0,1,1.16,1.06,1.8,1.8,0,0,1-.09,1.55L22.54,8.75A.94.94,0,0,1,21.71,9.24Z"/><path class="cls-1" d="M32.06,12.34a1,1,0,0,1-.49-.13c-4.84-2.91-8.41-3-8.44-3H17.47a.95.95,0,0,1,0-1.89h5.66c.16,0,4.09,0,9.42,3.24a.94.94,0,0,1-.49,1.75Z"/></g></g></symbol>
<symbol id="i_micro_credit" xmlns="http://www.w3.org/2000/svg" viewBox="0 0 43.04 45.92"><g id="Capa_2" data-name="Capa 2"><g id="Capa_1-2" data-name="Capa 1"><path class="cls-1" d="M21.59,36a1.38,1.38,0,0,1-1.38-1.39v-13a1.39,1.39,0,1,1,2.77,0v13A1.39,1.39,0,0,1,21.59,36Z"/><path class="cls-1" d="M21.52,32.45a1.43,1.43,0,0,1-.64-.15l-5.26-2.76a1.39,1.39,0,0,1,1.29-2.46l4.55,2.39,4.7-2.92a1.39,1.39,0,1,1,1.46,2.36l-5.37,3.33A1.35,1.35,0,0,1,21.52,32.45Z"/><path class="cls-1" d="M32.17,45.92H28.53l-7.31,0a1.39,1.39,0,0,1,0-2.77h0c3.73,0,9.14,0,12.19,0a15.43,15.43,0,0,0-23.37-2.07,1.38,1.38,0,1,1-1.94-2,18.19,18.19,0,0,1,29,4.72,1.4,1.4,0,0,1-1.33,2.07H32.17Z"/><path class="cls-1" d="M11,32.09a9.25,9.25,0,0,1-5.72-2.3,16.51,16.51,0,0,1-5.2-8.64A1.39,1.39,0,0,1,.23,20a1.38,1.38,0,0,1,1-.6,34.75,34.75,0,0,1,7.16-.1c3.66.36,8.17,1.66,8.84,5.77a5.85,5.85,0,0,1-1.13,4.46,6.53,6.53,0,0,1-4.39,2.51C11.45,32.07,11.21,32.09,11,32.09ZM3.23,22A12.87,12.87,0,0,0,7,27.65a6.42,6.42,0,0,0,4.35,1.64,3.66,3.66,0,0,0,2.51-1.42,3.06,3.06,0,0,0,.6-2.35C13.91,22.06,7.13,21.76,3.23,22Z"/><path class="cls-1" d="M32.15,31.6a6,6,0,0,1-2.07-.34,6.22,6.22,0,0,1-3.44-3.08,6.57,6.57,0,0,1-.5-4.57c.57-2.29,2.58-5.11,8.94-5.55a31,31,0,0,1,6.82.36A1.39,1.39,0,0,1,43,20c-1.08,6.14-4,9-6.28,10.3A9.38,9.38,0,0,1,32.15,31.6Zm4.63-10.82c-3.29,0-7.24.63-8,3.5A3.7,3.7,0,0,0,31,28.66a5.6,5.6,0,0,0,4.32-.74C36.94,27,39,25.06,40,21A30.62,30.62,0,0,0,36.78,20.78Z"/><path class="cls-1" d="M20.7,21.4a10.64,10.64,0,0,1-7.1-3.46h0A10.72,10.72,0,0,1,22,0a10.72,10.72,0,0,1,6.72,18.63A10.58,10.58,0,0,1,21,21.42Zm1.47-19h-.26a8.34,8.34,0,0,0-6.55,14h0A8.34,8.34,0,1,0,22.17,2.4Z"/><path class="cls-1" d="M25.44,11a2.81,2.81,0,0,0-1.14-1,11.35,11.35,0,0,0-2.59-.78,2.55,2.55,0,0,1-.92-.33.52.52,0,0,1-.2-.39A.62.62,0,0,1,20.83,8a1.11,1.11,0,0,1,.73-.2,1.39,1.39,0,0,1,.91.27,1.39,1.39,0,0,1,.44.87l2.59-.15a2.72,2.72,0,0,0-1.07-2,4,4,0,0,0-2.06-.61V5.47h-1.7v.77a3.84,3.84,0,0,0-1,.28,2.65,2.65,0,0,0-1.2,1A2.36,2.36,0,0,0,18,8.77a2.17,2.17,0,0,0,.78,1.72,6,6,0,0,0,2.58,1.08,3.64,3.64,0,0,1,1.41.52.8.8,0,0,1,.31.62.83.83,0,0,1-.32.64,1.32,1.32,0,0,1-.91.28,1.44,1.44,0,0,1-1.21-.54,2,2,0,0,1-.35-1l-2.62.16a3.46,3.46,0,0,0,1,2.22,3.3,3.3,0,0,0,2,.8v.92h1.7v-.86A4.72,4.72,0,0,0,24,15a2.93,2.93,0,0,0,1.33-1.09,2.87,2.87,0,0,0,.47-1.58A2.55,2.55,0,0,0,25.44,11Z"/></g></g></symbol>
<symbol id="i_payments" xmlns="http://www.w3.org/2000/svg" viewBox="0 0 53.79 31.95"><g id="Capa_2" data-name="Capa 2"><g id="Capa_1-2" data-name="Capa 1"><path d="M53.08,19.19l-6.08-1a.27.27,0,0,1-.18-.11.22.22,0,0,1,0-.08l0-.08a.89.89,0,0,0,0-.23L48.66,7a.64.64,0,0,0,.08-.19.78.78,0,0,0,0-.34l.11-.68a.25.25,0,0,1,.25-.22l3.31-.1a.89.89,0,1,0,0-1.78l-3.31.1a2,2,0,0,0-2,1.69h0c-1.33-.38-4-1.12-7.25-1.91-4.61-1.12-7.35.47-7.83.78l-1.56.78L27.59.42A.9.9,0,0,0,26.37.13L6.62,12.28l0,0L.42,15.94a.9.9,0,0,0-.29,1.22l8.8,14.36a.88.88,0,0,0,.21.22l.07.06a1,1,0,0,0,.5.15,1,1,0,0,0,.44-.15h0l13.36-8.41,6.82,1.1a4,4,0,0,0,.69.06A4.36,4.36,0,0,0,33.11,24L43.3,18.61a2.27,2.27,0,0,1,1.71-.2l.1,0a1.86,1.86,0,0,0,.31.67,2,2,0,0,0,1.33.83l6.09,1h.1a.89.89,0,0,0,.14-1.76ZM23.24,21.47h0L10,29.8l-.6-1L6.89,24.72l-.07-.07L2.11,17,7.35,14h0l.12-.07h0l19-11.74L28.89,6l-6.62,3.3a3.68,3.68,0,0,0-1.34,1.12.89.89,0,0,0-.27-.15A5.72,5.72,0,0,0,13.77,13c-.11.2-.2.41-.29.62a8.25,8.25,0,0,0-.36,1.75,5.82,5.82,0,0,0,4.1,5.81l.57.16a6.1,6.1,0,0,0,1,.1,5.76,5.76,0,0,0,5.68-4.88.81.81,0,0,0-.06-.41A4,4,0,0,0,25,16c1.09-.33,3.86-1.09,5.42-1.52a1.06,1.06,0,0,1,.84,1.92Zm-2.86-7.81a3.61,3.61,0,0,0,2.46,2.39,1.57,1.57,0,0,0-.09.23,3.8,3.8,0,0,1-.42,1.27,4,4,0,0,1-4.33,2,4.44,4.44,0,0,1-1.25-.45,4,4,0,0,1-1.7-4.51l.14-.39a3.39,3.39,0,0,1,.18-.39,3.94,3.94,0,0,1,4.73-1.89,1,1,0,0,0,.17,0A3.69,3.69,0,0,0,20.38,13.66Zm24.86,3a4,4,0,0,0-2.77.38L32.28,22.44a2.66,2.66,0,0,1-1.64.27l-4.85-.79,6.37-4a2.83,2.83,0,0,0-2.26-5.13c-1.56.43-4.35,1.2-5.46,1.53a1.87,1.87,0,0,1-1.37-3.46L32.93,6l.12-.13s2.24-1.55,6.44-.55c3.35.85,6.13,1.61,7.37,1.95Z"/></g></g></symbol>
<symbol id="i_fixed_term" xmlns="http://www.w3.org/2000/svg" viewBox="0 0 46.73 48.36"><g id="Capa_2" data-name="Capa 2"><g id="Capa_1-2" data-name="Capa 1"><path class="cls-1" d="M15.38,40.44a1.1,1.1,0,0,1-.4-.08L.83,34.66a1.1,1.1,0,0,1-.68-1,1.07,1.07,0,0,1,.69-1l5.77-2.29a1.08,1.08,0,1,1,.8,2L4.15,33.66l11.23,4.53L42.46,27.3l-8.24-3.58a1.08,1.08,0,1,1,.86-2L45.7,26.35a1.08,1.08,0,0,1,0,2l-29.89,12A1.06,1.06,0,0,1,15.38,40.44Z"/><path class="cls-1" d="M35,36.31a1.08,1.08,0,0,1-.4-2.09l7.38-3a1.08,1.08,0,0,1,.81,2l-7.38,3A1.15,1.15,0,0,1,35,36.31Z"/><path class="cls-1" d="M15.46,48.36a1,1,0,0,1-.41-.08L.67,42.43a1.08,1.08,0,0,1-.67-1l.15-4a1.09,1.09,0,0,1,1.49-1l13.82,5.54L26.23,37.6a1.08,1.08,0,0,1,1.41.6,1.1,1.1,0,0,1-.6,1.41L15.86,44.12a1.13,1.13,0,0,1-.81,0L2.26,39l-.07,1.72,13.27,5.4,29.1-11.88V30.72a1.09,1.09,0,1,1,2.17,0V35a1.07,1.07,0,0,1-.67,1L15.87,48.28A1,1,0,0,1,15.46,48.36Z"/><path class="cls-1" d="M35,40a1.08,1.08,0,0,1-1.08-1.09V32.2l-4.46-1.89a1.08,1.08,0,0,1,.84-2l5.13,2.17a1.08,1.08,0,0,1,.66,1v7.38A1.09,1.09,0,0,1,35,40Z"/><path class="cls-1" d="M26.79,43.18a1.09,1.09,0,0,1-1.09-1.09V35.43l-3.18-1.36a1.08,1.08,0,0,1,.85-2l3.84,1.64a1.08,1.08,0,0,1,.66,1v7.38A1.08,1.08,0,0,1,26.79,43.18Z"/><path class="cls-1" d="M17.17,32.09a16,16,0,1,1,16-16A16.06,16.06,0,0,1,17.17,32.09ZM17.17,2A14.07,14.07,0,1,0,31.24,16.05,14.08,14.08,0,0,0,17.17,2Z"/><ellipse class="cls-1" cx="17.17" cy="4.11" rx="1.21" ry="1.21" transform="translate(2.12 13.34) rotate(-45)"/><ellipse class="cls-1" cx="17.17" cy="27.72" rx="1.21" ry="1.21" transform="translate(-14.57 20.26) rotate(-45)"/><path class="cls-1" d="M5.52,15.28a1.22,1.22,0,1,0,1.05,1A1.23,1.23,0,0,0,5.52,15.28Z"/><path class="cls-1" d="M29.13,15.28a1.22,1.22,0,1,0,1.05,1A1.23,1.23,0,0,0,29.13,15.28Z"/><path class="cls-1" d="M12.15,22.36a1.15,1.15,0,0,1-.83-2L16,15.58V8.45a1.16,1.16,0,0,1,2.32,0v7.6a1.18,1.18,0,0,1-.33.81L13,22A1.14,1.14,0,0,1,12.15,22.36Z"/></g></g></symbol>
<symbol id="i_insurance" xmlns="http://www.w3.org/2000/svg" viewBox="0 0 59.5 75.22"><g id="Capa_2" data-name="Capa 2"><g id="Capa_1-2" data-name="Capa 1"><path class="cls-1" d="M29.75,75.22a2.27,2.27,0,0,1-.63-.08C20.43,72.77,13.44,69,8.34,63.93A29.14,29.14,0,0,1,0,43.34V11A2.36,2.36,0,0,1,1,9,50.31,50.31,0,0,1,58.48,9a2.36,2.36,0,0,1,1,2V43.31a29.26,29.26,0,0,1-9.2,21.44c-5,4.66-11.72,8.15-19.92,10.39A2.27,2.27,0,0,1,29.75,75.22Zm-25-63V43.34A24.31,24.31,0,0,0,11.7,60.55c4.39,4.37,10.46,7.67,18.05,9.82,7.17-2,13-5.1,17.31-9.11a24.49,24.49,0,0,0,7.68-17.95V12.23a45.54,45.54,0,0,0-50,0Z"/><path class="cls-1" d="M35.89,55H22.42a5.76,5.76,0,0,1-5.76-5.76V41.72A5.77,5.77,0,0,1,22.42,36H35.89a5.77,5.77,0,0,1,5.76,5.77v7.51A5.76,5.76,0,0,1,35.89,55ZM22.42,40.71a1,1,0,0,0-1,1v7.51a1,1,0,0,0,1,1H35.89a1,1,0,0,0,1-1V41.72a1,1,0,0,0-1-1Z"/><path class="cls-1" d="M36.89,40.12a2.39,2.39,0,0,1-2.38-2.38V30.6a5.36,5.36,0,1,0-10.71,0v7.14a2.38,2.38,0,1,1-4.76,0V30.6a10.12,10.12,0,1,1,20.23,0v7.14A2.39,2.39,0,0,1,36.89,40.12Z"/></g></g></symbol>
<symbol id="i_simulator" xmlns="http://www.w3.org/2000/svg" viewBox="0 0 43.29 54.67"><g id="Capa_2" data-name="Capa 2"><g id="Capa_1-2" data-name="Capa 1"><path class="cls-1" d="M38.52,0c1.43.49,2.91,1,3.62,2.42a8.78,8.78,0,0,1,1.07,3.51c.14,3.48.06,7,0,10.45,0,1.59-.27,1.85-1.84,1.85H7.51C6,18.22,5.7,17.9,5.7,16.47c0-3,0-6,0-9C5.7,6,6,5.73,7.37,5.73q14.26,0,28.54,0c1.37,0,1.64.3,1.65,1.65,0,1.58,0,3.16,0,4.74,0,.82-.2,1.5-1.17,1.48s-1.07-.67-1.06-1.44c0-1.33,0-2.66,0-4.08H8v7.83h32.9c0-.4.06-.79.06-1.18,0-2.79,0-5.59,0-8.38s-1.24-4.1-4.17-4.1H6.43c-2.89,0-4.14,1.25-4.14,4.13q0,21,0,41.9c0,2.9,1.23,4.15,4.12,4.15H36.9c2.81,0,4.07-1.28,4.07-4.09q0-12.63,0-25.26c0-.28,0-.57,0-.85,0-.81.09-1.64,1.16-1.63s1.11.86,1.11,1.66q0,13.17,0,26.35c0,3.19-1.25,4.73-4.72,6.06H4.74C1,53.23,0,51.78,0,47.65V46.07Q0,26.24,0,6.41c0-2,.4-3.74,2-5A17,17,0,0,1,4.74,0Z"/><path class="cls-1" d="M14.75,25.06c0,3-.49,3.41-3.87,3.4C8.53,28.45,8,27.71,8,24.68c0-2.49.7-3.05,3.78-3C14.14,21.65,14.76,22.35,14.75,25.06ZM12.46,24H10.32v2.19h2.14Z"/><path class="cls-1" d="M28.54,25c-.07-1.23-.2-2.69,1.09-3a8.56,8.56,0,0,1,4.55.06c1.69.6,1.73,5.27,0,5.87a8.44,8.44,0,0,1-4.65,0C28.27,27.68,28.47,26.14,28.54,25ZM33,23.93H30.82v2.21H33Z"/><path class="cls-1" d="M14.74,35.39c0,.41,0,.81,0,1.21a2.15,2.15,0,0,1-2,2.06c-.2,0-.41,0-.61,0C7.57,39,7.9,37.27,8,34a2,2,0,0,1,1.89-2,8.28,8.28,0,0,1,1.32-.08C14.22,31.87,14.77,32.42,14.74,35.39Zm-4.42-1.21v2.19h2.11V34.18Z"/><path class="cls-1" d="M28.48,35.24c0-1.18-.13-2.5,1.22-3a5.59,5.59,0,0,1,4.58.12,1.56,1.56,0,0,1,.8,1,11.07,11.07,0,0,1,0,3.94c-.63,2-2.57,1.3-4.07,1.41a2.12,2.12,0,0,1-2.34-1.52A8.08,8.08,0,0,1,28.48,35.24Zm2.31,1.12h2.13V34.2H30.79Z"/><path class="cls-1" d="M14.75,46c0,.82.17,2.27-1.13,2.57a10.37,10.37,0,0,1-4.57,0c-1.14-.27-1.49-2.65-1-4.64.3-1.19,1-1.68,2.56-1.72.53,0,1,0,1.58,0,1.79.07,2.53.85,2.54,2.64Zm-4.46.59h2.14V44.49H10.29Z"/><path class="cls-1" d="M28.52,45.45c0-2.74.55-3.29,3.35-3.28,1.17,0,2.69-.21,3,1.14a10.37,10.37,0,0,1,0,4.57c-.31,1.36-2.63,1.22-4.76.93-1.06-.14-1.56-1.09-1.57-2.51Zm2.27,1.13h2.14V44.49H30.79Z"/><path class="cls-1" d="M25.18,25.14a8.7,8.7,0,0,1-.73,2.46c-.85,1.28-4.63,1.26-5.63.06a3.29,3.29,0,0,1-.5-1.07,3.87,3.87,0,0,1-.05-.84c-.32-4.5,1.45-4.19,4.6-4.07C24.45,21.74,25,22.76,25.18,25.14Zm-2.49,1V23.93H20.57v2.22Z"/><path class="cls-1" d="M21.63,38.68c-2.81,0-3.36-.53-3.36-3.25,0-3,.52-3.55,3.36-3.55,2.6,0,3.37.65,3.37,2.81C25,38.24,24.63,38.68,21.63,38.68ZM20.58,34.2v2.17h2.1V34.2Z"/><path class="cls-1" d="M25.09,45.59a9.6,9.6,0,0,1-.39,2.18C24.21,48.93,23.09,49,22,48.94c-1.26,0-2.93.4-3.38-1.14a8.3,8.3,0,0,1,0-4.45c.5-1.65,2.27-1.12,3.59-1.18,1.06-.05,2.1.12,2.53,1.23A9.74,9.74,0,0,1,25.09,45.59Zm-4.53,1h2.11V44.49H20.56Z"/></g></g></symbol>
<symbol id="i_dream" xmlns="http://www.w3.org/2000/svg" viewBox="0 0 76.63 39.79"><g id="Capa_2" data-name="Capa 2"><g id="Capa_1-2" data-name="Capa 1"><path class="cls-1" d="M56.6,36.94H11.49a8.64,8.64,0,0,1,0-17.27h2.45a1.43,1.43,0,0,0,1.42-1.24,9.25,9.25,0,0,1,14.19-6.55,1.43,1.43,0,0,0,2.15-.82A11.16,11.16,0,0,1,49.77,5.59l.17-.17A16.92,16.92,0,0,1,52.05,3.8,14,14,0,0,0,29.53,8.62a12.11,12.11,0,0,0-16.77,8.2H11.49a11.49,11.49,0,1,0,0,23H56.6A13.8,13.8,0,0,0,67.77,34.1a17.21,17.21,0,0,1-5.37,1.17A11,11,0,0,1,56.6,36.94Z"/><path class="cls-1" d="M60.35,33.19a15,15,0,0,1-10-4.89h0A15.12,15.12,0,0,1,72.69,7.92a15.13,15.13,0,0,1-11.88,25.3ZM62.49,5.45l-.39,0a12.71,12.71,0,0,0-10,21.25h0A12.71,12.71,0,1,0,62.49,5.45Z"/><path class="cls-1" d="M67,18.52a3.82,3.82,0,0,0-1.6-1.39A16.67,16.67,0,0,0,61.78,16a3.24,3.24,0,0,1-1.3-.46A.69.69,0,0,1,60.2,15a.87.87,0,0,1,.34-.7,1.57,1.57,0,0,1,1-.29,2,2,0,0,1,1.29.39,1.92,1.92,0,0,1,.61,1.23l3.66-.21a3.85,3.85,0,0,0-1.5-2.85,5.64,5.64,0,0,0-2.92-.86v-1H60.31V11.8a6.08,6.08,0,0,0-1.46.38,3.75,3.75,0,0,0-1.69,1.36,3.31,3.31,0,0,0-.56,1.83,3.06,3.06,0,0,0,1.1,2.42,8.37,8.37,0,0,0,3.64,1.53,4.91,4.91,0,0,1,2,.73,1.15,1.15,0,0,1,.43.87,1.17,1.17,0,0,1-.45.91,1.9,1.9,0,0,1-1.28.39,2.07,2.07,0,0,1-1.71-.76,2.83,2.83,0,0,1-.49-1.38l-3.7.24a4.89,4.89,0,0,0,1.4,3.13,4.68,4.68,0,0,0,2.78,1.13v1.29H62.7V24.66a6.86,6.86,0,0,0,2.3-.5,4.21,4.21,0,0,0,1.87-1.55,4,4,0,0,0,.66-2.23A3.51,3.51,0,0,0,67,18.52Z"/></g></g></symbol>
<symbol id="i_transfer" xmlns="http://www.w3.org/2000/svg" viewBox="0 0 55.48 74.84"><g id="Capa_2" data-name="Capa 2"><g id="Capa_1-2" data-name="Capa 1"><path class="cls-1" d="M27.61,64.78q-.64,0-1.29,0l-.83,0h0a27.26,27.26,0,1,1,2.12.08Zm-.05-51a23.78,23.78,0,0,0-1.81,47.48h0l.73,0a23.78,23.78,0,1,0,2.2-47.5C28.31,13.74,27.93,13.74,27.56,13.74Z"/><path class="cls-1" d="M37.3,38.24a6.68,6.68,0,0,0-2.82-2.45,29.17,29.17,0,0,0-6.42-2A5.57,5.57,0,0,1,25.77,33a1.21,1.21,0,0,1-.5-1,1.56,1.56,0,0,1,.6-1.23,2.72,2.72,0,0,1,1.8-.51,3.49,3.49,0,0,1,2.27.68A3.49,3.49,0,0,1,31,33.18l6.44-.37a6.8,6.8,0,0,0-2.64-5,10.12,10.12,0,0,0-5.13-1.51V24.5H25.47v1.91a9.92,9.92,0,0,0-2.56.67,6.48,6.48,0,0,0-3,2.39,5.78,5.78,0,0,0-1,3.22A5.36,5.36,0,0,0,20.88,37c1.28,1.12,3.41,2,6.41,2.69a8.8,8.8,0,0,1,3.5,1.28,2,2,0,0,1,0,3.13,3.34,3.34,0,0,1-2.26.69,3.6,3.6,0,0,1-3-1.35A4.93,4.93,0,0,1,24.62,41l-6.5.41a8.56,8.56,0,0,0,2.46,5.52,8.36,8.36,0,0,0,4.89,2v2.26h4.21V49a11.88,11.88,0,0,0,4-.88A7.32,7.32,0,0,0,37,45.43a7,7,0,0,0,1.18-3.92A6.16,6.16,0,0,0,37.3,38.24Z"/><path class="cls-1" d="M27.58,74.84a37.34,37.34,0,0,1-27-11.47A1.74,1.74,0,0,1,3.1,61a34,34,0,0,0,48,.93,1.74,1.74,0,0,1,2.41,2.52A37.29,37.29,0,0,1,27.58,74.84Z"/><path class="cls-1" d="M1.74,69.06h0A1.75,1.75,0,0,1,0,67.28l.1-5.15a1.74,1.74,0,0,1,1.44-1.68l5.46-1a1.74,1.74,0,0,1,.61,3.43l-4.05.72-.07,3.72A1.75,1.75,0,0,1,1.74,69.06Z"/><path class="cls-1" d="M53.3,14.42A1.77,1.77,0,0,1,52,13.89,34,34,0,0,0,4,13a1.74,1.74,0,1,1-2.42-2.51,37.48,37.48,0,0,1,52.94,1,1.74,1.74,0,0,1-1.26,2.95Z"/><path class="cls-1" d="M47.54,15.72a1.75,1.75,0,0,1-.3-3.47l4.65-.82L52,6.35a1.75,1.75,0,0,1,3.49.07l-.13,6.51a1.73,1.73,0,0,1-1.44,1.68l-6.06,1.08A1.63,1.63,0,0,1,47.54,15.72Z"/></g></g></symbol>
<symbol id="i_living_place" xmlns="http://www.w3.org/2000/svg" viewBox="0 0 49.38 43.36"><g id="Capa_2" data-name="Capa 2"><g id="Capa_1-2" data-name="Capa 1"><path class="cls-1" d="M6.43,10.73A1.62,1.62,0,0,1,4.81,9.11V3.91A3.92,3.92,0,0,1,8.72,0h4.75a1.62,1.62,0,0,1,0,3.24H8.72a.68.68,0,0,0-.67.67v5.2A1.61,1.61,0,0,1,6.43,10.73Z"/><path class="cls-1" d="M41.26,43.36H33.71a3.62,3.62,0,0,1-3.62-3.62V30.15a0,0,0,0,0,0,0H19.72a0,0,0,0,0,0,0v9.59a3.62,3.62,0,0,1-3.62,3.62H8.72a3.92,3.92,0,0,1-3.91-3.91v-18a1.62,1.62,0,1,1,3.24,0v18a.68.68,0,0,0,.67.67h7.35a.38.38,0,0,0,.38-.38V30.15a3.27,3.27,0,0,1,3.27-3.27H30.06a3.28,3.28,0,0,1,3.27,3.27v9.59a.38.38,0,0,0,.38.38h7.55a.67.67,0,0,0,.66-.67V21.17a1.62,1.62,0,1,1,3.24,0V39.45A3.91,3.91,0,0,1,41.26,43.36Z"/><path class="cls-1" d="M47.76,20.49a1.59,1.59,0,0,1-1-.32l-21.6-16a.75.75,0,0,0-.88,0L2.57,19.78a1.62,1.62,0,0,1-1.9-2.62L22.41,1.49a4,4,0,0,1,4.71,0l21.6,16.05a1.63,1.63,0,0,1,.34,2.27A1.64,1.64,0,0,1,47.76,20.49Z"/></g></g></symbol>
<symbol id="i_debit_card" xmlns="http://www.w3.org/2000/svg" viewBox="0 0 150 96"><g id="Capa_2" data-name="Capa 2"><g id="Capa_1-2" data-name="Capa 1"><path d="M138.17,0H11.83C5.29,0,0,5.79,0,12.93V83.07C0,90.21,5.29,96,11.83,96H138.17C144.71,96,150,90.21,150,83.07V12.93C150,5.79,144.71,0,138.17,0ZM16.8,5H133.2c6,0,10.89,5.19,10.89,11.58V18H5.91V16.58C5.91,10.19,10.78,5,16.8,5ZM133.2,91H16.8c-6,0-10.89-5.19-10.89-11.58V38H144.09V79.42C144.09,85.81,139.22,91,133.2,91Z"/><rect x="64.5" y="62.22" width="22" height="7" rx="2.62"/><rect x="90" y="62.22" width="22" height="7" rx="2.62"/><rect x="115.5" y="62.22" width="22" height="7" rx="2.62"/><circle cx="41.5" cy="65.72" r="13"/><path d="M23.5,65.72A13,13,0,0,1,31,54a12.82,12.82,0,0,0-5.5-1.24A13,13,0,1,0,31,77.49,13,13,0,0,1,23.5,65.72Z"/></g></g></symbol>
<symbol id="i_mission" xmlns="http://www.w3.org/2000/svg" viewBox="0 0 57.67 46.95"><g id="Capa_2" data-name="Capa 2"><g id="Capa_1-2" data-name="Capa 1"><circle class="cls-1" cx="23.16" cy="23.79" r="2.4"/><path class="cls-1" d="M23.16,27.19a3.4,3.4,0,1,1,3.4-3.4A3.41,3.41,0,0,1,23.16,27.19Zm0-4.79a1.39,1.39,0,1,0,1.39,1.39A1.39,1.39,0,0,0,23.16,22.4Z"/><path class="cls-1" d="M23.16,38a14.18,14.18,0,1,1,9.63-24.59,1,1,0,0,1,.06,1.42,1,1,0,0,1-1.43.06,12.16,12.16,0,1,0,3.91,8.93,12.35,12.35,0,0,0-.27-2.58,1,1,0,0,1,2-.42,13.71,13.71,0,0,1,.32,3A14.19,14.19,0,0,1,23.16,38Z"/><path class="cls-1" d="M23.16,47A23.16,23.16,0,0,1,6.78,7.41a23.18,23.18,0,0,1,31.66-1,1,1,0,0,1-1.33,1.51,21.15,21.15,0,1,0,7.2,15.9,21.86,21.86,0,0,0-.52-4.71,1,1,0,1,1,2-.44,23.36,23.36,0,0,1,.57,5.15A23.15,23.15,0,0,1,23.16,47Z"/><path class="cls-1" d="M48.28,15.19a1,1,0,0,1-.3,0l-5.81-1.85a1,1,0,0,1-.69-1.11l1-6.54A1,1,0,0,1,43,4.92L51.38.13a1,1,0,0,1,1.09.06,1,1,0,0,1,.39,1l-1,5.17L57,8.46a1,1,0,0,1,.63.86,1,1,0,0,1-.5.94l-8.39,4.79A1,1,0,0,1,48.28,15.19Zm-4.67-3.56,4.56,1.46,6.19-3.54-4-1.62a1,1,0,0,1-.62-1.13L50.46,3l-6,3.45Z"/><path class="cls-1" d="M23.14,24.77a1,1,0,0,1-.52-1.88L41.93,11.47a1,1,0,1,1,1,1.73L23.65,24.63A1.06,1.06,0,0,1,23.14,24.77Z"/></g></g></symbol>
<symbol id="i_vision" xmlns="http://www.w3.org/2000/svg" viewBox="0 0 68.17 42.4"><g id="Capa_2" data-name="Capa 2"><g id="Capa_1-2" data-name="Capa 1"><path class="cls-1" d="M34.7,42.4c-8.38,0-16.93-3.47-24.78-10.06A57.26,57.26,0,0,1,.21,21.9a1.27,1.27,0,0,1,0-1.4A56.89,56.89,0,0,1,9.92,10.06C18,3.25,26.91-.24,35.55,0c8,.22,16.09,3.85,23.52,10.48a55.59,55.59,0,0,1,8.89,10,1.24,1.24,0,0,1,0,1.36,55.35,55.35,0,0,1-8.89,10C51.64,38.54,43.5,42.16,35.55,42.38ZM2.79,21.2c2.64,3.53,15.35,19.18,32.69,18.68C51.36,39.44,63,24.59,65.39,21.2,63,17.81,51.36,3,35.48,2.51,18.1,2,5.43,17.67,2.79,21.2Z"/><path class="cls-1" d="M34.08,40.43A19.24,19.24,0,1,1,53.32,21.2,19.26,19.26,0,0,1,34.08,40.43Zm0-36A16.74,16.74,0,1,0,50.82,21.2,16.76,16.76,0,0,0,34.08,4.46Z"/><path class="cls-1" d="M34.08,28.77a7.58,7.58,0,1,1,7.58-7.57A7.58,7.58,0,0,1,34.08,28.77Zm0-12.65a5.08,5.08,0,1,0,5.08,5.08A5.08,5.08,0,0,0,34.08,16.12Z"/></g></g></symbol>
<symbol id="i_values" xmlns="http://www.w3.org/2000/svg" viewBox="0 0 72.65 43.97"><g id="Capa_2" data-name="Capa 2"><g id="Capa_1-2" data-name="Capa 1"><path class="cls-1" d="M55.67,6.48l4.78-2.21a.59.59,0,0,1,.78.3l10.3,23.18a.59.59,0,0,1-.29.77l-4.77,2.21a.59.59,0,0,1-.78-.3L55.38,7.25A.59.59,0,0,1,55.67,6.48Z"/><path class="cls-1" d="M56.51,9.6l-3.16,1.61S46.39,7.39,45,7,41.19,4.85,39,5.82c-5.61,2.47-7.64,0-10.33,4.49A43.29,43.29,0,0,1,24,16.69.84.84,0,0,0,24.3,18a8.06,8.06,0,0,0,8.39-1c2-2,2.47-2,2.47-2s3.6.9,5.39-.9"/><path class="cls-1" d="M64.25,27.11l-2.14.05a22.14,22.14,0,0,1-4.94,3.59"/><path class="cls-1" d="M38.07,15.31l19.22,16a3.15,3.15,0,0,1,.41,4.42h0a3.14,3.14,0,0,1-4.42.4L41,25.81"/><path class="cls-1" d="M41,25.81l10.84,9a2.68,2.68,0,0,1,.35,3.78h0a2.68,2.68,0,0,1-3.78.35l-11-9.11"/><path class="cls-1" d="M37.41,29.85l10.12,8.49a1.22,1.22,0,0,1,.16,1.72l-.26.31a3.74,3.74,0,0,1-5.27.49l-7.9-6.52"/><rect class="cls-1" x="17.05" y="23.88" width="5.75" height="10.07" rx="2.87" transform="translate(23.59 -6.01) rotate(40.56)"/><rect class="cls-1" x="21.12" y="28.6" width="5.75" height="8.79" rx="2.7" transform="translate(27.22 -7.68) rotate(40.56)"/><rect class="cls-1" x="25.61" y="32.2" width="5.75" height="8.79" rx="2.7" transform="translate(30.64 -9.73) rotate(40.56)"/><rect class="cls-1" x="29.91" y="37.28" width="5.07" height="5.7" rx="2.53" transform="translate(33.89 -11.46) rotate(40.56)"/><path class="cls-1" d="M41.28,40.13a5.1,5.1,0,0,1-4.1,2.52,4,4,0,0,1-2.49-1.26"/><polyline class="cls-1" points="16.67 28.3 11.36 24.01 8.66 24.46"/><line class="cls-1" x1="15.91" y1="6.95" x2="33.86" y2="7.05"/><path class="cls-1" d="M12.2,1.12,17,3.32a.59.59,0,0,1,.29.77L7.07,27.4a.58.58,0,0,1-.78.29L1.4,25.37a.59.59,0,0,1-.29-.77L11.42,1.41A.58.58,0,0,1,12.2,1.12Z"/></g></g></symbol>
</svg>