<svg xmlns="http://www.w3.org/2000/svg" viewBox="0 0 269.43 112.25"><defs><style>.cls-1{fill:#8292b3;}</style></defs><title>1-primary</title><g id="Capa_2" data-name="Capa 2"><g id="Capa_1-2" data-name="Capa 1"><path class="cls-1" d="M0,98.67c0-7.13,5.48-12.36,12.82-12.33a11.83,11.83,0,0,1,8.89,3.59l-1.64,1.63a9.65,9.65,0,0,0-7.19-2.92,10.09,10.09,0,1,0-.09,20.17A9.53,9.53,0,0,0,20,105.92l1.63,1.65a11.9,11.9,0,0,1-9,3.54C5.37,111.07,0,105.8,0,98.67Z"/><path class="cls-1" d="M42.53,92.74,42.44,111H40.07l0-3.34a7.29,7.29,0,0,1-6.59,3.48c-4.66,0-7.71-2.64-7.68-7.9l.05-10.6h2.47L28.29,103c0,3.9,2,5.89,5.46,5.91,3.83,0,6.24-2.44,6.26-6.62l.05-9.6Z"/><path class="cls-1" d="M65.33,102.76,50,102.69c.26,3.83,3.17,6.38,7.17,6.4a7.22,7.22,0,0,0,5.61-2.37l1.39,1.6a9,9,0,0,1-7.08,3c-5.7,0-9.58-3.94-9.55-9.36s3.83-9.27,9-9.25,8.85,3.83,8.82,9.33C65.36,102.21,65.33,102.49,65.33,102.76ZM50,100.85l13,.06a6.5,6.5,0,0,0-13-.06Z"/><path class="cls-1" d="M87.24,100.64l0,10.61H84.72l0-10.37c0-3.86-2-5.85-5.46-5.87-3.93,0-6.42,2.41-6.43,6.58l0,9.6H70.36l.09-18.29h2.36v3.37c1.33-2.22,3.8-3.49,7-3.48C84.22,92.8,87.27,95.39,87.24,100.64Z"/><path class="cls-1" d="M103.54,110.21a5.83,5.83,0,0,1-3.86,1.27c-3.45,0-5.35-2-5.34-5.34l.06-11.06-3.27,0V93l3.27,0,0-4h2.46v4l5.56,0v2.08l-5.56,0L96.81,106c0,2.15,1.1,3.34,3.15,3.35a4.08,4.08,0,0,0,2.72-.92Z"/><path class="cls-1" d="M121.88,100.07l0,11.34h-2.37l0-2.85c-1.13,1.87-3.29,3-6.31,3-4.14,0-6.67-2.19-6.66-5.36,0-2.81,1.84-5.17,7.09-5.15l5.81,0V100c0-3.13-1.75-4.84-5.16-4.86a9.29,9.29,0,0,0-6.09,2.13l-1.11-1.85a11.63,11.63,0,0,1,7.46-2.44C119.24,93,121.9,95.34,121.88,100.07Zm-2.5,5.84,0-3-5.74,0c-3.55,0-4.7,1.37-4.71,3.24,0,2.13,1.69,3.46,4.61,3.47A5.85,5.85,0,0,0,119.38,105.91Z"/><path class="cls-1" d="M153.47,105.06,139.9,105l-3,6.49h-2.68l11.25-24.29h2.54l11,24.4-2.71,0Zm-.93-2.09-5.78-13.11-5.91,13Z"/><path class="cls-1" d="M179.46,101.08l-.05,10.6H177l0-10.36c0-3.86-2-5.85-5.46-5.87-3.93,0-6.41,2.4-6.43,6.58l0,9.6-2.47,0,.12-25.8h2.47l0,10.71a7.73,7.73,0,0,1,6.87-3.3C176.44,93.24,179.49,95.82,179.46,101.08Z"/><path class="cls-1" d="M184.39,102.56a9.31,9.31,0,1,1,9.28,9.36A9,9,0,0,1,184.39,102.56Zm16.11.08c0-4.28-2.86-7.15-6.75-7.17s-6.83,2.82-6.85,7.1,2.88,7.14,6.78,7.16S200.47,106.91,200.5,102.64Z"/><path class="cls-1" d="M217.3,93.43v2.4c-.21,0-.42,0-.59,0-3.83,0-6.17,2.41-6.19,6.72l0,9.32H208l.08-18.3,2.37,0,0,3.58C211.59,94.69,213.93,93.41,217.3,93.43Z"/><path class="cls-1" d="M231,93.49l0,2.4c-.2,0-.41,0-.59,0-3.82,0-6.16,2.4-6.18,6.71l-.05,9.32h-2.47l.09-18.29h2.36v3.58C225.26,94.75,227.59,93.48,231,93.49Z"/><path class="cls-1" d="M233.36,102.79a9.3,9.3,0,1,1,9.27,9.36A9,9,0,0,1,233.36,102.79Zm16.1.08c0-4.28-2.86-7.15-6.75-7.17s-6.83,2.82-6.85,7.1,2.89,7.15,6.78,7.16S249.44,107.14,249.46,102.87Z"/><path class="cls-1" d="M254.43,110l1.12-1.94a11.08,11.08,0,0,0,6.5,2.08c3.47,0,4.9-1.16,4.91-3,0-4.76-11.85-1.06-11.82-8.3,0-3,2.6-5.2,7.26-5.18a12.36,12.36,0,0,1,6.46,1.74l-1.09,2a9.36,9.36,0,0,0-5.38-1.59c-3.3,0-4.77,1.27-4.78,3,0,4.93,11.86,1.27,11.82,8.29,0,3.17-2.8,5.21-7.57,5.19A12.29,12.29,0,0,1,254.43,110Z"/><path class="cls-1" d="M152.56,33.08a3.32,3.32,0,0,0-3.37-3.35,3.34,3.34,0,0,0,.06,6.67A3.3,3.3,0,0,0,152.56,33.08Z"/><path class="cls-1" d="M116.09,72.81a4.83,4.83,0,0,1-4.52-2.74c-.88-1.68-1.79-3.39-2.66-5-1.49-2.8-3-5.7-4.49-8.59a44.85,44.85,0,0,1-4.13-10.07A25.73,25.73,0,0,1,103.9,25.9a26.9,26.9,0,0,1,8.64-8.26,29.34,29.34,0,0,1,3.53-1.74,2,2,0,1,1,1.56,3.64,26.68,26.68,0,0,0-3,1.46,23.16,23.16,0,0,0-7.41,7,21.65,21.65,0,0,0-3.08,17.43,42.28,42.28,0,0,0,3.8,9.18c1.46,2.85,3,5.74,4.46,8.53l2.68,5.06a.93.93,0,0,0,1,.62h6c.73,0,.88-.16.9-.9s0-1.29,0-1.92v-.87a2,2,0,0,1,2.15-2l1.76.17c1.27.13,2.46.25,3.64.29,1.34,0,2.69,0,4.12-.12l.71,0a2.8,2.8,0,0,1,3.05,1.95c.19.52.43,1,.68,1.6.17.38.35.77.52,1.17s.36.64,1,.64H143c1.27,0,2.58,0,3.87,0,.64,0,.82-.19.83-.86,0-.39,0-.78,0-1.17,0-1.55,0-3.15,0-4.7a3.7,3.7,0,0,1,1.85-3.48,24.06,24.06,0,0,0,7.94-8c.37-.62.7-1.31,1.05-2,.24-.51.49-1,.77-1.55a4,4,0,0,1,1.52-1.61c1.16-.65,2.41-1.31,4.05-2.13.29-.15.4-.24.4-.69q0-1.44,0-2.88c0-1.53,0-3.11,0-4.66a1.35,1.35,0,0,0-.08-.55,1.5,1.5,0,0,0-.57-.09H163.5c-.58,0-1.19,0-1.81,0a2.78,2.78,0,0,1-2.4-1.66,23.3,23.3,0,0,0-6.39-9.06,4.28,4.28,0,0,1-.31-.32l-.06-.07a2,2,0,0,1-.31-2.2l.72-1.46,2-4.12v0a4.85,4.85,0,0,0,.28-.65.2.2,0,0,0,0-.15.2.2,0,0,0-.14-.08c-5.14-.49-9.19.14-12.75,2a3.94,3.94,0,0,1-3,.33,24.26,24.26,0,0,0-6.46-.84,2,2,0,0,1,0-4h0a28.39,28.39,0,0,1,7.51,1h0l.08,0c4.26-2.19,9-3,14.93-2.39a4.16,4.16,0,0,1,3.65,5.1,6.56,6.56,0,0,1-.56,1.44v0c-.67,1.38-1.34,2.75-2,4.13l-.08.17a27.32,27.32,0,0,1,6.22,8.92h2a4.29,4.29,0,0,1,4.57,4.57v7.56a4.5,4.5,0,0,1-2.57,4.22c-1.55.78-2.74,1.4-3.82,2a.09.09,0,0,0,0,.06c-.24.44-.46.91-.69,1.39-.38.78-.76,1.59-1.24,2.37A27.84,27.84,0,0,1,151.62,62h0c.06,1.64,0,3.28,0,4.87,0,.38,0,.77,0,1.16a4.55,4.55,0,0,1-4.76,4.78h-6.19A4.77,4.77,0,0,1,136,69.73c-.14-.34-.3-.69-.46-1s-.36-.79-.53-1.2H135c-1.45.09-3,.17-4.48.12-1.16,0-2.33-.14-3.46-.26,0,.24,0,.47,0,.71a4.6,4.6,0,0,1-4.84,4.76h-2.61c-1.12,0-2.28,0-3.41,0Z"/><g id="_4A6FX9" data-name="4A6FX9"><path class="cls-1" d="M123.72,21.41h0a10.61,10.61,0,0,1-7.57-3.16,10.77,10.77,0,0,1-3.12-7.6,10.48,10.48,0,0,1,3.1-7.48A10.72,10.72,0,0,1,123.72,0h0a10.75,10.75,0,0,1,10.69,10.69,10.72,10.72,0,0,1-10.72,10.72Zm0-3.87h0a6.8,6.8,0,0,0,4.85-2,6.69,6.69,0,0,0,2-4.82,6.87,6.87,0,0,0-6.83-6.83h0a6.85,6.85,0,0,0-4.88,2,6.62,6.62,0,0,0-2,4.73,6.84,6.84,0,0,0,6.83,6.91Z"/></g><g id="_4A6FX9-2" data-name="4A6FX9"><path class="cls-1" d="M123.72,28.1h-.06a17.5,17.5,0,0,1-8.2-2.07,1.94,1.94,0,0,1,1.83-3.41,13.6,13.6,0,0,0,17.27-3.79,1.93,1.93,0,1,1,3.08,2.34A17.53,17.53,0,0,1,123.72,28.1Z"/></g></g></g></svg>