<svg xmlns="http://www.w3.org/2000/svg" viewBox="0 0 269.13 112.12"><defs><style>.cls-1{fill:#fff;}</style></defs><title>1-secundary</title><g id="Capa_2" data-name="Capa 2"><g id="Capa_1-2" data-name="Capa 1"><path class="cls-1" d="M0,98.56c0-7.12,5.48-12.34,12.81-12.31a11.79,11.79,0,0,1,8.87,3.59L20,91.46a9.64,9.64,0,0,0-7.18-2.91,10.07,10.07,0,1,0-.09,20.14,9.54,9.54,0,0,0,7.2-2.88l1.63,1.64a11.83,11.83,0,0,1-9,3.53C5.36,111,0,105.68,0,98.56Z"/><path class="cls-1" d="M42.47,92.65l-.08,18.26H40v-3.33a7.26,7.26,0,0,1-6.58,3.48c-4.65,0-7.7-2.65-7.67-7.89l.05-10.59H28.3l0,10.35c0,3.89,2,5.88,5.46,5.89,3.82,0,6.22-2.43,6.24-6.6l0-9.59Z"/><path class="cls-1" d="M65.25,102.65,50,102.58c.26,3.82,3.16,6.37,7.16,6.39a7.21,7.21,0,0,0,5.6-2.37l1.38,1.6a9,9,0,0,1-7.06,3c-5.7,0-9.57-3.94-9.55-9.36s3.83-9.25,9-9.23,8.84,3.83,8.82,9.32C65.29,102.1,65.25,102.37,65.25,102.65ZM50,100.74l13,.06a6.49,6.49,0,0,0-13-.06Z"/><path class="cls-1" d="M87.14,100.53l0,10.59H84.63l.05-10.35c0-3.85-2-5.84-5.46-5.86-3.93,0-6.41,2.4-6.43,6.57l0,9.59H70.28l.09-18.27h2.36l0,3.37c1.33-2.22,3.81-3.49,7-3.48C84.12,92.7,87.17,95.29,87.14,100.53Z"/><path class="cls-1" d="M103.42,110.09a5.9,5.9,0,0,1-3.86,1.27c-3.44,0-5.34-2-5.32-5.34l.05-11H91V92.87l3.26,0,0-4,2.47,0,0,4,5.55,0V95l-5.55,0-.05,10.91c0,2.15,1.09,3.34,3.14,3.35a4.08,4.08,0,0,0,2.71-.92Z"/><path class="cls-1" d="M121.74,100l0,11.32h-2.36v-2.85c-1.12,1.87-3.28,3-6.3,3-4.13,0-6.66-2.18-6.64-5.34,0-2.82,1.83-5.17,7.07-5.15l5.8,0V99.85c0-3.13-1.75-4.84-5.16-4.85A9.31,9.31,0,0,0,108,97.12l-1.11-1.84a11.6,11.6,0,0,1,7.45-2.44C119.1,92.87,121.77,95.24,121.74,100Zm-2.49,5.82v-3l-5.73,0c-3.54,0-4.69,1.37-4.7,3.25,0,2.12,1.68,3.44,4.6,3.46A5.85,5.85,0,0,0,119.25,105.79Z"/><path class="cls-1" d="M153.29,104.94l-13.54-.06-2.95,6.48h-2.67l11.23-24.26h2.53l11,24.36h-2.71Zm-.92-2.09-5.78-13.08-5.89,13Z"/><path class="cls-1" d="M179.26,101l0,10.59h-2.47l0-10.35c0-3.86-2-5.85-5.46-5.86-3.92,0-6.4,2.4-6.42,6.57l0,9.58H162.4l.12-25.77H165l-.05,10.7c1.36-2.12,3.76-3.32,6.86-3.31C176.24,93.14,179.29,95.72,179.26,101Z"/><path class="cls-1" d="M184.19,102.45a9.29,9.29,0,1,1,9.26,9.35A9,9,0,0,1,184.19,102.45Zm16.08.07c0-4.27-2.85-7.13-6.74-7.15s-6.82,2.82-6.84,7.09,2.88,7.13,6.77,7.15S200.25,106.8,200.27,102.52Z"/><path class="cls-1" d="M217.06,93.33l0,2.39c-.2,0-.41,0-.59,0-3.82,0-6.16,2.4-6.18,6.71l0,9.3h-2.47l.09-18.27,2.36,0V97C211.35,94.59,213.69,93.31,217.06,93.33Z"/><path class="cls-1" d="M230.71,93.39v2.4c-.21,0-.42,0-.6,0-3.82,0-6.15,2.4-6.17,6.71l-.05,9.31h-2.46l.08-18.27h2.36v3.58C225,94.65,227.34,93.38,230.71,93.39Z"/><path class="cls-1" d="M233.1,102.68a9.29,9.29,0,1,1,9.26,9.35A9,9,0,0,1,233.1,102.68Zm16.08.07c0-4.27-2.85-7.13-6.74-7.15s-6.82,2.82-6.84,7.09,2.88,7.13,6.77,7.15S249.16,107,249.18,102.75Z"/><path class="cls-1" d="M254.15,109.83l1.12-1.94a11,11,0,0,0,6.48,2.08c3.48,0,4.91-1.16,4.91-3,0-4.75-11.83-1.06-11.8-8.28,0-3,2.59-5.2,7.25-5.18a12.35,12.35,0,0,1,6.45,1.73l-1.09,2a9.35,9.35,0,0,0-5.37-1.59c-3.3,0-4.77,1.26-4.77,3,0,4.93,11.83,1.27,11.8,8.29,0,3.16-2.8,5.19-7.56,5.17A12.17,12.17,0,0,1,254.15,109.83Z"/><path class="cls-1" d="M152.39,33A3.32,3.32,0,0,0,149,29.7a3.33,3.33,0,0,0,.05,6.66A3.3,3.3,0,0,0,152.39,33Z"/><path class="cls-1" d="M116,72.73A4.81,4.81,0,0,1,111.45,70c-.88-1.68-1.79-3.39-2.66-5-1.49-2.8-3-5.7-4.49-8.58a44.63,44.63,0,0,1-4.12-10.07,25.7,25.7,0,0,1,3.6-20.44,27,27,0,0,1,8.63-8.25A29,29,0,0,1,116,15.88a2,2,0,0,1,1.55,3.64,27.94,27.94,0,0,0-3,1.45,22.91,22.91,0,0,0-7.4,7A21.58,21.58,0,0,0,104,45.41a41.55,41.55,0,0,0,3.79,9.18c1.45,2.85,3,5.73,4.46,8.52.88,1.65,1.78,3.37,2.67,5.06a.93.93,0,0,0,1,.61h3.46c.86,0,1.71,0,2.57,0s.89-.15.91-.9,0-1.28,0-1.91v-.88a2,2,0,0,1,2.15-2l1.76.17c1.26.13,2.46.25,3.64.29,1.33,0,2.68,0,4.11-.12l.71,0a2.81,2.81,0,0,1,3.05,2A17.37,17.37,0,0,0,139,67c.17.38.34.76.51,1.17a.87.87,0,0,0,1,.64h6.16c.65,0,.83-.19.83-.85,0-.39,0-.78,0-1.17,0-1.55,0-3.15,0-4.7a3.66,3.66,0,0,1,1.85-3.47,24.16,24.16,0,0,0,7.92-7.95,21.58,21.58,0,0,0,1-2c.24-.5.49-1,.77-1.54a4,4,0,0,1,1.52-1.61c1.16-.65,2.41-1.3,4-2.13.29-.15.39-.24.39-.68V39.75c0-1.53,0-3.11,0-4.66a1.35,1.35,0,0,0-.08-.55,1.62,1.62,0,0,0-.57-.09h-1.08c-.58,0-1.19,0-1.81,0a2.78,2.78,0,0,1-2.4-1.66,23.21,23.21,0,0,0-6.38-9l-.31-.33a.17.17,0,0,0-.06-.06,2,2,0,0,1-.31-2.2l.72-1.47q1-2,2-4.11v0a4.35,4.35,0,0,0,.28-.65.21.21,0,0,0,0-.14.2.2,0,0,0-.14-.09c-5.13-.48-9.18.14-12.74,2a3.91,3.91,0,0,1-3,.33,24.24,24.24,0,0,0-6.45-.84,2,2,0,0,1,0-4h0a28.45,28.45,0,0,1,7.51,1h0l.08,0c4.26-2.19,9-3,14.92-2.39a4.16,4.16,0,0,1,3.65,5.09,7.74,7.74,0,0,1-.56,1.44l0,0-2,4.12-.09.18a27.35,27.35,0,0,1,6.22,8.9h2A4.28,4.28,0,0,1,169,35.07c0,1.56,0,3.15,0,4.68v2.87a4.5,4.5,0,0,1-2.56,4.22c-1.56.78-2.74,1.4-3.82,2a.21.21,0,0,0,0,.06c-.24.45-.46.91-.69,1.4-.38.78-.76,1.58-1.24,2.37a27.94,27.94,0,0,1-9.2,9.25h0c.05,1.63,0,3.27,0,4.86,0,.39,0,.77,0,1.16a4.54,4.54,0,0,1-4.75,4.78h-6.18a4.77,4.77,0,0,1-4.65-3.08c-.14-.34-.3-.68-.46-1.05s-.36-.78-.53-1.2h-.08c-1.45.08-2.95.17-4.47.12-1.16,0-2.33-.15-3.46-.26,0,.23,0,.47,0,.7A4.59,4.59,0,0,1,122,72.72h-2.6c-1.12,0-2.28,0-3.41,0Z"/><g id="_4A6FX9" data-name="4A6FX9"><path class="cls-1" d="M123.58,21.38h0A10.64,10.64,0,0,1,116,18.23a10.84,10.84,0,0,1-3.12-7.6A10.44,10.44,0,0,1,116,3.17,10.66,10.66,0,0,1,123.58,0h0a10.74,10.74,0,0,1,10.68,10.68,10.69,10.69,0,0,1-10.71,10.7Zm0-3.86h0a6.83,6.83,0,1,0,0-13.65h0a6.85,6.85,0,0,0-4.87,2,6.58,6.58,0,0,0-2,4.72,6.83,6.83,0,0,0,6.82,6.9Z"/></g><g id="_4A6FX9-2" data-name="4A6FX9"><path class="cls-1" d="M123.58,28.07h0a17.5,17.5,0,0,1-8.2-2.07,1.93,1.93,0,1,1,1.83-3.4,13.61,13.61,0,0,0,17.25-3.79,1.93,1.93,0,0,1,3.08,2.34A17.55,17.55,0,0,1,123.58,28.07Z"/></g></g></g></svg>