<svg xmlns="http://www.w3.org/2000/svg" viewBox="0 0 228.26 100.77"><defs><style>.cls-1{fill:#8292b3;}</style></defs><title>2-primary</title><g id="Capa_2" data-name="Capa 2"><g id="Capa_1-2" data-name="Capa 1"><path class="cls-1" d="M19.16,94.06H5.6l-2.92,6.5H0L11.13,76.22h2.54L24.8,100.56H22.08ZM18.22,92,12.38,78.89,6.54,92Z"/><path class="cls-1" d="M45.14,90v10.61H42.67V90.2c0-3.86-2-5.85-5.49-5.85-3.93,0-6.4,2.44-6.4,6.61v9.6H28.31V74.76h2.47V85.47a7.72,7.72,0,0,1,6.85-3.34C42.08,82.13,45.14,84.7,45.14,90Z"/><path class="cls-1" d="M50.08,91.41a9,9,0,0,1,9.32-9.28,9.3,9.3,0,0,1,0,18.6A9,9,0,0,1,50.08,91.41Zm16.1,0c0-4.27-2.89-7.13-6.78-7.13s-6.82,2.86-6.82,7.13,2.92,7.13,6.82,7.13S66.18,95.69,66.18,91.41Z"/><path class="cls-1" d="M82.94,82.13v2.4c-.21,0-.42,0-.59,0-3.83,0-6.16,2.44-6.16,6.75v9.32H73.72V82.27h2.37v3.58C77.24,83.41,79.57,82.13,82.94,82.13Z"/><path class="cls-1" d="M96.6,82.13v2.4c-.2,0-.41,0-.59,0-3.82,0-6.15,2.44-6.15,6.75v9.32H87.39V82.27h2.36v3.58C90.9,83.41,93.23,82.13,96.6,82.13Z"/><path class="cls-1" d="M99,91.41a9.3,9.3,0,1,1,9.32,9.32A9,9,0,0,1,99,91.41Zm16.1,0c0-4.27-2.89-7.13-6.78-7.13s-6.82,2.86-6.82,7.13,2.92,7.13,6.82,7.13S115.14,95.69,115.14,91.41Z"/><path class="cls-1" d="M130,97.6l1-2a11.9,11.9,0,0,0,8,3c4.56,0,6.54-1.91,6.54-4.31,0-6.68-15-2.58-15-11.59,0-3.58,2.78-6.67,9-6.67a13.8,13.8,0,0,1,7.55,2.15l-.87,2.06a12.51,12.51,0,0,0-6.68-2c-4.45,0-6.43,2-6.43,4.42,0,6.67,15,2.64,15,11.51,0,3.58-2.85,6.64-9.08,6.64C135.38,100.77,131.8,99.48,130,97.6Z"/><path class="cls-1" d="M151.34,91.41a9.31,9.31,0,1,1,9.32,9.32A9,9,0,0,1,151.34,91.41Zm16.1,0c0-4.27-2.89-7.13-6.78-7.13s-6.82,2.86-6.82,7.13,2.92,7.13,6.82,7.13S167.44,95.69,167.44,91.41Z"/><path class="cls-1" d="M191.82,90v10.61h-2.47V90.2c0-3.86-2-5.85-5.5-5.85-3.93,0-6.4,2.44-6.4,6.61v9.6H175V82.27h2.36v3.37c1.32-2.23,3.79-3.51,7-3.51C188.76,82.13,191.82,84.7,191.82,90ZM179.37,79.1h-1.5c.07-2.33,1.29-3.82,3.13-3.82,2.16,0,3.2,2.36,4.56,2.36,1,0,1.74-.83,1.81-2.15h1.49c-.07,2.26-1.28,3.75-3.13,3.75-2.15,0-3.16-2.36-4.55-2.36C180.13,76.88,179.44,77.71,179.37,79.1Z"/><path class="cls-1" d="M212.34,89.22v11.34H210V97.71c-1.11,1.88-3.27,3-6.29,3-4.14,0-6.68-2.15-6.68-5.32,0-2.81,1.81-5.18,7.06-5.18h5.81V89.12c0-3.13-1.78-4.84-5.19-4.84a9.31,9.31,0,0,0-6.08,2.16l-1.12-1.84a11.62,11.62,0,0,1,7.45-2.47C209.66,82.13,212.34,84.49,212.34,89.22Zm-2.47,5.85v-3h-5.74c-3.55,0-4.7,1.4-4.7,3.27,0,2.13,1.71,3.45,4.63,3.45A5.86,5.86,0,0,0,209.87,95.07Z"/><path class="cls-1" d="M228.26,82.13v2.4c-.21,0-.42,0-.59,0-3.83,0-6.16,2.44-6.16,6.75v9.32H219V82.27h2.37v3.58C222.56,83.41,224.89,82.13,228.26,82.13Z"/><path class="cls-1" d="M143.25,57.59H72.92a13.46,13.46,0,1,1,0-26.92h3.82A2.22,2.22,0,0,0,79,28.74a14.44,14.44,0,0,1,22.13-10.22,2.22,2.22,0,0,0,3.35-1.28A17.38,17.38,0,0,1,132.6,8.72l.27-.27a25.7,25.7,0,0,1,3.29-2.53A21.85,21.85,0,0,0,101,13.44,18.89,18.89,0,0,0,74.89,26.22h-2a17.91,17.91,0,0,0,0,35.82h70.33a21.54,21.54,0,0,0,17.41-8.87A26.45,26.45,0,0,1,152.29,55,17,17,0,0,1,143.25,57.59Z"/><path class="cls-1" d="M149.09,51.75a23.4,23.4,0,0,1-15.61-7.63h0a23.58,23.58,0,1,1,16.34,7.67Zm3.34-43.26-.61,0a19.81,19.81,0,0,0-15.55,33.13h0A19.8,19.8,0,1,0,165.54,14.9,19.66,19.66,0,0,0,152.43,8.49Z"/><path class="cls-1" d="M159.52,28.88a6.07,6.07,0,0,0-2.5-2.17A25.31,25.31,0,0,0,151.33,25a5,5,0,0,1-2-.73,1.08,1.08,0,0,1-.45-.84,1.37,1.37,0,0,1,.54-1.09,2.43,2.43,0,0,1,1.59-.44,2.67,2.67,0,0,1,3,2.52l5.71-.33a6.06,6.06,0,0,0-2.35-4.45,9,9,0,0,0-4.55-1.34V16.7H149v1.7a8.81,8.81,0,0,0-2.27.59,5.82,5.82,0,0,0-2.63,2.12,5.14,5.14,0,0,0-.88,2.85A4.79,4.79,0,0,0,145,27.74a13.15,13.15,0,0,0,5.69,2.38,7.83,7.83,0,0,1,3.1,1.14,1.74,1.74,0,0,1,0,2.77,2.91,2.91,0,0,1-2,.61A3.23,3.23,0,0,1,149,33.45a4.47,4.47,0,0,1-.76-2.14l-5.76.36a7.59,7.59,0,0,0,2.18,4.9A7.42,7.42,0,0,0,149,38.33v2h3.73V38.45a10.7,10.7,0,0,0,3.58-.78,6.56,6.56,0,0,0,2.92-2.41,6.26,6.26,0,0,0,1-3.48A5.5,5.5,0,0,0,159.52,28.88Z"/></g></g></svg>