<svg xmlns="http://www.w3.org/2000/svg" viewBox="0 0 228 100.66"><defs><style>.cls-1{fill:#fff;}</style></defs><title>2-secundary</title><g id="Capa_2" data-name="Capa 2"><g id="Capa_1-2" data-name="Capa 1"><path class="cls-1" d="M19.14,94H5.59l-2.92,6.5H0L11.11,76.14h2.54l11.11,24.31H22.05Zm-.94-2.08L12.36,78.81,6.53,91.87Z"/><path class="cls-1" d="M45.08,89.86v10.59H42.62V90.1c0-3.86-2-5.84-5.49-5.84-3.92,0-6.39,2.44-6.39,6.6v9.59H28.27V74.68h2.47v10.7A7.73,7.73,0,0,1,37.58,82C42,82,45.08,84.61,45.08,89.86Z"/><path class="cls-1" d="M50,91.32A9,9,0,0,1,59.33,82a9.29,9.29,0,0,1,0,18.58A9,9,0,0,1,50,91.32Zm16.08,0c0-4.28-2.88-7.12-6.77-7.12S52.52,87,52.52,91.32s2.92,7.12,6.81,7.12S66.1,95.59,66.1,91.32Z"/><path class="cls-1" d="M82.84,82v2.4c-.21,0-.41,0-.59,0-3.82,0-6.14,2.43-6.14,6.74v9.31H73.64V82.18H76v3.58C77.15,83.33,79.47,82,82.84,82Z"/><path class="cls-1" d="M96.49,82v2.4c-.2,0-.41,0-.59,0-3.82,0-6.14,2.43-6.14,6.74v9.31H87.29V82.18h2.36v3.58C90.8,83.33,93.13,82,96.49,82Z"/><path class="cls-1" d="M98.93,91.32a9.29,9.29,0,1,1,9.31,9.3A9,9,0,0,1,98.93,91.32Zm16.08,0c0-4.28-2.88-7.12-6.77-7.12s-6.81,2.84-6.81,7.12,2.92,7.12,6.81,7.12S115,95.59,115,91.32Z"/><path class="cls-1" d="M129.84,97.5l1-2a12,12,0,0,0,8,3c4.55,0,6.53-1.91,6.53-4.31,0-6.67-15-2.57-15-11.56,0-3.58,2.78-6.67,9-6.67a13.74,13.74,0,0,1,7.54,2.15l-.87,2a12.53,12.53,0,0,0-6.67-2c-4.44,0-6.42,2-6.42,4.41,0,6.67,15,2.64,15,11.49,0,3.58-2.85,6.64-9.07,6.64C135.23,100.66,131.65,99.37,129.84,97.5Z"/><path class="cls-1" d="M151.17,91.32a9.29,9.29,0,1,1,9.31,9.3A9,9,0,0,1,151.17,91.32Zm16.08,0c0-4.28-2.88-7.12-6.77-7.12s-6.81,2.84-6.81,7.12,2.92,7.12,6.81,7.12S167.25,95.59,167.25,91.32Z"/><path class="cls-1" d="M191.6,89.86v10.59h-2.47V90.1c0-3.86-2-5.84-5.48-5.84-3.93,0-6.39,2.44-6.39,6.6v9.59h-2.47V82.18h2.36v3.37c1.32-2.22,3.79-3.51,6.95-3.51C188.54,82,191.6,84.61,191.6,89.86ZM179.17,79h-1.5c.07-2.33,1.29-3.82,3.13-3.82,2.15,0,3.19,2.36,4.55,2.36,1,0,1.74-.83,1.8-2.15h1.5c-.07,2.26-1.29,3.75-3.13,3.75-2.15,0-3.16-2.36-4.55-2.36C179.93,76.8,179.24,77.63,179.17,79Z"/><path class="cls-1" d="M212.09,89.13v11.32h-2.36V97.6c-1.11,1.88-3.26,3-6.28,3-4.14,0-6.67-2.15-6.67-5.31,0-2.81,1.8-5.18,7.05-5.18h5.8V89c0-3.12-1.77-4.82-5.18-4.82a9.28,9.28,0,0,0-6.07,2.15l-1.12-1.84A11.64,11.64,0,0,1,204.7,82C209.42,82,212.09,84.4,212.09,89.13ZM209.63,95V92H203.9c-3.54,0-4.69,1.38-4.69,3.26,0,2.12,1.7,3.44,4.62,3.44A5.84,5.84,0,0,0,209.63,95Z"/><path class="cls-1" d="M228,82v2.4c-.2,0-.41,0-.59,0-3.82,0-6.14,2.43-6.14,6.74v9.31H218.8V82.18h2.36v3.58C222.31,83.33,224.64,82,228,82Z"/><path class="cls-1" d="M143.09,57.53H72.83a13.45,13.45,0,0,1,0-26.89h3.83a2.22,2.22,0,0,0,2.2-1.93A14.41,14.41,0,0,1,101,18.5a2.23,2.23,0,0,0,3.36-1.28,17.36,17.36,0,0,1,28.13-8.51c.1-.09.18-.19.27-.27A27.31,27.31,0,0,1,136,5.91a21.82,21.82,0,0,0-35.07,7.52A18.86,18.86,0,0,0,74.81,26.19h-2a17.89,17.89,0,0,0,0,35.78h70.26a21.53,21.53,0,0,0,17.39-8.86,26.33,26.33,0,0,1-8.36,1.81A17,17,0,0,1,143.09,57.53Z"/><path class="cls-1" d="M148.93,51.69a23.41,23.41,0,0,1-15.6-7.62h0a23.55,23.55,0,1,1,16.32,7.66Zm3.33-43.21-.61,0a19.78,19.78,0,0,0-15.53,33.09h0a19.78,19.78,0,1,0,16.14-33Z"/><path class="cls-1" d="M159.34,28.85a5.94,5.94,0,0,0-2.5-2.17A25,25,0,0,0,151.16,25a4.86,4.86,0,0,1-2-.72,1.07,1.07,0,0,1-.44-.84,1.39,1.39,0,0,1,.53-1.09,2.43,2.43,0,0,1,1.59-.45,2.67,2.67,0,0,1,3,2.52l5.7-.33a6,6,0,0,0-2.35-4.44,8.88,8.88,0,0,0-4.54-1.34V16.68h-3.73v1.7a8.84,8.84,0,0,0-2.26.59A5.8,5.8,0,0,0,144,21.08a5.19,5.19,0,0,0-.88,2.85,4.77,4.77,0,0,0,1.71,3.78,13.17,13.17,0,0,0,5.68,2.38,7.87,7.87,0,0,1,3.1,1.13,1.82,1.82,0,0,1,.66,1.37,1.79,1.79,0,0,1-.7,1.4,2.91,2.91,0,0,1-2,.61,3.2,3.2,0,0,1-2.68-1.19,4.47,4.47,0,0,1-.76-2.13l-5.75.36a7.59,7.59,0,0,0,2.18,4.89,7.42,7.42,0,0,0,4.32,1.76v2h3.73V38.41a11,11,0,0,0,3.58-.78,6.59,6.59,0,0,0,2.91-2.41,6.26,6.26,0,0,0,1-3.48A5.49,5.49,0,0,0,159.34,28.85Z"/></g></g></svg>