<svg xmlns="http://www.w3.org/2000/svg" viewBox="0 0 312.24 106.4"><defs><style>.cls-1{fill:#8292b3;}</style></defs><title>3-primary</title><g id="Capa_2" data-name="Capa 2"><g id="Capa_1-2" data-name="Capa 1"><path class="cls-1" d="M19.16,99.72H5.6l-2.92,6.5H0L11.13,81.88h2.54L24.8,106.22H22.08Zm-.94-2.09L12.38,84.56,6.54,97.63Z"/><path class="cls-1" d="M45.14,95.61v10.61H42.67V95.86c0-3.86-2-5.84-5.49-5.84-3.93,0-6.4,2.43-6.4,6.6v9.6H28.31V80.42h2.47V91.13a7.72,7.72,0,0,1,6.85-3.34C42.08,87.79,45.14,90.36,45.14,95.61Z"/><path class="cls-1" d="M50.08,97.08a9,9,0,0,1,9.32-9.29,9.31,9.31,0,0,1,0,18.61A9,9,0,0,1,50.08,97.08Zm16.1,0c0-4.28-2.89-7.13-6.78-7.13s-6.82,2.85-6.82,7.13,2.92,7.13,6.82,7.13S66.18,101.35,66.18,97.08Z"/><path class="cls-1" d="M82.94,87.79v2.4c-.21,0-.42,0-.59,0-3.83,0-6.16,2.44-6.16,6.75v9.32H73.72V87.93h2.37v3.58C77.24,89.08,79.57,87.79,82.94,87.79Z"/><path class="cls-1" d="M96.61,87.79v2.4c-.21,0-.42,0-.6,0-3.82,0-6.15,2.44-6.15,6.75v9.32H87.39V87.93h2.36v3.58C90.9,89.08,93.23,87.79,96.61,87.79Z"/><path class="cls-1" d="M99,97.08a9.3,9.3,0,1,1,9.32,9.32A9,9,0,0,1,99,97.08Zm16.1,0c0-4.28-2.89-7.13-6.78-7.13s-6.82,2.85-6.82,7.13,2.92,7.13,6.82,7.13S115.14,101.35,115.14,97.08Z"/><path class="cls-1" d="M149.53,104v2.22H132.32V81.88H149V84.1H134.89v8.66h12.59V95H134.89v9Z"/><path class="cls-1" d="M152.24,104.14l1.12-2a11,11,0,0,0,6.5,2c3.48,0,4.9-1.18,4.9-3,0-4.77-11.86-1-11.86-8.24,0-3,2.58-5.22,7.24-5.22a12.44,12.44,0,0,1,6.47,1.7l-1.08,2a9.32,9.32,0,0,0-5.39-1.57c-3.31,0-4.77,1.29-4.77,3,0,4.94,11.86,1.21,11.86,8.24,0,3.16-2.78,5.22-7.54,5.22A12.29,12.29,0,0,1,152.24,104.14Z"/><path class="cls-1" d="M181.42,105.11a5.86,5.86,0,0,1-3.86,1.29c-3.44,0-5.36-2-5.36-5.33V90h-3.27V87.93h3.27v-4h2.47v4h5.57V90h-5.57v10.92c0,2.15,1.12,3.33,3.17,3.33a4.09,4.09,0,0,0,2.71-.93Z"/><path class="cls-1" d="M202.39,87.93v18.29H200v-3.34a7.29,7.29,0,0,1-6.58,3.52c-4.66,0-7.72-2.61-7.72-7.86V87.93h2.47V98.29c0,3.9,2,5.88,5.5,5.88,3.82,0,6.22-2.47,6.22-6.64v-9.6Z"/><path class="cls-1" d="M226,80.42v25.8h-2.36v-3.61a8,8,0,0,1-7.06,3.79c-5.22,0-9.12-3.79-9.12-9.32a8.86,8.86,0,0,1,9.12-9.29,8,8,0,0,1,6.95,3.62v-11Zm-2.43,16.66c0-4.28-2.92-7.13-6.78-7.13S210,92.8,210,97.08s2.92,7.13,6.82,7.13S223.57,101.35,223.57,97.08Z"/><path class="cls-1" d="M232.33,82.16a1.78,1.78,0,0,1,1.81-1.74,1.75,1.75,0,0,1,1.81,1.7,1.81,1.81,0,0,1-3.62,0Zm.56,5.77h2.46v18.29h-2.46Z"/><path class="cls-1" d="M256.05,94.88v11.34h-2.37v-2.85c-1.11,1.88-3.27,3-6.29,3-4.14,0-6.68-2.16-6.68-5.33,0-2.81,1.81-5.18,7.06-5.18h5.81V94.78c0-3.13-1.78-4.83-5.18-4.83a9.31,9.31,0,0,0-6.09,2.15l-1.11-1.84a11.57,11.57,0,0,1,7.44-2.47C253.37,87.79,256.05,90.15,256.05,94.88Zm-2.47,5.85v-3h-5.74c-3.55,0-4.7,1.39-4.7,3.27,0,2.12,1.71,3.44,4.63,3.44A5.86,5.86,0,0,0,253.58,100.73Z"/><path class="cls-1" d="M279.59,95.61v10.61h-2.47V95.86c0-3.86-2-5.84-5.5-5.84-3.93,0-6.39,2.43-6.39,6.6v9.6h-2.47V87.93h2.36V91.3c1.32-2.22,3.79-3.51,7-3.51C276.53,87.79,279.59,90.36,279.59,95.61Z"/><path class="cls-1" d="M295.93,105.11a5.86,5.86,0,0,1-3.86,1.29c-3.44,0-5.35-2-5.35-5.33V90h-3.27V87.93h3.27v-4h2.47v4h5.56V90h-5.56v10.92c0,2.15,1.11,3.33,3.16,3.33a4.09,4.09,0,0,0,2.71-.93Z"/><path class="cls-1" d="M299.86,82.16a1.78,1.78,0,0,1,1.81-1.74,1.75,1.75,0,0,1,1.81,1.7,1.81,1.81,0,0,1-3.62,0Zm.56,5.77h2.47v18.29h-2.47Z"/><path class="cls-1" d="M309.77,80.42h2.47v25.8h-2.47Z"/><g id="jWdYF1"><path class="cls-1" d="M127.83,39.63c0-1.48,0-2.85,0-4.22a33.59,33.59,0,0,1,.74-9.11c1.88-6.84,6.23-11.67,12.33-15,1.48-.82,3.12-1.36,4.67-2.08.24-.11.55-.46.53-.66-.43-3.81,3.1-7.09,6.66-8.15a9.33,9.33,0,0,1,11,4.81A20.42,20.42,0,0,1,164.59,9c1.22.52,2.67,1,4,1.74,6.34,3.22,11,8,13.06,14.92a31.82,31.82,0,0,1,.92,6.55c.16,2.12,0,4.26,0,6.39v1c.61,0,1.14,0,1.66,0a4.54,4.54,0,0,1,4.41,4.6q0,6.57,0,13.13a6.14,6.14,0,0,1-6.46,6.52,1,1,0,0,0-1,.62A10.36,10.36,0,0,1,171.89,70q-16.66.06-33.32,0a10.37,10.37,0,0,1-9.34-5.45,1,1,0,0,0-1-.63,6.12,6.12,0,0,1-6.45-6.52c0-4.35,0-8.69,0-13a4.54,4.54,0,0,1,4.58-4.69C126.81,39.62,127.28,39.63,127.83,39.63Zm27.33,27.31c5.47,0,10.94,0,16.41,0a7.66,7.66,0,0,0,8-8q0-13.38,0-26.76a19.44,19.44,0,0,0-6.91-15.11,26.82,26.82,0,0,0-31.06-2.79c-7.09,4.27-10.87,10.43-10.77,18.87s0,17,0,25.5a10.78,10.78,0,0,0,.21,2.34,7.54,7.54,0,0,0,7.66,5.93C144.22,67,149.69,66.94,155.16,66.94ZM149.25,8.22a29,29,0,0,1,12,0c.22-2.59-2.81-5.28-5.89-5.18C151.68,3.13,148.72,6.18,149.25,8.22ZM127.82,60.81v-12l-3-.23c0,3.16-.06,6.29,0,9.42A2.92,2.92,0,0,0,127.82,60.81Zm54.8,0a2.92,2.92,0,0,0,3-3c0-1.85,0-3.7,0-5.55V48.59l-3.06.24Zm0-15.08c1.05,0,2.08.29,2.75-.72a1.38,1.38,0,0,0,0-1.65c-.72-1-1.74-.57-2.71-.63Zm-54.89-3c-1,.08-2-.36-2.71.69a1.37,1.37,0,0,0,.07,1.72c.72.89,1.7.58,2.64.6Z"/><path class="cls-1" d="M155.2,62.38H142.07c-3.21,0-5.09-1.85-5.1-5q0-7.14,0-14.3c0-3.16,1.87-5,5-5h26.43c3.16,0,5,1.86,5.05,5q0,7.2,0,14.39a4.62,4.62,0,0,1-5,5ZM140,47v.74q0,4.74,0,9.5c0,1.58.48,2.06,2.06,2.06q13.16,0,26.33,0c1.52,0,2-.49,2-2V47.72c0-.26,0-.52,0-.69Zm15.23-2.94h8.33c1.77,0,3.53,0,5.3,0a1.47,1.47,0,0,0,1.47-2,1.59,1.59,0,0,0-1.67-1H141.75a2.07,2.07,0,0,0-.5.05,1.49,1.49,0,0,0-1.2,1.67c.09.88.68,1.32,1.82,1.33Z"/><path class="cls-1" d="M154.62,15.16c6.77.24,12.39,1.86,16.91,6.32a17.47,17.47,0,0,1,1.53,1.78,1.52,1.52,0,0,1-.15,2.24,1.46,1.46,0,0,1-2.21-.37c-5.53-7.53-18.8-9.12-27.13-3.51a29.31,29.31,0,0,0-3.79,3.53,1.61,1.61,0,0,1-2,.49,1.5,1.5,0,0,1-.69-1.81,2.59,2.59,0,0,1,.43-.71,20.21,20.21,0,0,1,12.4-7.32C151.65,15.44,153.44,15.31,154.62,15.16Z"/><path class="cls-1" d="M173.47,30.57c0,.53,0,1.06,0,1.59A1.48,1.48,0,0,1,172,33.62a1.43,1.43,0,0,1-1.54-1.34,29.36,29.36,0,0,1,0-3.51A1.46,1.46,0,0,1,172,27.42a1.48,1.48,0,0,1,1.42,1.39c.05.58,0,1.17,0,1.76Z"/><path class="cls-1" d="M155.18,56.26c-.53,0-1.07,0-1.6,0a1.46,1.46,0,0,1-1.4-1.49,1.43,1.43,0,0,1,1.39-1.5,28.81,28.81,0,0,1,3.35,0,1.41,1.41,0,0,1,1.36,1.51,1.46,1.46,0,0,1-1.43,1.47c-.55,0-1.11,0-1.67,0Z"/><path class="cls-1" d="M146.07,56.27c-.5,0-1,0-1.51,0a1.47,1.47,0,0,1-1.5-1.48,1.44,1.44,0,0,1,1.44-1.53q1.59-.07,3.18,0a1.47,1.47,0,0,1,1.48,1.51,1.5,1.5,0,0,1-1.49,1.5C147.14,56.29,146.6,56.26,146.07,56.27Z"/><path class="cls-1" d="M164.35,56.26c-.53,0-1.06,0-1.59,0a1.48,1.48,0,0,1-1.46-1.53,1.45,1.45,0,0,1,1.43-1.46,29.73,29.73,0,0,1,3.27,0,1.43,1.43,0,0,1,1.41,1.48,1.49,1.49,0,0,1-1.47,1.52C165.42,56.3,164.88,56.26,164.35,56.26Z"/></g></g></g></svg>