<svg xmlns="http://www.w3.org/2000/svg" viewBox="0 0 311.89 106.28"><defs><style>.cls-1{fill:#fff;}</style></defs><title>3-secundary</title><g id="Capa_2" data-name="Capa 2"><g id="Capa_1-2" data-name="Capa 1"><path class="cls-1" d="M19.14,99.61H5.59L2.67,106.1H0L11.11,81.79h2.54L24.76,106.1H22.05Zm-.94-2.08L12.36,84.47,6.53,97.53Z"/><path class="cls-1" d="M45.08,95.51V106.1H42.62V95.75c0-3.85-2-5.83-5.49-5.83-3.92,0-6.39,2.43-6.39,6.6v9.58H28.27V80.33h2.47V91c1.35-2.12,3.75-3.33,6.84-3.33C42,87.7,45.08,90.27,45.08,95.51Z"/><path class="cls-1" d="M50,97a9,9,0,0,1,9.31-9.27,9.29,9.29,0,0,1,0,18.58A9,9,0,0,1,50,97ZM66.1,97c0-4.27-2.88-7.12-6.77-7.12S52.52,92.7,52.52,97s2.92,7.12,6.81,7.12S66.1,101.24,66.1,97Z"/><path class="cls-1" d="M82.84,87.7v2.39c-.21,0-.41,0-.59,0-3.82,0-6.14,2.43-6.14,6.74v9.3H73.64V87.84H76v3.57C77.15,89,79.47,87.7,82.84,87.7Z"/><path class="cls-1" d="M96.49,87.7v2.39c-.2,0-.41,0-.59,0-3.82,0-6.14,2.43-6.14,6.74v9.3H87.29V87.84h2.36v3.57C90.8,89,93.13,87.7,96.49,87.7Z"/><path class="cls-1" d="M98.93,97a9.29,9.29,0,1,1,9.31,9.31A9,9,0,0,1,98.93,97ZM115,97c0-4.27-2.89-7.12-6.77-7.12s-6.81,2.85-6.81,7.12,2.91,7.12,6.81,7.12S115,101.24,115,97Z"/><path class="cls-1" d="M149.36,103.88v2.22H132.17V81.79h16.67V84h-14.1v8.64h12.57v2.19H134.74v9Z"/><path class="cls-1" d="M152.07,104l1.11-1.94a11.1,11.1,0,0,0,6.5,2c3.47,0,4.9-1.18,4.9-3,0-4.76-11.85-1-11.85-8.23,0-3,2.57-5.21,7.23-5.21a12.41,12.41,0,0,1,6.46,1.7l-1.08,2A9.38,9.38,0,0,0,160,89.82c-3.3,0-4.76,1.28-4.76,3,0,4.93,11.84,1.21,11.84,8.23,0,3.16-2.78,5.21-7.53,5.21A12.19,12.19,0,0,1,152.07,104Z"/><path class="cls-1" d="M181.21,105a5.86,5.86,0,0,1-3.85,1.29c-3.44,0-5.35-2-5.35-5.32v-11h-3.26V87.84H172v-4h2.47v4H180v2.08h-5.55v10.91c0,2.15,1.11,3.33,3.16,3.33a4.06,4.06,0,0,0,2.71-.94Z"/><path class="cls-1" d="M202.16,87.84V106.1H199.8v-3.33a7.29,7.29,0,0,1-6.57,3.51c-4.65,0-7.71-2.61-7.71-7.85V87.84H188V98.19c0,3.89,2,5.86,5.49,5.86,3.82,0,6.21-2.46,6.21-6.63V87.84Z"/><path class="cls-1" d="M225.75,80.33V106.1h-2.37v-3.61a7.91,7.91,0,0,1-7,3.79c-5.21,0-9.1-3.79-9.1-9.31a8.84,8.84,0,0,1,9.1-9.27,8,8,0,0,1,6.95,3.61v-11ZM223.31,97c0-4.27-2.91-7.12-6.77-7.12s-6.81,2.85-6.81,7.12,2.92,7.12,6.81,7.12S223.31,101.24,223.31,97Z"/><path class="cls-1" d="M232.07,82.07a1.78,1.78,0,0,1,1.81-1.74,1.76,1.76,0,1,1,0,3.51A1.79,1.79,0,0,1,232.07,82.07Zm.55,5.77h2.47V106.1h-2.47Z"/><path class="cls-1" d="M255.76,94.78V106.1H253.4v-2.84c-1.12,1.87-3.27,3-6.29,3-4.13,0-6.67-2.16-6.67-5.32,0-2.81,1.81-5.17,7.05-5.17h5.8V94.68c0-3.13-1.77-4.83-5.17-4.83A9.29,9.29,0,0,0,242,92l-1.11-1.84a11.61,11.61,0,0,1,7.43-2.46C253.08,87.7,255.76,90.06,255.76,94.78Zm-2.47,5.84v-3h-5.73c-3.54,0-4.69,1.39-4.69,3.26,0,2.12,1.7,3.44,4.62,3.44A5.84,5.84,0,0,0,253.29,100.62Z"/><path class="cls-1" d="M279.27,95.51V106.1h-2.46V95.75c0-3.85-2-5.83-5.49-5.83-3.93,0-6.39,2.43-6.39,6.6v9.58h-2.47V87.84h2.36V91.2c1.32-2.22,3.79-3.5,6.95-3.5C276.22,87.7,279.27,90.27,279.27,95.51Z"/><path class="cls-1" d="M295.6,105a5.86,5.86,0,0,1-3.86,1.29c-3.43,0-5.34-2-5.34-5.32v-11h-3.27V87.84h3.27v-4h2.46v4h5.56v2.08h-5.56v10.91c0,2.15,1.11,3.33,3.16,3.33a4,4,0,0,0,2.71-.94Z"/><path class="cls-1" d="M299.53,82.07a1.81,1.81,0,1,1,1.8,1.77A1.77,1.77,0,0,1,299.53,82.07Zm.55,5.77h2.47V106.1h-2.47Z"/><path class="cls-1" d="M309.43,80.33h2.46V106.1h-2.46Z"/><g id="jWdYF1"><path class="cls-1" d="M127.68,39.58c0-1.47,0-2.84,0-4.21a33.54,33.54,0,0,1,.73-9.1c1.88-6.83,6.23-11.66,12.32-15,1.49-.82,3.12-1.36,4.67-2.08.23-.11.55-.46.52-.66-.42-3.8,3.1-7.08,6.66-8.14a9.32,9.32,0,0,1,11,4.81A21.12,21.12,0,0,1,164.41,9c1.21.51,2.66,1,4,1.74,6.34,3.22,11,8,13,14.9a31.83,31.83,0,0,1,.93,6.54c.15,2.12,0,4.26,0,6.39v1c.62,0,1.14,0,1.67,0a4.53,4.53,0,0,1,4.4,4.6q0,6.56,0,13.11a6.13,6.13,0,0,1-6.45,6.51,1.05,1.05,0,0,0-1,.62,10.32,10.32,0,0,1-9.32,5.45q-16.65.08-33.29,0a10.34,10.34,0,0,1-9.32-5.44,1,1,0,0,0-1-.63,6.11,6.11,0,0,1-6.45-6.51q0-6.52,0-13a4.55,4.55,0,0,1,4.57-4.69ZM155,66.86c5.46,0,10.93,0,16.39,0a7.64,7.64,0,0,0,8-8q0-13.37,0-26.73a19.42,19.42,0,0,0-6.9-15.1,26.79,26.79,0,0,0-31-2.78c-7.08,4.26-10.85,10.42-10.76,18.85s0,17,0,25.47a10.64,10.64,0,0,0,.21,2.33,7.56,7.56,0,0,0,7.66,5.93C144.06,66.88,149.53,66.86,155,66.86ZM149.08,8.21a29.13,29.13,0,0,1,12,0c.22-2.59-2.81-5.27-5.88-5.17C151.51,3.13,148.55,6.17,149.08,8.21Zm-21.4,52.53v-12l-3-.23c0,3.15-.06,6.28,0,9.4A2.92,2.92,0,0,0,127.68,60.74Zm54.74,0a2.92,2.92,0,0,0,3-3c0-1.85,0-3.7,0-5.55V48.53l-3.05.24Zm.05-15.06c1.05,0,2.08.29,2.75-.72a1.38,1.38,0,0,0-.05-1.65c-.71-1-1.73-.57-2.7-.63Zm-54.83-3c-1,.08-2-.36-2.71.69A1.37,1.37,0,0,0,125,45c.71.89,1.7.58,2.64.59Z"/><path class="cls-1" d="M155,62.31H141.91c-3.21,0-5.08-1.86-5.09-5.05q0-7.14,0-14.29c0-3.15,1.88-5,5-5h26.4c3.15,0,5,1.85,5,5,0,4.79,0,9.59,0,14.38a4.6,4.6,0,0,1-5,5ZM139.87,47V57.21c0,1.57.48,2.06,2.06,2.06h26.3c1.52,0,2-.5,2-2V47.67c0-.26,0-.52,0-.69ZM155.07,44h8.33c1.76,0,3.53,0,5.29,0a1.48,1.48,0,0,0,1.47-2,1.6,1.6,0,0,0-1.67-1h-26.9a2.74,2.74,0,0,0-.5,0,1.5,1.5,0,0,0-1.2,1.68c.09.87.68,1.31,1.82,1.32Z"/><path class="cls-1" d="M154.44,15.14c6.77.24,12.38,1.86,16.89,6.31a17.39,17.39,0,0,1,1.54,1.78,1.52,1.52,0,0,1-.16,2.24,1.46,1.46,0,0,1-2.2-.36C165,17.58,151.73,16,143.41,21.6a28,28,0,0,0-3.79,3.53,1.59,1.59,0,0,1-2,.48,1.5,1.5,0,0,1-.69-1.81,2.75,2.75,0,0,1,.43-.71,20.13,20.13,0,0,1,12.38-7.3C151.48,15.43,153.27,15.3,154.44,15.14Z"/><path class="cls-1" d="M173.28,30.54c0,.53,0,1.06,0,1.59a1.47,1.47,0,0,1-1.43,1.45,1.42,1.42,0,0,1-1.54-1.33,29.36,29.36,0,0,1,0-3.51,1.46,1.46,0,0,1,1.54-1.35,1.48,1.48,0,0,1,1.42,1.39c.05.58,0,1.17,0,1.76Z"/><path class="cls-1" d="M155,56.19c-.53,0-1.06,0-1.59,0A1.46,1.46,0,0,1,152,54.7a1.43,1.43,0,0,1,1.39-1.5,28.63,28.63,0,0,1,3.34,0,1.4,1.4,0,0,1,1.36,1.51,1.45,1.45,0,0,1-1.42,1.47c-.56.05-1.12,0-1.68,0Z"/><path class="cls-1" d="M145.91,56.2c-.5,0-1,0-1.51,0a1.47,1.47,0,0,1-1.5-1.48,1.44,1.44,0,0,1,1.44-1.53c1,0,2.12,0,3.18,0A1.48,1.48,0,0,1,149,54.7a1.52,1.52,0,0,1-1.5,1.5C147,56.23,146.44,56.2,145.91,56.2Z"/><path class="cls-1" d="M164.17,56.2c-.53,0-1.07,0-1.59,0a1.49,1.49,0,0,1-1.46-1.53,1.45,1.45,0,0,1,1.43-1.46,29.54,29.54,0,0,1,3.26,0,1.42,1.42,0,0,1,1.41,1.47,1.46,1.46,0,0,1-1.46,1.52C165.23,56.23,164.7,56.2,164.17,56.2Z"/></g></g></g></svg>