<svg xmlns="http://www.w3.org/2000/svg" viewBox="0 0 214.14 109.79"><defs><style>.cls-1{fill:#8292b3;}</style></defs><title>4-primary</title><g id="Capa_2" data-name="Capa 2"><g id="Capa_1-2" data-name="Capa 1"><path class="cls-1" d="M25.28,85.27v24.35H22.81V90.14l-9.56,16.38H12L2.47,90.25v19.37H0V85.27H2.12l10.57,18,10.47-18Z"/><path class="cls-1" d="M32.13,85.55a1.78,1.78,0,0,1,1.81-1.74,1.76,1.76,0,0,1,1.81,1.71,1.81,1.81,0,0,1-3.62,0Zm.56,5.78h2.47v18.29H32.69Z"/><path class="cls-1" d="M40.2,100.47c0-5.46,4-9.28,9.42-9.28a8,8,0,0,1,7.17,3.61L55,96.06a6.22,6.22,0,0,0-5.33-2.72c-4,0-6.92,2.85-6.92,7.13s2.92,7.13,6.92,7.13A6.19,6.19,0,0,0,55,104.92l1.84,1.26a8.07,8.07,0,0,1-7.17,3.61A9,9,0,0,1,40.2,100.47Z"/><path class="cls-1" d="M70.84,91.19v2.4c-.21,0-.42,0-.59,0-3.83,0-6.16,2.44-6.16,6.75v9.32H61.62V91.33H64v3.58C65.13,92.47,67.46,91.19,70.84,91.19Z"/><path class="cls-1" d="M73.27,100.47a9.31,9.31,0,1,1,9.32,9.32A9,9,0,0,1,73.27,100.47Zm16.1,0c0-4.28-2.88-7.13-6.78-7.13s-6.82,2.85-6.82,7.13,2.92,7.13,6.82,7.13S89.37,104.75,89.37,100.47Z"/><path class="cls-1" d="M95.07,100.47c0-5.46,4-9.28,9.43-9.28a8,8,0,0,1,7.16,3.61l-1.84,1.26a6.21,6.21,0,0,0-5.32-2.72c-4,0-6.92,2.85-6.92,7.13s2.92,7.13,6.92,7.13a6.17,6.17,0,0,0,5.32-2.68l1.84,1.26a8.07,8.07,0,0,1-7.16,3.61A9,9,0,0,1,95.07,100.47Z"/><path class="cls-1" d="M125.71,91.19v2.4c-.21,0-.42,0-.59,0-3.83,0-6.16,2.44-6.16,6.75v9.32h-2.47V91.33h2.37v3.58C120,92.47,122.34,91.19,125.71,91.19Z"/><path class="cls-1" d="M145.92,101.24H130.61c.28,3.82,3.2,6.36,7.2,6.36a7.2,7.2,0,0,0,5.6-2.4l1.39,1.6a9,9,0,0,1-7.06,3c-5.7,0-9.6-3.89-9.6-9.32s3.79-9.28,8.94-9.28S146,95,146,100.47C146,100.68,145.92,101,145.92,101.24Zm-15.31-1.85h13a6.5,6.5,0,0,0-13,0Zm6.65-10.88h-2.44l4.77-4.31h3.3Z"/><path class="cls-1" d="M167.68,83.81v25.81h-2.36V106a7.92,7.92,0,0,1-7.06,3.79c-5.22,0-9.11-3.79-9.11-9.32a8.84,8.84,0,0,1,9.11-9.28,8,8,0,0,1,7,3.61v-11Zm-2.43,16.66c0-4.28-2.92-7.13-6.78-7.13s-6.82,2.85-6.82,7.13,2.92,7.13,6.82,7.13S165.25,104.75,165.25,100.47Z"/><path class="cls-1" d="M174,85.55a1.78,1.78,0,0,1,1.81-1.74,1.76,1.76,0,0,1,1.81,1.71,1.81,1.81,0,0,1-3.62,0Zm.56,5.78H177v18.29h-2.47Z"/><path class="cls-1" d="M193.56,108.51a5.89,5.89,0,0,1-3.86,1.28c-3.45,0-5.36-1.94-5.36-5.32V93.41h-3.27V91.33h3.27v-4h2.47v4h5.56v2.08h-5.56v10.92c0,2.16,1.11,3.34,3.16,3.34a4.09,4.09,0,0,0,2.72-.94Z"/><path class="cls-1" d="M195.54,100.47a9.3,9.3,0,1,1,9.32,9.32A9,9,0,0,1,195.54,100.47Zm16.1,0c0-4.28-2.89-7.13-6.78-7.13S198,96.19,198,100.47s2.92,7.13,6.82,7.13S211.64,104.75,211.64,100.47Z"/><path class="cls-1" d="M106,55.78a2.15,2.15,0,0,1-2.15-2.15V33.57a2.15,2.15,0,1,1,4.29,0V53.63A2.14,2.14,0,0,1,106,55.78Z"/><path class="cls-1" d="M105.89,50.26a2.12,2.12,0,0,1-1-.25l-8.14-4.27a2.14,2.14,0,1,1,2-3.8l7.06,3.7,7.27-4.52a2.14,2.14,0,1,1,2.27,3.64L107,49.94A2.17,2.17,0,0,1,105.89,50.26Z"/><path class="cls-1" d="M122.38,71.11h-5.64l-11.32,0a2.15,2.15,0,1,1,0-4.29h0c5.78,0,14.15.06,18.88,0a23.89,23.89,0,0,0-36.2-3.2,2.15,2.15,0,0,1-3-3.07,28.18,28.18,0,0,1,34.68-3.77A28.3,28.3,0,0,1,130,67.86a2.17,2.17,0,0,1-2.06,3.21l-.76,0h-4.75Z"/><path class="cls-1" d="M89.54,49.69a14.4,14.4,0,0,1-8.85-3.55c-2.57-2.11-6.06-6.16-8-13.39A2.11,2.11,0,0,1,72.92,31a2.15,2.15,0,0,1,1.51-.94,54.77,54.77,0,0,1,11.09-.15c5.67.56,12.65,2.57,13.69,8.93a9,9,0,0,1-1.75,6.91,10,10,0,0,1-6.8,3.89A10.37,10.37,0,0,1,89.54,49.69Zm-12-15.62a19.9,19.9,0,0,0,5.86,8.75c1.72,1.42,4.39,2.82,6.73,2.55A5.73,5.73,0,0,0,94,43.16,4.74,4.74,0,0,0,95,39.52C94.1,34.16,83.6,33.69,77.56,34.07Z"/><path class="cls-1" d="M122.35,48.94a9.48,9.48,0,0,1-3.21-.52,9.63,9.63,0,0,1-5.32-4.78,10.27,10.27,0,0,1-.79-7.08c.89-3.54,4-7.91,13.85-8.59a47,47,0,0,1,10.58.56A2.13,2.13,0,0,1,139.18,31c-1.67,9.5-6.22,13.92-9.73,15.94A14.49,14.49,0,0,1,122.35,48.94Zm7.16-16.75c-5.09,0-11.2,1-12.31,5.41a5.72,5.72,0,0,0,3.41,6.78,8.7,8.7,0,0,0,6.69-1.14c2.46-1.42,5.58-4.43,7.19-10.78A47.62,47.62,0,0,0,129.51,32.19Z"/><path class="cls-1" d="M104.61,33.15a16.49,16.49,0,0,1-11-5.37h0A16.59,16.59,0,0,1,94.71,4.33a16.6,16.6,0,1,1,22.36,24.53,16.49,16.49,0,0,1-11.95,4.32Zm2.28-29.43-.4,0A12.93,12.93,0,0,0,96.34,25.3h0a12.92,12.92,0,1,0,19.1-17.4A12.8,12.8,0,0,0,106.89,3.72Z"/><path class="cls-1" d="M112,17.05a4.19,4.19,0,0,0-1.76-1.53,17.75,17.75,0,0,0-4-1.22,3.23,3.23,0,0,1-1.43-.51.74.74,0,0,1-.31-.59,1,1,0,0,1,.37-.77,1.72,1.72,0,0,1,1.12-.31,2.17,2.17,0,0,1,1.42.42A2.15,2.15,0,0,1,108,13.9l4-.24a4.29,4.29,0,0,0-1.65-3.13,6.28,6.28,0,0,0-3.2-.94V8.48h-2.63V9.67a6.52,6.52,0,0,0-1.6.42,4.1,4.1,0,0,0-1.85,1.49,3.63,3.63,0,0,0-.62,2,3.38,3.38,0,0,0,1.21,2.66,9.2,9.2,0,0,0,4,1.67,5.6,5.6,0,0,1,2.18.8,1.24,1.24,0,0,1,0,2,2.12,2.12,0,0,1-1.41.43,2.26,2.26,0,0,1-1.88-.84,3.15,3.15,0,0,1-.54-1.51L100,19a5.35,5.35,0,0,0,1.53,3.44,5.16,5.16,0,0,0,3,1.24v1.41h2.63V23.78a7.57,7.57,0,0,0,2.52-.54,4.71,4.71,0,0,0,2-1.7,4.37,4.37,0,0,0,.73-2.45A3.85,3.85,0,0,0,112,17.05Z"/></g></g></svg>