<svg xmlns="http://www.w3.org/2000/svg" viewBox="0 0 213.9 109.67"><defs><style>.cls-1{fill:#fff;}</style></defs><title>4-secundary</title><g id="Capa_2" data-name="Capa 2"><g id="Capa_1-2" data-name="Capa 1"><path class="cls-1" d="M25.25,85.19V109.5H22.78V90.05l-9.55,16.36H12L2.47,90.15V109.5H0V85.19H2.12l10.56,18,10.45-18Z"/><path class="cls-1" d="M32.1,85.46a1.77,1.77,0,0,1,1.8-1.73,1.75,1.75,0,0,1,1.81,1.7,1.81,1.81,0,0,1-3.61,0Zm.55,5.77h2.47V109.5H32.65Z"/><path class="cls-1" d="M40.15,100.36c0-5.45,4-9.27,9.42-9.27a8,8,0,0,1,7.15,3.61L54.88,96a6.2,6.2,0,0,0-5.31-2.71c-4,0-6.91,2.85-6.91,7.12s2.91,7.12,6.91,7.12a6.17,6.17,0,0,0,5.31-2.67l1.84,1.25a8.05,8.05,0,0,1-7.15,3.61A9,9,0,0,1,40.15,100.36Z"/><path class="cls-1" d="M70.76,91.09v2.4c-.21,0-.42,0-.59,0-3.83,0-6.15,2.43-6.15,6.74v9.31H61.55V91.23h2.36v3.58C65.06,92.38,67.39,91.09,70.76,91.09Z"/><path class="cls-1" d="M73.19,100.36a9.29,9.29,0,1,1,9.31,9.31A9,9,0,0,1,73.19,100.36Zm16.08,0c0-4.27-2.88-7.12-6.77-7.12s-6.81,2.85-6.81,7.12,2.92,7.12,6.81,7.12S89.27,104.64,89.27,100.36Z"/><path class="cls-1" d="M95,100.36a9,9,0,0,1,9.41-9.27,8,8,0,0,1,7.16,3.61L109.69,96a6.2,6.2,0,0,0-5.31-2.71,6.71,6.71,0,0,0-6.91,7.12c0,4.31,2.92,7.12,6.91,7.12a6.17,6.17,0,0,0,5.31-2.67l1.85,1.25a8.07,8.07,0,0,1-7.16,3.61A9,9,0,0,1,95,100.36Z"/><path class="cls-1" d="M125.57,91.09v2.4c-.21,0-.42,0-.59,0-3.82,0-6.15,2.43-6.15,6.74v9.31h-2.47V91.23h2.37v3.58C119.87,92.38,122.2,91.09,125.57,91.09Z"/><path class="cls-1" d="M145.75,101.13H130.47c.28,3.82,3.19,6.35,7.19,6.35a7.22,7.22,0,0,0,5.59-2.39l1.39,1.59a9,9,0,0,1-7,3c-5.7,0-9.59-3.89-9.59-9.31s3.79-9.27,8.93-9.27,8.85,3.79,8.85,9.27C145.78,100.57,145.75,100.85,145.75,101.13Zm-15.28-1.84h12.95a6.49,6.49,0,0,0-12.95,0Zm6.63-10.87h-2.43l4.76-4.31h3.3Z"/><path class="cls-1" d="M167.49,83.73V109.5h-2.36v-3.61a7.92,7.92,0,0,1-7,3.78c-5.21,0-9.1-3.78-9.1-9.31a8.84,8.84,0,0,1,9.1-9.27A8,8,0,0,1,165,94.7v-11Zm-2.43,16.63c0-4.27-2.91-7.12-6.77-7.12s-6.81,2.85-6.81,7.12,2.92,7.12,6.81,7.12S165.06,104.64,165.06,100.36Z"/><path class="cls-1" d="M173.82,85.46a1.78,1.78,0,0,1,1.8-1.73,1.75,1.75,0,0,1,1.81,1.7,1.81,1.81,0,0,1-3.61,0Zm.55,5.77h2.47V109.5h-2.47Z"/><path class="cls-1" d="M193.34,108.39a5.91,5.91,0,0,1-3.86,1.28c-3.44,0-5.35-1.94-5.35-5.31v-11h-3.26V91.23h3.26v-4h2.47v4h5.56v2.08H186.6v10.91c0,2.15,1.11,3.33,3.16,3.33a4.09,4.09,0,0,0,2.71-.93Z"/><path class="cls-1" d="M195.32,100.36a9.29,9.29,0,1,1,9.31,9.31A9,9,0,0,1,195.32,100.36Zm16.08,0c0-4.27-2.88-7.12-6.77-7.12s-6.81,2.85-6.81,7.12,2.92,7.12,6.81,7.12S211.4,104.64,211.4,100.36Z"/><path class="cls-1" d="M105.88,55.71a2.14,2.14,0,0,1-2.14-2.14v-20a2.14,2.14,0,0,1,4.28,0v20A2.14,2.14,0,0,1,105.88,55.71Z"/><path class="cls-1" d="M105.77,50.2a2.16,2.16,0,0,1-1-.24l-8.14-4.27a2.14,2.14,0,0,1,2-3.79l7.05,3.69L113,41.08a2.14,2.14,0,1,1,2.26,3.63l-8.31,5.17A2.15,2.15,0,0,1,105.77,50.2Z"/><path class="cls-1" d="M122.25,71h-5.64L105.3,71a2.14,2.14,0,0,1,0-4.28h0c5.77,0,14.14.06,18.86,0A23.87,23.87,0,0,0,88,63.53a2.14,2.14,0,1,1-3-3.05,28.14,28.14,0,0,1,44.78,7.3,2.14,2.14,0,0,1,.26,1.37A2.17,2.17,0,0,1,127.75,71L127,71h-4.74Z"/><path class="cls-1" d="M89.44,49.64a14.3,14.3,0,0,1-8.83-3.55c-2.58-2.11-6.06-6.15-8-13.38A2.14,2.14,0,0,1,74.35,30a53.76,53.76,0,0,1,11.07-.15c5.67.56,12.65,2.56,13.68,8.92a9,9,0,0,1-1.75,6.9,10,10,0,0,1-6.79,3.88A8.32,8.32,0,0,1,89.44,49.64ZM77.48,34a20,20,0,0,0,5.85,8.75c1.71,1.41,4.38,2.81,6.72,2.54a5.73,5.73,0,0,0,3.88-2.21,4.77,4.77,0,0,0,.94-3.63C94,34.12,83.51,33.65,77.48,34Z"/><path class="cls-1" d="M122.21,48.88a9.38,9.38,0,0,1-3.2-.52,9.67,9.67,0,0,1-5.32-4.77,10.3,10.3,0,0,1-.78-7.07c.88-3.54,4-7.9,13.83-8.58a46.8,46.8,0,0,1,10.56.56A2.15,2.15,0,0,1,139,31c-1.68,9.49-6.21,13.9-9.72,15.92A14.48,14.48,0,0,1,122.21,48.88Zm7.16-16.73c-5.09,0-11.19,1-12.3,5.4a5.73,5.73,0,0,0,3.4,6.78,8.69,8.69,0,0,0,6.69-1.14c2.46-1.42,5.57-4.42,7.18-10.77C133,32.29,131.28,32.15,129.37,32.15Z"/><path class="cls-1" d="M104.5,33.11a16.48,16.48,0,0,1-11-5.36h0A16.57,16.57,0,0,1,94.61,4.33,16.58,16.58,0,0,1,118,5.41a16.59,16.59,0,0,1-1.09,23.42A16.41,16.41,0,0,1,105,33.14Zm2.27-29.4-.4,0A12.9,12.9,0,0,0,96.24,25.27h0A12.9,12.9,0,1,0,106.77,3.71Z"/><path class="cls-1" d="M111.83,17a4.19,4.19,0,0,0-1.76-1.53,18,18,0,0,0-4-1.21,3.58,3.58,0,0,1-1.43-.51.76.76,0,0,1-.31-.59,1,1,0,0,1,.38-.77,1.7,1.7,0,0,1,1.12-.31,2.16,2.16,0,0,1,1.41.42,2.12,2.12,0,0,1,.67,1.35l4-.23a4.29,4.29,0,0,0-1.65-3.13,6.28,6.28,0,0,0-3.2-.94V8.47h-2.62V9.66a6.4,6.4,0,0,0-1.6.42A4.09,4.09,0,0,0,101,11.56a3.63,3.63,0,0,0-.62,2,3.34,3.34,0,0,0,1.21,2.66,9.15,9.15,0,0,0,4,1.67,5.6,5.6,0,0,1,2.18.8,1.3,1.3,0,0,1,.47,1,1.26,1.26,0,0,1-.49,1,2.07,2.07,0,0,1-1.41.43,2.28,2.28,0,0,1-1.88-.83,3.15,3.15,0,0,1-.53-1.51L99.88,19a5.38,5.38,0,0,0,1.53,3.45,5.16,5.16,0,0,0,3,1.23v1.41h2.62V23.76a7.56,7.56,0,0,0,2.52-.55,4.5,4.5,0,0,0,2-1.7,4.35,4.35,0,0,0,.74-2.44A4,4,0,0,0,111.83,17Z"/></g></g></svg>