<svg xmlns="http://www.w3.org/2000/svg" viewBox="0 0 355.8 102.03"><defs><style>.cls-1{fill:#8292b3;}</style></defs><title>5-primary</title><g id="Capa_2" data-name="Capa 2"><g id="Capa_1-2" data-name="Capa 1"><path class="cls-1" d="M0,88.05c0-7.13,5.48-12.36,12.82-12.32a11.79,11.79,0,0,1,8.89,3.59l-1.64,1.62A9.72,9.72,0,0,0,12.88,78a10.09,10.09,0,1,0-.09,20.18A9.57,9.57,0,0,0,20,95.31L21.63,97a11.83,11.83,0,0,1-9,3.54C5.37,100.46,0,95.18,0,88.05Z"/><path class="cls-1" d="M35.88,82v2.4c-.21,0-.42,0-.59,0-3.82,0-6.17,2.41-6.19,6.72l0,9.32H26.58l.09-18.3,2.36,0,0,3.58C30.17,83.22,32.51,81.94,35.88,82Z"/><path class="cls-1" d="M56,92.1,40.74,92c.26,3.83,3.17,6.38,7.17,6.4a7.23,7.23,0,0,0,5.61-2.37l1.38,1.6a9,9,0,0,1-7.07,3c-5.71,0-9.58-3.94-9.56-9.36s3.84-9.27,9-9.25,8.86,3.83,8.83,9.33C56.08,91.55,56,91.83,56,92.1ZM40.75,90.19l13,.06a6.5,6.5,0,0,0-13-.06Zm6.69-10.86H45L49.79,75l3.31,0Z"/><path class="cls-1" d="M77.89,74.78l-.12,25.81H75.4l0-3.62a7.94,7.94,0,0,1-7.08,3.76c-5.21,0-9.09-3.84-9.06-9.37a8.84,8.84,0,0,1,9.15-9.24,8,8,0,0,1,6.94,3.65l0-11ZM75.38,91.43c0-4.28-2.89-7.14-6.75-7.16s-6.83,2.82-6.85,7.1,2.89,7.14,6.78,7.16S75.36,95.71,75.38,91.43Z"/><path class="cls-1" d="M84.21,76.55A1.78,1.78,0,0,1,86,74.82a1.76,1.76,0,0,1,1.8,1.71,1.81,1.81,0,0,1-3.62,0Zm.53,5.78h2.47l-.09,18.29H84.65Z"/><path class="cls-1" d="M103.65,99.6a6,6,0,0,1-3.87,1.27c-3.44,0-5.35-2-5.33-5.35l0-11.06-3.27,0V82.36h3.27l0-4,2.47,0,0,4,5.56,0V84.5l-5.56,0,0,10.92c0,2.16,1.1,3.35,3.15,3.36a4.09,4.09,0,0,0,2.71-.93Z"/><path class="cls-1" d="M105.66,91.57a9.31,9.31,0,1,1,9.28,9.37A9,9,0,0,1,105.66,91.57Zm16.11.08c0-4.28-2.86-7.14-6.75-7.16s-6.83,2.82-6.85,7.09,2.89,7.15,6.78,7.17S121.75,95.93,121.77,91.65Z"/><path class="cls-1" d="M155.19,75.15l-.12,25.8h-2.36V97.32a7.88,7.88,0,0,1-7.07,3.76c-5.22,0-9.1-3.83-9.07-9.36a8.84,8.84,0,0,1,9.15-9.24,8,8,0,0,1,6.94,3.65l.06-11Zm-2.51,16.64c0-4.27-2.89-7.14-6.75-7.16s-6.83,2.82-6.85,7.1,2.89,7.14,6.79,7.16S152.66,96.07,152.68,91.79Z"/><path class="cls-1" d="M177.92,92.68l-15.3-.07c.26,3.82,3.17,6.38,7.17,6.39a7.18,7.18,0,0,0,5.61-2.37l1.38,1.61a9,9,0,0,1-7.07,3c-5.7,0-9.58-3.94-9.55-9.37s3.83-9.27,9-9.24S178,86.42,178,91.91C178,92.12,177.93,92.4,177.92,92.68Zm-15.29-1.92,13,.06a6.5,6.5,0,0,0-13-.06Z"/><path class="cls-1" d="M190.49,89c0-7.13,5.49-12.36,12.82-12.32a11.74,11.74,0,0,1,8.89,3.59l-1.64,1.62a9.65,9.65,0,0,0-7.19-2.92,10.09,10.09,0,1,0-.09,20.17,9.52,9.52,0,0,0,7.21-2.88l1.63,1.64a11.88,11.88,0,0,1-9,3.54C195.86,101.35,190.46,96.08,190.49,89Z"/><path class="cls-1" d="M214.47,92.09a9.31,9.31,0,1,1,9.28,9.36A9,9,0,0,1,214.47,92.09Zm16.11.07c0-4.28-2.86-7.14-6.75-7.16S217,87.82,217,92.1s2.88,7.14,6.78,7.16S230.56,96.44,230.58,92.16Z"/><path class="cls-1" d="M255,90.82l-.05,10.6h-2.47l.05-10.36c0-3.86-2-5.85-5.47-5.87-3.93,0-6.41,2.4-6.43,6.58l0,9.6-2.47,0,.08-18.29h2.37l0,3.37c1.33-2.21,3.81-3.49,7-3.48C251.94,83,255,85.56,255,90.82Z"/><path class="cls-1" d="M259.09,99.36l1.12-2a11.08,11.08,0,0,0,6.5,2.09c3.47,0,4.9-1.16,4.91-3,0-4.77-11.85-1.07-11.82-8.3,0-3,2.6-5.2,7.26-5.18a12.36,12.36,0,0,1,6.46,1.73l-1.09,2a9.36,9.36,0,0,0-5.38-1.59c-3.3,0-4.77,1.26-4.78,3,0,4.94,11.86,1.27,11.82,8.3,0,3.17-2.8,5.2-7.57,5.18A12.23,12.23,0,0,1,259.09,99.36Z"/><path class="cls-1" d="M295.19,83.32l-.08,18.29h-2.37l0-3.34a7.27,7.27,0,0,1-6.59,3.48c-4.66,0-7.71-2.64-7.68-7.89l.05-10.61H281l0,10.37c0,3.89,2,5.88,5.46,5.9,3.83,0,6.24-2.44,6.26-6.61l0-9.6Z"/><path class="cls-1" d="M332.26,91.18l-.05,10.61h-2.47l.05-10.37c0-3.86-1.92-5.85-5.22-5.87-3.76,0-6.13,2.41-6.15,6.58l-.05,9.6H315.9L316,91.35c0-3.86-1.92-5.86-5.26-5.87-3.72,0-6.13,2.4-6.15,6.58l0,9.6-2.47,0,.08-18.29h2.37l0,3.34a7.43,7.43,0,0,1,6.73-3.45c3,0,5.39,1.32,6.49,3.9a7.94,7.94,0,0,1,7.25-3.83C329.38,83.34,332.29,85.93,332.26,91.18Z"/><path class="cls-1" d="M337.19,92.66a9.31,9.31,0,1,1,9.28,9.37A9,9,0,0,1,337.19,92.66Zm16.1.08c0-4.28-2.85-7.14-6.75-7.16s-6.83,2.82-6.85,7.1,2.89,7.14,6.79,7.16S353.27,97,353.29,92.74Z"/><path class="cls-1" d="M170.27,62.4a7.07,7.07,0,1,1,7.07-7.07A7.07,7.07,0,0,1,170.27,62.4Zm0-10.44a3.37,3.37,0,1,0,3.37,3.37A3.38,3.38,0,0,0,170.27,52Z"/><path class="cls-1" d="M193.45,62.4a7.07,7.07,0,1,1,7.07-7.07A7.08,7.08,0,0,1,193.45,62.4Zm0-10.44a3.37,3.37,0,1,0,3.37,3.37A3.38,3.38,0,0,0,193.45,52Z"/><path class="cls-1" d="M198.61,42.46H169.87a1.85,1.85,0,0,1-1.75-1.25L156.57,8a.69.69,0,0,0-.4-.42l-9.39-4a1.85,1.85,0,0,1,1.45-3.4l9.4,4a4.39,4.39,0,0,1,2.43,2.6l11.12,32h27.16l7.74-23.88h-37a1.85,1.85,0,1,1,0-3.7h37.47a3.33,3.33,0,0,1,3.17,4.35l-8,24.63A3.33,3.33,0,0,1,198.61,42.46Z"/><path class="cls-1" d="M204.45,24H173.39a1.85,1.85,0,1,1,0-3.69h31.06a1.85,1.85,0,1,1,0,3.69Z"/><path class="cls-1" d="M202.58,32.87H176.35a1.85,1.85,0,1,1,0-3.7h26.23a1.85,1.85,0,0,1,0,3.7Z"/><path class="cls-1" d="M200.42,50.65H166.73a3.35,3.35,0,0,1-3.18-4.41l0-.06,1.71-4.58a4.38,4.38,0,0,1,4.09-2.84h10.18a1.85,1.85,0,0,1,0,3.7H169.38a.67.67,0,0,0-.63.43L167.23,47h33.19a1.85,1.85,0,1,1,0,3.69Z"/><path class="cls-1" d="M170.27,62.4a7.07,7.07,0,1,1,7.07-7.07A7.07,7.07,0,0,1,170.27,62.4Zm0-10.44a3.37,3.37,0,1,0,3.37,3.37A3.38,3.38,0,0,0,170.27,52Z"/><path class="cls-1" d="M193.45,62.4a7.07,7.07,0,1,1,7.07-7.07A7.08,7.08,0,0,1,193.45,62.4Zm0-10.44a3.37,3.37,0,1,0,3.37,3.37A3.38,3.38,0,0,0,193.45,52Z"/></g></g></svg>