<svg xmlns="http://www.w3.org/2000/svg" viewBox="0 0 355.4 101.91"><defs><style>.cls-1{fill:#fff;}</style></defs><title>5-secundary</title><g id="Capa_2" data-name="Capa 2"><g id="Capa_1-2" data-name="Capa 1"><path class="cls-1" d="M0,88c0-7.12,5.48-12.33,12.8-12.3a11.78,11.78,0,0,1,8.88,3.58L20,80.86a9.69,9.69,0,0,0-7.18-2.92,10.08,10.08,0,1,0-.09,20.15A9.55,9.55,0,0,0,20,95.2l1.63,1.64a11.84,11.84,0,0,1-9,3.54C5.36,100.34,0,95.07,0,88Z"/><path class="cls-1" d="M35.84,81.87v2.4c-.21,0-.42,0-.59,0-3.82,0-6.16,2.4-6.18,6.71l0,9.31H26.55L26.64,82H29l0,3.58C30.14,83.13,32.47,81.86,35.84,81.87Z"/><path class="cls-1" d="M56,92l-15.28-.07c.26,3.82,3.17,6.37,7.16,6.39A7.19,7.19,0,0,0,53.45,96l1.39,1.61a9.05,9.05,0,0,1-7.07,3c-5.69,0-9.57-3.94-9.54-9.35s3.83-9.26,9-9.24S56,85.75,56,91.24C56,91.45,56,91.73,56,92ZM40.7,90.09l13,.06a6.49,6.49,0,0,0-13-.06Zm6.69-10.84H45L49.73,75H53Z"/><path class="cls-1" d="M77.8,74.71l-.12,25.77H75.32V96.85a7.91,7.91,0,0,1-7.06,3.76c-5.21,0-9.09-3.83-9.06-9.36S63.14,82,68.35,82a8,8,0,0,1,6.93,3.65l0-11ZM75.29,91.33c0-4.27-2.88-7.13-6.74-7.15S61.73,87,61.71,91.27s2.88,7.13,6.77,7.15S75.27,95.6,75.29,91.33Z"/><path class="cls-1" d="M84.12,76.47a1.81,1.81,0,1,1,1.79,1.78A1.77,1.77,0,0,1,84.12,76.47Zm.52,5.77h2.47L87,100.52H84.56Z"/><path class="cls-1" d="M103.53,99.49a5.88,5.88,0,0,1-3.86,1.26c-3.44,0-5.34-2-5.33-5.34l.06-11-3.27,0V82.27l3.26,0,0-4h2.47l0,4,5.56,0v2.09l-5.56,0,0,10.91c0,2.15,1.1,3.34,3.14,3.35a4.14,4.14,0,0,0,2.72-.93Z"/><path class="cls-1" d="M105.55,91.47a9.29,9.29,0,1,1,9.26,9.35A9,9,0,0,1,105.55,91.47Zm16.08.08c0-4.27-2.85-7.13-6.74-7.15s-6.82,2.81-6.84,7.08,2.88,7.14,6.77,7.16S121.61,95.82,121.63,91.55Z"/><path class="cls-1" d="M155,75.07l-.12,25.77h-2.37l0-3.61a7.92,7.92,0,0,1-7.07,3.75c-5.21,0-9.08-3.83-9-9.35a8.83,8.83,0,0,1,9.14-9.23A8,8,0,0,1,152.5,86l.05-11Zm-2.51,16.62c0-4.27-2.89-7.13-6.74-7.15s-6.82,2.82-6.84,7.09,2.88,7.13,6.77,7.15S152.49,96,152.51,91.69Z"/><path class="cls-1" d="M177.72,92.58l-15.28-.07c.26,3.82,3.17,6.37,7.16,6.38a7.13,7.13,0,0,0,5.6-2.37l1.38,1.61a9,9,0,0,1-7.06,3c-5.7,0-9.57-3.93-9.54-9.35s3.83-9.26,9-9.23,8.84,3.83,8.81,9.31C177.76,92,177.72,92.3,177.72,92.58Zm-15.27-1.92,13,.07a6.49,6.49,0,0,0-13-.07Z"/><path class="cls-1" d="M190.28,88.85c0-7.12,5.48-12.34,12.81-12.3A11.74,11.74,0,0,1,212,80.13l-1.64,1.63a9.61,9.61,0,0,0-7.18-2.92A10.07,10.07,0,1,0,203.05,99a9.5,9.5,0,0,0,7.2-2.88l1.63,1.64a11.83,11.83,0,0,1-8.95,3.53C195.64,101.24,190.25,96,190.28,88.85Z"/><path class="cls-1" d="M214.23,92a9.29,9.29,0,1,1,9.27,9.35A9,9,0,0,1,214.23,92Zm16.08.07c0-4.27-2.84-7.13-6.73-7.15s-6.83,2.82-6.85,7.09,2.89,7.13,6.78,7.15S230.29,96.33,230.31,92.06Z"/><path class="cls-1" d="M254.67,90.72l0,10.59h-2.46l0-10.35c0-3.86-2-5.85-5.46-5.86-3.92,0-6.4,2.4-6.42,6.57l0,9.58h-2.47L237.9,83h2.36l0,3.37c1.33-2.21,3.81-3.49,7-3.47C251.65,82.89,254.7,85.47,254.67,90.72Z"/><path class="cls-1" d="M258.8,99.25l1.12-1.94a11.14,11.14,0,0,0,6.49,2.08c3.47,0,4.9-1.16,4.91-3,0-4.76-11.84-1.06-11.81-8.29,0-3,2.6-5.19,7.25-5.17a12.35,12.35,0,0,1,6.45,1.73l-1.08,2a9.36,9.36,0,0,0-5.38-1.59c-3.3,0-4.76,1.26-4.77,3,0,4.93,11.84,1.27,11.8,8.28,0,3.16-2.8,5.2-7.56,5.18A12.26,12.26,0,0,1,258.8,99.25Z"/><path class="cls-1" d="M294.86,83.23l-.08,18.27h-2.37l0-3.34a7.27,7.27,0,0,1-6.58,3.48c-4.66,0-7.7-2.64-7.67-7.89l.05-10.59h2.46l-.05,10.35c0,3.89,2,5.88,5.46,5.9,3.82,0,6.23-2.44,6.25-6.61l0-9.58Z"/><path class="cls-1" d="M331.89,91.08l-.05,10.59h-2.47l.05-10.35c0-3.85-1.92-5.84-5.22-5.86-3.75,0-6.12,2.4-6.14,6.57l-.05,9.59h-2.46l.05-10.35c0-3.86-1.92-5.85-5.26-5.86-3.71,0-6.12,2.4-6.14,6.57l0,9.58h-2.47l.09-18.27h2.36l0,3.34a7.38,7.38,0,0,1,6.72-3.44c3,0,5.38,1.31,6.48,3.88a8,8,0,0,1,7.24-3.82C329,83.25,331.91,85.84,331.89,91.08Z"/><path class="cls-1" d="M336.82,92.56a9.29,9.29,0,1,1,9.26,9.35A9,9,0,0,1,336.82,92.56Zm16.08.08c0-4.27-2.85-7.14-6.74-7.15s-6.82,2.81-6.84,7.08,2.88,7.14,6.77,7.16S352.88,96.91,352.9,92.64Z"/><path class="cls-1" d="M170.08,62.33a7.06,7.06,0,1,1,7.06-7.06A7.06,7.06,0,0,1,170.08,62.33Zm0-10.42a3.37,3.37,0,1,0,3.37,3.36A3.37,3.37,0,0,0,170.08,51.91Z"/><path class="cls-1" d="M193.23,62.33a7.06,7.06,0,1,1,7.06-7.06A7.06,7.06,0,0,1,193.23,62.33Zm0-10.42a3.37,3.37,0,1,0,3.37,3.36A3.37,3.37,0,0,0,193.23,51.91Z"/><path class="cls-1" d="M198.39,42.41H169.68a1.86,1.86,0,0,1-1.75-1.24L156.39,8a.7.7,0,0,0-.39-.42l-9.38-4a1.85,1.85,0,0,1,1.45-3.4l9.39,4a4.43,4.43,0,0,1,2.42,2.6L171,38.71h27.13l7.73-23.85H168.93a1.85,1.85,0,0,1,0-3.69h37.43a3.32,3.32,0,0,1,3.16,4.35l-8,24.59A3.32,3.32,0,0,1,198.39,42.41Z"/><path class="cls-1" d="M204.23,24h-31a1.85,1.85,0,1,1,0-3.7h31a1.85,1.85,0,0,1,0,3.7Z"/><path class="cls-1" d="M202.35,32.83h-26.2a1.85,1.85,0,0,1,0-3.69h26.2a1.85,1.85,0,1,1,0,3.69Z"/><path class="cls-1" d="M200.2,50.6H166.55a3.35,3.35,0,0,1-3.18-4.41.14.14,0,0,0,0-.06l1.71-4.58a4.41,4.41,0,0,1,4.09-2.84h10.17a1.85,1.85,0,0,1,0,3.7H169.19a.67.67,0,0,0-.63.44l-1.51,4H200.2a1.85,1.85,0,1,1,0,3.7Z"/><path class="cls-1" d="M170.08,62.33a7.06,7.06,0,1,1,7.06-7.06A7.06,7.06,0,0,1,170.08,62.33Zm0-10.42a3.37,3.37,0,1,0,3.37,3.36A3.37,3.37,0,0,0,170.08,51.91Z"/><path class="cls-1" d="M193.23,62.33a7.06,7.06,0,1,1,7.06-7.06A7.06,7.06,0,0,1,193.23,62.33Zm0-10.42a3.37,3.37,0,1,0,3.37,3.36A3.37,3.37,0,0,0,193.23,51.91Z"/></g></g></svg>