<svg xmlns="http://www.w3.org/2000/svg" viewBox="0 0 335.33 105.87"><defs><style>.cls-1{fill:#8292b3;}</style></defs><title>6-primary</title><g id="Capa_2" data-name="Capa 2"><g id="Capa_1-2" data-name="Capa 1"><path class="cls-1" d="M140.13,16.62a2.51,2.51,0,0,1-2.51-2.51V6.05a6.05,6.05,0,0,1,6-6H151a2.51,2.51,0,0,1,0,5h-7.35a1,1,0,0,0-1,1v8.06A2.51,2.51,0,0,1,140.13,16.62Z"/><path class="cls-1" d="M194.05,67.15H182.36a5.61,5.61,0,0,1-5.6-5.6V46.69a.07.07,0,0,0,0,0h-16a.07.07,0,0,0,0,0V61.55a5.61,5.61,0,0,1-5.6,5.6H143.67a6.06,6.06,0,0,1-6-6.06V33.26a2.51,2.51,0,1,1,5,0V61.09a1.05,1.05,0,0,0,1,1h11.38a.59.59,0,0,0,.59-.58V46.69a5.06,5.06,0,0,1,5.05-5.06h16a5.07,5.07,0,0,1,5.06,5.06V61.55a.58.58,0,0,0,.58.58h11.69a1.06,1.06,0,0,0,1-1V32.78a2.51,2.51,0,1,1,5,0V61.09A6.06,6.06,0,0,1,194.05,67.15Z"/><path class="cls-1" d="M204.12,31.73a2.54,2.54,0,0,1-1.5-.49L169.17,6.38a1.16,1.16,0,0,0-1.36,0L134.14,30.64a2.51,2.51,0,0,1-2.94-4.07L164.87,2.3a6.15,6.15,0,0,1,7.29.05l33.46,24.86a2.51,2.51,0,0,1-1.5,4.52Z"/><path class="cls-1" d="M0,93.49c0-7.13,5.43-12.38,12.76-12.38a11.79,11.79,0,0,1,8.91,3.55L20,86.29a9.62,9.62,0,0,0-7.2-2.88,10.09,10.09,0,1,0,0,20.17,9.54,9.54,0,0,0,7.2-2.92l1.64,1.63a11.83,11.83,0,0,1-8.94,3.58C5.43,105.87,0,100.62,0,93.49Z"/><path class="cls-1" d="M35.85,87.23v2.4c-.2,0-.41,0-.59,0-3.82,0-6.15,2.43-6.15,6.74v9.32H26.64V87.37H29V91C30.15,88.52,32.48,87.23,35.85,87.23Z"/><path class="cls-1" d="M56.06,97.28H40.76c.27,3.83,3.2,6.37,7.2,6.37a7.2,7.2,0,0,0,5.59-2.4l1.4,1.6a9,9,0,0,1-7.06,3c-5.71,0-9.6-3.9-9.6-9.32s3.79-9.29,8.93-9.29,8.87,3.79,8.87,9.29C56.09,96.73,56.06,97,56.06,97.28Zm-15.3-1.84h13a6.5,6.5,0,0,0-13,0ZM47.4,84.55H45l4.77-4.31H53Z"/><path class="cls-1" d="M77.83,79.86v25.8H75.46v-3.61a7.91,7.91,0,0,1-7.06,3.79c-5.21,0-9.11-3.79-9.11-9.32a8.86,8.86,0,0,1,9.11-9.29,8,8,0,0,1,7,3.62v-11ZM75.39,96.52c0-4.28-2.92-7.13-6.78-7.13s-6.82,2.85-6.82,7.13,2.93,7.13,6.82,7.13S75.39,100.79,75.39,96.52Z"/><path class="cls-1" d="M84.15,81.6A1.78,1.78,0,0,1,86,79.86a1.75,1.75,0,0,1,1.81,1.7,1.81,1.81,0,0,1-3.62,0Zm.56,5.77h2.47v18.29H84.71Z"/><path class="cls-1" d="M103.7,104.55a5.88,5.88,0,0,1-3.86,1.29c-3.44,0-5.36-2-5.36-5.32V89.46H91.21V87.37h3.27v-4H97v4h5.57v2.09H97v10.92c0,2.15,1.11,3.34,3.17,3.34a4.12,4.12,0,0,0,2.71-.94Z"/><path class="cls-1" d="M105.68,96.52a9.31,9.31,0,1,1,9.32,9.32A9,9,0,0,1,105.68,96.52Zm16.1,0c0-4.28-2.88-7.13-6.78-7.13s-6.82,2.85-6.82,7.13,2.92,7.13,6.82,7.13S121.78,100.79,121.78,96.52Z"/><path class="cls-1" d="M155.13,79.86v25.8h-2.36v-3.61a7.93,7.93,0,0,1-7.06,3.79c-5.22,0-9.12-3.79-9.12-9.32a8.86,8.86,0,0,1,9.12-9.29,8,8,0,0,1,6.95,3.62v-11ZM152.7,96.52c0-4.28-2.92-7.13-6.79-7.13s-6.81,2.85-6.81,7.13,2.92,7.13,6.81,7.13S152.7,100.79,152.7,96.52Z"/><path class="cls-1" d="M177.94,97.28h-15.3c.28,3.83,3.2,6.37,7.2,6.37a7.2,7.2,0,0,0,5.6-2.4l1.39,1.6a9,9,0,0,1-7.06,3c-5.7,0-9.6-3.9-9.6-9.32s3.79-9.29,8.94-9.29S178,91,178,96.52C178,96.73,177.94,97,177.94,97.28Zm-15.3-1.84h13a6.5,6.5,0,0,0-13,0Z"/><path class="cls-1" d="M212.89,81.32l-10.78,24.34h-2.54L188.79,81.32h2.78l9.32,21.14,9.39-21.14Z"/><path class="cls-1" d="M215.22,81.6A1.78,1.78,0,0,1,217,79.86a1.75,1.75,0,0,1,1.81,1.7,1.81,1.81,0,0,1-3.62,0Zm.56,5.77h2.47v18.29h-2.47Z"/><path class="cls-1" d="M240.5,87.37l-8.14,18.29h-2.53l-8.11-18.29h2.58L231.15,103l6.92-15.58Z"/><path class="cls-1" d="M243.42,81.6a1.78,1.78,0,0,1,1.81-1.74,1.75,1.75,0,0,1,1.81,1.7,1.81,1.81,0,0,1-3.62,0Zm.56,5.77h2.47v18.29H244Z"/><path class="cls-1" d="M269.26,97.28H254c.28,3.83,3.2,6.37,7.2,6.37a7.22,7.22,0,0,0,5.6-2.4l1.39,1.6a9,9,0,0,1-7.06,3c-5.71,0-9.6-3.9-9.6-9.32s3.79-9.29,8.94-9.29,8.87,3.79,8.87,9.29C269.3,96.73,269.26,97,269.26,97.28ZM254,95.44h13a6.5,6.5,0,0,0-13,0Z"/><path class="cls-1" d="M291.17,95.06v10.6H288.7V95.3c0-3.86-2-5.84-5.5-5.84-3.92,0-6.39,2.43-6.39,6.6v9.6h-2.47V87.37h2.36v3.37c1.32-2.22,3.79-3.51,7-3.51C288.11,87.23,291.17,89.8,291.17,95.06Z"/><path class="cls-1" d="M314.64,79.86v25.8h-2.36v-3.61a7.93,7.93,0,0,1-7.06,3.79c-5.22,0-9.12-3.79-9.12-9.32a8.86,8.86,0,0,1,9.12-9.29,8,8,0,0,1,6.95,3.62v-11Zm-2.43,16.66c0-4.28-2.92-7.13-6.78-7.13s-6.82,2.85-6.82,7.13,2.92,7.13,6.82,7.13S312.21,100.79,312.21,96.52Z"/><path class="cls-1" d="M335.33,94.33v11.33H333v-2.85c-1.12,1.88-3.27,3-6.3,3-4.14,0-6.68-2.16-6.68-5.32,0-2.82,1.81-5.19,7.06-5.19h5.81V94.22c0-3.13-1.77-4.83-5.18-4.83a9.35,9.35,0,0,0-6.09,2.15l-1.11-1.84a11.64,11.64,0,0,1,7.44-2.47C332.65,87.23,335.33,89.6,335.33,94.33Zm-2.47,5.84v-3h-5.74c-3.54,0-4.69,1.39-4.69,3.27,0,2.12,1.7,3.44,4.62,3.44A5.84,5.84,0,0,0,332.86,100.17Z"/></g></g></svg>