<svg xmlns="http://www.w3.org/2000/svg" viewBox="0 0 334.95 105.75"><defs><style>.cls-1{fill:#fff;}</style></defs><title>6-secundary</title><g id="Capa_2" data-name="Capa 2"><g id="Capa_1-2" data-name="Capa 1"><path class="cls-1" d="M140,16.6a2.5,2.5,0,0,1-2.5-2.5v-8a6,6,0,0,1,6-6h7.35a2.51,2.51,0,0,1,0,5h-7.35a1,1,0,0,0-1,1V14.1A2.5,2.5,0,0,1,140,16.6Z"/><path class="cls-1" d="M193.84,67.07H182.16a5.6,5.6,0,0,1-5.6-5.59V46.63s0,0,0,0h-16a.07.07,0,0,0-.05,0V61.48a5.59,5.59,0,0,1-5.59,5.59H143.51a6,6,0,0,1-6-6V33.22a2.51,2.51,0,1,1,5,0V61a1,1,0,0,0,1,1h11.37a.58.58,0,0,0,.58-.58V46.63a5.06,5.06,0,0,1,5.06-5.05h16a5.06,5.06,0,0,1,5,5.05V61.48a.59.59,0,0,0,.59.58h11.68a1,1,0,0,0,1-1V32.75a2.51,2.51,0,1,1,5,0V61A6,6,0,0,1,193.84,67.07Z"/><path class="cls-1" d="M203.89,31.7a2.45,2.45,0,0,1-1.49-.5L169,6.37a1.16,1.16,0,0,0-1.36,0L134,30.6a2.5,2.5,0,1,1-2.93-4.06L164.69,2.3a6.14,6.14,0,0,1,7.28.05l33.42,24.83a2.51,2.51,0,0,1-1.5,4.52Z"/><path class="cls-1" d="M0,93.39C0,86.27,5.42,81,12.75,81a11.79,11.79,0,0,1,8.89,3.54L20,86.2a9.66,9.66,0,0,0-7.19-2.88,10.07,10.07,0,1,0,0,20.14A9.58,9.58,0,0,0,20,100.55l1.63,1.63a11.84,11.84,0,0,1-8.93,3.57C5.42,105.75,0,100.51,0,93.39Z"/><path class="cls-1" d="M35.81,87.14v2.4c-.21,0-.42,0-.59,0-3.82,0-6.15,2.43-6.15,6.74v9.31H26.61V87.28H29v3.58C30.12,88.42,32.44,87.14,35.81,87.14Z"/><path class="cls-1" d="M56,97.18H40.71c.28,3.82,3.2,6.35,7.19,6.35a7.22,7.22,0,0,0,5.59-2.39l1.39,1.59a9,9,0,0,1-7.05,3c-5.7,0-9.59-3.89-9.59-9.31s3.79-9.27,8.93-9.27S56,90.92,56,96.41C56,96.62,56,96.9,56,97.18ZM40.71,95.34H53.66a6.49,6.49,0,0,0-12.95,0Zm6.63-10.88H44.91l4.76-4.3H53Z"/><path class="cls-1" d="M77.74,79.78v25.77H75.37v-3.62a7.89,7.89,0,0,1-7.05,3.79c-5.21,0-9.1-3.79-9.1-9.31a8.84,8.84,0,0,1,9.1-9.27,8,8,0,0,1,7,3.61v-11ZM75.31,96.41c0-4.27-2.92-7.12-6.78-7.12s-6.8,2.85-6.8,7.12,2.91,7.12,6.8,7.12S75.31,100.68,75.31,96.41Z"/><path class="cls-1" d="M84.06,81.51a1.77,1.77,0,0,1,1.81-1.73,1.75,1.75,0,1,1,0,3.5A1.78,1.78,0,0,1,84.06,81.51Zm.56,5.77h2.46v18.27H84.62Z"/><path class="cls-1" d="M103.58,104.44a5.9,5.9,0,0,1-3.85,1.28c-3.44,0-5.35-1.94-5.35-5.31v-11H91.11V87.28h3.27v-4h2.46v4h5.56v2.08H96.84v10.91c0,2.15,1.11,3.33,3.16,3.33a4,4,0,0,0,2.71-.94Z"/><path class="cls-1" d="M105.56,96.41a9.29,9.29,0,1,1,9.31,9.31A9,9,0,0,1,105.56,96.41Zm16.08,0c0-4.27-2.88-7.12-6.77-7.12s-6.81,2.85-6.81,7.12,2.92,7.12,6.81,7.12S121.64,100.68,121.64,96.41Z"/><path class="cls-1" d="M155,79.78v25.77h-2.36v-3.62a7.91,7.91,0,0,1-7.05,3.79c-5.21,0-9.1-3.79-9.1-9.31a8.84,8.84,0,0,1,9.1-9.27,8,8,0,0,1,7,3.61v-11Zm-2.43,16.63c0-4.27-2.91-7.12-6.77-7.12s-6.81,2.85-6.81,7.12,2.92,7.12,6.81,7.12S152.52,100.68,152.52,96.41Z"/><path class="cls-1" d="M177.74,97.18H162.46c.28,3.82,3.19,6.35,7.19,6.35a7.22,7.22,0,0,0,5.59-2.39l1.39,1.59a9,9,0,0,1-7,3c-5.7,0-9.59-3.89-9.59-9.31s3.79-9.27,8.93-9.27,8.86,3.78,8.86,9.27C177.78,96.62,177.74,96.9,177.74,97.18Zm-15.28-1.84h12.95a6.49,6.49,0,0,0-12.95,0Z"/><path class="cls-1" d="M212.65,81.23l-10.77,24.32h-2.53L188.58,81.23h2.78l9.31,21.12L210,81.23Z"/><path class="cls-1" d="M215,81.51a1.77,1.77,0,0,1,1.81-1.73,1.75,1.75,0,1,1,0,3.5A1.78,1.78,0,0,1,215,81.51Zm.56,5.77H218v18.27h-2.46Z"/><path class="cls-1" d="M240.23,87.28l-8.13,18.27h-2.53l-8.09-18.27h2.57l6.84,15.56,6.91-15.56Z"/><path class="cls-1" d="M243.15,81.51A1.77,1.77,0,0,1,245,79.78a1.75,1.75,0,1,1,0,3.5A1.78,1.78,0,0,1,243.15,81.51Zm.56,5.77h2.46v18.27h-2.46Z"/><path class="cls-1" d="M269,97.18H253.68c.27,3.82,3.19,6.35,7.18,6.35a7.23,7.23,0,0,0,5.6-2.39l1.39,1.59a9,9,0,0,1-7.05,3c-5.7,0-9.59-3.89-9.59-9.31s3.79-9.27,8.93-9.27S269,90.92,269,96.41C269,96.62,269,96.9,269,97.18Zm-15.28-1.84h12.95a6.49,6.49,0,0,0-12.95,0Z"/><path class="cls-1" d="M290.84,95v10.6h-2.47V95.2c0-3.86-2-5.84-5.48-5.84-3.93,0-6.39,2.43-6.39,6.6v9.59H274V87.28h2.36v3.37c1.32-2.23,3.79-3.51,6.95-3.51C287.78,87.14,290.84,89.71,290.84,95Z"/><path class="cls-1" d="M314.29,79.78v25.77h-2.36v-3.62a7.92,7.92,0,0,1-7.06,3.79c-5.21,0-9.1-3.79-9.1-9.31a8.84,8.84,0,0,1,9.1-9.27,8,8,0,0,1,6.95,3.61v-11Zm-2.43,16.63c0-4.27-2.92-7.12-6.78-7.12s-6.8,2.85-6.8,7.12,2.91,7.12,6.8,7.12S311.86,100.68,311.86,96.41Z"/><path class="cls-1" d="M335,94.22v11.33h-2.36V102.7c-1.11,1.87-3.26,3-6.28,3-4.14,0-6.67-2.15-6.67-5.31,0-2.82,1.8-5.18,7.05-5.18h5.8V94.12c0-3.13-1.77-4.83-5.18-4.83a9.28,9.28,0,0,0-6.07,2.16l-1.11-1.85a11.59,11.59,0,0,1,7.43-2.46C332.28,87.14,335,89.5,335,94.22Zm-2.46,5.84v-3h-5.73c-3.54,0-4.69,1.39-4.69,3.27,0,2.12,1.7,3.44,4.62,3.44A5.84,5.84,0,0,0,332.49,100.06Z"/></g></g></svg>