<svg xmlns="http://www.w3.org/2000/svg" viewBox="0 0 160.04 118.1"><defs><style>.cls-1{fill:#8292b3;}</style></defs><title>7-primary</title><g id="Capa_2" data-name="Capa 2"><g id="Capa_1-2" data-name="Capa 1"><path class="cls-1" d="M19.13,94.65c0,5.18-3.79,8.3-10,8.27l-6.54,0,0,7.68H0L.11,86.21l9.12.05C15.42,86.29,19.16,89.43,19.13,94.65Zm-2.57,0c0-3.9-2.54-6.13-7.41-6.16l-6.47,0-.06,12.17,6.47,0C14,100.68,16.54,98.46,16.56,94.64Z"/><path class="cls-1" d="M24.57,84.87H27l-.12,25.81-2.47,0Z"/><path class="cls-1" d="M47.66,99.45l0,11.33H45.24l0-2.85c-1.13,1.87-3.29,3-6.31,3-4.14,0-6.67-2.19-6.66-5.36,0-2.81,1.84-5.17,7.09-5.14l5.81,0V99.33c0-3.13-1.75-4.84-5.16-4.86a9.29,9.29,0,0,0-6.09,2.13l-1.11-1.85a11.56,11.56,0,0,1,7.46-2.43C45,92.34,47.68,94.72,47.66,99.45Zm-2.5,5.83,0-3-5.74,0c-3.55,0-4.7,1.37-4.71,3.25,0,2.12,1.69,3.45,4.61,3.46A5.85,5.85,0,0,0,45.16,105.28Z"/><path class="cls-1" d="M67.23,108.82v2.06l-14.89-.07v-1.64L63.92,94.65l-11.3-.05V92.51l14.47.07v1.64L55.51,108.77Z"/><path class="cls-1" d="M70,101.74a9.31,9.31,0,1,1,9.28,9.37A9,9,0,0,1,70,101.74Zm16.11.08c0-4.28-2.86-7.15-6.75-7.16s-6.83,2.82-6.85,7.09,2.89,7.15,6.78,7.17S86.06,106.1,86.08,101.82Z"/><path class="cls-1" d="M105.89,88.94l0,9.56,12.59.06v2.23l-12.59-.06,0,10.33h-2.57l.11-24.35,16.7.08V89Z"/><path class="cls-1" d="M123.91,87.08a1.78,1.78,0,0,1,1.82-1.73,1.76,1.76,0,0,1,1.8,1.71,1.81,1.81,0,0,1-3.62,0Zm.53,5.77h2.47l-.09,18.3h-2.47Z"/><path class="cls-1" d="M127.11,116.9,128,115a4.2,4.2,0,0,0,2.84,1c1.95,0,3-1.16,3-3.42L134,92.9h2.47l-.1,19.65c0,3.37-1.9,5.55-5.38,5.54A6,6,0,0,1,127.11,116.9Zm6.33-29.78a1.81,1.81,0,1,1,1.8,1.78A1.78,1.78,0,0,1,133.44,87.12Z"/><path class="cls-1" d="M141.43,102.08a9.31,9.31,0,1,1,9.28,9.36A9,9,0,0,1,141.43,102.08Zm16.11.07c0-4.27-2.86-7.14-6.75-7.16s-6.83,2.82-6.85,7.1,2.89,7.14,6.78,7.16S157.52,106.43,157.54,102.15Z"/><path class="cls-1" d="M66.92,60.46a1.57,1.57,0,0,1-.6-.12L45.17,51.82a1.62,1.62,0,0,1,0-3l8.63-3.42a1.62,1.62,0,1,1,1.19,3l-4.86,1.93,16.78,6.76,40.49-16.27L95.08,35.47a1.62,1.62,0,0,1,1.29-3l15.88,6.9a1.64,1.64,0,0,1,1,1.51,1.62,1.62,0,0,1-1,1.48l-44.68,18A1.62,1.62,0,0,1,66.92,60.46Z"/><path class="cls-1" d="M96.27,54.29a1.62,1.62,0,0,1-.6-3.13l11-4.45a1.62,1.62,0,0,1,1.21,3l-11,4.45A1.62,1.62,0,0,1,96.27,54.29Z"/><path class="cls-1" d="M67,72.31a1.67,1.67,0,0,1-.62-.12L44.93,63.43a1.6,1.6,0,0,1-1-1.56l.22-6a1.63,1.63,0,0,1,.74-1.3,1.61,1.61,0,0,1,1.49-.14L67,62.71l16.11-6.5a1.62,1.62,0,1,1,1.21,3L67.64,66a1.68,1.68,0,0,1-1.21,0L47.3,58.29l-.09,2.57L67,68.94l43.52-17.76V45.92a1.62,1.62,0,0,1,3.24,0v6.35a1.61,1.61,0,0,1-1,1.5L67.65,72.19A1.66,1.66,0,0,1,67,72.31Z"/><path class="cls-1" d="M96.26,59.72a1.61,1.61,0,0,1-1.62-1.62v-10L88,45.31a1.62,1.62,0,0,1,1.26-3l7.66,3.24a1.62,1.62,0,0,1,1,1.49v11A1.62,1.62,0,0,1,96.26,59.72Z"/><path class="cls-1" d="M84,64.56a1.62,1.62,0,0,1-1.62-1.62V53l-4.76-2a1.62,1.62,0,0,1,1.27-3l5.74,2.45a1.61,1.61,0,0,1,1,1.49v11A1.63,1.63,0,0,1,84,64.56Z"/><path class="cls-1" d="M69.59,48a24,24,0,1,1,24-24A24,24,0,0,1,69.59,48Zm0-45a21,21,0,1,0,21,21A21.06,21.06,0,0,0,69.59,3Z"/><ellipse class="cls-1" cx="69.59" cy="6.15" rx="1.82" ry="1.81" transform="translate(16.03 51.01) rotate(-45)"/><ellipse class="cls-1" cx="69.59" cy="41.45" rx="1.82" ry="1.81" transform="translate(-8.93 61.35) rotate(-45)"/><path class="cls-1" d="M52.18,22.85a1.81,1.81,0,1,0,1.56,1.56A1.81,1.81,0,0,0,52.18,22.85Z"/><path class="cls-1" d="M87.48,22.85A1.81,1.81,0,1,0,89,24.41,1.81,1.81,0,0,0,87.48,22.85Z"/><path class="cls-1" d="M62.09,33.44A1.76,1.76,0,0,1,60.88,33a1.74,1.74,0,0,1,0-2.46l7-7.2V12.63a1.74,1.74,0,1,1,3.47,0V24a1.75,1.75,0,0,1-.49,1.21l-7.51,7.71A1.73,1.73,0,0,1,62.09,33.44Z"/></g></g></svg>