<svg xmlns="http://www.w3.org/2000/svg" viewBox="0 0 159.86 117.96"><defs><style>.cls-1{fill:#fff;}</style></defs><title>7-secundary</title><g id="Capa_2" data-name="Capa 2"><g id="Capa_1-2" data-name="Capa 1"><path class="cls-1" d="M19.11,94.55c0,5.17-3.79,8.28-10,8.25l-6.53,0,0,7.68H0L.11,86.12l9.1,0C15.4,86.2,19.13,89.34,19.11,94.55Zm-2.57,0c0-3.89-2.54-6.13-7.41-6.15l-6.46,0,0,12.15,6.46,0C13.94,100.57,16.52,98.36,16.54,94.54Z"/><path class="cls-1" d="M24.54,84.78H27l-.13,25.77H24.42Z"/><path class="cls-1" d="M47.6,99.34l-.05,11.32H45.19V107.8c-1.12,1.87-3.28,3-6.3,3-4.13,0-6.66-2.18-6.64-5.34,0-2.82,1.83-5.17,7.07-5.14l5.8,0V99.22c0-3.12-1.75-4.83-5.15-4.85a9.33,9.33,0,0,0-6.09,2.12l-1.1-1.84a11.51,11.51,0,0,1,7.44-2.43C45,92.24,47.63,94.61,47.6,99.34Zm-2.49,5.82,0-3-5.74,0c-3.54,0-4.69,1.36-4.7,3.24,0,2.12,1.69,3.45,4.6,3.46A5.85,5.85,0,0,0,45.11,105.16Z"/><path class="cls-1" d="M67.15,108.7v2l-14.86-.07v-1.63l11.57-14.5-11.29,0V92.41L67,92.48v1.63L55.45,108.65Z"/><path class="cls-1" d="M69.9,101.63A9.29,9.29,0,1,1,79.16,111,9,9,0,0,1,69.9,101.63Zm16.08.08c0-4.28-2.85-7.14-6.74-7.16s-6.82,2.82-6.84,7.09,2.88,7.14,6.77,7.15S86,106,86,101.71Z"/><path class="cls-1" d="M105.77,88.84l0,9.56,12.58,0v2.23l-12.58-.06,0,10.31H103.1l.11-24.31,16.67.08v2.22Z"/><path class="cls-1" d="M123.77,87a1.78,1.78,0,0,1,1.82-1.72A1.74,1.74,0,0,1,127.38,87a1.76,1.76,0,0,1-1.81,1.79A1.78,1.78,0,0,1,123.77,87Zm.53,5.77h2.47L126.68,111h-2.47Z"/><path class="cls-1" d="M127,116.76l.87-1.87a4.25,4.25,0,0,0,2.85,1c1.94,0,3-1.16,3-3.42l.09-19.62h2.46l-.09,19.62c0,3.37-1.9,5.55-5.37,5.53A5.93,5.93,0,0,1,127,116.76ZM133.29,87a1.78,1.78,0,0,1,1.81-1.73A1.75,1.75,0,0,1,136.9,87a1.77,1.77,0,0,1-1.81,1.8A1.79,1.79,0,0,1,133.29,87Z"/><path class="cls-1" d="M141.28,102a9.29,9.29,0,1,1,9.26,9.35A9,9,0,0,1,141.28,102Zm16.08.07c0-4.27-2.85-7.13-6.74-7.15s-6.82,2.82-6.84,7.09,2.88,7.13,6.77,7.15S157.34,106.31,157.36,102Z"/><path class="cls-1" d="M66.85,60.39a1.83,1.83,0,0,1-.61-.11L45.12,51.76a1.62,1.62,0,0,1,0-3l8.62-3.41a1.61,1.61,0,1,1,1.19,3l-4.86,1.93L66.85,57l40.44-16.26L95,35.43a1.62,1.62,0,0,1,1.29-3l15.86,6.89a1.62,1.62,0,0,1,0,3l-44.64,18A1.77,1.77,0,0,1,66.85,60.39Z"/><path class="cls-1" d="M96.17,54.22a1.61,1.61,0,0,1-.61-3.11l11-4.45a1.62,1.62,0,0,1,1.21,3l-11,4.45A1.59,1.59,0,0,1,96.17,54.22Z"/><path class="cls-1" d="M67,72.23a1.62,1.62,0,0,1-.61-.12L44.89,63.36a1.61,1.61,0,0,1-1-1.56l.23-6a1.62,1.62,0,0,1,.73-1.3,1.64,1.64,0,0,1,1.49-.15L67,62.64l16.09-6.49a1.62,1.62,0,1,1,1.21,3L67.57,65.88a1.63,1.63,0,0,1-1.21,0L47.25,58.22l-.09,2.57L67,68.86l43.47-17.74V45.87a1.62,1.62,0,0,1,3.24,0v6.34a1.62,1.62,0,0,1-1,1.5L67.57,72.11A1.58,1.58,0,0,1,67,72.23Z"/><path class="cls-1" d="M96.15,59.66A1.63,1.63,0,0,1,94.53,58v-10l-6.66-2.82a1.62,1.62,0,0,1,1.26-3l7.65,3.24a1.62,1.62,0,0,1,1,1.49V58A1.62,1.62,0,0,1,96.15,59.66Z"/><path class="cls-1" d="M83.88,64.48a1.61,1.61,0,0,1-1.61-1.61v-10l-4.75-2a1.62,1.62,0,1,1,1.27-3l5.73,2.44a1.63,1.63,0,0,1,1,1.49v11A1.61,1.61,0,0,1,83.88,64.48Z"/><path class="cls-1" d="M69.52,47.93a24,24,0,1,1,24-24A24,24,0,0,1,69.52,47.93Zm0-45a21,21,0,1,0,21,21A21,21,0,0,0,69.52,3Z"/><ellipse class="cls-1" cx="69.52" cy="6.14" rx="1.81" ry="1.81" transform="translate(16.02 50.95) rotate(-45)"/><ellipse class="cls-1" cx="69.52" cy="41.4" rx="1.81" ry="1.81" transform="translate(-8.92 61.28) rotate(-45)"/><path class="cls-1" d="M52.12,22.82a1.81,1.81,0,1,0,1.56,1.56A1.81,1.81,0,0,0,52.12,22.82Z"/><path class="cls-1" d="M87.38,22.82a1.81,1.81,0,1,0,1.56,1.56A1.81,1.81,0,0,0,87.38,22.82Z"/><path class="cls-1" d="M62,33.4a1.73,1.73,0,0,1-1.24-2.94l7-7.2V12.61a1.74,1.74,0,0,1,3.47,0V24a1.73,1.73,0,0,1-.49,1.21l-7.5,7.71A1.76,1.76,0,0,1,62,33.4Z"/></g></g></svg>