<svg xmlns="http://www.w3.org/2000/svg" viewBox="0 0 44.67 46.7"><defs><style>.cls-1{fill:#fff;}</style></defs><title>ahorroBlanco</title><g id="Capa_2" data-name="Capa 2"><g id="Capa_1-2" data-name="Capa 1"><path class="cls-1" d="M34,21.22a2.14,2.14,0,1,0-2.13,2.13A2.13,2.13,0,0,0,34,21.22Z"/><path class="cls-1" d="M10.6,46.7A3.09,3.09,0,0,1,7.71,45L6,41.71c-1-1.8-1.94-3.66-2.88-5.51A28.84,28.84,0,0,1,.47,29.74,16.53,16.53,0,0,1,2.79,16.61a17.29,17.29,0,0,1,5.54-5.29A16.3,16.3,0,0,1,10.6,10.2a1.27,1.27,0,0,1,1,2.33,16.13,16.13,0,0,0-1.93.94A14.77,14.77,0,0,0,4.92,18a13.91,13.91,0,0,0-2,11.17,26.94,26.94,0,0,0,2.44,5.89c.93,1.83,1.91,3.68,2.86,5.47L10,43.77a.61.61,0,0,0,.66.4h3.87c.47,0,.57-.1.58-.58s0-.82,0-1.23v-.56a1.27,1.27,0,0,1,.41-.93,1.23,1.23,0,0,1,1-.33l1.13.11c.81.08,1.57.16,2.33.19s1.73,0,2.64-.08l.46,0A1.8,1.8,0,0,1,25,42c.13.34.28.67.44,1l.33.75a.56.56,0,0,0,.64.41h1.47c.82,0,1.66,0,2.49,0,.41,0,.53-.12.53-.55v-.75c0-1,0-2,0-3A2.35,2.35,0,0,1,32,37.61a15.32,15.32,0,0,0,5.09-5.1,12.34,12.34,0,0,0,.68-1.31c.15-.32.31-.66.49-1a2.56,2.56,0,0,1,1-1c.74-.42,1.54-.84,2.6-1.37.18-.09.25-.15.25-.44V22.53a.7.7,0,0,0-.06-.35,1,1,0,0,0-.36-.06H41c-.38,0-.77,0-1.16,0a1.77,1.77,0,0,1-1.54-1.06,14.88,14.88,0,0,0-4.1-5.81c-.09-.08-.15-.16-.2-.21l0,0a1.27,1.27,0,0,1-.2-1.41l.46-.94c.43-.88.87-1.76,1.29-2.64v0a3.08,3.08,0,0,0,.18-.42s0-.06,0-.09a.1.1,0,0,0-.08-.05,14.35,14.35,0,0,0-8.18,1.26,2.53,2.53,0,0,1-1.9.21,16.12,16.12,0,0,0-4.14-.54,1.27,1.27,0,1,1,0-2.53h0a17.88,17.88,0,0,1,4.82.63h0l.05,0A16.69,16.69,0,0,1,35.84,6.9a2.67,2.67,0,0,1,2.34,3.27,4.1,4.1,0,0,1-.36.93h0c-.43.89-.87,1.77-1.3,2.65l-.05.11a17.68,17.68,0,0,1,4,5.72H41c.24,0,.49,0,.75,0a2.74,2.74,0,0,1,2.92,2.93c0,1,0,2,0,3v1.85A2.91,2.91,0,0,1,43,30.08c-1,.5-1.76.9-2.45,1.28l0,0c-.15.29-.29.58-.44.9-.24.5-.49,1-.79,1.52a18,18,0,0,1-5.92,5.94h0c0,1.05,0,2.1,0,3.12,0,.25,0,.5,0,.75a2.92,2.92,0,0,1-3,3.07h-4a3.06,3.06,0,0,1-3-2c-.09-.22-.19-.44-.3-.68s-.23-.5-.34-.77h-.05c-.93.06-1.9.11-2.87.08-.75,0-1.49-.09-2.22-.17,0,.15,0,.31,0,.46a3,3,0,0,1-3.1,3.05H10.6Z"/><g id="_4A6FX9" data-name="4A6FX9"><path class="cls-1" d="M15.5,13.73h0a6.81,6.81,0,0,1-4.85-2,6.92,6.92,0,0,1-2-4.88,6.71,6.71,0,0,1,2-4.8A6.88,6.88,0,0,1,15.5,0h0a6.9,6.9,0,0,1,6.86,6.86,6.88,6.88,0,0,1-6.88,6.87Zm0-2.48h0a4.39,4.39,0,1,0,0-8.77h0a4.41,4.41,0,0,0-3.13,1.31,4.2,4.2,0,0,0-1.26,3,4.38,4.38,0,0,0,4.38,4.43Z"/></g><g id="_4A6FX9-2" data-name="4A6FX9"><path class="cls-1" d="M15.5,18h0A11.16,11.16,0,0,1,10.2,16.7a1.24,1.24,0,0,1,1.18-2.19,8.73,8.73,0,0,0,11.07-2.43,1.24,1.24,0,1,1,2,1.5A11.26,11.26,0,0,1,15.5,18Z"/></g></g></g></svg>