<svg xmlns="http://www.w3.org/2000/svg" viewBox="0 0 70.93 64"><defs><style>.cls-1{fill:#8697b8;}</style></defs><title>atencionmedicaGris</title><g id="Capa_2" data-name="Capa 2"><g id="Capa_1-2" data-name="Capa 1"><path class="cls-1" d="M49.27,30.76H40.59V22.08A1.07,1.07,0,0,0,39.52,21h-8.1a1.08,1.08,0,0,0-1.08,1.08v8.68H21.66a1.08,1.08,0,0,0-1.08,1.07v8.1A1.09,1.09,0,0,0,21.66,41h8.68v8.68a1.08,1.08,0,0,0,1.08,1.07h8.1a1.07,1.07,0,0,0,1.07-1.07V41h8.68a1.08,1.08,0,0,0,1.08-1.08v-8.1A1.07,1.07,0,0,0,49.27,30.76Z"/><path class="cls-1" d="M64.3,64H6.64A6.65,6.65,0,0,1,0,57.36V13.21A6.65,6.65,0,0,1,6.64,6.57H64.3a6.64,6.64,0,0,1,6.63,6.64V57.36A6.64,6.64,0,0,1,64.3,64ZM6.64,11.08a2.13,2.13,0,0,0-2.12,2.13V57.36a2.12,2.12,0,0,0,2.12,2.12H64.3a2.12,2.12,0,0,0,2.12-2.12V13.21a2.13,2.13,0,0,0-2.12-2.13Z"/><path class="cls-1" d="M46.23,11.08A2.26,2.26,0,0,1,44,8.83a4.31,4.31,0,0,0-4.31-4.31H31.27A4.31,4.31,0,0,0,27,8.83a2.26,2.26,0,0,1-4.52,0A8.84,8.84,0,0,1,31.27,0h8.39a8.84,8.84,0,0,1,8.83,8.83A2.26,2.26,0,0,1,46.23,11.08Z"/><path class="cls-1" d="M19.33,10a1.13,1.13,0,0,1-1.12-1.13v-1A.83.83,0,0,0,17.39,7H11.71a.82.82,0,0,0-.82.81v1a1.13,1.13,0,1,1-2.25,0v-1a3.08,3.08,0,0,1,3.07-3.07h5.68a3.08,3.08,0,0,1,3.07,3.07v1A1.13,1.13,0,0,1,19.33,10Z"/><path class="cls-1" d="M61.17,10A1.13,1.13,0,0,1,60,8.83v-1A.82.82,0,0,0,59.22,7H53.55a.82.82,0,0,0-.82.81v1a1.13,1.13,0,0,1-2.26,0v-1a3.08,3.08,0,0,1,3.08-3.07h5.67A3.08,3.08,0,0,1,62.3,7.85v1A1.14,1.14,0,0,1,61.17,10Z"/></g></g></svg>