<svg xmlns="http://www.w3.org/2000/svg" viewBox="0 0 39.65 35.77"><defs><style>.cls-1{fill:#fff;}</style></defs><title>atencionMedica</title><g id="Capa_2" data-name="Capa 2"><g id="Capa_1-2" data-name="Capa 1"><path class="cls-1" d="M27.54,17.19H22.69V12.34a.6.6,0,0,0-.6-.6H17.56a.6.6,0,0,0-.6.6v4.85H12.11a.6.6,0,0,0-.6.6v4.53a.6.6,0,0,0,.6.6H17v4.85a.6.6,0,0,0,.6.61h4.53a.6.6,0,0,0,.6-.61V22.92h4.85a.6.6,0,0,0,.6-.6V17.79A.6.6,0,0,0,27.54,17.19Z"/><path class="cls-1" d="M35.94,35.77H3.71A3.71,3.71,0,0,1,0,32.06V7.38A3.72,3.72,0,0,1,3.71,3.67H35.94a3.72,3.72,0,0,1,3.71,3.71V32.06A3.71,3.71,0,0,1,35.94,35.77ZM3.71,6.2A1.19,1.19,0,0,0,2.52,7.38V32.06a1.19,1.19,0,0,0,1.19,1.19H35.94a1.19,1.19,0,0,0,1.19-1.19V7.38A1.19,1.19,0,0,0,35.94,6.2Z"/><path class="cls-1" d="M25.84,6.2a1.27,1.27,0,0,1-1.26-1.27,2.42,2.42,0,0,0-2.41-2.41H17.48a2.42,2.42,0,0,0-2.41,2.41,1.26,1.26,0,1,1-2.52,0A4.93,4.93,0,0,1,17.48,0h4.69A4.93,4.93,0,0,1,27.1,4.93,1.26,1.26,0,0,1,25.84,6.2Z"/><path class="cls-1" d="M10.81,5.56a.63.63,0,0,1-.63-.63V4.39a.47.47,0,0,0-.46-.46H6.55a.46.46,0,0,0-.46.46v.54a.63.63,0,0,1-1.26,0V4.39A1.72,1.72,0,0,1,6.55,2.67H9.72a1.72,1.72,0,0,1,1.72,1.72v.54A.63.63,0,0,1,10.81,5.56Z"/><path class="cls-1" d="M34.19,5.56a.63.63,0,0,1-.63-.63V4.39a.46.46,0,0,0-.46-.46H29.93a.47.47,0,0,0-.46.46v.54a.63.63,0,0,1-1.26,0V4.39a1.72,1.72,0,0,1,1.72-1.72H33.1a1.72,1.72,0,0,1,1.72,1.72v.54A.63.63,0,0,1,34.19,5.56Z"/></g></g></svg>