<svg xmlns="http://www.w3.org/2000/svg" viewBox="0 0 39.65 45.42"><defs><style>.cls-1{fill:#fff;}</style></defs><title>cajero</title><g id="Capa_2" data-name="Capa 2"><g id="Capa_1-2" data-name="Capa 1"><path class="cls-1" d="M35.81,40h-.12a1.08,1.08,0,0,1-1-1.18c0-.36.89-8.77,1.48-12a39.46,39.46,0,0,1,1.06-4.66c.69-2.92-.44-3.72-.67-3.85a2.18,2.18,0,0,1-.58-.47,81,81,0,0,0-7.09-7.38V24.08A1.91,1.91,0,0,1,27,26h0a2.39,2.39,0,0,1-1.68-.68,10.78,10.78,0,0,1-1.94-2.91,2.89,2.89,0,0,1-.29-1.18C23,19.7,21.9,16.65,20.63,15.9a.65.65,0,0,0-.69-.06c-.91.46-.88,3.05.09,6.17a5.72,5.72,0,0,1,.23,1.3A50.24,50.24,0,0,0,21.11,30a16.35,16.35,0,0,0,3.69,7.55,1.09,1.09,0,0,1,.3.75v.59a1.08,1.08,0,0,1-2.16,0v-.18a18.43,18.43,0,0,1-4-8.32,54,54,0,0,1-.88-7,3.27,3.27,0,0,0-.14-.77c-1.92-6.21-.19-8.14,1-8.74a2.8,2.8,0,0,1,2.77.13c2.2,1.31,3.46,5.32,3.51,7.1a.89.89,0,0,0,.08.32,8.42,8.42,0,0,0,1.44,2.23V8.25a1.06,1.06,0,0,1,.47-.89,1.08,1.08,0,0,1,1-.12c.35.14,2.49,1.22,9.41,9.11h0c.66.38,2.75,1.93,1.7,6.28l0,.09a38.77,38.77,0,0,0-1,4.42c-.57,3.16-1.45,11.76-1.46,11.85A1.09,1.09,0,0,1,35.81,40Z"/><path class="cls-1" d="M35.62,45.42H24.06A2.45,2.45,0,0,1,21.61,43V40.25a2.45,2.45,0,0,1,2.45-2.44H35.62a2.44,2.44,0,0,1,2.44,2.44V43A2.45,2.45,0,0,1,35.62,45.42ZM24.06,40a.29.29,0,0,0-.28.28V43a.29.29,0,0,0,.28.29H35.62A.29.29,0,0,0,35.9,43V40.25a.29.29,0,0,0-.28-.28Z"/><path class="cls-1" d="M31.6,9.6H28.8a1.12,1.12,0,0,1,0-2.24h2.8a2.56,2.56,0,1,0,0-5.11H4.8a2.56,2.56,0,0,0,0,5.11H7.47a1.12,1.12,0,0,1,0,2.24H4.8A4.8,4.8,0,0,1,4.8,0H31.6a4.8,4.8,0,0,1,0,9.6Z"/><path class="cls-1" d="M19.45,27.74H10.27A2.8,2.8,0,0,1,7.47,25V5A1.08,1.08,0,0,1,8.55,3.87h19.3A1.08,1.08,0,0,1,28.93,5V9.2a1.08,1.08,0,1,1-2.16,0V6H9.63V25a.64.64,0,0,0,.64.63h9.18a1.08,1.08,0,0,1,0,2.16Z"/><path class="cls-1" d="M31.11,6H5.29a1.08,1.08,0,0,1,0-2.16H31.11a1.08,1.08,0,0,1,0,2.16Z"/><rect class="cls-1" x="11.79" y="4.95" width="3.98" height="21.71"/></g></g></svg>