<svg xmlns="http://www.w3.org/2000/svg" viewBox="0 0 65.41 74.93"><defs><style>.cls-1{fill:#8697b8;}</style></defs><title>cajerosGris</title><g id="Capa_2" data-name="Capa 2"><g id="Capa_1-2" data-name="Capa 1"><path class="cls-1" d="M59.07,65.94h-.19a1.79,1.79,0,0,1-1.59-2c.06-.59,1.48-14.47,2.45-19.82a65.58,65.58,0,0,1,1.74-7.7c1.14-4.81-.72-6.13-1.1-6.35a3.58,3.58,0,0,1-1-.78A136.7,136.7,0,0,0,47.73,17.16V39.72a3.13,3.13,0,0,1-3.13,3.13h-.06a4,4,0,0,1-2.77-1.11,17.38,17.38,0,0,1-3.2-4.81A4.74,4.74,0,0,1,38.09,35c-.08-2.49-2-7.52-4.06-8.76a1,1,0,0,0-1.14-.09c-1.5.75-1.44,5,.15,10.17a8.65,8.65,0,0,1,.37,2.15,86.16,86.16,0,0,0,1.41,11A27,27,0,0,0,40.92,62a1.8,1.8,0,0,1,.49,1.23v1a1.79,1.79,0,1,1-3.57,0v-.29a30.6,30.6,0,0,1-6.53-13.73,91.8,91.8,0,0,1-1.46-11.5,5,5,0,0,0-.22-1.27C26.47,27.12,29.31,23.94,31.29,23a4.64,4.64,0,0,1,4.57.21c3.63,2.17,5.7,8.78,5.8,11.72a1.29,1.29,0,0,0,.13.53,14.11,14.11,0,0,0,2.37,3.67V13.61a1.79,1.79,0,0,1,2.42-1.67c.59.23,4.11,2,15.52,15l0,0c1.09.61,4.53,3.18,2.8,10.35,0,0,0,.1,0,.15a62,62,0,0,0-1.64,7.29c-1,5.21-2.4,19.4-2.41,19.54A1.79,1.79,0,0,1,59.07,65.94Z"/><path class="cls-1" d="M58.76,74.93H39.69a4,4,0,0,1-4-4V66.4a4,4,0,0,1,4-4H58.76a4,4,0,0,1,4,4v4.49A4,4,0,0,1,58.76,74.93Zm-19.07-9a.47.47,0,0,0-.47.46v4.49a.48.48,0,0,0,.47.47H58.76a.48.48,0,0,0,.47-.47V66.4a.47.47,0,0,0-.47-.46Z"/><path class="cls-1" d="M52.13,15.84H47.51a1.85,1.85,0,0,1,0-3.7h4.62a4.22,4.22,0,1,0,0-8.43H7.92a4.22,4.22,0,0,0,0,8.43h4.4a1.85,1.85,0,1,1,0,3.7H7.92A7.92,7.92,0,0,1,7.92,0H52.13a7.92,7.92,0,0,1,0,15.84Z"/><path class="cls-1" d="M32.09,45.77H16.94a4.62,4.62,0,0,1-4.61-4.62v-33a1.78,1.78,0,0,1,1.78-1.79H45.94a1.79,1.79,0,0,1,1.79,1.79v7a1.79,1.79,0,0,1-3.57,0V10H15.89v31.2a1.06,1.06,0,0,0,1.05,1.05H32.09a1.79,1.79,0,0,1,0,3.57Z"/><path class="cls-1" d="M51.32,10H8.73a1.79,1.79,0,0,1,0-3.57H51.32a1.79,1.79,0,0,1,0,3.57Z"/><rect class="cls-1" x="19.46" y="8.17" width="6.56" height="35.81"/></g></g></svg>