<svg xmlns="http://www.w3.org/2000/svg" viewBox="0 0 52.69 35.74"><defs><style>.cls-1{fill:#fff;}</style></defs><title>creditos</title><g id="Capa_2" data-name="Capa 2"><g id="Capa_1-2" data-name="Capa 1"><path class="cls-1" d="M52.19,14.56a2.38,2.38,0,0,0-2-.79h-.12a2.59,2.59,0,0,0-2.72-.08,11.5,11.5,0,0,0-1.84,1.21l-2.5,2c-1.17.92-2.36,1.87-3.49,2.78A7.58,7.58,0,0,0,37.58,19a23.81,23.81,0,0,0-3-.38,19.64,19.64,0,0,1-3.18-.45,34.47,34.47,0,0,1-4.91-1.62,22.72,22.72,0,0,0-5.64-1.78A12.8,12.8,0,0,0,10.11,18a10.16,10.16,0,0,1-1.5,1l-.72.45-.52.26-.56-1.27L0,20.63,6.66,35.74l6.18-3.59-.56-1.27c.72-.31,1.18-.52,1.37-.62a9.12,9.12,0,0,1,7.58-.5c2.7.88,5.41,1.56,8.18,2.24a9.09,9.09,0,0,0,2.11.26,8.1,8.1,0,0,0,3.87-1l3.1-1.64c2.12-1.12,4.31-2.27,6.44-3.46A9.08,9.08,0,0,0,47.59,24c1.23-1.57,2.39-3.21,3.51-4.8.36-.5.72-1,1.08-1.53a2.8,2.8,0,0,0,.43-1A2.33,2.33,0,0,0,52.19,14.56ZM7.47,33.25,2.38,21.71l3.47-1.1,4.76,10.81Zm43.45-17a1.29,1.29,0,0,1-.16.41l-1.08,1.53c-1.11,1.57-2.26,3.2-3.46,4.73a7.29,7.29,0,0,1-2.14,1.75c-2.12,1.18-4.3,2.33-6.4,3.44l-3.11,1.64a6.5,6.5,0,0,1-4.75.57c-2.73-.67-5.4-1.34-8-2.2a10.92,10.92,0,0,0-8.95.62c-.15.08-.71.33-1.25.56L8.08,21.35,8.84,21c.22-.15.45-.29.68-.43a10.85,10.85,0,0,0,1.75-1.23,11,11,0,0,1,9.33-2.82,21.49,21.49,0,0,1,5.2,1.67A36.3,36.3,0,0,0,31,19.85a20.59,20.59,0,0,0,3.46.49,23.92,23.92,0,0,1,2.81.36h0a5.78,5.78,0,0,1,1.83.73h0a1.14,1.14,0,0,1,.55.83A1.47,1.47,0,0,1,39,23.41a3.87,3.87,0,0,1-3,.86c-.52-.07-1-.16-1.57-.26l-.8-.14-1.45-.25c-1.15-.2-2.34-.41-3.53-.57a9.3,9.3,0,0,0-4.47.45.87.87,0,1,0,.6,1.64,7.62,7.62,0,0,1,3.64-.36c1.15.16,2.33.36,3.46.56l1.46.25.78.14c.54.1,1.1.2,1.67.27a5.62,5.62,0,0,0,4.25-1.22,3.2,3.2,0,0,0,1.31-2.58,2.55,2.55,0,0,0-.5-1.42l3.16-2.53,2.51-2a9.51,9.51,0,0,1,1.59-1,.83.83,0,0,1,.94,0,1.67,1.67,0,0,0,.64.26,2.32,2.32,0,0,0,.52,0h0a.65.65,0,0,1,.56.18A.6.6,0,0,1,50.92,16.23Z"/><path class="cls-1" d="M34.39,16.35A8.12,8.12,0,0,1,29,13.71h0A8.19,8.19,0,0,1,29.5,2.14a8.19,8.19,0,1,1,11,12.1,8.14,8.14,0,0,1-5.89,2.13ZM35.54,1.43h-.21A6.77,6.77,0,0,0,30,12.75h0A6.78,6.78,0,1,0,35.54,1.43Z"/><path class="cls-1" d="M38,8.41a2.16,2.16,0,0,0-.88-.76,9.81,9.81,0,0,0-2-.61,1.66,1.66,0,0,1-.72-.25.38.38,0,0,1-.15-.29.49.49,0,0,1,.19-.39A.86.86,0,0,1,35,6a1.09,1.09,0,0,1,.71.21,1,1,0,0,1,.33.67l2-.11a2.08,2.08,0,0,0-.83-1.56,3,3,0,0,0-1.59-.47V4.14H34.36v.6a2.92,2.92,0,0,0-.8.21,2,2,0,0,0-.92.74,1.84,1.84,0,0,0-.31,1A1.69,1.69,0,0,0,32.93,8a4.79,4.79,0,0,0,2,.83,2.7,2.7,0,0,1,1.08.4.6.6,0,0,1,0,1,1,1,0,0,1-.7.22,1.13,1.13,0,0,1-.94-.42,1.53,1.53,0,0,1-.26-.75l-2,.12a2.66,2.66,0,0,0,.76,1.72,2.58,2.58,0,0,0,1.52.62v.7h1.31v-.66a3.67,3.67,0,0,0,1.25-.27,2.4,2.4,0,0,0,1-.85,2.2,2.2,0,0,0,.36-1.22A2,2,0,0,0,38,8.41Z"/></g></g></svg>