<svg xmlns="http://www.w3.org/2000/svg" viewBox="0 0 74.38 50.45"><defs><style>.cls-1{fill:#8292b3;}</style></defs><title>creditoGris</title><g id="Capa_2" data-name="Capa 2"><g id="Capa_1-2" data-name="Capa 1"><path class="cls-1" d="M73.66,20.56a3.32,3.32,0,0,0-2.84-1.13h-.18a3.62,3.62,0,0,0-3.83-.12A16.49,16.49,0,0,0,64.21,21c-1.12.9-2.29,1.82-3.53,2.8-1.65,1.31-3.33,2.65-4.92,3.94a10.75,10.75,0,0,0-2.71-1,34.57,34.57,0,0,0-4.25-.55,27.31,27.31,0,0,1-4.49-.62,51.33,51.33,0,0,1-6.94-2.29,32.19,32.19,0,0,0-7.95-2.52,18.08,18.08,0,0,0-15.15,4.58,14.79,14.79,0,0,1-2.11,1.46l-1,.64c-.1.06-.4.2-.73.36l-.79-1.79L0,29.12,9.4,50.45l8.72-5.08-.79-1.78c1-.44,1.67-.74,1.93-.88A12.88,12.88,0,0,1,30,42c3.81,1.24,7.63,2.2,11.54,3.15a12.34,12.34,0,0,0,3,.37A11.58,11.58,0,0,0,50,44.14c1.45-.78,2.93-1.56,4.37-2.32,3-1.57,6.08-3.2,9.08-4.87a12.75,12.75,0,0,0,3.76-3.11c1.74-2.2,3.38-4.53,5-6.77.5-.71,1-1.44,1.52-2.15a4.06,4.06,0,0,0,.61-1.41A3.26,3.26,0,0,0,73.66,20.56ZM10.55,46.94,3.36,30.64,8.25,29.1,15,44.35Zm61.32-24a1.62,1.62,0,0,1-.22.58c-.52.72-1,1.45-1.53,2.16-1.57,2.22-3.19,4.51-4.89,6.67a10,10,0,0,1-3,2.47c-3,1.66-6.06,3.29-9,4.85L48.8,42a9.15,9.15,0,0,1-6.7.81c-3.86-.94-7.64-1.89-11.37-3.11a15.38,15.38,0,0,0-12.63.88c-.22.12-1,.46-1.76.79L11.4,30.13c.63-.3.93-.46,1.08-.55l1-.6a16.19,16.19,0,0,0,2.47-1.73,15.52,15.52,0,0,1,13.17-4,29.54,29.54,0,0,1,7.34,2.35A51.78,51.78,0,0,0,43.7,28a30.48,30.48,0,0,0,4.89.7,32.18,32.18,0,0,1,4,.5h.05a8.1,8.1,0,0,1,2.59,1h0A1.56,1.56,0,0,1,56,31.45,2.06,2.06,0,0,1,55.07,33a5.41,5.41,0,0,1-4.17,1.21c-.73-.08-1.45-.22-2.21-.36l-1.14-.2-2-.35c-1.62-.28-3.31-.58-5-.8a13.06,13.06,0,0,0-6.31.63,1.23,1.23,0,1,0,.84,2.31A10.61,10.61,0,0,1,40.2,35c1.63.22,3.28.51,4.89.79l2.06.35,1.09.2c.77.14,1.56.28,2.36.38a7.94,7.94,0,0,0,6-1.73,4.48,4.48,0,0,0,1.84-3.63,3.6,3.6,0,0,0-.71-2c1.45-1.18,3-2.39,4.47-3.56L65.75,23A14.24,14.24,0,0,1,68,21.48a1.17,1.17,0,0,1,1.33,0,2.63,2.63,0,0,0,.9.36,3.09,3.09,0,0,0,.74,0h0a.94.94,0,0,1,.78.25A.83.83,0,0,1,71.87,22.91Z"/><path class="cls-1" d="M48.54,23.08a11.45,11.45,0,0,1-7.65-3.73h0a11.56,11.56,0,1,1,8,3.75ZM50.16,2l-.29,0a9.56,9.56,0,0,0-7.51,16h0a9.56,9.56,0,1,0,7.8-16Z"/><path class="cls-1" d="M53.69,11.88a3,3,0,0,0-1.24-1.08,12.72,12.72,0,0,0-2.81-.86,2.62,2.62,0,0,1-1-.35.58.58,0,0,1-.22-.42.68.68,0,0,1,.27-.54,1.17,1.17,0,0,1,.78-.22,1.51,1.51,0,0,1,1,.3,1.46,1.46,0,0,1,.47.95l2.83-.17a3,3,0,0,0-1.16-2.2,4.38,4.38,0,0,0-2.25-.66V5.85H48.5v.84A4.56,4.56,0,0,0,47.38,7a2.91,2.91,0,0,0-1.31,1,2.51,2.51,0,0,0-.43,1.41,2.35,2.35,0,0,0,.85,1.87,6.41,6.41,0,0,0,2.81,1.18,4,4,0,0,1,1.53.56.88.88,0,0,1,.34.68.92.92,0,0,1-.35.7,1.46,1.46,0,0,1-1,.3,1.61,1.61,0,0,1-1.33-.59,2.27,2.27,0,0,1-.37-1.06l-2.86.18a3.8,3.8,0,0,0,1.08,2.42,3.59,3.59,0,0,0,2.15.87v1h1.85v-.94a5.26,5.26,0,0,0,1.77-.38A3.16,3.16,0,0,0,53.56,15a3,3,0,0,0,.52-1.72A2.67,2.67,0,0,0,53.69,11.88Z"/></g></g></svg>