<svg xmlns="http://www.w3.org/2000/svg" viewBox="0 0 54.09 35.67"><defs><style>.cls-1{fill:#fff;}</style></defs><title>depositos</title><g id="Capa_2" data-name="Capa 2"><g id="Capa_1-2" data-name="Capa 1"><path class="cls-1" d="M4,34.27a1,1,0,0,1-.18-2l3.38-.61a.22.22,0,0,0,.17-.2l.26-12.71a.21.21,0,0,0-.21-.21L1,18.5a1,1,0,0,1-1-1,1,1,0,0,1,1-1l6.39.06a2.21,2.21,0,0,1,1.55.67,2.18,2.18,0,0,1,.62,1.57L9.3,31.53a2.21,2.21,0,0,1-1.8,2.11l-3.37.61Z"/><path class="cls-1" d="M18.27,32.48c-.42,0-.86,0-1.31-.06-4.91-.42-8.67-1-8.71-1a1,1,0,1,1,.28-2s3.75.52,8.6.95c4.31.37,6.33-1.43,6.46-1.55a.58.58,0,0,1,.12-.1l9.35-6.57A1.87,1.87,0,0,0,31.18,19c-1,.49-3.48,1.59-5.36,2.42a3,3,0,0,1-3.2-5l5.77-5-4.91-.05a2.68,2.68,0,0,0-1.59.52l-9.6,7.17a4.29,4.29,0,0,1-3.09.84h0l-.76-.1a1,1,0,1,1,.25-2l.76.1a2.32,2.32,0,0,0,1.67-.46l9.6-7.17a4.58,4.58,0,0,1,2.8-.91L31,9.45a1,1,0,0,1,.92.65,1,1,0,0,1-.28,1.09l-7.75,6.72A1,1,0,0,0,25,19.62c1.53-.68,4.26-1.9,5.33-2.4a3.85,3.85,0,0,1,3.86,6.63l-9.3,6.53A9.91,9.91,0,0,1,18.27,32.48Z"/><path class="cls-1" d="M29.4,35.67h-.07a1,1,0,0,1-.69-.35L24,29.91a1,1,0,1,1,1.51-1.29l4,4.65,22.21-19.5L41.89,2.39,24.22,17.61a1,1,0,1,1-1.29-1.5L41.34.24a1,1,0,0,1,1.4.1L53.85,13.21a1,1,0,0,1-.09,1.4L30.05,35.42A1,1,0,0,1,29.4,35.67Z"/><path class="cls-1" d="M36.25,23.48h-.4a1,1,0,0,1,.13-2,4,4,0,1,0-3.55-5.35c0,.15-.09.31-.13.46a1,1,0,0,1-1.18.76,1,1,0,0,1-.76-1.18A6,6,0,1,1,42,19.42,6.05,6.05,0,0,1,36.25,23.48Z"/></g></g></svg>