<svg xmlns="http://www.w3.org/2000/svg" viewBox="0 0 59.76 39.41"><defs><style>.cls-1{fill:#8292b3;}</style></defs><title>depositoGris</title><g id="Capa_2" data-name="Capa 2"><g id="Capa_1-2" data-name="Capa 1"><path class="cls-1" d="M4.36,37.86a1.1,1.1,0,0,1-.2-2.18L7.9,35a.23.23,0,0,0,.18-.22l.29-14a.24.24,0,0,0-.06-.17.24.24,0,0,0-.16-.07l-7.06-.07a1.1,1.1,0,1,1,0-2.19l7.06.07a2.4,2.4,0,0,1,1.71.74,2.37,2.37,0,0,1,.68,1.73l-.28,14a2.44,2.44,0,0,1-2,2.33l-3.73.68Z"/><path class="cls-1" d="M20.18,35.88c-.46,0-.94,0-1.45-.06-5.42-.47-9.57-1.06-9.62-1.06a1.11,1.11,0,0,1-.93-1.24,1.09,1.09,0,0,1,1.24-.93s4.14.58,9.5,1c4.76.42,7-1.58,7.14-1.71l.13-.11,10.33-7.26A2.06,2.06,0,0,0,34.45,21c-1.14.54-3.85,1.75-5.93,2.68A3.33,3.33,0,0,1,25,18.12l6.37-5.52-5.42,0a3,3,0,0,0-1.76.57l-10.6,7.93a4.81,4.81,0,0,1-3.42.92h0l-.84-.11a1.09,1.09,0,1,1,.28-2.17l.84.11a2.58,2.58,0,0,0,1.84-.51l10.61-7.92a5.08,5.08,0,0,1,3.09-1l8.31.08a1.1,1.1,0,0,1,1,.72A1.09,1.09,0,0,1,35,12.37l-8.55,7.41a1.14,1.14,0,0,0-.13,1.58,1.12,1.12,0,0,0,1.33.31c1.69-.75,4.7-2.09,5.88-2.65a4.26,4.26,0,0,1,4.27,7.33L27.51,33.57A11.08,11.08,0,0,1,20.18,35.88Z"/><path class="cls-1" d="M32.48,39.41H32.4a1.12,1.12,0,0,1-.76-.38l-5.1-6a1.1,1.1,0,0,1,1.67-1.42l4.38,5.13L57.12,15.21,46.27,2.64,26.76,19.46a1.11,1.11,0,0,1-1.55-.12,1.09,1.09,0,0,1,.12-1.54L45.67.27a1.1,1.1,0,0,1,1.55.11L59.49,14.6a1.09,1.09,0,0,1-.1,1.54l-26.19,23A1.09,1.09,0,0,1,32.48,39.41Z"/><path class="cls-1" d="M40.05,25.94l-.45,0a1.09,1.09,0,1,1,.15-2.18,4.47,4.47,0,0,0,1.75-8.68,4.46,4.46,0,0,0-5.67,2.77,4.91,4.91,0,0,0-.15.51,1.09,1.09,0,0,1-2.14-.46,6.77,6.77,0,0,1,.22-.77A6.65,6.65,0,0,1,42.22,13a6.66,6.66,0,0,1-2.17,13Z"/></g></g></svg>