<svg xmlns="http://www.w3.org/2000/svg" viewBox="0 0 42.96 44.89"><defs><style>.cls-1{fill:#fff;}</style></defs><title>estudiantilBlanco</title><g id="Capa_2" data-name="Capa 2"><g id="Capa_1-2" data-name="Capa 1"><g id="jWdYF1"><path class="cls-1" d="M3.9,25.42V22.71a21.23,21.23,0,0,1,.47-5.84,15.48,15.48,0,0,1,7.91-9.65c1-.52,2-.87,3-1.33.15-.07.35-.29.33-.43C15.34,3,17.6.92,19.89.24a6,6,0,0,1,7,3.08,12.85,12.85,0,0,1,.56,2.46c.78.34,1.71.67,2.59,1.12C34.14,9,37.15,12,38.44,16.47a21.06,21.06,0,0,1,.6,4.2c.09,1.36,0,2.73,0,4.1v.65c.39,0,.73,0,1.07,0A2.91,2.91,0,0,1,43,28.37q0,4.22,0,8.42A3.93,3.93,0,0,1,38.81,41a.68.68,0,0,0-.66.4,6.62,6.62,0,0,1-6,3.5q-10.68,0-21.37,0a6.64,6.64,0,0,1-6-3.49A.68.68,0,0,0,4.14,41,3.93,3.93,0,0,1,0,36.79C0,34,0,31.22,0,28.43a2.92,2.92,0,0,1,2.94-3C3.25,25.41,3.55,25.42,3.9,25.42ZM21.43,42.94H32a4.9,4.9,0,0,0,5.14-5.12q0-8.58,0-17.16A12.51,12.51,0,0,0,32.67,11,17.2,17.2,0,0,0,12.75,9.17c-4.55,2.73-7,6.69-6.91,12.1s0,10.91,0,16.36A6.86,6.86,0,0,0,6,39.13a4.86,4.86,0,0,0,4.92,3.8ZM17.64,5.27a18.62,18.62,0,0,1,7.69,0c.15-1.66-1.8-3.38-3.77-3.32C19.2,2,17.3,4,17.64,5.27ZM3.9,39v-7.7L2,31.17c0,2,0,4,0,6A1.89,1.89,0,0,0,3.9,39Zm35.15,0A1.87,1.87,0,0,0,41,37c0-1.19,0-2.37,0-3.56V31.16l-2,.16Zm0-9.67c.67,0,1.33.18,1.76-.47a.87.87,0,0,0,0-1.05c-.46-.64-1.11-.37-1.73-.41ZM3.87,27.37c-.63.05-1.3-.22-1.74.45a.87.87,0,0,0,.05,1.1c.46.57,1.09.37,1.69.38Z"/><path class="cls-1" d="M21.46,40H13a3,3,0,0,1-3.27-3.24q0-4.59,0-9.18A3,3,0,0,1,13,24.38H30a3,3,0,0,1,3.24,3.2c0,3.08,0,6.15,0,9.23A3,3,0,0,1,30,40Zm-9.74-9.84v.47q0,3,0,6.09c0,1,.3,1.33,1.32,1.33H29.93c1,0,1.3-.32,1.3-1.3V30.61c0-.17,0-.34,0-.44Zm9.77-1.89h5.34c1.14,0,2.27,0,3.4,0A1,1,0,0,0,31.17,27a1,1,0,0,0-1.07-.66H12.83a1.12,1.12,0,0,0-.32,0,1,1,0,0,0-.77,1.07c.06.56.43.85,1.17.85Z"/><path class="cls-1" d="M21.08,9.72c4.35.16,8,1.2,10.85,4a12,12,0,0,1,1,1.15,1,1,0,0,1-.11,1.44.94.94,0,0,1-1.41-.24c-3.55-4.83-12.06-5.85-17.4-2.25a17.27,17.27,0,0,0-2.43,2.26,1,1,0,0,1-1.3.32,1,1,0,0,1-.44-1.16,1.67,1.67,0,0,1,.28-.46,12.92,12.92,0,0,1,8-4.69C19.18,9.91,20.33,9.82,21.08,9.72Z"/><path class="cls-1" d="M33.18,19.61c0,.34,0,.68,0,1a1,1,0,0,1-.93.93.92.92,0,0,1-1-.85,21.3,21.3,0,0,1,0-2.26.94.94,0,0,1,1-.86,1,1,0,0,1,.92.89c0,.37,0,.75,0,1.13Z"/><path class="cls-1" d="M21.44,36.08c-.34,0-.68,0-1,0a.94.94,0,0,1-.9-1,.91.91,0,0,1,.89-1,17.13,17.13,0,0,1,2.15,0,.89.89,0,0,1,.87,1,.93.93,0,0,1-.91.94c-.36,0-.72,0-1.08,0Z"/><path class="cls-1" d="M15.6,36.09c-.32,0-.64,0-1,0a1,1,0,0,1-1-1,.93.93,0,0,1,.92-1c.68,0,1.37,0,2.05,0a1,1,0,0,1,.95,1,1,1,0,0,1-1,1C16.29,36.11,15.94,36.09,15.6,36.09Z"/><path class="cls-1" d="M27.33,36.09c-.34,0-.68,0-1,0a1,1,0,0,1-.94-1,.93.93,0,0,1,.92-.94,18.22,18.22,0,0,1,2.09,0,.92.92,0,0,1,.91,1,.94.94,0,0,1-.94,1C28,36.11,27.67,36.09,27.33,36.09Z"/></g></g></g></svg>