<svg xmlns="http://www.w3.org/2000/svg" viewBox="0 0 17.36 33.32"><defs><style>.cls-1{fill:#fff;}</style></defs><title>fb</title><g id="Capa_2" data-name="Capa 2"><g id="Capa_1-2" data-name="Capa 1"><path class="cls-1" d="M10.91,12.5h5.32c.82,0,1.2.4,1.11,1.2-.16,1.47-.34,2.94-.52,4.42a.87.87,0,0,1-.89.83c-.59,0-1.18,0-1.77,0H11V33.32H4.62V19l-.36,0H1.32a2.83,2.83,0,0,1-.41,0A.89.89,0,0,1,0,18c0-1.53,0-3.07,0-4.6a.91.91,0,0,1,1-.91H4.61v-.33c0-1.47,0-2.94,0-4.41a9,9,0,0,1,.71-3.54,6.7,6.7,0,0,1,5.15-4,11.07,11.07,0,0,1,2-.18c1.21,0,2.42,0,3.62,0a.94.94,0,0,1,1.08,1.06c0,1.21,0,2.41,0,3.62a1,1,0,0,1-1.06,1.06c-.8,0-1.6,0-2.39,0a6.75,6.75,0,0,0-1.1.14A1.93,1.93,0,0,0,11,7.83C10.92,9.37,10.94,10.91,10.91,12.5Z"/></g></g></svg>