<svg xmlns="http://www.w3.org/2000/svg" viewBox="0 0 56.49 47.4"><defs><style>.cls-1{fill:#8697b8;}</style></defs><title>historia</title><g id="Capa_2" data-name="Capa 2"><g id="Capa_1-2" data-name="Capa 1"><path class="cls-1" d="M45.56,29.86a2.22,2.22,0,0,1-.86,1.82V43.59a2.1,2.1,0,0,1-2.09,2.09h-26a2.1,2.1,0,0,1-2.09-2.09V13.75H33.94a.86.86,0,0,0,.8-.54.87.87,0,0,0-.2-.94,6.06,6.06,0,0,1-1.88-4.41,6.14,6.14,0,0,1,9-5.46h0l.08,0a5.79,5.79,0,0,1,3,5.07v4.13c.58-.25,1.15-.47,1.71-.67V7.5A7.5,7.5,0,0,0,38.92,0H7.3l.06.86L7.27,0h0A7.89,7.89,0,0,0,0,7.86a7.77,7.77,0,0,0,2.4,5.65.85.85,0,0,0,.6.24h9.77V43.59a3.82,3.82,0,0,0,3.81,3.81h26a3.81,3.81,0,0,0,3.8-3.81V29.24l-.88.37A1.9,1.9,0,0,1,45.56,29.86ZM3.36,12A6.08,6.08,0,0,1,1.72,7.86,6.17,6.17,0,0,1,7.36,1.74h.06l.23,0H33.9a7.86,7.86,0,0,0-3,6.14A7.77,7.77,0,0,0,32.14,12Z"/><path class="cls-1" d="M28.18,39.28a.81.81,0,0,1-.42-.12A.85.85,0,0,1,27.44,38C34.84,25.13,48.81,14.42,49,14.32a.86.86,0,0,1,1.21.16A.87.87,0,0,1,50,15.69c-.13.1-13.83,10.6-21.06,23.15A.87.87,0,0,1,28.18,39.28Z"/><path class="cls-1" d="M37.36,35.09h0L30.67,35a.86.86,0,0,1-.85-.86l0-8.23a.83.83,0,0,1,.2-.55l5-5.91a.87.87,0,0,1,1.43.16l.29.55,1.15-2.65a.87.87,0,0,1,.23-.31,29,29,0,0,1,17.55-6.69.87.87,0,0,1,.64.29.89.89,0,0,1,.2.68c-1.21,8.88-9.79,16-10.15,16.25a.72.72,0,0,1-.21.12L43.49,29l.31.19a.88.88,0,0,1,.41.71.86.86,0,0,1-.36.72l-6,4.3A.9.9,0,0,1,37.36,35.09Zm-5.82-1.76,5.55,0L41.79,30l-.62-.38a.89.89,0,0,1-.41-.8.86.86,0,0,1,.52-.72l4-1.73c.87-.73,7.74-6.76,9.27-14a28,28,0,0,0-15.25,6.1l-1.79,4.12a.84.84,0,0,1-.76.52A.88.88,0,0,1,36,22.6l-.53-1-3.92,4.68Z"/></g></g></svg>