<svg xmlns="http://www.w3.org/2000/svg" viewBox="0 0 35.1 35.1"><defs><style>.cls-1{fill:#fff;}</style></defs><title>instagram</title><g id="Capa_2" data-name="Capa 2"><g id="Capa_1-2" data-name="Capa 1"><path class="cls-1" d="M0,17.56V10.64a10.32,10.32,0,0,1,3.56-8A10.32,10.32,0,0,1,10.62,0H24.49A10.48,10.48,0,0,1,34.73,7.74a11.2,11.2,0,0,1,.36,2.88c0,4.62,0,9.25,0,13.87a10.28,10.28,0,0,1-4.7,8.86,9.65,9.65,0,0,1-5.49,1.72c-4.9,0-9.81,0-14.71,0A10.38,10.38,0,0,1,.09,25.89C0,25.36,0,24.83,0,24.3Q0,20.94,0,17.56Zm3.57,0h0c0,2.48-.06,5,0,7.45a6.79,6.79,0,0,0,6.86,6.56h14.2a4.35,4.35,0,0,0,.51,0,6.8,6.8,0,0,0,6.35-6.85q.06-7.11,0-14.2a6.8,6.8,0,0,0-6.88-6.89c-4.73,0-9.47,0-14.2,0a6.31,6.31,0,0,0-2.83.62,6.76,6.76,0,0,0-4,6.41C3.54,12.9,3.57,15.21,3.57,17.52Z"/><path class="cls-1" d="M17.53,26.63a9.07,9.07,0,1,1,.18-18.14,9.07,9.07,0,0,1-.18,18.14Zm0-3.55A5.53,5.53,0,1,0,12,17.53,5.54,5.54,0,0,0,17.54,23.08Z"/><path class="cls-1" d="M28.81,8.56a2.18,2.18,0,1,1-2.17-2.18A2.15,2.15,0,0,1,28.81,8.56Z"/></g></g></svg>