<svg xmlns="http://www.w3.org/2000/svg" viewBox="0 0 34.94 35.75"><defs><style>.cls-1{fill:#fff;}</style></defs><title>inversiones</title><g id="Capa_2" data-name="Capa 2"><g id="Capa_1-2" data-name="Capa 1"><path class="cls-1" d="M22.25,22.29A3.47,3.47,0,0,0,20.78,21a14.54,14.54,0,0,0-3.36-1,3.12,3.12,0,0,1-1.2-.43.66.66,0,0,1-.26-.5.82.82,0,0,1,.32-.64,1.41,1.41,0,0,1,.94-.26,1.81,1.81,0,0,1,1.19.35A1.87,1.87,0,0,1,19,19.65l3.37-.2A3.55,3.55,0,0,0,21,16.83,5.13,5.13,0,0,0,18.27,16V15.1h-2.2v1a5.1,5.1,0,0,0-1.34.36,3.37,3.37,0,0,0-1.55,1.24,3,3,0,0,0-.52,1.69,2.83,2.83,0,0,0,1,2.23A7.78,7.78,0,0,0,17,23a4.63,4.63,0,0,1,1.83.67,1.09,1.09,0,0,1,.4.81,1.08,1.08,0,0,1-.42.83,1.73,1.73,0,0,1-1.18.36,1.92,1.92,0,0,1-1.58-.7,2.63,2.63,0,0,1-.44-1.27l-3.4.22a4.42,4.42,0,0,0,1.28,2.88,4.27,4.27,0,0,0,2.56,1v1.19h2.2V27.93a6.33,6.33,0,0,0,2.11-.45,3.86,3.86,0,0,0,1.72-1.43A3.66,3.66,0,0,0,22.72,24,3.23,3.23,0,0,0,22.25,22.29Z"/><path class="cls-1" d="M21.24,35.75H13.7a25.49,25.49,0,0,1-5.53-.48,10.65,10.65,0,0,1-5.59-2.89C.72,30.42-.14,27.63,0,24.07a16.39,16.39,0,0,1,2.08-7.2,22.25,22.25,0,0,1,4-5.18,26.62,26.62,0,0,1,5.71-4.23.92.92,0,0,1,.43-.11H22.66a.92.92,0,0,1,.43.11,26.62,26.62,0,0,1,5.71,4.23,22.25,22.25,0,0,1,4,5.18,16.26,16.26,0,0,1,2.08,7.2c.17,3.56-.7,6.35-2.56,8.31a10.65,10.65,0,0,1-5.59,2.89A25.49,25.49,0,0,1,21.24,35.75ZM12.52,9.24a25.85,25.85,0,0,0-5.1,3.84A20.15,20.15,0,0,0,3.74,17.8,14.53,14.53,0,0,0,1.9,24.15a12.08,12.08,0,0,0,.48,4.24A7,7,0,0,0,4,31.08c2.35,2.46,6.24,2.79,9.75,2.79h7.54c3.51,0,7.4-.33,9.75-2.79a7,7,0,0,0,1.57-2.69A12.08,12.08,0,0,0,33,24.15a14.59,14.59,0,0,0-1.85-6.37A20.41,20.41,0,0,0,27.49,13a25.6,25.6,0,0,0-5.07-3.8Z"/><path class="cls-1" d="M21.71,9.24a.95.95,0,0,1-.82-1.4l2.75-5a21.06,21.06,0,0,0-12.33,0l2.74,5a.94.94,0,0,1-1.65.91L9.61,3.64a1.8,1.8,0,0,1-.09-1.55A1.82,1.82,0,0,1,10.68,1,23,23,0,0,1,24.26,1a1.82,1.82,0,0,1,1.16,1.06,1.8,1.8,0,0,1-.09,1.55L22.54,8.75A.94.94,0,0,1,21.71,9.24Z"/><path class="cls-1" d="M32.06,12.34a1,1,0,0,1-.49-.13c-4.84-2.91-8.41-3-8.44-3H17.47a.95.95,0,0,1,0-1.89h5.66c.16,0,4.09,0,9.42,3.24a.94.94,0,0,1-.49,1.75Z"/></g></g></svg>