<svg xmlns="http://www.w3.org/2000/svg" viewBox="0 0 229.27 73.96"><defs><style>.cls-1{fill:#505c66;}</style></defs><title>logoHisrotia</title><g id="Capa_2" data-name="Capa 2"><g id="Capa_1-2" data-name="Capa 1"><path class="cls-1" d="M99.43,12.43a11.08,11.08,0,0,0,0,17.18,14.45,14.45,0,0,0,9.84,3.55h10V26.22h-10a6.21,6.21,0,0,1-4.21-1.52,4.73,4.73,0,0,1,0-7.36,6.17,6.17,0,0,1,4.21-1.53h10V8.87h-10A14.45,14.45,0,0,0,99.43,12.43Z" transform="translate(0 0)"/><path class="cls-1" d="M125.29,29.61a15.43,15.43,0,0,0,19.69,0,11.08,11.08,0,0,0,0-17.18,15.39,15.39,0,0,0-19.69,0,11.08,11.08,0,0,0,0,17.18Zm5.63-12.27a6.57,6.57,0,0,1,8.43,0,4.74,4.74,0,0,1,0,7.36,6.6,6.6,0,0,1-8.43,0,4.74,4.74,0,0,1,0-7.36Z" transform="translate(0 0)"/><path class="cls-1" d="M155.13,29.61A14.46,14.46,0,0,0,165,33.16h9.95V26.22H165a6.21,6.21,0,0,1-4.21-1.52,4.74,4.74,0,0,1,0-7.36A6.17,6.17,0,0,1,165,15.81h9.95V8.87H165a14.47,14.47,0,0,0-9.84,3.56,11.08,11.08,0,0,0,0,17.18Z" transform="translate(0 0)"/><path class="cls-1" d="M194.1,8.87,176.19,33.16h9.95L188,30.62h8.07v2.54H204V8.87Zm-3.33,18,5.32-7.22v7.22Z" transform="translate(0 0)"/><path class="cls-1" d="M100.63,39.11a4.13,4.13,0,0,1,2.59,1l1.42-1.35a5.8,5.8,0,0,0-4-1.3c-3.11,0-5.28,2-5.28,4.34v0c0,2.41,2.21,4.31,5.19,4.31a5.7,5.7,0,0,0,4.15-1.49l-1.42-1.19a4,4,0,0,1-2.66,1,2.74,2.74,0,0,1-2.93-2.64v0A2.74,2.74,0,0,1,100.63,39.11Z" transform="translate(0 0)"/><path class="cls-1" d="M116.5,41.75v0c0-2.39-2.24-4.32-5.36-4.32s-5.4,2-5.4,4.34v0c0,2.38,2.24,4.31,5.37,4.31S116.5,44.14,116.5,41.75Zm-8.43,0v0a2.78,2.78,0,0,1,3-2.62,2.82,2.82,0,0,1,3.06,2.64v0a2.77,2.77,0,0,1-3,2.61A2.83,2.83,0,0,1,108.07,41.75Z" transform="translate(0 0)"/><path class="cls-1" d="M128.78,41.75v0c0-2.39-2.24-4.32-5.36-4.32s-5.4,2-5.4,4.34v0c0,2.38,2.25,4.31,5.37,4.31S128.78,44.14,128.78,41.75Zm-2.33,0a2.77,2.77,0,0,1-3,2.61,2.83,2.83,0,0,1-3.07-2.64v0a2.79,2.79,0,0,1,3-2.62,2.82,2.82,0,0,1,3.06,2.64Z" transform="translate(0 0)"/><path class="cls-1" d="M138.76,40.46c0-1.72-1.46-2.9-3.87-2.9h-4.14V46H133V43.43h1.69c2.27,0,4.09-1,4.09-3Zm-2.25.06c0,.72-.65,1.27-1.77,1.27H133V39.22h1.72c1.11,0,1.81.45,1.81,1.27Z" transform="translate(0 0)"/><polygon class="cls-1" points="148.04 39.2 148.04 37.56 140.4 37.56 140.4 45.95 148.11 45.95 148.11 44.31 142.62 44.31 142.62 42.54 147.39 42.54 147.39 40.9 142.62 40.9 142.62 39.2 148.04 39.2"/><path class="cls-1" d="M158.83,46l-2.47-3a2.68,2.68,0,0,0,2.17-2.6v0c0-1.73-1.43-2.77-3.82-2.77h-4.63V46h2.23V43.26h1.75L156.23,46Zm-4.26-4.32h-2.26V39.22h2.21c1.09,0,1.75.41,1.75,1.2v0C156.27,41.15,155.65,41.63,154.57,41.63Z" transform="translate(0 0)"/><path class="cls-1" d="M168.06,46h2.33l-4.34-8.45H164L159.66,46h2.27l.93-1.88h4.28Zm-4.41-3.51L165,39.71l1.34,2.73Z" transform="translate(0 0)"/><polygon class="cls-1" points="169.92 39.26 173 39.26 173 45.95 175.22 45.95 175.22 39.26 178.31 39.26 178.31 37.56 169.92 37.56 169.92 39.26"/><rect class="cls-1" x="180.11" y="37.56" width="2.23" height="8.4"/><polygon class="cls-1" points="194.14 37.56 191.74 37.56 189.09 43.47 186.45 37.56 183.99 37.56 188.08 46.01 190.05 46.01 194.14 37.56"/><path class="cls-1" d="M197.72,37.5,193.38,46h2.27l.93-1.88h4.28l.92,1.88h2.33l-4.34-8.45Zm-.35,4.94,1.35-2.73,1.34,2.73Z" transform="translate(0 0)"/><path class="cls-1" d="M97.88,48.92H95.49v5h2.39c1.94,0,3.27-1.1,3.27-2.5v0C101.15,50,99.82,48.92,97.88,48.92Zm1.86,2.52c0,.89-.75,1.49-1.86,1.49h-1v-3h1c1.11,0,1.86.62,1.86,1.51Z" transform="translate(0 0)"/><polygon class="cls-1" points="103.69 51.9 106.59 51.9 106.59 50.92 103.69 50.92 103.69 49.9 106.99 49.9 106.99 48.92 102.35 48.92 102.35 53.93 107.03 53.93 107.03 52.95 103.69 52.95 103.69 51.9"/><path class="cls-1" d="M113,48.89l-2.63,5h1.38l.56-1.12h2.6l.56,1.12h1.42l-2.64-5Zm-.21,2.94.82-1.62.82,1.62Z" transform="translate(0 0)"/><polygon class="cls-1" points="121.65 50.9 119.16 50.9 119.16 48.92 117.8 48.92 117.8 53.93 119.16 53.93 119.16 51.92 121.65 51.92 121.65 53.93 123 53.93 123 48.92 121.65 48.92 121.65 50.9"/><path class="cls-1" d="M127.48,48.84c-1.9,0-3.28,1.16-3.28,2.59h0c0,1.42,1.36,2.57,3.26,2.57s3.28-1.16,3.28-2.58v0C130.74,50,129.38,48.84,127.48,48.84Zm1.84,2.6A1.67,1.67,0,0,1,127.48,53a1.71,1.71,0,0,1-1.86-1.57v0a1.67,1.67,0,0,1,1.84-1.56,1.71,1.71,0,0,1,1.86,1.58Z" transform="translate(0 0)"/><path class="cls-1" d="M137.07,50.59h0c0-1-.87-1.66-2.32-1.66h-2.81v5h1.35v-1.6h1.06l1.32,1.6h1.58l-1.5-1.79A1.61,1.61,0,0,0,137.07,50.59Zm-1.37.06c0,.42-.38.71-1,.71h-1.37V49.92h1.34c.66,0,1.07.24,1.07.71Z" transform="translate(0 0)"/><path class="cls-1" d="M143.41,50.59h0c0-1-.87-1.66-2.32-1.66h-2.81v5h1.36v-1.6h1.06l1.32,1.6h1.58l-1.5-1.79A1.6,1.6,0,0,0,143.41,50.59Zm-1.37.06c0,.42-.37.71-1,.71h-1.37V49.92H141c.66,0,1.06.24,1.06.71Z" transform="translate(0 0)"/><path class="cls-1" d="M147.64,48.84c-1.9,0-3.28,1.16-3.28,2.59h0c0,1.42,1.36,2.57,3.26,2.57s3.27-1.16,3.27-2.58v0C150.89,50,149.53,48.84,147.64,48.84Zm1.84,2.6A1.68,1.68,0,0,1,147.64,53a1.72,1.72,0,0,1-1.87-1.57v0a1.68,1.68,0,0,1,1.85-1.56,1.71,1.71,0,0,1,1.86,1.58Z" transform="translate(0 0)"/><polygon class="cls-1" points="157.14 50.93 155.68 48.92 154.09 48.92 156.46 51.95 156.46 53.93 157.81 53.93 157.81 51.93 160.17 48.92 158.64 48.92 157.14 50.93"/><path class="cls-1" d="M166.57,53a1.65,1.65,0,0,1-1.78-1.57v0a1.65,1.65,0,0,1,1.78-1.56,2.52,2.52,0,0,1,1.57.57l.87-.81a3.6,3.6,0,0,0-2.43-.77c-1.89,0-3.21,1.16-3.21,2.59h0c0,1.44,1.35,2.57,3.16,2.57a3.5,3.5,0,0,0,2.52-.89l-.86-.71A2.49,2.49,0,0,1,166.57,53Z" transform="translate(0 0)"/><path class="cls-1" d="M175.26,50.59h0c0-1-.87-1.66-2.32-1.66h-2.82v5h1.36v-1.6h1.06l1.32,1.6h1.58l-1.5-1.79A1.61,1.61,0,0,0,175.26,50.59Zm-1.38.06c0,.42-.37.71-1,.71h-1.37V49.92h1.34c.66,0,1.06.24,1.06.71Z" transform="translate(0 0)"/><polygon class="cls-1" points="179.07 48.53 180.2 47.67 179.05 47.27 178.05 48.53 179.07 48.53"/><polygon class="cls-1" points="177.82 51.9 180.72 51.9 180.72 50.92 177.82 50.92 177.82 49.9 181.11 49.9 181.11 48.92 176.47 48.92 176.47 53.93 181.16 53.93 181.16 52.95 177.82 52.95 177.82 51.9"/><path class="cls-1" d="M184.75,48.92h-2.4v5h2.4c1.94,0,3.27-1.1,3.27-2.5v0C188,50,186.69,48.92,184.75,48.92Zm1.86,2.52c0,.89-.75,1.49-1.86,1.49h-1v-3h1c1.11,0,1.86.62,1.86,1.51Z" transform="translate(0 0)"/><rect class="cls-1" x="189.28" y="48.92" width="1.35" height="5"/><polygon class="cls-1" points="191.73 49.94 193.6 49.94 193.6 53.93 194.96 53.93 194.96 49.94 196.83 49.94 196.83 48.92 191.73 48.92 191.73 49.94"/><path class="cls-1" d="M200.6,48.84c-1.9,0-3.28,1.16-3.28,2.59h0c0,1.42,1.36,2.57,3.26,2.57s3.28-1.16,3.28-2.58v0C203.86,50,202.5,48.84,200.6,48.84Zm1.84,2.6A1.67,1.67,0,0,1,200.6,53a1.71,1.71,0,0,1-1.86-1.57v0a1.67,1.67,0,0,1,1.84-1.56,1.71,1.71,0,0,1,1.86,1.58Z" transform="translate(0 0)"/><path class="cls-1" d="M59,58.46c-5.76,0-11.51,0-17.27,0a7.91,7.91,0,0,1-5.86-2.54,11.83,11.83,0,0,1-1-1.23.48.48,0,0,0-.44-.22c-.7,0-1.39,0-2.09,0a7,7,0,0,1-6.85-5A8,8,0,0,1,26.3,43Q32.62,31.3,38.89,19.63q2.93-5.38,5.83-10.77l2.79-5.1A6.83,6.83,0,0,1,52,.19a6.71,6.71,0,0,1,7.4,3.16c.67,1.13,1.26,2.3,1.89,3.45,1.19,2.18,2.36,4.37,3.58,6.54.45.81.84,1.66,1.3,2.46s.92,1.69,1.38,2.54l1.35,2.52,1.35,2.51c.46.85.92,1.69,1.37,2.54L73,28.42q4.89,9.11,9.79,18.2a8.35,8.35,0,0,1,1.08,4.45,7.66,7.66,0,0,1-5.75,7.2,6.85,6.85,0,0,1-1.56.18ZM44.19,11.89,29.87,38.38c.05,0,.07.08.1.09A17.22,17.22,0,0,0,36.9,41a1,1,0,0,0,.59-.15,7.64,7.64,0,0,1,6.34-.92,8.37,8.37,0,0,1,5.44,4.94,22.53,22.53,0,0,1,.89,2.93,9.21,9.21,0,0,0,2.64,4.66,7.48,7.48,0,0,0,5.8,2.15,6.9,6.9,0,0,0,5-2.86,8.65,8.65,0,0,0,1.61-7,8.11,8.11,0,0,0-3.92-5.84,4,4,0,0,1-.62-.46,63.69,63.69,0,0,1-6.32-6.61,57.45,57.45,0,0,1-6.73-10.1,35.46,35.46,0,0,1-3.09-8C44.43,13.13,44.32,12.54,44.19,11.89Zm14.87,45.6H76.7A5.62,5.62,0,0,0,80.51,56a7,7,0,0,0,2.4-6,.61.61,0,0,0-.23-.41,17.62,17.62,0,0,0-10.17-3.48,26,26,0,0,0-5.42.47c-.71.13-.71.12-.78.83v0a9.36,9.36,0,0,1-2.4,5.42,7.81,7.81,0,0,1-7.15,2.58,9,9,0,0,1-5.54-3.3,9.59,9.59,0,0,1-2.09-4.59,9.25,9.25,0,0,0-2.8-5.23,6.77,6.77,0,0,0-4.28-1.8,6.63,6.63,0,0,0-5,1.84,8.83,8.83,0,0,0-2.5,9.14A7.87,7.87,0,0,0,39.08,57a7.53,7.53,0,0,0,3.09.51C47.8,57.48,53.43,57.49,59.06,57.49Zm-3.88-26.2.2-.24a53.38,53.38,0,0,0,4.95-7,30.84,30.84,0,0,0,3.78-9.13,1.65,1.65,0,0,0-.19-1.37,6.58,6.58,0,0,1-.4-.74c-1-1.79-1.9-3.63-3-5.38a5.08,5.08,0,0,0-5.08-2.57A5.29,5.29,0,0,0,51.2,7.82c-1.54,2.82-3.06,5.67-4.6,8.5a.62.62,0,0,0,0,.59,44.94,44.94,0,0,0,3.87,7.76A58.12,58.12,0,0,0,55.18,31.29ZM65,15.55c-1.64,6.34-5.12,11.58-9.19,16.54,1.12,1.2,2.25,2.38,3.36,3.58a.58.58,0,0,0,.72.18,52.43,52.43,0,0,1,8-2.16,23.74,23.74,0,0,1,5.59-.39l1.15.06Zm-6-11a6.19,6.19,0,0,0-1.55-2.09,5.57,5.57,0,0,0-4.89-1.36,5.8,5.8,0,0,0-4.1,3c-1.1,2-2.17,4-3.25,6a1.17,1.17,0,0,0-.13.66c.11.84.23,1.68.4,2.51s.35,1.36.55,2.13l.24-.41q2-3.78,4.09-7.56a6.53,6.53,0,0,1,1.81-2.17A5.92,5.92,0,0,1,56.81,4,22.25,22.25,0,0,1,59,4.52ZM80.89,45.05c-.4-.74-.8-1.49-1.21-2.23a1,1,0,0,0-.41-.36,17.17,17.17,0,0,0-6.81-1.35,40.9,40.9,0,0,0-4.42.34c-.89.1-1.77.33-2.69.51.13.32.25.58.35.85s.2.54.29.81C71.13,42.53,76.11,42.57,80.89,45.05Zm-3.25-6c-.37-.68-.71-1.34-1.07-2a.54.54,0,0,0-.32-.2A20.94,20.94,0,0,0,70,36.6a34.16,34.16,0,0,0-6.09,1.19l-1.73.5c.51.44,1,.85,1.46,1.25a.41.41,0,0,0,.31,0,36.23,36.23,0,0,1,6.2-1.16,20.84,20.84,0,0,1,5,.14C76,38.66,76.79,38.86,77.64,39Zm-51,5.42c-.12.4-.24.76-.32,1.13a.53.53,0,0,0,.16.4,19.86,19.86,0,0,0,6.24,3.75l.56.18c0-.47,0-.91,0-1.35a.39.39,0,0,0-.33-.47,18.47,18.47,0,0,1-4.67-2.41C27.7,45.29,27.18,44.89,26.59,44.45Zm1.17-2.19a19,19,0,0,0,6.08,3.16l.71-1.52A19,19,0,0,1,28.43,41ZM34.17,53.6l.08-.2c-.15-.11-.27-.28-.43-.33A19.29,19.29,0,0,1,27,49.53l-.48-.38a5.74,5.74,0,0,0,4.31,4.2A23.45,23.45,0,0,0,34.17,53.6Z" transform="translate(0 0)"/><path class="cls-1" d="M.83,65.73A.8.8,0,0,1,1.4,66a.75.75,0,0,1,.24.59.78.78,0,0,1-.24.58.82.82,0,0,1-.59.24.77.77,0,0,1-.55-.26.8.8,0,0,1,0-1.16A.87.87,0,0,1,.83,65.73Zm.58,3.57.18,2.61c0,.52,0,.88,0,1.08a1,1,0,0,1-.23.71A.8.8,0,0,1,.78,74a.62.62,0,0,1-.61-.33A2.1,2.1,0,0,1,0,72.69,6.45,6.45,0,0,1,0,72L.27,69.3a2.34,2.34,0,0,1,.16-.74.42.42,0,0,1,.41-.26.43.43,0,0,1,.41.26A2.34,2.34,0,0,1,1.41,69.3Z" transform="translate(0 0)"/><path class="cls-1" d="M11.55,69.11a2.2,2.2,0,0,1-.19.82,2.92,2.92,0,0,1-.59.87,2.83,2.83,0,0,1-1,.69,3.61,3.61,0,0,1-1.45.27,5.14,5.14,0,0,1-1.15-.12,3.18,3.18,0,0,1-.93-.37,3.06,3.06,0,0,1-.78-.67,4,4,0,0,1-.54-.84,4.61,4.61,0,0,1-.33-1,5.67,5.67,0,0,1-.11-1.12,4.89,4.89,0,0,1,.28-1.72,3.6,3.6,0,0,1,.8-1.3,3.5,3.5,0,0,1,1.22-.82,4,4,0,0,1,1.49-.28,3.86,3.86,0,0,1,1.73.38,3.16,3.16,0,0,1,1.15,1,1.83,1.83,0,0,1,.4,1.07.7.7,0,0,1-.19.49.62.62,0,0,1-.47.21.65.65,0,0,1-.47-.15,1.92,1.92,0,0,1-.34-.5,2.48,2.48,0,0,0-.74-.89,1.88,1.88,0,0,0-1.05-.29,1.91,1.91,0,0,0-1.59.75,3.46,3.46,0,0,0-.59,2.15,4,4,0,0,0,.26,1.54,2.07,2.07,0,0,0,3,.88,2,2,0,0,0,.72-1,1.52,1.52,0,0,1,.26-.51.58.58,0,0,1,.49-.2.7.7,0,0,1,.49.2A.66.66,0,0,1,11.55,69.11Z" transform="translate(0 0)"/><path class="cls-1" d="M18.34,68.75A3.47,3.47,0,0,1,18.13,70a2.79,2.79,0,0,1-.6,1,2.55,2.55,0,0,1-.93.61,3.16,3.16,0,0,1-1.22.22,3.07,3.07,0,0,1-1.21-.22,2.7,2.7,0,0,1-.94-.62,2.62,2.62,0,0,1-.59-1,3.34,3.34,0,0,1-.21-1.21,3.55,3.55,0,0,1,.21-1.24,2.63,2.63,0,0,1,.59-1,2.51,2.51,0,0,1,.94-.61,3.11,3.11,0,0,1,1.21-.22A3.19,3.19,0,0,1,16.6,66a2.61,2.61,0,0,1,.94.62,2.58,2.58,0,0,1,.59,1A3.45,3.45,0,0,1,18.34,68.75Zm-1.49,0a2.28,2.28,0,0,0-.4-1.42,1.31,1.31,0,0,0-1.07-.5,1.34,1.34,0,0,0-.77.22,1.47,1.47,0,0,0-.51.67,2.67,2.67,0,0,0-.18,1,2.64,2.64,0,0,0,.18,1,1.5,1.5,0,0,0,.5.67,1.35,1.35,0,0,0,.78.23,1.29,1.29,0,0,0,1.07-.51A2.26,2.26,0,0,0,16.85,68.75Z" transform="translate(0 0)"/><path class="cls-1" d="M20.74,66.55v.18A2.74,2.74,0,0,1,21.6,66a2.28,2.28,0,0,1,1.07-.24,2.08,2.08,0,0,1,1,.26,1.6,1.6,0,0,1,.69.72,1.52,1.52,0,0,1,.19.59,5.66,5.66,0,0,1,.05.8v2.76a1,1,0,0,1-.21.67.73.73,0,0,1-1.06,0,1,1,0,0,1-.21-.67V68.39a2.52,2.52,0,0,0-.2-1.12.83.83,0,0,0-.81-.39,1.26,1.26,0,0,0-.73.23,1.42,1.42,0,0,0-.47.65A4.36,4.36,0,0,0,20.84,69v1.86a.94.94,0,0,1-.21.67.71.71,0,0,1-.54.23.69.69,0,0,1-.53-.23,1,1,0,0,1-.21-.67V66.57a1,1,0,0,1,.19-.63.63.63,0,0,1,.5-.21.74.74,0,0,1,.36.09.76.76,0,0,1,.25.28A1,1,0,0,1,20.74,66.55Z" transform="translate(0 0)"/><path class="cls-1" d="M28,70.86V64.43a1,1,0,0,1,.2-.67.64.64,0,0,1,.53-.23.71.71,0,0,1,.55.22,1,1,0,0,1,.2.68v6.43a.94.94,0,0,1-.21.67.74.74,0,0,1-1.07,0A1,1,0,0,1,28,70.86Z" transform="translate(0 0)"/><path class="cls-1" d="M34.66,70.92a4.31,4.31,0,0,1-1,.63,2.87,2.87,0,0,1-1.12.21,2.11,2.11,0,0,1-1-.23,1.65,1.65,0,0,1-.67-.61,1.6,1.6,0,0,1-.23-.83,1.53,1.53,0,0,1,.38-1A1.93,1.93,0,0,1,32,68.47l.7-.14,1-.21.87-.23a1.55,1.55,0,0,0-.24-.86,1,1,0,0,0-.87-.28,1.92,1.92,0,0,0-.85.16,1.35,1.35,0,0,0-.48.47l-.29.42a.51.51,0,0,1-.36.1.65.65,0,0,1-.43-.16.52.52,0,0,1-.19-.41,1.27,1.27,0,0,1,.28-.76A2,2,0,0,1,32,66a3.91,3.91,0,0,1,1.46-.24A4.2,4.2,0,0,1,35,66a1.46,1.46,0,0,1,.79.73A3.14,3.14,0,0,1,36,68v.88c0,.24,0,.51,0,.81a3,3,0,0,0,.14.87,3.06,3.06,0,0,1,.14.59.52.52,0,0,1-.22.41.68.68,0,0,1-.48.19.64.64,0,0,1-.45-.22A3.19,3.19,0,0,1,34.66,70.92Zm-.09-2.14a8.15,8.15,0,0,1-1,.25c-.42.09-.7.15-.86.2a1.2,1.2,0,0,0-.46.24.64.64,0,0,0-.21.51.75.75,0,0,0,.25.57.93.93,0,0,0,.67.24,1.73,1.73,0,0,0,.81-.2,1.26,1.26,0,0,0,.55-.49,2.36,2.36,0,0,0,.2-1.11Z" transform="translate(0 0)"/><path class="cls-1" d="M44.2,69.82a1.8,1.8,0,0,1-.3,1.05,1.85,1.85,0,0,1-.89.66,3.91,3.91,0,0,1-1.42.23,3.3,3.3,0,0,1-1.36-.25,2,2,0,0,1-.85-.61,1.22,1.22,0,0,1-.27-.73.58.58,0,0,1,.18-.42.57.57,0,0,1,.44-.17.48.48,0,0,1,.35.11,1,1,0,0,1,.24.32,1.75,1.75,0,0,0,.55.59,1.65,1.65,0,0,0,.87.2,1.28,1.28,0,0,0,.73-.2.54.54,0,0,0,.28-.45.63.63,0,0,0-.29-.57,3.77,3.77,0,0,0-1-.35,7.4,7.4,0,0,1-1.25-.4,1.89,1.89,0,0,1-.76-.55,1.19,1.19,0,0,1-.29-.84,1.56,1.56,0,0,1,.26-.84,1.88,1.88,0,0,1,.79-.63,2.93,2.93,0,0,1,1.25-.24,4,4,0,0,1,1,.12,2.62,2.62,0,0,1,.77.32,1.69,1.69,0,0,1,.47.45.91.91,0,0,1,.16.47.57.57,0,0,1-.17.42.69.69,0,0,1-.49.17.65.65,0,0,1-.39-.13,2.52,2.52,0,0,1-.36-.4,1.42,1.42,0,0,0-.4-.34,1.22,1.22,0,0,0-.62-.13,1.17,1.17,0,0,0-.67.17.49.49,0,0,0-.26.42.47.47,0,0,0,.19.39,1.54,1.54,0,0,0,.53.24c.22.07.52.15.91.24a5.6,5.6,0,0,1,1.13.4,1.85,1.85,0,0,1,.66.56A1.21,1.21,0,0,1,44.2,69.82Z" transform="translate(0 0)"/><path class="cls-1" d="M50.89,68.75a3.72,3.72,0,0,1-.2,1.22,2.79,2.79,0,0,1-.6,1,2.55,2.55,0,0,1-.93.61,3.21,3.21,0,0,1-1.23.22,3.14,3.14,0,0,1-1.21-.22,2.58,2.58,0,0,1-.93-.62,2.79,2.79,0,0,1-.6-1,3.76,3.76,0,0,1,0-2.45,2.51,2.51,0,0,1,.59-1,2.55,2.55,0,0,1,.93-.61,3.18,3.18,0,0,1,1.21-.22,3.24,3.24,0,0,1,1.23.22,2.62,2.62,0,0,1,1.53,1.57A3.45,3.45,0,0,1,50.89,68.75Zm-1.48,0a2.28,2.28,0,0,0-.4-1.42,1.33,1.33,0,0,0-1.08-.5,1.31,1.31,0,0,0-.76.22,1.47,1.47,0,0,0-.51.67,2.67,2.67,0,0,0-.18,1,2.64,2.64,0,0,0,.18,1,1.43,1.43,0,0,0,.5.67,1.34,1.34,0,0,0,.77.23A1.31,1.31,0,0,0,49,70.15,2.26,2.26,0,0,0,49.41,68.75Z" transform="translate(0 0)"/><path class="cls-1" d="M52,70.86V64.43a1,1,0,0,1,.2-.67.66.66,0,0,1,.54-.23.7.7,0,0,1,.54.22,1,1,0,0,1,.21.68v6.43a.94.94,0,0,1-.21.67.71.71,0,0,1-.54.23.67.67,0,0,1-.53-.23A1,1,0,0,1,52,70.86Z" transform="translate(0 0)"/><path class="cls-1" d="M55.61,65a.78.78,0,0,1-.53-.19.68.68,0,0,1-.22-.54.65.65,0,0,1,.23-.51.73.73,0,0,1,.52-.21.75.75,0,0,1,.51.19.65.65,0,0,1,.23.53.71.71,0,0,1-.22.54A.76.76,0,0,1,55.61,65Zm.74,1.53v4.29a1,1,0,0,1-.22.67.7.7,0,0,1-.53.23.67.67,0,0,1-.53-.23,1,1,0,0,1-.21-.67V66.62a.94.94,0,0,1,.21-.67.7.7,0,0,1,.53-.22.73.73,0,0,1,.53.22A.88.88,0,0,1,56.35,66.57Z" transform="translate(0 0)"/><path class="cls-1" d="M61.83,70.91v-.14a3.71,3.71,0,0,1-.59.55,2.36,2.36,0,0,1-.63.33,2.45,2.45,0,0,1-.74.11,2.17,2.17,0,0,1-1-.23,2.21,2.21,0,0,1-.79-.64,2.93,2.93,0,0,1-.5-1,4.39,4.39,0,0,1-.17-1.22,3.15,3.15,0,0,1,.68-2.17,2.25,2.25,0,0,1,1.78-.78A2.47,2.47,0,0,1,61,66a2.92,2.92,0,0,1,.86.68V64.45a1.13,1.13,0,0,1,.18-.69.65.65,0,0,1,.52-.23.64.64,0,0,1,.52.21,1,1,0,0,1,.18.63v6.54a.92.92,0,0,1-.19.64.66.66,0,0,1-.51.21.63.63,0,0,1-.5-.22A.93.93,0,0,1,61.83,70.91Zm-2.91-2.18a2.6,2.6,0,0,0,.18,1,1.46,1.46,0,0,0,.52.64,1.33,1.33,0,0,0,1.42,0,1.4,1.4,0,0,0,.52-.62,2.58,2.58,0,0,0,.19-1.06,2.4,2.4,0,0,0-.19-1,1.58,1.58,0,0,0-.52-.66,1.28,1.28,0,0,0-1.45,0,1.55,1.55,0,0,0-.5.66A2.79,2.79,0,0,0,58.92,68.73Z" transform="translate(0 0)"/><path class="cls-1" d="M68.75,69.11h-2.9a2,2,0,0,0,.21.89,1.34,1.34,0,0,0,.52.58,1.4,1.4,0,0,0,.73.2,1.43,1.43,0,0,0,.48-.07,1.49,1.49,0,0,0,.43-.19,3.8,3.8,0,0,0,.38-.29l.45-.41a.54.54,0,0,1,.33-.1.52.52,0,0,1,.37.13.45.45,0,0,1,.14.35,1,1,0,0,1-.16.47,1.77,1.77,0,0,1-.48.52,2.79,2.79,0,0,1-.79.41,3.71,3.71,0,0,1-1.11.16,2.94,2.94,0,0,1-2.22-.82,3,3,0,0,1-.79-2.21,3.65,3.65,0,0,1,.19-1.21,2.68,2.68,0,0,1,.57-1,2.39,2.39,0,0,1,.93-.61,3.14,3.14,0,0,1,1.21-.22,2.82,2.82,0,0,1,1.49.37,2.42,2.42,0,0,1,.94.94,2.59,2.59,0,0,1,.3,1.19c0,.37-.1.61-.32.72A2,2,0,0,1,68.75,69.11Zm-2.9-.84h2.69a1.8,1.8,0,0,0-.41-1.14,1.24,1.24,0,0,0-.94-.38,1.2,1.2,0,0,0-.91.39A1.92,1.92,0,0,0,65.85,68.27Z" transform="translate(0 0)"/><path class="cls-1" d="M75,67.43l-2.71,3h2.9a.75.75,0,0,1,.53.16.57.57,0,0,1,.18.43.55.55,0,0,1-.17.41.83.83,0,0,1-.54.15h-4a1,1,0,0,1-.63-.18.64.64,0,0,1-.06-.89c.09-.13.3-.36.61-.71l.88-1,.74-.82.57-.65c.15-.18.27-.33.36-.46h-2.2a2.31,2.31,0,0,1-.69-.08c-.16,0-.24-.2-.24-.43a.52.52,0,0,1,.18-.41.76.76,0,0,1,.5-.15H74.6a1.53,1.53,0,0,1,.72.14.52.52,0,0,1,.26.5.69.69,0,0,1,0,.24,1,1,0,0,1-.11.21l-.16.2Z" transform="translate(0 0)"/><path class="cls-1" d="M80,71.94l.13-.33L78.34,67a1.84,1.84,0,0,1-.17-.58.64.64,0,0,1,.1-.35.62.62,0,0,1,.27-.26.64.64,0,0,1,.35-.1.58.58,0,0,1,.49.21,2,2,0,0,1,.29.58l1.25,3.65,1.19-3.4a6.19,6.19,0,0,1,.25-.64.79.79,0,0,1,.25-.32.69.69,0,0,1,.36-.08.62.62,0,0,1,.32.09.69.69,0,0,1,.24.24.72.72,0,0,1,.08.32c0,.07,0,.17-.07.3a3.3,3.3,0,0,1-.12.38l-1.93,5.06a5.86,5.86,0,0,1-.49,1,1.6,1.6,0,0,1-.63.58,2.27,2.27,0,0,1-1.06.21,2.68,2.68,0,0,1-1-.14A.52.52,0,0,1,78,73.3a.5.5,0,0,1,.16-.39.67.67,0,0,1,.46-.14.91.91,0,0,1,.23,0l.25,0a.9.9,0,0,0,.4-.07.75.75,0,0,0,.26-.27A3.11,3.11,0,0,0,80,71.94Z" transform="translate(0 0)"/><path class="cls-1" d="M91.9,69.92a1.31,1.31,0,0,1-.17.6,2,2,0,0,1-.5.6,2.5,2.5,0,0,1-.86.45,3.49,3.49,0,0,1-1.16.18,2.84,2.84,0,0,1-2.14-.8,3,3,0,0,1-.77-2.15,3.44,3.44,0,0,1,.35-1.61,2.5,2.5,0,0,1,1-1.09,3.46,3.46,0,0,1,2.65-.21,3,3,0,0,1,.82.43,2.23,2.23,0,0,1,.51.57,1.09,1.09,0,0,1,.17.56.58.58,0,0,1-.19.45.68.68,0,0,1-.48.19.45.45,0,0,1-.31-.1,1.69,1.69,0,0,1-.28-.3,2.3,2.3,0,0,0-.56-.62,1.29,1.29,0,0,0-.76-.21,1.27,1.27,0,0,0-1,.51,2.23,2.23,0,0,0-.41,1.41,2.7,2.7,0,0,0,.11.77,1.73,1.73,0,0,0,.3.59,1.24,1.24,0,0,0,.47.38,1.51,1.51,0,0,0,.61.13,1.35,1.35,0,0,0,.76-.21,1.83,1.83,0,0,0,.56-.63,1.41,1.41,0,0,1,.29-.39.55.55,0,0,1,.39-.14.59.59,0,0,1,.45.2A.68.68,0,0,1,91.9,69.92Z" transform="translate(0 0)"/><path class="cls-1" d="M98.64,68.75A3.47,3.47,0,0,1,98.43,70a2.79,2.79,0,0,1-.6,1,2.55,2.55,0,0,1-.93.61,3.16,3.16,0,0,1-1.22.22,3.07,3.07,0,0,1-1.21-.22,2.7,2.7,0,0,1-.94-.62,2.62,2.62,0,0,1-.59-1,3.34,3.34,0,0,1-.21-1.21,3.55,3.55,0,0,1,.21-1.24,2.78,2.78,0,0,1,.59-1,2.51,2.51,0,0,1,.94-.61,3.14,3.14,0,0,1,1.21-.22A3.19,3.19,0,0,1,96.9,66a2.61,2.61,0,0,1,.94.62,2.58,2.58,0,0,1,.59,1A3.45,3.45,0,0,1,98.64,68.75Zm-1.49,0a2.22,2.22,0,0,0-.4-1.42,1.31,1.31,0,0,0-1.07-.5,1.34,1.34,0,0,0-.77.22,1.47,1.47,0,0,0-.51.67,2.67,2.67,0,0,0-.18,1,2.64,2.64,0,0,0,.18,1,1.5,1.5,0,0,0,.5.67,1.35,1.35,0,0,0,.78.23,1.29,1.29,0,0,0,1.07-.51A2.2,2.2,0,0,0,97.15,68.75Z" transform="translate(0 0)"/><path class="cls-1" d="M101,66.55v.18a2.74,2.74,0,0,1,.86-.76,2.28,2.28,0,0,1,1.07-.24,2.08,2.08,0,0,1,1,.26,1.6,1.6,0,0,1,.69.72,1.52,1.52,0,0,1,.19.59,5.66,5.66,0,0,1,0,.8v2.76a1,1,0,0,1-.21.67.73.73,0,0,1-1.06,0,1,1,0,0,1-.21-.67V68.39a2.52,2.52,0,0,0-.2-1.12.83.83,0,0,0-.81-.39,1.26,1.26,0,0,0-.73.23,1.42,1.42,0,0,0-.47.65,4.36,4.36,0,0,0-.11,1.24v1.86a.94.94,0,0,1-.21.67.71.71,0,0,1-.54.23.69.69,0,0,1-.53-.23,1,1,0,0,1-.21-.67V66.57a1,1,0,0,1,.19-.63.63.63,0,0,1,.5-.21.74.74,0,0,1,.36.09.76.76,0,0,1,.25.28A1,1,0,0,1,101,66.55Z" transform="translate(0 0)"/><path class="cls-1" d="M106.19,65.86h.35v-.44a2.82,2.82,0,0,1,.18-1.11,1.17,1.17,0,0,1,.6-.6,3,3,0,0,1,1.15-.18c.87,0,1.3.21,1.3.63a.52.52,0,0,1-.14.36.45.45,0,0,1-.32.14l-.3,0-.36,0c-.26,0-.44.08-.51.23a1.56,1.56,0,0,0-.12.68v.35h.37c.56,0,.85.17.85.51s-.08.4-.23.46a1.51,1.51,0,0,1-.62.1H108v3.93a1,1,0,0,1-.2.67.74.74,0,0,1-1.07,0,1,1,0,0,1-.21-.67V66.93h-.4a.79.79,0,0,1-.52-.15.51.51,0,0,1-.17-.39C105.45,66,105.69,65.86,106.19,65.86Z" transform="translate(0 0)"/><path class="cls-1" d="M110.79,65a.78.78,0,0,1-.53-.19.68.68,0,0,1-.22-.54.65.65,0,0,1,.23-.51.73.73,0,0,1,.52-.21.75.75,0,0,1,.51.19.64.64,0,0,1,.22.53.7.7,0,0,1-.21.54A.76.76,0,0,1,110.79,65Zm.73,1.53v4.29a1,1,0,0,1-.21.67.7.7,0,0,1-.53.23.67.67,0,0,1-.53-.23,1,1,0,0,1-.21-.67V66.62a.94.94,0,0,1,.21-.67.7.7,0,0,1,.53-.22.73.73,0,0,1,.53.22A.88.88,0,0,1,111.52,66.57Z" transform="translate(0 0)"/><path class="cls-1" d="M116.7,70.92a4.73,4.73,0,0,1-1,.63,2.92,2.92,0,0,1-1.13.21,2.14,2.14,0,0,1-1-.23,1.65,1.65,0,0,1-.67-.61,1.6,1.6,0,0,1-.23-.83,1.53,1.53,0,0,1,.38-1,2,2,0,0,1,1.06-.58l.7-.14,1-.21.87-.23a1.55,1.55,0,0,0-.24-.86,1,1,0,0,0-.86-.28,1.86,1.86,0,0,0-.85.16,1.37,1.37,0,0,0-.49.47c-.14.21-.23.35-.29.42a.51.51,0,0,1-.36.1.65.65,0,0,1-.43-.16.54.54,0,0,1-.18-.41,1.26,1.26,0,0,1,.27-.76A2,2,0,0,1,114,66a3.84,3.84,0,0,1,1.46-.24A4.17,4.17,0,0,1,117,66a1.42,1.42,0,0,1,.79.73,3.14,3.14,0,0,1,.23,1.33v.88c0,.24,0,.51,0,.81a3,3,0,0,0,.14.87,3.06,3.06,0,0,1,.14.59.54.54,0,0,1-.21.41.72.72,0,0,1-.49.19.64.64,0,0,1-.45-.22A2.84,2.84,0,0,1,116.7,70.92Zm-.1-2.14a7.64,7.64,0,0,1-.95.25c-.41.09-.7.15-.86.2a1.2,1.2,0,0,0-.46.24.64.64,0,0,0-.21.51.75.75,0,0,0,.25.57,1,1,0,0,0,.67.24,1.73,1.73,0,0,0,.81-.2,1.26,1.26,0,0,0,.55-.49,2.36,2.36,0,0,0,.2-1.11Z" transform="translate(0 0)"/><path class="cls-1" d="M120.8,66.55v.18a2.61,2.61,0,0,1,.85-.76,2.31,2.31,0,0,1,1.07-.24,2.15,2.15,0,0,1,1,.26,1.6,1.6,0,0,1,.69.72,1.7,1.7,0,0,1,.19.59,5.88,5.88,0,0,1,0,.8v2.76a1,1,0,0,1-.2.67.69.69,0,0,1-.53.23.71.71,0,0,1-.54-.23,1,1,0,0,1-.2-.67V68.39a2.37,2.37,0,0,0-.21-1.12.82.82,0,0,0-.81-.39,1.23,1.23,0,0,0-.72.23,1.37,1.37,0,0,0-.48.65,4.77,4.77,0,0,0-.11,1.24v1.86a.94.94,0,0,1-.21.67.71.71,0,0,1-.54.23.67.67,0,0,1-.52-.23,1,1,0,0,1-.21-.67V66.57a1,1,0,0,1,.18-.63.65.65,0,0,1,.51-.21.63.63,0,0,1,.6.37A.88.88,0,0,1,120.8,66.55Z" transform="translate(0 0)"/><path class="cls-1" d="M130.09,67.43l-2.71,3h2.9a.73.73,0,0,1,.53.16.57.57,0,0,1,.18.43.52.52,0,0,1-.17.41.83.83,0,0,1-.54.15h-4a1,1,0,0,1-.63-.18.64.64,0,0,1-.06-.89c.1-.13.3-.36.61-.71l.89-1,.74-.82.56-.65c.15-.18.27-.33.36-.46h-2.2a2.41,2.41,0,0,1-.69-.08c-.15,0-.23-.2-.23-.43a.55.55,0,0,1,.17-.41.78.78,0,0,1,.51-.15h3.4a1.57,1.57,0,0,1,.73.14.53.53,0,0,1,.25.5.87.87,0,0,1-.16.45,2,2,0,0,1-.16.2Z" transform="translate(0 0)"/><path class="cls-1" d="M135.5,70.92a4.73,4.73,0,0,1-1,.63,2.92,2.92,0,0,1-1.13.21,2.14,2.14,0,0,1-1-.23,1.65,1.65,0,0,1-.67-.61,1.6,1.6,0,0,1-.23-.83,1.49,1.49,0,0,1,.39-1,1.9,1.9,0,0,1,1.06-.58l.7-.14.95-.21.87-.23a1.55,1.55,0,0,0-.24-.86,1,1,0,0,0-.86-.28,1.86,1.86,0,0,0-.85.16,1.46,1.46,0,0,0-.49.47c-.14.21-.23.35-.29.42a.48.48,0,0,1-.36.1.65.65,0,0,1-.43-.16.54.54,0,0,1-.18-.41,1.26,1.26,0,0,1,.27-.76,2,2,0,0,1,.87-.61,3.88,3.88,0,0,1,1.46-.24,4.17,4.17,0,0,1,1.53.23,1.42,1.42,0,0,1,.79.73,3.13,3.13,0,0,1,.24,1.33c0,.34,0,.64,0,.88s0,.51,0,.81a3,3,0,0,0,.14.87,2.42,2.42,0,0,1,.14.59.54.54,0,0,1-.21.41.72.72,0,0,1-.49.19.64.64,0,0,1-.45-.22A2.84,2.84,0,0,1,135.5,70.92Zm-.1-2.14a7.64,7.64,0,0,1-1,.25c-.41.09-.7.15-.86.2a1.1,1.1,0,0,0-.45.24.61.61,0,0,0-.22.51.75.75,0,0,0,.25.57,1,1,0,0,0,.67.24,1.68,1.68,0,0,0,.81-.2,1.26,1.26,0,0,0,.55-.49,2.36,2.36,0,0,0,.2-1.11Z" transform="translate(0 0)"/><path class="cls-1" d="M144.32,70.91v-.14a4.19,4.19,0,0,1-.59.55,2.71,2.71,0,0,1-.63.33,2.5,2.5,0,0,1-.74.11,2.19,2.19,0,0,1-1-.23,2.27,2.27,0,0,1-.78-.64,3.15,3.15,0,0,1-.51-1,4.39,4.39,0,0,1-.17-1.22,3.21,3.21,0,0,1,.68-2.17,2.25,2.25,0,0,1,1.79-.78,2.47,2.47,0,0,1,1.08.22,3.06,3.06,0,0,1,.86.68V64.45a1.13,1.13,0,0,1,.18-.69.63.63,0,0,1,.52-.23.66.66,0,0,1,.52.21,1,1,0,0,1,.18.63v6.54a.93.93,0,0,1-.2.64.66.66,0,0,1-.5.21.63.63,0,0,1-.5-.22A.88.88,0,0,1,144.32,70.91Zm-2.92-2.18a2.43,2.43,0,0,0,.19,1,1.38,1.38,0,0,0,.51.64,1.35,1.35,0,0,0,1.43,0,1.45,1.45,0,0,0,.51-.62,2.57,2.57,0,0,0,.2-1.06,2.39,2.39,0,0,0-.2-1,1.58,1.58,0,0,0-.52-.66,1.25,1.25,0,0,0-.72-.22,1.26,1.26,0,0,0-.73.23,1.53,1.53,0,0,0-.49.66A2.59,2.59,0,0,0,141.4,68.73Z" transform="translate(0 0)"/><path class="cls-1" d="M151.24,69.11h-2.9a2,2,0,0,0,.2.89,1.36,1.36,0,0,0,.53.58,1.39,1.39,0,0,0,.72.2,1.53,1.53,0,0,0,.49-.07,1.49,1.49,0,0,0,.43-.19l.38-.29.45-.41a.49.49,0,0,1,.32-.1.51.51,0,0,1,.37.13.42.42,0,0,1,.14.35,1,1,0,0,1-.15.47,2.09,2.09,0,0,1-.48.52,2.85,2.85,0,0,1-.8.41,3.69,3.69,0,0,1-1.1.16,2.91,2.91,0,0,1-2.22-.82,3,3,0,0,1-.8-2.21,3.66,3.66,0,0,1,.2-1.21,2.68,2.68,0,0,1,.57-1,2.43,2.43,0,0,1,.92-.61,3.19,3.19,0,0,1,1.22-.22,2.84,2.84,0,0,1,1.49.37,2.46,2.46,0,0,1,1.24,2.13.74.74,0,0,1-.32.72A2,2,0,0,1,151.24,69.11Zm-2.9-.84H151a1.86,1.86,0,0,0-.41-1.14,1.24,1.24,0,0,0-.94-.38,1.18,1.18,0,0,0-.91.39A1.86,1.86,0,0,0,148.34,68.27Z" transform="translate(0 0)"/><path class="cls-1" d="M160.92,69.92a1.29,1.29,0,0,1-.16.6,2.15,2.15,0,0,1-.51.6,2.5,2.5,0,0,1-.86.45,3.49,3.49,0,0,1-1.16.18,2.84,2.84,0,0,1-2.14-.8,3,3,0,0,1-.77-2.15,3.44,3.44,0,0,1,.35-1.61,2.62,2.62,0,0,1,1-1.09,3.46,3.46,0,0,1,2.65-.21,2.88,2.88,0,0,1,.82.43,2.23,2.23,0,0,1,.51.57,1.09,1.09,0,0,1,.17.56.58.58,0,0,1-.19.45.68.68,0,0,1-.48.19.45.45,0,0,1-.31-.1,1.69,1.69,0,0,1-.28-.3,2.3,2.3,0,0,0-.56-.62,1.39,1.39,0,0,0-1.81.3,2.23,2.23,0,0,0-.41,1.41,2.7,2.7,0,0,0,.11.77,1.73,1.73,0,0,0,.3.59,1.24,1.24,0,0,0,.47.38,1.51,1.51,0,0,0,.61.13,1.35,1.35,0,0,0,.76-.21,1.83,1.83,0,0,0,.56-.63,1.25,1.25,0,0,1,.3-.39.51.51,0,0,1,.38-.14.59.59,0,0,1,.45.2A.68.68,0,0,1,160.92,69.92Z" transform="translate(0 0)"/><path class="cls-1" d="M163.58,69.62v1.24a.94.94,0,0,1-.21.67.74.74,0,0,1-1.07,0,1,1,0,0,1-.2-.67V66.73c0-.66.24-1,.72-1a.6.6,0,0,1,.53.24,1.23,1.23,0,0,1,.18.68,2.49,2.49,0,0,1,.55-.68,1.08,1.08,0,0,1,.74-.24,1.88,1.88,0,0,1,.91.24.69.69,0,0,1,.44.61.63.63,0,0,1-.59.63,1.65,1.65,0,0,1-.4-.1,1.74,1.74,0,0,0-.55-.1.77.77,0,0,0-.53.17,1.07,1.07,0,0,0-.32.51,3.32,3.32,0,0,0-.16.8C163.59,68.8,163.58,69.17,163.58,69.62Z" transform="translate(0 0)"/><path class="cls-1" d="M170.73,69.11h-2.9A2,2,0,0,0,168,70a1.34,1.34,0,0,0,.52.58,1.4,1.4,0,0,0,.73.2,1.43,1.43,0,0,0,.48-.07,1.49,1.49,0,0,0,.43-.19,3.8,3.8,0,0,0,.38-.29l.45-.41a.54.54,0,0,1,.33-.1.52.52,0,0,1,.37.13.45.45,0,0,1,.14.35,1,1,0,0,1-.16.47,1.77,1.77,0,0,1-.48.52,2.79,2.79,0,0,1-.79.41,3.71,3.71,0,0,1-1.11.16,2.94,2.94,0,0,1-2.22-.82,3,3,0,0,1-.79-2.21,3.65,3.65,0,0,1,.19-1.21,2.68,2.68,0,0,1,.57-1,2.39,2.39,0,0,1,.93-.61,3.14,3.14,0,0,1,1.21-.22,2.82,2.82,0,0,1,1.49.37,2.42,2.42,0,0,1,.94.94,2.59,2.59,0,0,1,.3,1.19c0,.37-.1.61-.32.72A2,2,0,0,1,170.73,69.11Zm-2.9-.84h2.69a1.8,1.8,0,0,0-.41-1.14,1.24,1.24,0,0,0-.94-.38,1.18,1.18,0,0,0-.91.39A1.92,1.92,0,0,0,167.83,68.27Z" transform="translate(0 0)"/><path class="cls-1" d="M178.41,69.92a1.29,1.29,0,0,1-.16.6,2,2,0,0,1-.51.6,2.45,2.45,0,0,1-.85.45,3.53,3.53,0,0,1-1.16.18,2.85,2.85,0,0,1-2.15-.8,3,3,0,0,1-.77-2.15,3.57,3.57,0,0,1,.35-1.61,2.62,2.62,0,0,1,1-1.09,3.24,3.24,0,0,1,1.6-.38,3.27,3.27,0,0,1,1.06.17,2.82,2.82,0,0,1,.81.43,2.23,2.23,0,0,1,.51.57,1.11,1.11,0,0,1,.18.56.59.59,0,0,1-.2.45.65.65,0,0,1-.48.19.46.46,0,0,1-.31-.1,1.39,1.39,0,0,1-.27-.3,2.17,2.17,0,0,0-.57-.62,1.39,1.39,0,0,0-1.81.3,2.23,2.23,0,0,0-.4,1.41,2.71,2.71,0,0,0,.1.77,1.73,1.73,0,0,0,.3.59,1.32,1.32,0,0,0,.47.38,1.55,1.55,0,0,0,.61.13,1.33,1.33,0,0,0,.76-.21,1.83,1.83,0,0,0,.56-.63,1.42,1.42,0,0,1,.3-.39.51.51,0,0,1,.38-.14.59.59,0,0,1,.45.2A.68.68,0,0,1,178.41,69.92Z" transform="translate(0 0)"/><path class="cls-1" d="M183.74,69.11h-2.9a2,2,0,0,0,.2.89,1.36,1.36,0,0,0,.53.58,1.39,1.39,0,0,0,.72.2,1.53,1.53,0,0,0,.49-.07,1.49,1.49,0,0,0,.43-.19l.38-.29.45-.41a.49.49,0,0,1,.32-.1.51.51,0,0,1,.37.13.42.42,0,0,1,.14.35,1,1,0,0,1-.15.47,2.09,2.09,0,0,1-.48.52,2.85,2.85,0,0,1-.8.41,3.69,3.69,0,0,1-1.1.16,2.91,2.91,0,0,1-2.22-.82,3,3,0,0,1-.8-2.21,3.66,3.66,0,0,1,.2-1.21,2.68,2.68,0,0,1,.57-1,2.43,2.43,0,0,1,.92-.61,3.19,3.19,0,0,1,1.22-.22,2.84,2.84,0,0,1,1.49.37A2.46,2.46,0,0,1,185,68.22a.74.74,0,0,1-.32.72A2,2,0,0,1,183.74,69.11Zm-2.9-.84h2.69a1.86,1.86,0,0,0-.41-1.14,1.24,1.24,0,0,0-.94-.38,1.18,1.18,0,0,0-.91.39A1.86,1.86,0,0,0,180.84,68.27Z" transform="translate(0 0)"/><path class="cls-1" d="M187.57,69.62v1.24a.94.94,0,0,1-.21.67.71.71,0,0,1-.54.23.68.68,0,0,1-.52-.23,1,1,0,0,1-.21-.67V66.73c0-.66.24-1,.72-1a.61.61,0,0,1,.54.24,1.32,1.32,0,0,1,.17.68,2.49,2.49,0,0,1,.55-.68,1.13,1.13,0,0,1,.75-.24,1.84,1.84,0,0,1,.9.24.68.68,0,0,1,.44.61A.6.6,0,0,1,190,67a.59.59,0,0,1-.41.18,1.73,1.73,0,0,1-.39-.1,1.74,1.74,0,0,0-.55-.1.75.75,0,0,0-.53.17,1.08,1.08,0,0,0-.33.51,3.94,3.94,0,0,0-.15.8C187.59,68.8,187.57,69.17,187.57,69.62Z" transform="translate(0 0)"/><path class="cls-1" d="M194.36,66.62v5c0,.35,0,.65,0,.87a2.25,2.25,0,0,1-.1.49,1.51,1.51,0,0,1-1.57.95,2.13,2.13,0,0,1-1-.19.56.56,0,0,1-.35-.53.57.57,0,0,1,.16-.43.53.53,0,0,1,.41-.17h.1l.22,0h.2a.4.4,0,0,0,.4-.23,2.36,2.36,0,0,0,.1-.84v-5a.94.94,0,0,1,.21-.67.71.71,0,0,1,.54-.22.72.72,0,0,1,.53.22A1,1,0,0,1,194.36,66.62ZM193.63,65a.77.77,0,0,1-.53-.19.72.72,0,0,1,0-1,.73.73,0,0,1,.52-.21.75.75,0,0,1,.51.19.64.64,0,0,1,.22.53.67.67,0,0,1-.22.54A.72.72,0,0,1,193.63,65Z" transform="translate(0 0)"/><path class="cls-1" d="M199.63,70.92v-.19a3.37,3.37,0,0,1-.56.57,2.32,2.32,0,0,1-.64.34,2.76,2.76,0,0,1-.8.11,2.15,2.15,0,0,1-1-.22,1.71,1.71,0,0,1-.66-.62,2.76,2.76,0,0,1-.28-1.36V66.62a1,1,0,0,1,.2-.67A.77.77,0,0,1,197,66a.94.94,0,0,1,.21.67V69a3.68,3.68,0,0,0,.08.87,1,1,0,0,0,.32.54.85.85,0,0,0,.61.2,1.21,1.21,0,0,0,.7-.22,1.38,1.38,0,0,0,.49-.58,4.86,4.86,0,0,0,.12-1.38v-1.8a.94.94,0,0,1,.21-.67.7.7,0,0,1,.53-.22.74.74,0,0,1,.54.22,1,1,0,0,1,.2.67v4.29a.93.93,0,0,1-.2.64.68.68,0,0,1-1,0A.86.86,0,0,1,199.63,70.92Z" transform="translate(0 0)"/><path class="cls-1" d="M203.74,66.55v.18a2.61,2.61,0,0,1,.85-.76,2.31,2.31,0,0,1,1.07-.24,2.15,2.15,0,0,1,1.05.26,1.63,1.63,0,0,1,.68.72,1.52,1.52,0,0,1,.19.59,5.66,5.66,0,0,1,0,.8v2.76a1,1,0,0,1-.21.67.67.67,0,0,1-.52.23.68.68,0,0,1-.54-.23,1,1,0,0,1-.21-.67V68.39a2.52,2.52,0,0,0-.2-1.12.83.83,0,0,0-.81-.39,1.26,1.26,0,0,0-.73.23,1.42,1.42,0,0,0-.47.65,4.36,4.36,0,0,0-.11,1.24v1.86a.94.94,0,0,1-.21.67.71.71,0,0,1-.54.23.69.69,0,0,1-.53-.23,1,1,0,0,1-.21-.67V66.57a1,1,0,0,1,.19-.63.63.63,0,0,1,.5-.21.74.74,0,0,1,.36.09.76.76,0,0,1,.25.28A1,1,0,0,1,203.74,66.55Z" transform="translate(0 0)"/><path class="cls-1" d="M209.08,65.86h.16V65c0-.24,0-.42,0-.56a.76.76,0,0,1,.11-.35.68.68,0,0,1,.61-.34.73.73,0,0,1,.51.21.66.66,0,0,1,.2.34,4,4,0,0,1,0,.58v1h.54a.69.69,0,0,1,.48.15.49.49,0,0,1,.16.38.42.42,0,0,1-.23.42,1.53,1.53,0,0,1-.68.12h-.27v2.73a3.8,3.8,0,0,0,0,.53.59.59,0,0,0,.13.31.49.49,0,0,0,.35.11,1.85,1.85,0,0,0,.35,0,1.93,1.93,0,0,1,.35,0,.47.47,0,0,1,.32.14.52.52,0,0,1,.14.36.6.6,0,0,1-.39.55,2.57,2.57,0,0,1-1.12.19,2,2,0,0,1-1.06-.23,1.19,1.19,0,0,1-.47-.65,4.61,4.61,0,0,1-.11-1.1V66.93h-.19a.7.7,0,0,1-.49-.15.51.51,0,0,1-.17-.39.48.48,0,0,1,.18-.38A.76.76,0,0,1,209.08,65.86Z" transform="translate(0 0)"/><path class="cls-1" d="M218.38,68.75a3.47,3.47,0,0,1-.21,1.22,2.62,2.62,0,0,1-.59,1,2.59,2.59,0,0,1-.94.61,3.16,3.16,0,0,1-1.22.22,3.11,3.11,0,0,1-1.21-.22,2.58,2.58,0,0,1-.93-.62,2.79,2.79,0,0,1-.6-1,3.57,3.57,0,0,1-.2-1.21,3.79,3.79,0,0,1,.2-1.24,2.66,2.66,0,0,1,.6-1,2.39,2.39,0,0,1,.93-.61,3.47,3.47,0,0,1,2.43,0,2.53,2.53,0,0,1,.94.62,2.75,2.75,0,0,1,.6,1A3.69,3.69,0,0,1,218.38,68.75Zm-1.49,0a2.22,2.22,0,0,0-.4-1.42,1.3,1.3,0,0,0-1.07-.5,1.36,1.36,0,0,0-.77.22,1.47,1.47,0,0,0-.51.67,2.67,2.67,0,0,0-.18,1,2.64,2.64,0,0,0,.18,1,1.52,1.52,0,0,0,.51.67,1.32,1.32,0,0,0,.77.23,1.28,1.28,0,0,0,1.07-.51A2.2,2.2,0,0,0,216.89,68.75Z" transform="translate(0 0)"/><path class="cls-1" d="M224.21,69.82a1.88,1.88,0,0,1-.29,1.05,1.85,1.85,0,0,1-.89.66,4,4,0,0,1-1.42.23,3.35,3.35,0,0,1-1.37-.25,1.91,1.91,0,0,1-.84-.61,1.22,1.22,0,0,1-.27-.73.58.58,0,0,1,.18-.42.57.57,0,0,1,.44-.17.48.48,0,0,1,.35.11,1,1,0,0,1,.24.32,1.66,1.66,0,0,0,.55.59,1.63,1.63,0,0,0,.86.2,1.26,1.26,0,0,0,.73-.2.56.56,0,0,0,.29-.45.62.62,0,0,0-.3-.57,3.54,3.54,0,0,0-1-.35,7.4,7.4,0,0,1-1.25-.4,2,2,0,0,1-.77-.55,1.24,1.24,0,0,1-.28-.84,1.56,1.56,0,0,1,.26-.84,1.88,1.88,0,0,1,.79-.63,2.93,2.93,0,0,1,1.25-.24,4,4,0,0,1,1,.12,2.75,2.75,0,0,1,.77.32,1.69,1.69,0,0,1,.47.45.91.91,0,0,1,.16.47.57.57,0,0,1-.17.42.69.69,0,0,1-.49.17.65.65,0,0,1-.39-.13,2.5,2.5,0,0,1-.37-.4,1.26,1.26,0,0,0-.39-.34,1.22,1.22,0,0,0-.62-.13,1.17,1.17,0,0,0-.67.17.47.47,0,0,0-.26.42.47.47,0,0,0,.19.39,1.54,1.54,0,0,0,.53.24c.22.07.52.15.91.24a5.83,5.83,0,0,1,1.13.4,1.85,1.85,0,0,1,.66.56A1.2,1.2,0,0,1,224.21,69.82Z" transform="translate(0 0)"/><path class="cls-1" d="M227.85,68.18l-.17-2.61c0-.5-.05-.87-.05-1.09a1,1,0,0,1,.24-.7.79.79,0,0,1,.62-.25.62.62,0,0,1,.62.32,2.13,2.13,0,0,1,.16.93,6.06,6.06,0,0,1,0,.73L229,68.19a2.34,2.34,0,0,1-.16.73.43.43,0,0,1-.42.25.4.4,0,0,1-.4-.24A2.61,2.61,0,0,1,227.85,68.18Zm.61,3.57a.82.82,0,0,1-.58-.22.73.73,0,0,1-.25-.6.78.78,0,0,1,.24-.57.77.77,0,0,1,.58-.24.8.8,0,0,1,.58.24.78.78,0,0,1,.24.57.75.75,0,0,1-.24.6A.83.83,0,0,1,228.46,71.75Z" transform="translate(0 0)"/></g></g></svg>