<svg xmlns="http://www.w3.org/2000/svg" viewBox="0 0 422.22 137.95"><defs><style>.cls-1{fill:#8697b8;}</style></defs><title>logo-contacto</title><g id="Capa_2" data-name="Capa 2"><g id="Capa_1-2" data-name="Capa 1"><path class="cls-1" d="M175.23,29.33q-9.63,8.39-9.63,20.26t9.63,20.27a34.13,34.13,0,0,0,23.23,8.39h23.47V61.87H198.46a14.62,14.62,0,0,1-10-3.6,11.19,11.19,0,0,1,0-17.36,14.62,14.62,0,0,1,10-3.6h23.47V20.94H198.46Q184.84,20.94,175.23,29.33Z" transform="translate(0)"/><path class="cls-1" d="M236.24,69.86a36.37,36.37,0,0,0,46.47,0q9.63-8.4,9.62-20.27t-9.62-20.26q-9.61-8.4-23.23-8.39t-23.24,8.39q-9.62,8.39-9.62,20.26T236.24,69.86Zm13.29-28.95a15.55,15.55,0,0,1,19.9,0,11.19,11.19,0,0,1,0,17.36,15.55,15.55,0,0,1-19.9,0,11.19,11.19,0,0,1,0-17.36Z" transform="translate(0)"/><path class="cls-1" d="M306.65,69.86a34.17,34.17,0,0,0,23.23,8.39h23.47V61.87H329.88a14.66,14.66,0,0,1-9.95-3.6,11.19,11.19,0,0,1,0-17.36,14.66,14.66,0,0,1,9.95-3.6h23.47V20.94H329.88a34.12,34.12,0,0,0-23.23,8.39Q297,37.72,297,49.59T306.65,69.86Z" transform="translate(0)"/><path class="cls-1" d="M398.6,20.94,356.36,78.25h23.47l4.42-6h19v6h18.78V20.94Zm-7.85,42.48,12.54-17v17Z" transform="translate(0)"/><path class="cls-1" d="M178.07,92.29a9.77,9.77,0,0,1,6.11,2.23l3.34-3.19c-2.22-1.81-4.91-3.06-9.41-3.06-7.34,0-12.45,4.61-12.45,10.24v.06c0,5.69,5.22,10.19,12.24,10.19a13.39,13.39,0,0,0,9.79-3.54l-3.34-2.8a9.48,9.48,0,0,1-6.28,2.32c-4.09,0-6.92-2.83-6.92-6.23v-.05C171.15,95.06,174.05,92.29,178.07,92.29Z" transform="translate(0)"/><path class="cls-1" d="M215.51,98.51v-.05c0-5.63-5.29-10.19-12.65-10.19s-12.73,4.61-12.73,10.24v.06c0,5.63,5.29,10.19,12.66,10.19S215.51,104.15,215.51,98.51Zm-19.89,0v-.05c0-3.4,2.94-6.17,7.17-6.17S210,95.12,210,98.51v.06c0,3.4-2.93,6.17-7.16,6.17S195.62,101.91,195.62,98.51Z" transform="translate(0)"/><path class="cls-1" d="M244.48,98.51v-.05c0-5.63-5.28-10.19-12.65-10.19s-12.72,4.61-12.72,10.24v.06c0,5.63,5.29,10.19,12.65,10.19S244.48,104.15,244.48,98.51Zm-5.49.06c0,3.4-2.93,6.17-7.16,6.17s-7.23-2.83-7.23-6.23v-.05c0-3.4,2.93-6.17,7.16-6.17S239,95.12,239,98.51Z" transform="translate(0)"/><path class="cls-1" d="M268,95.46c0-4-3.45-6.85-9.14-6.85h-9.76v19.81h5.26v-5.94h4c5.35,0,9.65-2.38,9.65-7Zm-5.32.14c0,1.7-1.54,3-4.16,3H254.4V92.54h4c2.63,0,4.27,1,4.27,3Z" transform="translate(0)"/><polygon class="cls-1" points="289.92 92.49 289.92 88.61 271.91 88.61 271.91 108.42 290.09 108.42 290.09 104.54 277.13 104.54 277.13 100.38 288.39 100.38 288.39 96.51 277.13 96.51 277.13 92.49 289.92 92.49"/><path class="cls-1" d="M315.39,108.42l-5.83-7.07c3-.94,5.11-2.95,5.11-6.15v0c0-4.08-3.37-6.54-9-6.54H294.75v19.81H300v-6.34h4.12l5.12,6.34ZM305.33,98.23H300V92.54h5.21c2.56,0,4.13,1,4.13,2.83v.06C309.35,97.1,307.88,98.23,305.33,98.23Z" transform="translate(0)"/><path class="cls-1" d="M337.17,108.42h5.49l-10.23-20h-4.84l-10.24,20h5.36l2.18-4.44H335Zm-10.4-8.29,3.17-6.43,3.17,6.43Z" transform="translate(0)"/><polygon class="cls-1" points="341.56 92.63 348.82 92.63 348.82 108.42 354.07 108.42 354.07 92.63 361.34 92.63 361.34 88.61 341.56 88.61 341.56 92.63"/><rect class="cls-1" x="365.59" y="88.61" width="5.25" height="19.81"/><polygon class="cls-1" points="398.7 88.61 393.04 88.61 386.8 102.56 380.56 88.61 374.76 88.61 384.41 108.56 389.05 108.56 398.7 88.61"/><path class="cls-1" d="M407.15,88.47l-10.23,20h5.35l2.18-4.44h10.1l2.18,4.44h5.49L412,88.47Zm-.82,11.66,3.17-6.43,3.17,6.43Z" transform="translate(0)"/><path class="cls-1" d="M171.59,115.44h-5.66v11.8h5.66c4.56,0,7.71-2.58,7.71-5.9v0C179.3,118,176.15,115.44,171.59,115.44Zm4.37,5.93c0,2.09-1.76,3.53-4.37,3.53h-2.47v-7.12h2.47c2.61,0,4.37,1.47,4.37,3.56Z" transform="translate(0)"/><polygon class="cls-1" points="185.3 122.45 192.14 122.45 192.14 120.14 185.3 120.14 185.3 117.75 193.07 117.75 193.07 115.44 182.13 115.44 182.13 127.24 193.18 127.24 193.18 124.93 185.3 124.93 185.3 122.45"/><path class="cls-1" d="M207.19,115.35,201,127.24h3.25l1.33-2.65h6.13l1.33,2.65h3.34l-6.22-11.89Zm-.49,7,1.93-3.83,1.92,3.83Z" transform="translate(0)"/><polygon class="cls-1" points="227.66 120.11 221.78 120.11 221.78 115.44 218.58 115.44 218.58 127.24 221.78 127.24 221.78 122.5 227.66 122.5 227.66 127.24 230.85 127.24 230.85 115.44 227.66 115.44 227.66 120.11"/><path class="cls-1" d="M241.42,115.23c-4.48,0-7.74,2.75-7.74,6.11v0c0,3.36,3.22,6.07,7.69,6.07s7.74-2.75,7.74-6.1v0C249.11,118,245.89,115.23,241.42,115.23Zm4.35,6.14c0,2-1.78,3.68-4.35,3.68s-4.4-1.69-4.4-3.71v0c0-2,1.78-3.68,4.35-3.68s4.4,1.69,4.4,3.71Z" transform="translate(0)"/><path class="cls-1" d="M264,119.37v0c0-2.43-2.05-3.89-5.47-3.89h-6.64v11.8h3.19v-3.78h2.51l3.11,3.78h3.73L260.93,123C262.77,122.47,264,121.27,264,119.37Zm-3.24.13c0,1-.89,1.67-2.44,1.67h-3.24v-3.39h3.18c1.55,0,2.5.57,2.5,1.69Z" transform="translate(0)"/><path class="cls-1" d="M279,119.37v0c0-2.43-2.05-3.89-5.47-3.89h-6.63v11.8h3.19v-3.78h2.51l3.11,3.78h3.73L275.91,123C277.75,122.47,279,121.27,279,119.37Zm-3.23.13c0,1-.89,1.67-2.45,1.67H270.1v-3.39h3.17c1.56,0,2.51.57,2.51,1.69Z" transform="translate(0)"/><path class="cls-1" d="M289,115.23c-4.47,0-7.73,2.75-7.73,6.11v0c0,3.36,3.22,6.07,7.69,6.07s7.74-2.75,7.74-6.1v0C296.67,118,293.45,115.23,289,115.23Zm4.36,6.14c0,2-1.78,3.68-4.36,3.68s-4.39-1.69-4.39-3.71v0c0-2,1.78-3.68,4.35-3.68s4.4,1.69,4.4,3.71Z" transform="translate(0)"/><polygon class="cls-1" points="311.4 120.17 307.94 115.44 304.21 115.44 309.79 122.59 309.79 127.24 312.98 127.24 312.98 122.54 318.56 115.44 314.93 115.44 311.4 120.17"/><path class="cls-1" d="M333.65,125.05a3.9,3.9,0,0,1-4.2-3.71v0c0-2,1.76-3.68,4.2-3.68a5.92,5.92,0,0,1,3.71,1.33l2-1.91a8.51,8.51,0,0,0-5.73-1.82c-4.45,0-7.56,2.75-7.56,6.11v0c0,3.39,3.17,6.07,7.44,6.07a8.27,8.27,0,0,0,5.95-2.1l-2-1.67A5.86,5.86,0,0,1,333.65,125.05Z" transform="translate(0)"/><path class="cls-1" d="M354.14,119.37v0c0-2.43-2.05-3.89-5.47-3.89H342v11.8h3.19v-3.78h2.51l3.11,3.78h3.73L351,123C352.88,122.47,354.14,121.27,354.14,119.37Zm-3.23.13c0,1-.89,1.67-2.45,1.67h-3.23v-3.39h3.17c1.56,0,2.51.57,2.51,1.69Z" transform="translate(0)"/><polygon class="cls-1" points="363.15 114.51 365.8 112.48 363.09 111.52 360.75 114.51 363.15 114.51"/><polygon class="cls-1" points="360.19 122.45 367.02 122.45 367.02 120.14 360.19 120.14 360.19 117.75 367.96 117.75 367.96 115.44 357.01 115.44 357.01 127.24 368.06 127.24 368.06 124.93 360.19 124.93 360.19 122.45"/><path class="cls-1" d="M376.55,115.44h-5.66v11.8h5.66c4.56,0,7.71-2.58,7.71-5.9v0C384.26,118,381.11,115.44,376.55,115.44Zm4.38,5.93c0,2.09-1.77,3.53-4.38,3.53h-2.47v-7.12h2.47c2.61,0,4.38,1.47,4.38,3.56Z" transform="translate(0)"/><rect class="cls-1" x="387.24" y="115.44" width="3.19" height="11.81"/><polygon class="cls-1" points="393.01 117.83 397.43 117.83 397.43 127.24 400.62 127.24 400.62 117.83 405.04 117.83 405.04 115.44 393.01 115.44 393.01 117.83"/><path class="cls-1" d="M413.94,115.23c-4.48,0-7.73,2.75-7.73,6.11v0c0,3.36,3.21,6.07,7.69,6.07s7.73-2.75,7.73-6.1v0C421.63,118,418.42,115.23,413.94,115.23Zm4.35,6.14c0,2-1.78,3.68-4.35,3.68s-4.39-1.69-4.39-3.71v0c0-2,1.78-3.68,4.35-3.68s4.39,1.69,4.39,3.71Z" transform="translate(0)"/><path class="cls-1" d="M79.94,137.94c-13.58,0-27.16,0-40.74,0a18.62,18.62,0,0,1-13.83-6,25.23,25.23,0,0,1-2.35-2.9,1.11,1.11,0,0,0-1-.51c-1.64,0-3.28,0-4.92,0A16.53,16.53,0,0,1,.9,116.76c-1.72-5.42-.9-10.49,1.78-15.43q14.93-27.48,29.72-55,6.87-12.72,13.76-25.44c2.17-4,4.38-8,6.58-12A16.1,16.1,0,0,1,63.42.45,15.8,15.8,0,0,1,80.88,7.92c1.58,2.65,3,5.41,4.46,8.12,2.81,5.14,5.57,10.32,8.44,15.43,1.07,1.91,2,3.91,3.08,5.82s2.17,4,3.25,6l3.19,5.93,3.18,5.93,3.24,6,3.2,5.92Q124.47,88.53,136,110a19.61,19.61,0,0,1,2.54,10.5c-.41,8-5.7,15.28-13.56,17a17.51,17.51,0,0,1-3.68.41q-20.68,0-41.38,0Zm-35-109.89L11.1,90.56c.13.11.19.17.25.21a41,41,0,0,0,16.35,5.9,2.3,2.3,0,0,0,1.39-.35,18,18,0,0,1,15-2.17c6.13,1.81,10.3,5.9,12.83,11.64a52.33,52.33,0,0,1,2.1,6.93c1.16,4.19,2.88,8,6.23,11,3.93,3.53,8.37,5.52,13.69,5.06A16.26,16.26,0,0,0,90.8,122a20.4,20.4,0,0,0,3.79-16.42,19.13,19.13,0,0,0-9.25-13.78,9.09,9.09,0,0,1-1.46-1.09A151.35,151.35,0,0,1,69,75.16,136.77,136.77,0,0,1,53.09,51.32a83.09,83.09,0,0,1-7.3-19C45.46,31,45.21,29.59,44.89,28.05ZM80,135.64q20.81,0,41.61,0a13.28,13.28,0,0,0,9-3.42c4.27-3.75,6-8.57,5.66-14.17a1.44,1.44,0,0,0-.52-1,41.75,41.75,0,0,0-24-8.21A61.61,61.61,0,0,0,98.94,110c-1.69.3-1.69.28-1.85,2V112a22.07,22.07,0,0,1-5.67,12.8,18.41,18.41,0,0,1-16.87,6.07c-5.4-.77-9.58-3.77-13.07-7.76a22.92,22.92,0,0,1-4.93-10.84A21.65,21.65,0,0,0,49.94,100,15.94,15.94,0,0,0,39.86,95.7,15.67,15.67,0,0,0,28,100.05c-6.31,5.94-8,13.33-5.89,21.55a18.49,18.49,0,0,0,10.76,12.86,17.34,17.34,0,0,0,7.28,1.2C53.42,135.62,66.71,135.64,80,135.64ZM70.82,73.82c.2-.23.35-.39.48-.55A125.87,125.87,0,0,0,83,56.79C87,50,90.24,43,91.89,35.25A3.85,3.85,0,0,0,91.46,32a17,17,0,0,1-1-1.73c-2.31-4.24-4.48-8.57-7-12.71a12,12,0,0,0-12-6.05c-4.57.41-7.91,2.94-10.09,6.92-3.66,6.67-7.24,13.38-10.87,20.07a1.49,1.49,0,0,0-.09,1.39,107.88,107.88,0,0,0,9.12,18.32A140.18,140.18,0,0,0,70.82,73.82ZM94,36.7c-3.88,14.95-12.09,27.3-21.7,39,2.65,2.82,5.31,5.62,7.93,8.45a1.38,1.38,0,0,0,1.71.41,123.61,123.61,0,0,1,18.79-5.09,56.6,56.6,0,0,1,13.19-.92l2.72.13C109,64.69,101.54,50.77,94,36.7Zm-14.15-26a14.73,14.73,0,0,0-3.66-4.93A13.18,13.18,0,0,0,64.61,2.53a13.6,13.6,0,0,0-9.67,7.14c-2.61,4.65-5.14,9.34-7.67,14A2.69,2.69,0,0,0,47,25.28c.25,2,.54,4,.94,5.91.33,1.63.83,3.22,1.31,5l.56-1L59.4,17.42a15.62,15.62,0,0,1,4.29-5.13,14,14,0,0,1,11-2.95C76.42,9.62,78.11,10.22,79.81,10.67Zm51.67,95.63c-.94-1.76-1.87-3.53-2.85-5.27a2.07,2.07,0,0,0-1-.84A40.41,40.41,0,0,0,111.6,97a101.47,101.47,0,0,0-10.43.8C99.06,98,97,98.58,94.83,99c.31.76.58,1.38.83,2s.46,1.26.69,1.9C108.46,100.34,120.22,100.44,131.48,106.3Zm-7.65-14.22c-.87-1.6-1.68-3.15-2.54-4.66a1.21,1.21,0,0,0-.75-.47,49.53,49.53,0,0,0-14.68-.6A80.85,80.85,0,0,0,91.5,89.16c-1.35.38-2.71.79-4.08,1.19,1.2,1,2.31,2,3.45,2.94a1,1,0,0,0,.73,0,83.35,83.35,0,0,1,14.62-2.73,48.38,48.38,0,0,1,11.78.32C119.92,91.23,121.81,91.68,123.83,92.08ZM3.38,104.87c-.28,1-.58,1.81-.76,2.68a1.21,1.21,0,0,0,.37.93,47.09,47.09,0,0,0,14.74,8.87c.43.16.87.28,1.31.42,0-1.13-.05-2.16,0-3.18a.94.94,0,0,0-.77-1.13,42.74,42.74,0,0,1-11-5.69C6,106.87,4.76,105.91,3.38,104.87Zm2.76-5.16a44.44,44.44,0,0,0,14.34,7.45l1.68-3.58A44.51,44.51,0,0,1,7.71,96.79Zm15.12,26.75.18-.47c-.34-.26-.64-.65-1-.76a45.83,45.83,0,0,1-16.16-8.37c-.37-.3-.75-.59-1.13-.88,1.68,5.1,4.87,8.73,10.17,9.9C15.88,126.44,18.6,126.29,21.26,126.46Z" transform="translate(0)"/></g></g></svg>