<svg xmlns="http://www.w3.org/2000/svg" xmlns:xlink="http://www.w3.org/1999/xlink" viewBox="0 0 248 81.41"><defs><style>.cls-1{fill:url(#linear-gradient);}.cls-2{fill:url(#linear-gradient-2);}.cls-3{fill:url(#linear-gradient-3);}.cls-4{fill:url(#linear-gradient-4);}.cls-5{fill:url(#linear-gradient-5);}.cls-6{fill:url(#linear-gradient-6);}.cls-7{fill:url(#linear-gradient-7);}.cls-8{fill:url(#linear-gradient-8);}.cls-9{fill:#fff;}.cls-10{fill:url(#linear-gradient-9);}.cls-11{fill:url(#linear-gradient-10);}</style><linearGradient id="linear-gradient" x1="47.42" y1="-3.09" x2="30.51" y2="22.8" gradientUnits="userSpaceOnUse"><stop offset="0" stop-color="#ffdd3a"/><stop offset="0.48" stop-color="#fddb3a"/><stop offset="0.66" stop-color="#f7d43a"/><stop offset="0.79" stop-color="#ebc83b"/><stop offset="0.89" stop-color="#dbb73c"/><stop offset="0.98" stop-color="#c6a13d"/><stop offset="1" stop-color="#c19c3d"/></linearGradient><linearGradient id="linear-gradient-2" x1="31.85" y1="6.32" x2="54.52" y2="40.55" gradientUnits="userSpaceOnUse"><stop offset="0" stop-color="#0d943c"/><stop offset="1" stop-color="#036a41"/></linearGradient><linearGradient id="linear-gradient-3" x1="55.23" y1="45.66" x2="29.34" y2="87.08" xlink:href="#linear-gradient-2"/><linearGradient id="linear-gradient-4" x1="70.62" y1="56.42" x2="46.03" y2="95.77" xlink:href="#linear-gradient-2"/><linearGradient id="linear-gradient-5" x1="64.22" y1="51.97" x2="39.38" y2="91.71" xlink:href="#linear-gradient-2"/><linearGradient id="linear-gradient-6" x1="-0.56" y1="51.29" x2="35.5" y2="89.09" xlink:href="#linear-gradient"/><linearGradient id="linear-gradient-7" x1="-4.28" y1="55.08" x2="31.79" y2="92.89" xlink:href="#linear-gradient"/><linearGradient id="linear-gradient-8" x1="-7.17" y1="58.16" x2="28.73" y2="95.79" xlink:href="#linear-gradient"/><linearGradient id="linear-gradient-9" x1="66.75" y1="45.93" x2="31.22" y2="87.23" xlink:href="#linear-gradient-2"/><linearGradient id="linear-gradient-10" x1="5.09" y1="45.56" x2="56.97" y2="45.56" xlink:href="#linear-gradient"/></defs><title>logo</title><g id="Capa_2" data-name="Capa 2"><g id="Capa_1-2" data-name="Capa 1"><path class="cls-1" d="M32.85,15.14l2.75-5.08A8.26,8.26,0,0,1,50,9.31l-.76-1.4-1.61-3A8.91,8.91,0,0,0,32.72,3.27a10.81,10.81,0,0,0-1.11,1.65l-4.86,8.9a33.23,33.23,0,0,0,2,9l2.79-5.17Z"/><path class="cls-2" d="M50.47,10.18l-.07-.12q-.21-.39-.45-.75a8.26,8.26,0,0,0-14.35.75l-2.75,5.08L31.52,17.6l-2.79,5.17A60.92,60.92,0,0,0,33.57,33a81.64,81.64,0,0,0,6.57,9.6h0l1.68,2.06c1.75-2,3.36-4.11,4.8-6.17,4.84-6.87,7.9-13.62,8.73-19.14v-.13s0,0,0,0Z"/><path class="cls-3" d="M42.58,45.57c1.68,2,3.4,3.76,5.13,5.45,7.69-2.65,15.34-4.75,22.82-3.62L56.39,21.15l-1-1.91c-.79,5.56-3.9,12.4-8.74,19.27-1.44,2.06-3,4.12-4.8,6.17l.57.68Z"/><path class="cls-4" d="M55.52,58.85a12.4,12.4,0,0,1,.89,2.22c0,.07,0,.14.05.21,7.82-1.79,15.53-1.84,23,2.71l-2.17-4C70.2,56.56,62.9,57,55.52,58.85Z"/><path class="cls-5" d="M50.78,53.78a12.15,12.15,0,0,1,2.48,1.89c7.22-2.07,14.39-3,21.37-.66l-1.79-3.32C65.65,49.89,58.19,51.4,50.78,53.78Z"/><path class="cls-6" d="M13.39,61.57a26.18,26.18,0,0,1-9.94-4.64l-1,1.85a27,27,0,0,0,9.83,5.08A13.1,13.1,0,0,1,13.39,61.57Z"/><path class="cls-7" d="M11.41,68.73c0-.35,0-.69.05-1A27.75,27.75,0,0,1,.9,61.7a10.89,10.89,0,0,0-.66,2,28.19,28.19,0,0,0,11.27,6.58A13.3,13.3,0,0,1,11.41,68.73Z"/><path class="cls-8" d="M.19,67.9a9.38,9.38,0,0,0,9,7.87h4.1c-.22-.36-.41-.74-.6-1.12A27.49,27.49,0,0,1,.19,67.9Z"/><path class="cls-9" d="M47.71,51c.86.83,1.71,1.64,2.57,2.41a5.62,5.62,0,0,1,.5.35c7.41-2.38,14.87-3.89,22.06-2.09L70.53,47.4C63.05,46.27,55.4,48.37,47.71,51Z"/><path class="cls-9" d="M16.59,58.08A25.7,25.7,0,0,1,5.09,53.9l-1.64,3a26.18,26.18,0,0,0,9.94,4.64A12.17,12.17,0,0,1,16.59,58.08Z"/><path class="cls-9" d="M53.26,55.67a12.65,12.65,0,0,1,1.28,1.53,13.53,13.53,0,0,1,1,1.65C62.9,57,70.2,56.56,77.29,60L74.63,55C67.65,52.63,60.48,53.6,53.26,55.67Z"/><path class="cls-9" d="M12.28,63.86a27,27,0,0,1-9.83-5.08L1.25,61c-.13.23-.24.46-.35.69a27.75,27.75,0,0,0,10.56,6A14.19,14.19,0,0,1,12.28,63.86Z"/><path class="cls-10" d="M81.67,69.37c-8-6-16.29-6.25-24.7-4.41,0,5.3-3,10.16-7.86,11.8a10.29,10.29,0,0,1-6,.18,11.07,11.07,0,0,1-3.49-1.61,11.49,11.49,0,0,1-1.78-1.51,8,8,0,0,1-1.8-2,15.18,15.18,0,0,1-1.57-3.33c-.25-.73-.43-1.41-.56-1.95,0-.14-.06-.27-.08-.41s-.1-.53-.16-.79h0a12.9,12.9,0,0,0-1-2.71,13.25,13.25,0,0,0-1.36-2.17,11.85,11.85,0,0,0-3.1-2.82l-.32-.18-.07,0-.34-.19L27.11,57l-.43-.19-.33-.13c-.25-.1-.5-.18-.75-.26l-.2,0-.63-.15-.29-.05-.6-.08-.27,0a8.12,8.12,0,0,0-.86,0,10.39,10.39,0,0,0-6.16,2,12.17,12.17,0,0,0-3.2,3.49,13.1,13.1,0,0,0-1.11,2.29,14.19,14.19,0,0,0-.82,3.84c0,.34-.05.68-.05,1a13.3,13.3,0,0,0,.1,1.55,13.75,13.75,0,0,0,1.22,4.37c.19.38.38.76.6,1.12a12.21,12.21,0,0,0,2.61,3.09A10.55,10.55,0,0,0,22,81.39c.25,0,.5,0,.75,0l.56,0H72.12C78.34,81.39,82.61,75.37,81.67,69.37Z"/><path class="cls-9" d="M56.46,61.28a13.52,13.52,0,0,1,.43,2.14A13.36,13.36,0,0,1,57,65c8.41-1.84,16.71-1.56,24.7,4.41a11,11,0,0,0-1.18-3.48l-1-1.9C72,59.44,64.28,59.49,56.46,61.28Z"/><path class="cls-9" d="M11.51,70.28A28.19,28.19,0,0,1,.24,63.7a10.44,10.44,0,0,0,0,4.2,27.49,27.49,0,0,0,12.54,6.75A13.75,13.75,0,0,1,11.51,70.28Z"/><path class="cls-11" d="M56.89,63.42a13.52,13.52,0,0,0-.43-2.14c0-.07,0-.14-.05-.21a12.4,12.4,0,0,0-.89-2.22,13.53,13.53,0,0,0-1-1.65,12.65,12.65,0,0,0-1.28-1.53,12.15,12.15,0,0,0-2.48-1.89,5.62,5.62,0,0,0-.5-.35c-.86-.77-1.71-1.58-2.57-2.41-1.73-1.69-3.45-3.5-5.13-5.45l-.19-.21-.57-.68c-.58-.7-1.17-1.41-1.71-2.1A82,82,0,0,1,33.53,33a60.81,60.81,0,0,1-4.8-10.18,32.93,32.93,0,0,1-2-8.95L5.09,53.9a25.7,25.7,0,0,0,11.5,4.18,10.39,10.39,0,0,1,6.16-2,8.12,8.12,0,0,1,.86,0l.27,0,.6.08.29.05.63.15.2,0c.25.08.5.16.75.26l.33.13.43.19.35.17.34.19.07,0,.32.18a11.85,11.85,0,0,1,3.1,2.82,13.25,13.25,0,0,1,1.36,2.17,12.9,12.9,0,0,1,1,2.71h0c.06.26.11.52.16.79s.06.27.08.41c.13.54.31,1.22.56,1.95A15.18,15.18,0,0,0,36,71.79a8,8,0,0,0,1.8,2,11.49,11.49,0,0,0,1.78,1.51,11.07,11.07,0,0,0,3.49,1.61,10.29,10.29,0,0,0,6-.18C53.94,75.12,57,70.26,57,65A13.36,13.36,0,0,0,56.89,63.42Z"/><path class="cls-9" d="M101.8,17.41a15.45,15.45,0,0,0,0,24,20.17,20.17,0,0,0,13.74,5h13.88V36.66H115.54a8.66,8.66,0,0,1-5.89-2.13,6.62,6.62,0,0,1,0-10.27,8.66,8.66,0,0,1,5.89-2.13h13.88V12.44H115.54A20.17,20.17,0,0,0,101.8,17.41Z"/><path class="cls-9" d="M137.89,41.38a21.51,21.51,0,0,0,27.48,0,15.47,15.47,0,0,0,0-24,21.48,21.48,0,0,0-27.48,0,15.47,15.47,0,0,0,0,24Zm7.85-17.12a9.19,9.19,0,0,1,11.77,0,6.61,6.61,0,0,1,0,10.27,9.19,9.19,0,0,1-11.77,0,6.62,6.62,0,0,1,0-10.27Z"/><path class="cls-9" d="M179.53,41.38a20.17,20.17,0,0,0,13.74,5h13.88V36.66H193.27a8.63,8.63,0,0,1-5.88-2.13,6.61,6.61,0,0,1,0-10.27,8.63,8.63,0,0,1,5.88-2.13h13.88V12.44H193.27a20.17,20.17,0,0,0-13.74,5,15.47,15.47,0,0,0,0,24Z"/><path class="cls-9" d="M233.92,12.44l-25,33.9h13.88l2.62-3.55h11.26v3.55H247.8V12.44Zm-4.65,25.13,7.42-10.07V37.57Z"/><path class="cls-9" d="M103.45,54.73a5.76,5.76,0,0,1,3.61,1.32l2-1.89a8.11,8.11,0,0,0-5.57-1.81c-4.34,0-7.37,2.73-7.37,6.06v0c0,3.37,3.09,6,7.25,6a7.93,7.93,0,0,0,5.79-2.09l-2-1.66a5.6,5.6,0,0,1-3.71,1.37,3.83,3.83,0,0,1-4.1-3.69v0A3.83,3.83,0,0,1,103.45,54.73Z"/><path class="cls-9" d="M125.61,58.41v0c0-3.33-3.13-6-7.49-6s-7.53,2.73-7.53,6.06v0c0,3.33,3.13,6,7.49,6S125.61,61.75,125.61,58.41Zm-11.77,0v0c0-2,1.74-3.65,4.24-3.65s4.28,1.67,4.28,3.68v0c0,2-1.73,3.65-4.24,3.65S113.84,60.43,113.84,58.41Z"/><path class="cls-9" d="M142.77,58.41v0c0-3.33-3.13-6-7.49-6s-7.54,2.73-7.54,6.06v0c0,3.33,3.13,6,7.5,6S142.77,61.75,142.77,58.41Zm-3.25,0c0,2-1.74,3.65-4.24,3.65S131,60.43,131,58.41v0c0-2,1.73-3.65,4.24-3.65s4.28,1.67,4.28,3.68Z"/><path class="cls-9" d="M156.71,56.61c0-2.4-2-4.06-5.41-4.06h-5.77V64.28h3.11V60.76H151c3.17,0,5.71-1.41,5.71-4.12Zm-3.15.08c0,1-.91,1.78-2.46,1.78h-2.46V54.88H151c1.55,0,2.52.62,2.52,1.78Z"/><polygon class="cls-9" points="169.67 54.85 169.67 52.55 159.01 52.55 159.01 64.28 169.77 64.28 169.77 61.98 162.1 61.98 162.1 59.52 168.76 59.52 168.76 57.23 162.1 57.23 162.1 54.85 169.67 54.85"/><path class="cls-9" d="M184.75,64.28l-3.46-4.19c1.8-.55,3-1.74,3-3.63v0c0-2.41-2-3.87-5.33-3.87h-6.46V64.28h3.11V60.53h2.44l3,3.75Zm-6-6h-3.15V54.88h3.09c1.51,0,2.44.57,2.44,1.68v0C181.17,57.58,180.3,58.25,178.79,58.25Z"/><path class="cls-9" d="M197.64,64.28h3.25l-6-11.81H192l-6.06,11.81h3.17l1.29-2.63h6Zm-6.16-4.91,1.88-3.8,1.88,3.8Z"/><polygon class="cls-9" points="200.24 54.93 204.54 54.93 204.54 64.28 207.65 64.28 207.65 54.93 211.95 54.93 211.95 52.55 200.24 52.55 200.24 54.93"/><rect class="cls-9" x="214.47" y="52.55" width="3.11" height="11.73"/><polygon class="cls-9" points="234.07 52.55 230.72 52.55 227.03 60.81 223.33 52.55 219.9 52.55 225.61 64.36 228.36 64.36 234.07 52.55"/><path class="cls-9" d="M239.07,52.47l-6,11.81h3.17l1.29-2.63h6l1.29,2.63H248l-6.06-11.81Zm-.48,6.9,1.88-3.8,1.88,3.8Z"/><path class="cls-9" d="M99.61,68.39H96.26v7h3.35c2.71,0,4.57-1.52,4.57-3.49v0C104.18,69.9,102.32,68.39,99.61,68.39Zm2.59,3.52c0,1.24-1,2.09-2.59,2.09H98.15V69.78h1.46c1.55,0,2.59.87,2.59,2.11Z"/><polygon class="cls-9" points="107.74 72.55 111.79 72.55 111.79 71.18 107.74 71.18 107.74 69.76 112.34 69.76 112.34 68.39 105.86 68.39 105.86 75.39 112.4 75.39 112.4 74.02 107.74 74.02 107.74 72.55"/><path class="cls-9" d="M120.7,68.34l-3.68,7H119l.79-1.56h3.63l.79,1.56h2l-3.68-7Zm-.29,4.12,1.14-2.27,1.14,2.27Z"/><polygon class="cls-9" points="132.83 71.16 129.34 71.16 129.34 68.39 127.45 68.39 127.45 75.39 129.34 75.39 129.34 72.58 132.83 72.58 132.83 75.39 134.72 75.39 134.72 68.39 132.83 68.39 132.83 71.16"/><path class="cls-9" d="M141,68.27c-2.65,0-4.58,1.63-4.58,3.62v0c0,2,1.91,3.59,4.56,3.59s4.58-1.62,4.58-3.61v0C145.53,69.88,143.63,68.27,141,68.27Zm2.58,3.64A2.34,2.34,0,0,1,141,74.08a2.38,2.38,0,0,1-2.6-2.19v0A2.35,2.35,0,0,1,141,69.69a2.38,2.38,0,0,1,2.6,2.2Z"/><path class="cls-9" d="M154.37,70.72v0c0-1.44-1.21-2.31-3.24-2.31H147.2v7h1.89V73.15h1.49l1.84,2.23h2.21l-2.1-2.49A2.25,2.25,0,0,0,154.37,70.72Zm-1.91.08c0,.59-.53,1-1.45,1h-1.92v-2H151c.92,0,1.49.34,1.49,1Z"/><path class="cls-9" d="M163.24,70.72v0c0-1.44-1.21-2.31-3.24-2.31h-3.93v7H158V73.15h1.48l1.84,2.23h2.21l-2.1-2.49A2.24,2.24,0,0,0,163.24,70.72Zm-1.91.08c0,.59-.53,1-1.45,1H158v-2h1.87c.92,0,1.49.34,1.49,1Z"/><path class="cls-9" d="M169.14,68.27c-2.65,0-4.57,1.63-4.57,3.62v0c0,2,1.9,3.59,4.55,3.59s4.58-1.62,4.58-3.61v0C173.7,69.88,171.8,68.27,169.14,68.27Zm2.58,3.64a2.34,2.34,0,0,1-2.58,2.17,2.38,2.38,0,0,1-2.6-2.19v0a2.35,2.35,0,0,1,2.58-2.18,2.38,2.38,0,0,1,2.6,2.2Z"/><polygon class="cls-9" points="182.43 71.2 180.38 68.39 178.17 68.39 181.47 72.63 181.47 75.39 183.36 75.39 183.36 72.6 186.67 68.39 184.52 68.39 182.43 71.2"/><path class="cls-9" d="M195.61,74.08a2.3,2.3,0,0,1-2.49-2.19v0a2.31,2.31,0,0,1,2.49-2.18,3.57,3.57,0,0,1,2.2.79l1.2-1.13a5,5,0,0,0-3.39-1.08c-2.64,0-4.48,1.63-4.48,3.62v0c0,2,1.88,3.59,4.41,3.59a4.9,4.9,0,0,0,3.52-1.24l-1.2-1A3.46,3.46,0,0,1,195.61,74.08Z"/><path class="cls-9" d="M207.74,70.72v0c0-1.44-1.21-2.31-3.24-2.31h-3.93v7h1.9V73.15H204l1.84,2.23H208l-2.1-2.49A2.24,2.24,0,0,0,207.74,70.72Zm-1.91.08c0,.59-.53,1-1.45,1h-1.91v-2h1.87c.92,0,1.49.34,1.49,1Z"/><polygon class="cls-9" points="213.08 67.84 214.65 66.64 213.04 66.07 211.66 67.84 213.08 67.84"/><polygon class="cls-9" points="211.32 72.55 215.38 72.55 215.38 71.18 211.32 71.18 211.32 69.76 215.93 69.76 215.93 68.39 209.44 68.39 209.44 75.39 215.99 75.39 215.99 74.02 211.32 74.02 211.32 72.55"/><path class="cls-9" d="M221,68.39h-3.35v7H221c2.7,0,4.56-1.52,4.56-3.49v0C225.58,69.9,223.72,68.39,221,68.39Zm2.59,3.52c0,1.24-1.05,2.09-2.59,2.09h-1.46V69.78H221c1.54,0,2.59.87,2.59,2.11Z"/><rect class="cls-9" x="227.35" y="68.39" width="1.89" height="6.99"/><polygon class="cls-9" points="230.77 69.81 233.38 69.81 233.38 75.39 235.28 75.39 235.28 69.81 237.89 69.81 237.89 68.39 230.77 68.39 230.77 69.81"/><path class="cls-9" d="M243.16,68.27c-2.65,0-4.58,1.63-4.58,3.62v0c0,2,1.91,3.59,4.56,3.59s4.58-1.62,4.58-3.61v0C247.72,69.88,245.82,68.27,243.16,68.27Zm2.58,3.64a2.34,2.34,0,0,1-2.58,2.17,2.38,2.38,0,0,1-2.6-2.19v0a2.35,2.35,0,0,1,2.58-2.18,2.38,2.38,0,0,1,2.6,2.2Z"/></g></g></svg>