<svg xmlns="http://www.w3.org/2000/svg" viewBox="0 0 45.28 45.28"><defs><style>.cls-1{fill:none;stroke:#fff;stroke-miterlimit:10;stroke-width:2.45px;}.cls-2{fill:#fff;}</style></defs><title>mail</title><g id="Capa_2" data-name="Capa 2"><g id="Capa_1-2" data-name="Capa 1"><circle class="cls-1" cx="22.64" cy="22.64" r="21.41"/><path class="cls-2" d="M34,13.38H11.3a.57.57,0,0,0-.56.56v.66l11.83,7.88,12-7.89v-.65A.56.56,0,0,0,34,13.38Z"/><path class="cls-2" d="M22.57,24.93a1.15,1.15,0,0,1-.62-.18L10.74,17.27V31.33a.57.57,0,0,0,.56.56H34a.56.56,0,0,0,.55-.56V17.26L23.18,24.75A1.11,1.11,0,0,1,22.57,24.93Z"/></g></g></svg>