<svg xmlns="http://www.w3.org/2000/svg" viewBox="0 0 43.04 45.92"><defs><style>.cls-1{fill:#fff;}</style></defs><title>microcreditoBlanco</title><g id="Capa_2" data-name="Capa 2"><g id="Capa_1-2" data-name="Capa 1"><path class="cls-1" d="M21.59,36a1.38,1.38,0,0,1-1.38-1.39v-13a1.39,1.39,0,1,1,2.77,0v13A1.39,1.39,0,0,1,21.59,36Z"/><path class="cls-1" d="M21.52,32.45a1.43,1.43,0,0,1-.64-.15l-5.26-2.76a1.39,1.39,0,0,1,1.29-2.46l4.55,2.39,4.7-2.92a1.39,1.39,0,1,1,1.46,2.36l-5.37,3.33A1.35,1.35,0,0,1,21.52,32.45Z"/><path class="cls-1" d="M32.17,45.92H28.53l-7.31,0a1.39,1.39,0,0,1,0-2.77h0c3.73,0,9.14,0,12.19,0a15.43,15.43,0,0,0-23.37-2.07,1.38,1.38,0,1,1-1.94-2,18.19,18.19,0,0,1,29,4.72,1.4,1.4,0,0,1-1.33,2.07H32.17Z"/><path class="cls-1" d="M11,32.09a9.25,9.25,0,0,1-5.72-2.3,16.51,16.51,0,0,1-5.2-8.64A1.39,1.39,0,0,1,.23,20a1.38,1.38,0,0,1,1-.6,34.75,34.75,0,0,1,7.16-.1c3.66.36,8.17,1.66,8.84,5.77a5.85,5.85,0,0,1-1.13,4.46,6.53,6.53,0,0,1-4.39,2.51C11.45,32.07,11.21,32.09,11,32.09ZM3.23,22A12.87,12.87,0,0,0,7,27.65a6.42,6.42,0,0,0,4.35,1.64,3.66,3.66,0,0,0,2.51-1.42,3.06,3.06,0,0,0,.6-2.35C13.91,22.06,7.13,21.76,3.23,22Z"/><path class="cls-1" d="M32.15,31.6a6,6,0,0,1-2.07-.34,6.22,6.22,0,0,1-3.44-3.08,6.57,6.57,0,0,1-.5-4.57c.57-2.29,2.58-5.11,8.94-5.55a31,31,0,0,1,6.82.36A1.39,1.39,0,0,1,43,20c-1.08,6.14-4,9-6.28,10.3A9.38,9.38,0,0,1,32.15,31.6Zm4.63-10.82c-3.29,0-7.24.63-8,3.5A3.7,3.7,0,0,0,31,28.66a5.6,5.6,0,0,0,4.32-.74C36.94,27,39,25.06,40,21A30.62,30.62,0,0,0,36.78,20.78Z"/><path class="cls-1" d="M20.7,21.4a10.64,10.64,0,0,1-7.1-3.46h0A10.72,10.72,0,0,1,22,0a10.72,10.72,0,0,1,6.72,18.63A10.58,10.58,0,0,1,21,21.42Zm1.47-19h-.26a8.34,8.34,0,0,0-6.55,14h0A8.34,8.34,0,1,0,22.17,2.4Z"/><path class="cls-1" d="M25.44,11a2.81,2.81,0,0,0-1.14-1,11.35,11.35,0,0,0-2.59-.78,2.55,2.55,0,0,1-.92-.33.52.52,0,0,1-.2-.39A.62.62,0,0,1,20.83,8a1.11,1.11,0,0,1,.73-.2,1.39,1.39,0,0,1,.91.27,1.39,1.39,0,0,1,.44.87l2.59-.15a2.72,2.72,0,0,0-1.07-2,4,4,0,0,0-2.06-.61V5.47h-1.7v.77a3.84,3.84,0,0,0-1,.28,2.65,2.65,0,0,0-1.2,1A2.36,2.36,0,0,0,18,8.77a2.17,2.17,0,0,0,.78,1.72,6,6,0,0,0,2.58,1.08,3.64,3.64,0,0,1,1.41.52.8.8,0,0,1,.31.62.83.83,0,0,1-.32.64,1.32,1.32,0,0,1-.91.28,1.44,1.44,0,0,1-1.21-.54,2,2,0,0,1-.35-1l-2.62.16a3.46,3.46,0,0,0,1,2.22,3.3,3.3,0,0,0,2,.8v.92h1.7v-.86A4.72,4.72,0,0,0,24,15a2.93,2.93,0,0,0,1.33-1.09,2.87,2.87,0,0,0,.47-1.58A2.55,2.55,0,0,0,25.44,11Z"/></g></g></svg>