<svg xmlns="http://www.w3.org/2000/svg" viewBox="0 0 57.67 46.95"><defs><style>.cls-1{fill:#8697b8;}</style></defs><title>mision</title><g id="Capa_2" data-name="Capa 2"><g id="Capa_1-2" data-name="Capa 1"><circle class="cls-1" cx="23.16" cy="23.79" r="2.4"/><path class="cls-1" d="M23.16,27.19a3.4,3.4,0,1,1,3.4-3.4A3.41,3.41,0,0,1,23.16,27.19Zm0-4.79a1.39,1.39,0,1,0,1.39,1.39A1.39,1.39,0,0,0,23.16,22.4Z"/><path class="cls-1" d="M23.16,38a14.18,14.18,0,1,1,9.63-24.59,1,1,0,0,1,.06,1.42,1,1,0,0,1-1.43.06,12.16,12.16,0,1,0,3.91,8.93,12.35,12.35,0,0,0-.27-2.58,1,1,0,0,1,2-.42,13.71,13.71,0,0,1,.32,3A14.19,14.19,0,0,1,23.16,38Z"/><path class="cls-1" d="M23.16,47A23.16,23.16,0,0,1,6.78,7.41a23.18,23.18,0,0,1,31.66-1,1,1,0,0,1-1.33,1.51,21.15,21.15,0,1,0,7.2,15.9,21.86,21.86,0,0,0-.52-4.71,1,1,0,1,1,2-.44,23.36,23.36,0,0,1,.57,5.15A23.15,23.15,0,0,1,23.16,47Z"/><path class="cls-1" d="M48.28,15.19a1,1,0,0,1-.3,0l-5.81-1.85a1,1,0,0,1-.69-1.11l1-6.54A1,1,0,0,1,43,4.92L51.38.13a1,1,0,0,1,1.09.06,1,1,0,0,1,.39,1l-1,5.17L57,8.46a1,1,0,0,1,.63.86,1,1,0,0,1-.5.94l-8.39,4.79A1,1,0,0,1,48.28,15.19Zm-4.67-3.56,4.56,1.46,6.19-3.54-4-1.62a1,1,0,0,1-.62-1.13L50.46,3l-6,3.45Z"/><path class="cls-1" d="M23.14,24.77a1,1,0,0,1-.52-1.88L41.93,11.47a1,1,0,1,1,1,1.73L23.65,24.63A1.06,1.06,0,0,1,23.14,24.77Z"/></g></g></svg>