<svg xmlns="http://www.w3.org/2000/svg" viewBox="0 0 69.5 31.92"><defs><style>.cls-1{fill:#fff;}</style></defs><title>pagos</title><g id="Capa_2" data-name="Capa 2"><g id="Capa_1-2" data-name="Capa 1"><path class="cls-1" d="M17.06,27.34a13.27,13.27,0,0,1-3.23-.41c-4.61-1.16-8.1-2.23-8.14-2.24A.89.89,0,1,1,6.21,23s3.49,1.07,8.05,2.21c4.13,1,6.36-.44,6.45-.5l.12-.07,9.9-4.83a1.87,1.87,0,0,0-1.35-3.47c-1.05.3-3.56,1-5.47,1.48a2.83,2.83,0,0,1-2.22-5.14l6.4-4-4.84-.82a2.59,2.59,0,0,0-1.64.26L11.38,13.49a4.09,4.09,0,0,1-3,.32l-.72-.21a.89.89,0,0,1,.5-1.71l.72.22a2.35,2.35,0,0,0,1.7-.19L20.79,6.55a4.39,4.39,0,0,1,2.76-.43L30.7,7.34a.88.88,0,0,1,.72.7A.9.9,0,0,1,31,9l-8.39,5.21a1.06,1.06,0,0,0,.83,1.92c1.56-.42,4.35-1.16,5.44-1.48A3.65,3.65,0,0,1,31.5,21.4l-9.84,4.8A8.72,8.72,0,0,1,17.06,27.34Z"/><path class="cls-1" d="M1.3,26.71a.89.89,0,0,1-.89-.87.9.9,0,0,1,.87-.91l3.31-.07a.27.27,0,0,0,.26-.22L7,12.59a.28.28,0,0,0,0-.21.26.26,0,0,0-.18-.1l-6.07-1A.89.89,0,1,1,1,9.49l6.07,1a2.06,2.06,0,0,1,1.33.85,2,2,0,0,1,.34,1.53L6.59,25a2,2,0,0,1-2,1.68l-3.31.07Z"/><path class="cls-1" d="M68.61,20.94h-.14l-6.09-1a2,2,0,0,1-1.33-.83,2,2,0,0,1-.35-1.53L62.79,5.5a2,2,0,0,1,1.95-1.69l3.31-.1a.89.89,0,0,1,0,1.78l-3.31.1a.25.25,0,0,0-.25.22L62.45,17.88a.29.29,0,0,0,0,.2.27.27,0,0,0,.18.11l6.08,1a.89.89,0,0,1-.14,1.76Z"/><path class="cls-1" d="M46.68,24.54a4,4,0,0,1-.69-.06l-7.16-1.16a.88.88,0,0,1-.33-1.62l8.34-5.28A1.06,1.06,0,0,0,46,14.5c-1.56.43-4.33,1.19-5.42,1.52A3.64,3.64,0,0,1,37.9,9.27l9.81-4.89c.48-.31,3.22-1.9,7.83-.78s8.12,2.16,8.15,2.17a.89.89,0,1,1-.51,1.7s-3.5-1-8.06-2.15c-4.2-1-6.42.54-6.44.55L48.56,6,38.7,10.86a1.87,1.87,0,0,0,1.37,3.46c1.11-.33,3.9-1.1,5.46-1.53a2.83,2.83,0,0,1,2.26,5.13l-6.37,4,4.85.79a2.66,2.66,0,0,0,1.64-.27L58.1,17a4,4,0,0,1,3-.34l.73.21A.87.87,0,0,1,62.45,18a.88.88,0,0,1-1.1.61l-.71-.2a2.27,2.27,0,0,0-1.71.2L48.74,24A4.34,4.34,0,0,1,46.68,24.54Z"/><path class="cls-1" d="M22.48,14.08A.89.89,0,0,1,22,12.43L42,.13a.89.89,0,0,1,1.22.29l3.34,5.41A.89.89,0,1,1,45,6.77L42.15,2.11,23,13.94A.92.92,0,0,1,22.48,14.08Z"/><path class="cls-1" d="M25.31,31.92a.71.71,0,0,1-.2,0,.86.86,0,0,1-.55-.4L21,25.64a.89.89,0,0,1,1.52-.92l3.1,5.08,13.24-8.33a.89.89,0,0,1,.95,1.5l-14,8.82A.91.91,0,0,1,25.31,31.92Z"/><path class="cls-1" d="M34.46,21.42a5.52,5.52,0,0,1-1.28-.14.89.89,0,1,1,.4-1.73,4,4,0,0,0,4.38-2,3.88,3.88,0,0,0,.42-1.27.89.89,0,0,1,1.76.26,5.76,5.76,0,0,1-5.68,4.88Z"/><path class="cls-1" d="M29.94,14.81a.87.87,0,0,1-.32-.06.89.89,0,0,1-.51-1.15c.09-.21.18-.42.29-.62a5.72,5.72,0,0,1,6.89-2.74.89.89,0,0,1,.56,1.13.9.9,0,0,1-1.12.56A3.93,3.93,0,0,0,31,13.82a2.39,2.39,0,0,0-.2.43A.89.89,0,0,1,29.94,14.81Z"/></g></g></svg>