<svg xmlns="http://www.w3.org/2000/svg" viewBox="0 0 119.61 54.94"><defs><style>.cls-1{fill:#fff;}</style></defs><title>pagosBlanco</title><g id="Capa_2" data-name="Capa 2"><g id="Capa_1-2" data-name="Capa 1"><path class="cls-1" d="M29.35,47.06a22.78,22.78,0,0,1-5.55-.72c-7.92-2-13.95-3.84-14-3.85a1.53,1.53,0,0,1,.9-2.93c.06,0,6,1.85,13.85,3.82,7.11,1.78,10.94-.76,11.1-.87l.2-.12,17-8.31a3.22,3.22,0,0,0-2.31-6c-1.81.53-6.12,1.68-9.42,2.56a4.88,4.88,0,0,1-3.83-8.86l11-6.84L40,13.54a4.51,4.51,0,0,0-2.82.45L19.58,23.22a7.07,7.07,0,0,1-5.2.55l-1.25-.37A1.53,1.53,0,1,1,14,20.47l1.23.36a4,4,0,0,0,2.94-.31l17.61-9.24a7.54,7.54,0,0,1,4.76-.75l12.3,2.1a1.53,1.53,0,0,1,.55,2.8l-14.44,9a1.82,1.82,0,0,0,1.42,3.3c2.69-.71,7.48-2,9.35-2.53a6.27,6.27,0,0,1,4.51,11.66L37.27,45.1A15,15,0,0,1,29.35,47.06Z" transform="translate(0 0)"/><path class="cls-1" d="M2.23,46a1.53,1.53,0,0,1,0-3l5.7-.13a.45.45,0,0,0,.44-.38L12.1,21.66a.43.43,0,0,0-.08-.34.4.4,0,0,0-.29-.19L1.27,19.34a1.53,1.53,0,1,1,.52-3l10.45,1.78a3.54,3.54,0,0,1,2.29,1.45,3.51,3.51,0,0,1,.58,2.65L11.35,43A3.54,3.54,0,0,1,8,45.85L2.27,46Z" transform="translate(0 0)"/><path class="cls-1" d="M118.08,36a1,1,0,0,1-.24,0l-10.47-1.7a3.5,3.5,0,0,1-2.9-4.06l3.59-20.79a3.52,3.52,0,0,1,3.36-2.91l5.7-.17a1.53,1.53,0,0,1,.09,3.05l-5.7.17a.47.47,0,0,0-.44.38l-3.59,20.79a.43.43,0,0,0,.08.34.46.46,0,0,0,.3.19L118.33,33a1.52,1.52,0,0,1-.25,3Z" transform="translate(0 0)"/><path class="cls-1" d="M80.34,42.23a7.85,7.85,0,0,1-1.19-.09l-12.32-2a1.53,1.53,0,0,1-.58-2.8l14.37-9.08A1.82,1.82,0,0,0,79.17,25c-2.68.74-7.45,2.05-9.33,2.62A6.28,6.28,0,0,1,65.24,16l16.88-8.4c.82-.54,5.53-3.28,13.46-1.36s14,3.73,14,3.74a1.53,1.53,0,0,1-.88,2.93c-.06,0-6-1.79-13.88-3.7-7.22-1.75-11,.92-11.08.95l-.21.13-17,8.45a3.22,3.22,0,0,0,2.36,6c1.91-.57,6.71-1.9,9.4-2.63a4.87,4.87,0,0,1,3.9,8.82l-11,6.93,8.35,1.35a4.44,4.44,0,0,0,2.81-.47L100,29.28a7,7,0,0,1,5.19-.6l1.26.36A1.53,1.53,0,0,1,105.6,32l-1.24-.35a4,4,0,0,0-2.93.34L83.89,41.35A7.59,7.59,0,0,1,80.34,42.23Z" transform="translate(0 0)"/><path class="cls-1" d="M38.7,24.23a1.53,1.53,0,0,1-.81-2.83L72.23.23a1.53,1.53,0,0,1,2.1.49L80.09,10a1.53,1.53,0,1,1-2.6,1.61l-4.95-8L39.5,24A1.57,1.57,0,0,1,38.7,24.23Z" transform="translate(0 0)"/><path class="cls-1" d="M43.57,54.94a1.34,1.34,0,0,1-.35,0,1.53,1.53,0,0,1-1-.69L36.12,44.13a1.53,1.53,0,0,1,2.61-1.59l5.34,8.76L66.85,37a1.52,1.52,0,1,1,1.62,2.58L44.38,54.71A1.55,1.55,0,0,1,43.57,54.94Z" transform="translate(0 0)"/><path class="cls-1" d="M59.3,36.87a9.77,9.77,0,0,1-2.2-.25,1.53,1.53,0,0,1,.69-3,6.83,6.83,0,0,0,7.54-3.43A6.9,6.9,0,0,0,66.06,28a1.53,1.53,0,1,1,3,.45A9.78,9.78,0,0,1,68,31.65,9.89,9.89,0,0,1,59.3,36.87Z" transform="translate(0 0)"/><path class="cls-1" d="M51.53,25.49a1.52,1.52,0,0,1-1.42-2.08,10.34,10.34,0,0,1,.49-1.07,9.84,9.84,0,0,1,11.86-4.71,1.52,1.52,0,1,1-1,2.89,6.79,6.79,0,0,0-8.19,3.26,7.12,7.12,0,0,0-.35.74A1.52,1.52,0,0,1,51.53,25.49Z" transform="translate(0 0)"/></g></g></svg>