<svg xmlns="http://www.w3.org/2000/svg" viewBox="0 0 46.73 48.36"><defs><style>.cls-1{fill:#fff;}</style></defs><title>plazofijoBlanco</title><g id="Capa_2" data-name="Capa 2"><g id="Capa_1-2" data-name="Capa 1"><path class="cls-1" d="M15.38,40.44a1.1,1.1,0,0,1-.4-.08L.83,34.66a1.1,1.1,0,0,1-.68-1,1.07,1.07,0,0,1,.69-1l5.77-2.29a1.08,1.08,0,1,1,.8,2L4.15,33.66l11.23,4.53L42.46,27.3l-8.24-3.58a1.08,1.08,0,1,1,.86-2L45.7,26.35a1.08,1.08,0,0,1,0,2l-29.89,12A1.06,1.06,0,0,1,15.38,40.44Z"/><path class="cls-1" d="M35,36.31a1.08,1.08,0,0,1-.4-2.09l7.38-3a1.08,1.08,0,0,1,.81,2l-7.38,3A1.15,1.15,0,0,1,35,36.31Z"/><path class="cls-1" d="M15.46,48.36a1,1,0,0,1-.41-.08L.67,42.43a1.08,1.08,0,0,1-.67-1l.15-4a1.09,1.09,0,0,1,1.49-1l13.82,5.54L26.23,37.6a1.08,1.08,0,0,1,1.41.6,1.1,1.1,0,0,1-.6,1.41L15.86,44.12a1.13,1.13,0,0,1-.81,0L2.26,39l-.07,1.72,13.27,5.4,29.1-11.88V30.72a1.09,1.09,0,1,1,2.17,0V35a1.07,1.07,0,0,1-.67,1L15.87,48.28A1,1,0,0,1,15.46,48.36Z"/><path class="cls-1" d="M35,40a1.08,1.08,0,0,1-1.08-1.09V32.2l-4.46-1.89a1.08,1.08,0,0,1,.84-2l5.13,2.17a1.08,1.08,0,0,1,.66,1v7.38A1.09,1.09,0,0,1,35,40Z"/><path class="cls-1" d="M26.79,43.18a1.09,1.09,0,0,1-1.09-1.09V35.43l-3.18-1.36a1.08,1.08,0,0,1,.85-2l3.84,1.64a1.08,1.08,0,0,1,.66,1v7.38A1.08,1.08,0,0,1,26.79,43.18Z"/><path class="cls-1" d="M17.17,32.09a16,16,0,1,1,16-16A16.06,16.06,0,0,1,17.17,32.09ZM17.17,2A14.07,14.07,0,1,0,31.24,16.05,14.08,14.08,0,0,0,17.17,2Z"/><ellipse class="cls-1" cx="17.17" cy="4.11" rx="1.21" ry="1.21" transform="translate(2.12 13.34) rotate(-45)"/><ellipse class="cls-1" cx="17.17" cy="27.72" rx="1.21" ry="1.21" transform="translate(-14.57 20.26) rotate(-45)"/><path class="cls-1" d="M5.52,15.28a1.22,1.22,0,1,0,1.05,1A1.23,1.23,0,0,0,5.52,15.28Z"/><path class="cls-1" d="M29.13,15.28a1.22,1.22,0,1,0,1.05,1A1.23,1.23,0,0,0,29.13,15.28Z"/><path class="cls-1" d="M12.15,22.36a1.15,1.15,0,0,1-.83-2L16,15.58V8.45a1.16,1.16,0,0,1,2.32,0v7.6a1.18,1.18,0,0,1-.33.81L13,22A1.14,1.14,0,0,1,12.15,22.36Z"/></g></g></svg>