<svg xmlns="http://www.w3.org/2000/svg" viewBox="0 0 112.49 85.84"><defs><style>.cls-1{fill:#8697b8;}</style></defs><title>s1-primary</title><g id="Capa_2" data-name="Capa 2"><g id="Capa_1-2" data-name="Capa 1"><path class="cls-1" d="M32.32,67.93c0,4-2.94,6.44-7.75,6.42l-5.07,0,0,6h-2l.09-18.89,7.07,0C29.44,61.44,32.34,63.89,32.32,67.93Zm-2,0c0-3-2-4.77-5.75-4.78l-5,0-.05,9.45,5,0C28.3,72.61,30.31,70.9,30.32,67.93Z"/><path class="cls-1" d="M46.8,71.62l0,8.8H44.93V78.2c-.87,1.45-2.55,2.33-4.9,2.32-3.21,0-5.17-1.7-5.16-4.15,0-2.19,1.42-4,5.5-4l4.5,0v-.86c0-2.43-1.36-3.76-4-3.77a7.24,7.24,0,0,0-4.73,1.65L35.29,68a9,9,0,0,1,5.79-1.89C44.75,66.1,46.82,68,46.8,71.62Zm-1.93,4.53V73.82l-4.46,0c-2.75,0-3.65,1.07-3.65,2.52C36.76,78,38.08,79,40.34,79A4.56,4.56,0,0,0,44.87,76.15Z"/><path class="cls-1" d="M65.24,66.31l-.06,12.47c0,4.88-2.43,7.09-7.13,7.06a9.89,9.89,0,0,1-6.6-2.21l1-1.46a8.39,8.39,0,0,0,5.58,2c3.59,0,5.24-1.62,5.26-5.13V77.2a6.36,6.36,0,0,1-5.54,2.73A6.79,6.79,0,0,1,50.64,73c0-4.08,3.11-6.84,7.15-6.83A6.41,6.41,0,0,1,63.39,69l0-2.73Zm-1.89,6.74A5.08,5.08,0,0,0,58,67.84a5.2,5.2,0,1,0,0,10.39A5.1,5.1,0,0,0,63.35,73.05Z"/><path class="cls-1" d="M69.15,73.43a7.22,7.22,0,1,1,7.2,7.26A7,7,0,0,1,69.15,73.43Zm12.5,0A5.28,5.28,0,1,0,76.36,79,5.16,5.16,0,0,0,81.65,73.48Z"/><path class="cls-1" d="M85.52,79l.87-1.5a8.62,8.62,0,0,0,5,1.61c2.7,0,3.81-.9,3.81-2.3,0-3.7-9.2-.83-9.17-6.44,0-2.32,2-4,5.63-4a9.71,9.71,0,0,1,5,1.35l-.85,1.54A7.28,7.28,0,0,0,91.7,68C89.13,68,88,69,88,70.3c0,3.84,9.2,1,9.17,6.44,0,2.46-2.18,4-5.87,4A9.43,9.43,0,0,1,85.52,79Z"/><path class="cls-1" d="M27.61,44.26a21.46,21.46,0,0,1-5.23-.68C14.93,41.71,9.27,40,9.21,40a1.44,1.44,0,1,1,.85-2.75s5.65,1.73,13,3.58c6.69,1.68,10.29-.71,10.44-.81a1.18,1.18,0,0,1,.19-.11l16-7.82a3,3,0,0,0-2.17-5.62c-1.7.49-5.76,1.58-8.86,2.4a4.59,4.59,0,0,1-3.6-8.33l10.36-6.43-7.83-1.33a4.19,4.19,0,0,0-2.65.41L18.41,21.84a6.69,6.69,0,0,1-4.89.52L12.35,22a1.44,1.44,0,1,1,.81-2.76l1.16.34a3.75,3.75,0,0,0,2.76-.3l16.56-8.68a7.07,7.07,0,0,1,4.47-.71l11.57,2a1.43,1.43,0,0,1,.52,2.63L36.62,23A1.71,1.71,0,0,0,38,26.05c2.53-.67,7-1.87,8.79-2.38a5.9,5.9,0,0,1,4.24,11L35.05,42.41A14,14,0,0,1,27.61,44.26Z"/><path class="cls-1" d="M2.1,43.23a1.44,1.44,0,0,1,0-2.87l5.36-.12a.42.42,0,0,0,.41-.35l3.54-19.52a.38.38,0,0,0-.07-.32.42.42,0,0,0-.28-.18L1.2,18.19a1.44,1.44,0,1,1,.48-2.83L11.51,17a3.33,3.33,0,0,1,2.7,3.85L10.67,40.4a3.33,3.33,0,0,1-3.18,2.72l-5.36.11Z"/><path class="cls-1" d="M111.05,33.9l-.23,0L101,32.28a3.29,3.29,0,0,1-2.73-3.83l3.37-19.54a3.32,3.32,0,0,1,3.16-2.74L110.14,6a1.44,1.44,0,1,1,.09,2.87L104.87,9a.43.43,0,0,0-.41.36l-3.38,19.54a.42.42,0,0,0,.36.5l9.84,1.6a1.44,1.44,0,0,1-.23,2.86Z"/><path class="cls-1" d="M75.55,39.72a7,7,0,0,1-1.12-.09L62.85,37.75a1.45,1.45,0,0,1-1.18-1.13,1.42,1.42,0,0,1,.64-1.5l13.51-8.55a1.72,1.72,0,0,0,.55-2.33,1.7,1.7,0,0,0-1.91-.76c-2.52.69-7,1.92-8.78,2.46A5.9,5.9,0,0,1,61.35,15L77.23,7.1C78,6.59,82.43,4,89.89,5.82S103,9.33,103.09,9.34a1.44,1.44,0,0,1-.83,2.76c-.05,0-5.66-1.69-13.05-3.48-6.79-1.65-10.38.86-10.42.89l-.2.12-16,7.94a3,3,0,0,0,2.22,5.61c1.8-.54,6.32-1.78,8.85-2.47A4.58,4.58,0,0,1,77.36,29L67.05,35.52l7.84,1.27a4.21,4.21,0,0,0,2.65-.44L94,27.53A6.65,6.65,0,0,1,98.92,27l1.18.33a1.44,1.44,0,0,1-.79,2.77l-1.16-.34a3.8,3.8,0,0,0-2.76.33L78.9,38.89A7.25,7.25,0,0,1,75.55,39.72Z"/><path class="cls-1" d="M36.39,22.78a1.44,1.44,0,0,1-.75-2.66L67.93.21a1.45,1.45,0,0,1,2,.47l5.41,8.76A1.43,1.43,0,1,1,72.88,11L68.22,3.41,37.15,22.57A1.5,1.5,0,0,1,36.39,22.78Z"/><path class="cls-1" d="M41,51.67a1.24,1.24,0,0,1-.33,0,1.43,1.43,0,0,1-.89-.65L34,41.5A1.43,1.43,0,1,1,36.42,40l5,8.23L62.86,34.75a1.44,1.44,0,0,1,1.54,2.44L41.74,51.45A1.41,1.41,0,0,1,41,51.67Z"/><path class="cls-1" d="M55.77,34.68a9.2,9.2,0,0,1-2.07-.24,1.44,1.44,0,1,1,.65-2.8,6.42,6.42,0,0,0,7.09-3.23,6.34,6.34,0,0,0,.69-2.06,1.44,1.44,0,1,1,2.84.43,9.34,9.34,0,0,1-9.2,7.9Z"/><path class="cls-1" d="M48.46,24a1.6,1.6,0,0,1-.52-.1A1.44,1.44,0,0,1,47.12,22a8.46,8.46,0,0,1,.47-1,9.24,9.24,0,0,1,11.15-4.43,1.44,1.44,0,1,1-.92,2.72,6.4,6.4,0,0,0-7.7,3.06,6.29,6.29,0,0,0-.32.7A1.43,1.43,0,0,1,48.46,24Z"/></g></g></svg>