<svg xmlns="http://www.w3.org/2000/svg" viewBox="0 0 194.01 87.11"><defs><style>.cls-1{fill:#8697b8;}</style></defs><title>s2-primary</title><g id="Capa_2" data-name="Capa 2"><g id="Capa_1-2" data-name="Capa 1"><path class="cls-1" d="M6.64,69,0,68.92V67.19l15.27.07V69L8.64,69,8.56,86.13h-2Z"/><path class="cls-1" d="M24.82,71.9v1.86c-.16,0-.32,0-.46,0-3,0-4.78,1.87-4.8,5.21l0,7.24H17.6L17.67,72H19.5v2.78C20.39,72.87,22.2,71.88,24.82,71.9Z"/><path class="cls-1" d="M38.94,77.47l0,8.8H37.07V84.05c-.87,1.45-2.55,2.33-4.9,2.32C29,86.36,27,84.67,27,82.22c0-2.19,1.42-4,5.49-4l4.51,0v-.86c0-2.43-1.36-3.76-4-3.77a7.24,7.24,0,0,0-4.73,1.65l-.86-1.44a9,9,0,0,1,5.79-1.88C36.89,72,39,73.8,38.94,77.47ZM37,82l0-2.32-4.46,0c-2.75,0-3.65,1.06-3.65,2.52,0,1.65,1.31,2.68,3.57,2.69A4.54,4.54,0,0,0,37,82Z"/><path class="cls-1" d="M57.22,78.12l0,8.24H55.26l0-8c0-3-1.54-4.54-4.24-4.55-3.05,0-5,1.86-5,5.1l0,7.45H44.12l.06-14.19H46v2.62A6,6,0,0,1,51.42,72C54.87,72,57.24,74.05,57.22,78.12Z"/><path class="cls-1" d="M60.43,84.75l.87-1.51a8.55,8.55,0,0,0,5,1.62c2.7,0,3.81-.9,3.82-2.3,0-3.7-9.2-.83-9.18-6.45,0-2.32,2-4,5.64-4a9.58,9.58,0,0,1,5,1.35L70.79,75a7.3,7.3,0,0,0-4.18-1.23c-2.56,0-3.7,1-3.71,2.33,0,3.83,9.2,1,9.18,6.44,0,2.46-2.18,4-5.88,4A9.52,9.52,0,0,1,60.43,84.75Z"/><path class="cls-1" d="M77.86,70.58v1.67l4.37,0v1.62l-4.31,0-.06,12.58H75.92L76,73.86H73.44V72.23H76V70.49a3.91,3.91,0,0,1,4.31-4.19,4.52,4.52,0,0,1,2.83.9l-.66,1.43a3.21,3.21,0,0,0-2.1-.71C78.73,67.91,77.87,68.83,77.86,70.58Z"/><path class="cls-1" d="M96.9,80,85,80a5.27,5.27,0,0,0,5.57,5,5.6,5.6,0,0,0,4.35-1.85L96,84.35a7,7,0,0,1-5.49,2.3c-4.43,0-7.44-3.06-7.42-7.27a6.84,6.84,0,0,1,7-7.18c4,0,6.87,3,6.85,7.24C96.93,79.61,96.9,79.82,96.9,80ZM85,78.55l10.07,0a5,5,0,0,0-10.07,0Z"/><path class="cls-1" d="M108,72.29v1.86c-.17,0-.33,0-.46,0-3,0-4.79,1.87-4.81,5.22l0,7.23h-1.92l.07-14.2h1.84l0,2.78C103.6,73.27,105.42,72.28,108,72.29Z"/><path class="cls-1" d="M123.68,80.16l-11.87,0a5.25,5.25,0,0,0,5.56,5,5.59,5.59,0,0,0,4.36-1.84l1.07,1.25a7,7,0,0,1-5.49,2.29c-4.43,0-7.44-3.06-7.42-7.27a6.84,6.84,0,0,1,7-7.17c4,0,6.87,3,6.85,7.24C123.71,79.73,123.68,80,123.68,80.16Zm-11.87-1.48,10.07,0a5,5,0,0,0-10.07,0Z"/><path class="cls-1" d="M140.7,78.52l0,8.23h-1.91l0-8c0-3-1.54-4.55-4.24-4.56-3,0-5,1.87-5,5.1l0,7.46H127.6l.06-14.2h1.84v2.61a6,6,0,0,1,5.41-2.7C138.35,72.43,140.72,74.44,140.7,78.52Z"/><path class="cls-1" d="M144.53,79.67a7,7,0,0,1,7.35-7.18,6.23,6.23,0,0,1,5.55,2.84l-1.44,1a4.83,4.83,0,0,0-4.12-2.12,5.53,5.53,0,0,0-.05,11.06,4.8,4.8,0,0,0,4.14-2l1.43,1a6.27,6.27,0,0,1-5.58,2.79A7,7,0,0,1,144.53,79.67Z"/><path class="cls-1" d="M160.79,68.16a1.38,1.38,0,0,1,1.41-1.34,1.35,1.35,0,0,1,1.39,1.33,1.4,1.4,0,0,1-2.8,0Zm.41,4.49h1.91l-.06,14.2h-1.92Z"/><path class="cls-1" d="M179.15,78.13l0,8.8h-1.84l0-2.21c-.88,1.45-2.55,2.33-4.9,2.32-3.21,0-5.18-1.7-5.17-4.15,0-2.19,1.43-4,5.5-4l4.51,0V78c0-2.43-1.36-3.76-4-3.77a7.24,7.24,0,0,0-4.73,1.65l-.86-1.43a9,9,0,0,1,5.79-1.89C177.1,72.61,179.17,74.46,179.15,78.13Zm-1.94,4.52V80.33l-4.45,0c-2.75,0-3.65,1.06-3.66,2.52,0,1.65,1.31,2.68,3.58,2.69A4.54,4.54,0,0,0,177.21,82.65Z"/><path class="cls-1" d="M182.36,85.32l.87-1.5a8.62,8.62,0,0,0,5,1.61c2.7,0,3.81-.9,3.82-2.3,0-3.7-9.2-.83-9.18-6.44,0-2.32,2-4,5.64-4a9.67,9.67,0,0,1,5,1.34l-.84,1.54a7.31,7.31,0,0,0-4.18-1.24c-2.56,0-3.7,1-3.71,2.33,0,3.84,9.2,1,9.18,6.44,0,2.46-2.18,4-5.88,4A9.45,9.45,0,0,1,182.36,85.32Z"/><path class="cls-1" d="M97.27,50.21l-1,0-.64,0h0a21.19,21.19,0,1,1,1.64.06Zm0-39.56a18.43,18.43,0,0,0-1.4,36.8h0l.57,0a18.43,18.43,0,1,0,1.7-36.82C97.81,10.65,97.52,10.65,97.23,10.65Z"/><path class="cls-1" d="M104.78,29.64a5.24,5.24,0,0,0-2.19-1.9,22.26,22.26,0,0,0-5-1.52,4.21,4.21,0,0,1-1.78-.63.93.93,0,0,1-.38-.73,1.2,1.2,0,0,1,.46-1,2.16,2.16,0,0,1,1.4-.39,2.72,2.72,0,0,1,1.76.53,2.68,2.68,0,0,1,.83,1.68l5-.29a5.29,5.29,0,0,0-2.05-3.89,7.72,7.72,0,0,0-4-1.17V19H95.61v1.48a7.69,7.69,0,0,0-2,.52,5.11,5.11,0,0,0-2.31,1.85,4.47,4.47,0,0,0-.76,2.49,4.19,4.19,0,0,0,1.49,3.31,11.47,11.47,0,0,0,5,2.08,6.87,6.87,0,0,1,2.71,1,1.52,1.52,0,0,1,0,2.42,2.58,2.58,0,0,1-1.75.54,2.82,2.82,0,0,1-2.34-1A3.94,3.94,0,0,1,95,31.76l-5,.32a6.66,6.66,0,0,0,1.91,4.28,6.46,6.46,0,0,0,3.79,1.54v1.75h3.26V38a9.27,9.27,0,0,0,3.13-.69,5.71,5.71,0,0,0,2.55-2.11,5.4,5.4,0,0,0,.91-3A4.75,4.75,0,0,0,104.78,29.64Z"/><path class="cls-1" d="M97.25,58a28.9,28.9,0,0,1-20.92-8.89,1.35,1.35,0,1,1,1.94-1.87,26.34,26.34,0,0,0,37.21.72,1.35,1.35,0,1,1,1.88,2A28.9,28.9,0,0,1,97.25,58Z"/><path class="cls-1" d="M77.22,53.53h0a1.36,1.36,0,0,1-1.33-1.38l.08-4a1.36,1.36,0,0,1,1.11-1.31l4.24-.75a1.36,1.36,0,0,1,1.57,1.1,1.35,1.35,0,0,1-1.1,1.56l-3.14.56-.06,2.88A1.35,1.35,0,0,1,77.22,53.53Z"/><path class="cls-1" d="M117.18,11.18a1.34,1.34,0,0,1-1-.42A26.35,26.35,0,0,0,79,10a1.35,1.35,0,0,1-1.87-1.95,29.05,29.05,0,0,1,41,.8,1.36,1.36,0,0,1-1,2.29Z"/><path class="cls-1" d="M112.72,12.18a1.35,1.35,0,0,1-.23-2.68l3.6-.64.08-3.94a1.35,1.35,0,0,1,1.38-1.32A1.34,1.34,0,0,1,118.87,5L118.78,10a1.37,1.37,0,0,1-1.12,1.31l-4.7.83Z"/></g></g></svg>