<svg xmlns="http://www.w3.org/2000/svg" viewBox="0 0 97.14 91.93"><defs><style>.cls-1{fill:#fff;}</style></defs><title>s3-secundary</title><g id="Capa_2" data-name="Capa 2"><g id="Capa_1-2" data-name="Capa 1"><path class="cls-1" d="M0,77c0-5.54,4.26-9.59,10-9.57a9.19,9.19,0,0,1,6.9,2.79l-1.28,1.26A7.47,7.47,0,0,0,10,69.17a7.83,7.83,0,1,0-.08,15.65,7.39,7.39,0,0,0,5.6-2.24l1.26,1.28a9.18,9.18,0,0,1-7,2.74A9.47,9.47,0,0,1,0,77Z"/><path class="cls-1" d="M31.18,77.74l0,8.8H29.3V84.32a5.31,5.31,0,0,1-4.89,2.32c-3.22,0-5.18-1.69-5.17-4.15,0-2.19,1.43-4,5.5-4l4.51,0v-.87c0-2.43-1.36-3.76-4-3.77a7.2,7.2,0,0,0-4.73,1.65l-.86-1.43a9,9,0,0,1,5.79-1.89C29.13,72.23,31.2,74.07,31.18,77.74Zm-1.94,4.53V80l-4.45,0c-2.75,0-3.65,1.07-3.66,2.53,0,1.64,1.31,2.67,3.58,2.68A4.53,4.53,0,0,0,29.24,82.27Z"/><path class="cls-1" d="M31.23,91l.68-1.46a3.28,3.28,0,0,0,2.21.74c1.51,0,2.35-.91,2.36-2.66l.07-15.25h1.92L38.4,87.63c0,2.62-1.48,4.31-4.18,4.3A4.72,4.72,0,0,1,31.23,91Zm4.91-23.11a1.4,1.4,0,0,1,1.41-1.35A1.37,1.37,0,0,1,39,67.87a1.41,1.41,0,0,1-2.81,0Z"/><path class="cls-1" d="M56.14,80.15,44.26,80.1a5.26,5.26,0,0,0,5.57,5,5.56,5.56,0,0,0,4.35-1.84l1.08,1.25a7,7,0,0,1-5.49,2.29c-4.43,0-7.44-3.05-7.42-7.26a6.84,6.84,0,0,1,7-7.18c4,0,6.87,3,6.85,7.24C56.17,79.72,56.14,79.94,56.14,80.15ZM44.27,78.67l10.07,0a5,5,0,0,0-10.07,0Z"/><path class="cls-1" d="M67.28,72.41v1.86c-.17,0-.33,0-.46,0-3,0-4.79,1.87-4.8,5.21l0,7.24H60.05l.07-14.2H62l0,2.78C62.84,73.38,64.66,72.39,67.28,72.41Z"/><path class="cls-1" d="M69.13,79.62a7.23,7.23,0,1,1,7.2,7.27A7,7,0,0,1,69.13,79.62Zm12.5.06a5.28,5.28,0,1,0-5.29,5.51A5.18,5.18,0,0,0,81.63,79.68Z"/><path class="cls-1" d="M85.5,85.18l.87-1.51a8.55,8.55,0,0,0,5,1.62c2.7,0,3.81-.9,3.82-2.31,0-3.69-9.21-.82-9.18-6.44,0-2.32,2-4,5.63-4a9.59,9.59,0,0,1,5,1.35l-.85,1.53a7.19,7.19,0,0,0-4.17-1.23c-2.57,0-3.71,1-3.71,2.33,0,3.83,9.2,1,9.17,6.44,0,2.45-2.18,4-5.87,4A9.49,9.49,0,0,1,85.5,85.18Z"/><path class="cls-1" d="M68.66,50.89h-.14a1.37,1.37,0,0,1-1.23-1.51c0-.45,1.14-11.16,1.89-15.3a52.91,52.91,0,0,1,1.34-5.93c.88-3.72-.55-4.74-.85-4.91a2.79,2.79,0,0,1-.74-.6,105,105,0,0,0-9-9.39V30.66a2.42,2.42,0,0,1-2.42,2.41h0a3,3,0,0,1-2.14-.86,13.53,13.53,0,0,1-2.47-3.71A3.72,3.72,0,0,1,52.47,27c-.06-1.93-1.52-5.81-3.13-6.77a.82.82,0,0,0-.88-.07c-1.16.58-1.12,3.88.11,7.85a6.72,6.72,0,0,1,.29,1.66,67.76,67.76,0,0,0,1.08,8.52,20.85,20.85,0,0,0,4.71,9.61,1.41,1.41,0,0,1,.38.95v.75a1.38,1.38,0,1,1-2.75,0v-.23a23.42,23.42,0,0,1-5-10.59,70.23,70.23,0,0,1-1.13-8.88,3.67,3.67,0,0,0-.17-1c-2.44-7.9-.24-10.36,1.28-11.12a3.57,3.57,0,0,1,3.53.17c2.8,1.67,4.4,6.77,4.47,9a1,1,0,0,0,.11.41,11.07,11.07,0,0,0,1.82,2.84V10.5a1.38,1.38,0,0,1,.6-1.13A1.34,1.34,0,0,1,59,9.22c.46.17,3.17,1.55,12,11.6l0,0c.84.47,3.5,2.45,2.16,8a.35.35,0,0,1,0,.11,49.81,49.81,0,0,0-1.26,5.63c-.73,4-1.85,15-1.86,15.08A1.38,1.38,0,0,1,68.66,50.89Z"/><path class="cls-1" d="M68.42,57.83H53.7a3.12,3.12,0,0,1-3.11-3.12V51.25a3.11,3.11,0,0,1,3.11-3.11H68.42a3.12,3.12,0,0,1,3.12,3.11v3.46A3.12,3.12,0,0,1,68.42,57.83ZM53.7,50.89a.36.36,0,0,0-.36.36v3.46a.37.37,0,0,0,.36.37H68.42a.37.37,0,0,0,.36-.37V51.25a.36.36,0,0,0-.36-.36Z"/><path class="cls-1" d="M63.31,12.23H59.74a1.43,1.43,0,1,1,0-2.86h3.57a3.26,3.26,0,0,0,0-6.51H29.19a3.26,3.26,0,1,0,0,6.51h3.39a1.43,1.43,0,0,1,0,2.86H29.19A6.12,6.12,0,1,1,29.19,0H63.31a6.12,6.12,0,0,1,0,12.23Z"/><path class="cls-1" d="M47.84,35.32H36.15a3.57,3.57,0,0,1-3.57-3.56V6.3A1.37,1.37,0,0,1,34,4.93H58.53A1.37,1.37,0,0,1,59.91,6.3v5.42a1.38,1.38,0,0,1-2.76,0v-4H35.34V31.76a.82.82,0,0,0,.81.81H47.84a1.38,1.38,0,1,1,0,2.75Z"/><path class="cls-1" d="M62.68,7.68H29.81a1.38,1.38,0,0,1,0-2.75H62.68a1.38,1.38,0,0,1,0,2.75Z"/><rect class="cls-1" x="38.09" y="6.3" width="5.06" height="27.64"/></g></g></svg>