<svg xmlns="http://www.w3.org/2000/svg" viewBox="0 0 225.25 80.12"><defs><style>.cls-1{fill:#fff;}</style></defs><title>s4-secundary</title><g id="Capa_2" data-name="Capa 2"><g id="Capa_1-2" data-name="Capa 1"><path class="cls-1" d="M14.87,74.94H4.35L2.08,80H0l8.64-18.9h2L19.25,80H17.14Zm-.73-1.62L9.61,63.17,5.08,73.32Z"/><path class="cls-1" d="M29.32,79.12a4.55,4.55,0,0,1-3,1c-2.67,0-4.15-1.51-4.15-4.13V67.41H19.63V65.79h2.54V62.68h1.91v3.11H28.4v1.62H24.08v8.47a2.27,2.27,0,0,0,2.46,2.59,3.19,3.19,0,0,0,2.1-.72Z"/><path class="cls-1" d="M44.65,73.48H32.78a5.25,5.25,0,0,0,5.59,4.94,5.6,5.6,0,0,0,4.34-1.86l1.08,1.24a7,7,0,0,1-5.48,2.32c-4.43,0-7.45-3-7.45-7.23a6.84,6.84,0,0,1,6.94-7.21c4,0,6.88,2.94,6.88,7.21C44.68,73.05,44.65,73.26,44.65,73.48ZM32.78,72.05H42.85a5,5,0,0,0-10.07,0Z"/><path class="cls-1" d="M61.66,71.75V80H59.75v-8c0-3-1.57-4.53-4.27-4.53-3,0-5,1.89-5,5.13V80H48.6V65.79h1.83v2.62a6,6,0,0,1,5.4-2.73C59.29,65.68,61.66,67.68,61.66,71.75Z"/><path class="cls-1" d="M65.5,72.89a7,7,0,0,1,7.32-7.21,6.2,6.2,0,0,1,5.56,2.81l-1.43,1a4.85,4.85,0,0,0-4.13-2.11,5.54,5.54,0,0,0,0,11.07A4.82,4.82,0,0,0,77,76.34l1.43,1a6.26,6.26,0,0,1-5.56,2.81A7,7,0,0,1,65.5,72.89Z"/><path class="cls-1" d="M81.7,61.31A1.38,1.38,0,0,1,83.1,60a1.36,1.36,0,0,1,1.41,1.32,1.41,1.41,0,0,1-2.81,0Zm.43,4.48h1.92V80H82.13Z"/><path class="cls-1" d="M88,72.89a7.22,7.22,0,1,1,7.24,7.23A7,7,0,0,1,88,72.89Zm12.5,0a5.28,5.28,0,1,0-5.26,5.53A5.18,5.18,0,0,0,100.46,72.89ZM97.11,60.25h2.57L95.31,63.6H93.42Z"/><path class="cls-1" d="M119.39,71.75V80h-1.92v-8c0-3-1.56-4.53-4.26-4.53-3,0-5,1.89-5,5.13V80h-1.92V65.79h1.84v2.62a6,6,0,0,1,5.4-2.73C117,65.68,119.39,67.68,119.39,71.75Z"/><path class="cls-1" d="M151.7,61.09V80h-1.91V64.87l-7.43,12.71h-.94L134,65V80h-1.92V61.09h1.65l8.2,14,8.13-14Z"/><path class="cls-1" d="M169.82,73.48H158a5.25,5.25,0,0,0,5.58,4.94,5.61,5.61,0,0,0,4.35-1.86L169,77.8a7,7,0,0,1-5.48,2.32c-4.43,0-7.45-3-7.45-7.23A6.84,6.84,0,0,1,163,65.68c4,0,6.88,2.94,6.88,7.21C169.85,73.05,169.82,73.26,169.82,73.48ZM158,72.05H168a5,5,0,0,0-10.06,0Zm5.15-8.45h-1.89l3.7-3.35h2.56Z"/><path class="cls-1" d="M186.72,60V80h-1.83V77.18a6.16,6.16,0,0,1-5.48,2.94,7.22,7.22,0,0,1,0-14.44,6.2,6.2,0,0,1,5.4,2.81V60Zm-1.89,12.93a5.28,5.28,0,1,0-5.26,5.53A5.19,5.19,0,0,0,184.83,72.89Z"/><path class="cls-1" d="M191.64,61.31A1.38,1.38,0,0,1,193,60a1.36,1.36,0,0,1,1.41,1.32,1.41,1.41,0,0,1-2.81,0Zm.43,4.48H194V80h-1.92Z"/><path class="cls-1" d="M197.9,72.89a7,7,0,0,1,7.32-7.21,6.18,6.18,0,0,1,5.56,2.81l-1.43,1a4.83,4.83,0,0,0-4.13-2.11,5.54,5.54,0,0,0,0,11.07,4.8,4.8,0,0,0,4.13-2.08l1.43,1a6.25,6.25,0,0,1-5.56,2.81A7,7,0,0,1,197.9,72.89Z"/><path class="cls-1" d="M225.25,71.19V80h-1.83V77.77c-.87,1.46-2.54,2.35-4.89,2.35-3.21,0-5.18-1.67-5.18-4.13,0-2.19,1.4-4,5.48-4h4.5V71.1c0-2.42-1.37-3.75-4-3.75A7.21,7.21,0,0,0,214.59,69l-.86-1.43a9,9,0,0,1,5.77-1.92C223.17,65.68,225.25,67.51,225.25,71.19Zm-1.92,4.53V73.4h-4.45c-2.75,0-3.64,1.08-3.64,2.54,0,1.64,1.32,2.67,3.59,2.67A4.53,4.53,0,0,0,223.33,75.72Z"/><path class="cls-1" d="M124.7,24.12h-6.81V17.31a.85.85,0,0,0-.85-.84h-6.35a.85.85,0,0,0-.84.84v6.81H103a.85.85,0,0,0-.84.84v6.35a.85.85,0,0,0,.84.85h6.81V39a.85.85,0,0,0,.84.84H117a.85.85,0,0,0,.85-.84V32.16h6.81a.85.85,0,0,0,.84-.85V25A.85.85,0,0,0,124.7,24.12Z"/><path class="cls-1" d="M136.48,50.19H91.26A5.21,5.21,0,0,1,86.06,45V10.36a5.21,5.21,0,0,1,5.2-5.21h45.22a5.21,5.21,0,0,1,5.2,5.21V45A5.21,5.21,0,0,1,136.48,50.19ZM91.26,8.69a1.66,1.66,0,0,0-1.66,1.67V45a1.66,1.66,0,0,0,1.66,1.67h45.22A1.66,1.66,0,0,0,138.14,45V10.36a1.66,1.66,0,0,0-1.66-1.67Z"/><path class="cls-1" d="M122.31,8.69a1.77,1.77,0,0,1-1.77-1.77,3.39,3.39,0,0,0-3.38-3.38h-6.58a3.38,3.38,0,0,0-3.38,3.38,1.77,1.77,0,1,1-3.54,0A6.93,6.93,0,0,1,110.58,0h6.58a6.93,6.93,0,0,1,6.92,6.92A1.77,1.77,0,0,1,122.31,8.69Z"/><path class="cls-1" d="M101.22,7.81a.89.89,0,0,1-.89-.89V6.16a.64.64,0,0,0-.64-.64H95.24a.64.64,0,0,0-.64.64v.76a.89.89,0,1,1-1.77,0V6.16a2.41,2.41,0,0,1,2.41-2.41h4.45a2.41,2.41,0,0,1,2.41,2.41v.76A.88.88,0,0,1,101.22,7.81Z"/><path class="cls-1" d="M134,7.81a.89.89,0,0,1-.89-.89V6.16a.64.64,0,0,0-.64-.64h-4.45a.64.64,0,0,0-.64.64v.76a.89.89,0,1,1-1.77,0V6.16a2.41,2.41,0,0,1,2.41-2.41h4.45a2.41,2.41,0,0,1,2.41,2.41v.76A.89.89,0,0,1,134,7.81Z"/></g></g></svg>