<svg xmlns="http://www.w3.org/2000/svg" viewBox="0 0 108.08 86.09"><defs><style>.cls-1{fill:#8697b8;}</style></defs><title>s5-primary</title><g id="Capa_2" data-name="Capa 2"><g id="Capa_1-2" data-name="Capa 1"><path class="cls-1" d="M0,78.43l.78-1.54A9.31,9.31,0,0,0,7,79.18c3.53,0,5.07-1.48,5.07-3.34,0-5.19-11.63-2-11.63-9,0-2.78,2.16-5.19,7-5.19a10.68,10.68,0,0,1,5.86,1.68l-.67,1.59a9.75,9.75,0,0,0-5.19-1.56c-3.45,0-5,1.53-5,3.42,0,5.19,11.63,2.06,11.63,8.94,0,2.78-2.21,5.15-7,5.15C4.18,80.88,1.4,79.89,0,78.43Z"/><path class="cls-1" d="M30.37,74.22H18.49a5.26,5.26,0,0,0,5.59,4.94,5.58,5.58,0,0,0,4.35-1.87l1.08,1.25A7,7,0,0,1,24,80.86c-4.43,0-7.45-3-7.45-7.24a6.83,6.83,0,0,1,6.93-7.2c4,0,6.89,2.94,6.89,7.2C30.4,73.79,30.37,74,30.37,74.22ZM18.49,72.79H28.56a5,5,0,0,0-10.07,0Z"/><path class="cls-1" d="M47.46,66.52V79c0,4.89-2.4,7.1-7.1,7.1a9.9,9.9,0,0,1-6.61-2.18l1-1.46a8.47,8.47,0,0,0,5.59,1.94c3.59,0,5.23-1.64,5.23-5.15V77.43A6.37,6.37,0,0,1,40,80.18a6.79,6.79,0,0,1-7.13-6.91c0-4.07,3.08-6.85,7.13-6.85a6.42,6.42,0,0,1,5.62,2.83V66.52ZM45.6,73.27a5.08,5.08,0,0,0-5.4-5.18,5.2,5.2,0,1,0,0,10.39A5.1,5.1,0,0,0,45.6,73.27Z"/><path class="cls-1" d="M65.63,66.52v14.2H63.8V78.13a5.65,5.65,0,0,1-5.1,2.73c-3.62,0-6-2-6-6.1V66.52h1.92v8c0,3,1.57,4.56,4.26,4.56,3,0,4.84-1.92,4.84-5.16V66.52Z"/><path class="cls-1" d="M78.16,66.42v1.86c-.16,0-.32,0-.46,0-3,0-4.78,1.89-4.78,5.24v7.23H71V66.52h1.83V69.3C73.73,67.41,75.54,66.42,78.16,66.42Z"/><path class="cls-1" d="M80.05,73.62a7.23,7.23,0,1,1,7.24,7.24A7,7,0,0,1,80.05,73.62Zm12.5,0a5.28,5.28,0,1,0-5.26,5.54A5.17,5.17,0,0,0,92.55,73.62Z"/><path class="cls-1" d="M96.44,79.1l.87-1.51a8.56,8.56,0,0,0,5,1.59c2.7,0,3.81-.91,3.81-2.32,0-3.7-9.2-.78-9.2-6.39,0-2.33,2-4,5.61-4a9.61,9.61,0,0,1,5,1.32l-.84,1.54a7.22,7.22,0,0,0-4.18-1.22c-2.56,0-3.7,1-3.7,2.35,0,3.83,9.21,1,9.21,6.4,0,2.45-2.16,4-5.86,4A9.48,9.48,0,0,1,96.44,79.1Z"/><path class="cls-1" d="M53.84,50.78a1.47,1.47,0,0,1-.42-.05c-5.87-1.6-10.59-4.15-14-7.57a19.68,19.68,0,0,1-5.64-13.9V7.4a1.62,1.62,0,0,1,.69-1.32,34,34,0,0,1,38.79,0,1.6,1.6,0,0,1,.69,1.32V29.24a19.74,19.74,0,0,1-6.21,14.47,31.64,31.64,0,0,1-13.45,7A1.51,1.51,0,0,1,53.84,50.78ZM37,8.25v21a16.41,16.41,0,0,0,4.68,11.62,27.69,27.69,0,0,0,12.19,6.63,28.25,28.25,0,0,0,11.69-6.15,16.56,16.56,0,0,0,5.18-12.12v-21A30.75,30.75,0,0,0,37,8.25Z"/><path class="cls-1" d="M58,37.13H48.89A3.9,3.9,0,0,1,45,33.24V28.16a3.9,3.9,0,0,1,3.89-3.89H58a3.89,3.89,0,0,1,3.89,3.89v5.08A3.89,3.89,0,0,1,58,37.13Zm-9.09-9.64a.68.68,0,0,0-.68.67v5.08a.68.68,0,0,0,.68.67H58a.68.68,0,0,0,.68-.67V28.16a.68.68,0,0,0-.68-.67Z"/><path class="cls-1" d="M58.66,27.08a1.6,1.6,0,0,1-1.61-1.6V20.66a3.62,3.62,0,1,0-7.23,0v4.82a1.61,1.61,0,0,1-3.21,0V20.66a6.83,6.83,0,0,1,13.66,0v4.82A1.6,1.6,0,0,1,58.66,27.08Z"/></g></g></svg>