<svg xmlns="http://www.w3.org/2000/svg" viewBox="0 0 59.5 75.22"><defs><style>.cls-1{fill:#fff;}</style></defs><title>segurosBlanco</title><g id="Capa_2" data-name="Capa 2"><g id="Capa_1-2" data-name="Capa 1"><path class="cls-1" d="M29.75,75.22a2.27,2.27,0,0,1-.63-.08C20.43,72.77,13.44,69,8.34,63.93A29.14,29.14,0,0,1,0,43.34V11A2.36,2.36,0,0,1,1,9,50.31,50.31,0,0,1,58.48,9a2.36,2.36,0,0,1,1,2V43.31a29.26,29.26,0,0,1-9.2,21.44c-5,4.66-11.72,8.15-19.92,10.39A2.27,2.27,0,0,1,29.75,75.22Zm-25-63V43.34A24.31,24.31,0,0,0,11.7,60.55c4.39,4.37,10.46,7.67,18.05,9.82,7.17-2,13-5.1,17.31-9.11a24.49,24.49,0,0,0,7.68-17.95V12.23a45.54,45.54,0,0,0-50,0Z"/><path class="cls-1" d="M35.89,55H22.42a5.76,5.76,0,0,1-5.76-5.76V41.72A5.77,5.77,0,0,1,22.42,36H35.89a5.77,5.77,0,0,1,5.76,5.77v7.51A5.76,5.76,0,0,1,35.89,55ZM22.42,40.71a1,1,0,0,0-1,1v7.51a1,1,0,0,0,1,1H35.89a1,1,0,0,0,1-1V41.72a1,1,0,0,0-1-1Z"/><path class="cls-1" d="M36.89,40.12a2.39,2.39,0,0,1-2.38-2.38V30.6a5.36,5.36,0,1,0-10.71,0v7.14a2.38,2.38,0,1,1-4.76,0V30.6a10.12,10.12,0,1,1,20.23,0v7.14A2.39,2.39,0,0,1,36.89,40.12Z"/></g></g></svg>