<svg xmlns="http://www.w3.org/2000/svg" viewBox="0 0 31.12 39.35"><defs><style>.cls-1{fill:#fff;}</style></defs><title>seguros</title><g id="Capa_2" data-name="Capa 2"><g id="Capa_1-2" data-name="Capa 1"><path class="cls-1" d="M15.56,39.35a1.26,1.26,0,0,1-.33-.05A24.2,24.2,0,0,1,4.36,33.44,15.25,15.25,0,0,1,0,22.67V5.73a1.27,1.27,0,0,1,.53-1,26.34,26.34,0,0,1,30.06,0,1.27,1.27,0,0,1,.53,1V22.66a15.31,15.31,0,0,1-4.81,11.21A24.64,24.64,0,0,1,15.89,39.3,1.26,1.26,0,0,1,15.56,39.35ZM2.49,6.4V22.67a12.7,12.7,0,0,0,3.63,9,21.49,21.49,0,0,0,9.44,5.14A22,22,0,0,0,24.62,32a12.81,12.81,0,0,0,4-9.38V6.4a23.8,23.8,0,0,0-26.14,0Z"/><path class="cls-1" d="M18.77,28.76h-7a3,3,0,0,1-3-3V21.82a3,3,0,0,1,3-3h7a3,3,0,0,1,3,3v3.93A3,3,0,0,1,18.77,28.76Zm-7-7.46a.52.52,0,0,0-.53.52v3.93a.53.53,0,0,0,.53.53h7a.53.53,0,0,0,.53-.53V21.82a.52.52,0,0,0-.53-.52Z"/><path class="cls-1" d="M19.3,21a1.24,1.24,0,0,1-1.25-1.24V16a2.8,2.8,0,0,0-5.6,0v3.74a1.25,1.25,0,0,1-2.49,0V16a5.29,5.29,0,0,1,10.58,0v3.74A1.24,1.24,0,0,1,19.3,21Z"/></g></g></svg>