<svg xmlns="http://www.w3.org/2000/svg" viewBox="0 0 43.29 54.67"><defs><style>.cls-1{fill:#8292b3;}</style></defs><title>simuladorGris</title><g id="Capa_2" data-name="Capa 2"><g id="Capa_1-2" data-name="Capa 1"><path class="cls-1" d="M38.52,0c1.43.49,2.91,1,3.62,2.42a8.78,8.78,0,0,1,1.07,3.51c.14,3.48.06,7,0,10.45,0,1.59-.27,1.85-1.84,1.85H7.51C6,18.22,5.7,17.9,5.7,16.47c0-3,0-6,0-9C5.7,6,6,5.73,7.37,5.73q14.26,0,28.54,0c1.37,0,1.64.3,1.65,1.65,0,1.58,0,3.16,0,4.74,0,.82-.2,1.5-1.17,1.48s-1.07-.67-1.06-1.44c0-1.33,0-2.66,0-4.08H8v7.83h32.9c0-.4.06-.79.06-1.18,0-2.79,0-5.59,0-8.38s-1.24-4.1-4.17-4.1H6.43c-2.89,0-4.14,1.25-4.14,4.13q0,21,0,41.9c0,2.9,1.23,4.15,4.12,4.15H36.9c2.81,0,4.07-1.28,4.07-4.09q0-12.63,0-25.26c0-.28,0-.57,0-.85,0-.81.09-1.64,1.16-1.63s1.11.86,1.11,1.66q0,13.17,0,26.35c0,3.19-1.25,4.73-4.72,6.06H4.74C1,53.23,0,51.78,0,47.65V46.07Q0,26.24,0,6.41c0-2,.4-3.74,2-5A17,17,0,0,1,4.74,0Z"/><path class="cls-1" d="M14.75,25.06c0,3-.49,3.41-3.87,3.4C8.53,28.45,8,27.71,8,24.68c0-2.49.7-3.05,3.78-3C14.14,21.65,14.76,22.35,14.75,25.06ZM12.46,24H10.32v2.19h2.14Z"/><path class="cls-1" d="M28.54,25c-.07-1.23-.2-2.69,1.09-3a8.56,8.56,0,0,1,4.55.06c1.69.6,1.73,5.27,0,5.87a8.44,8.44,0,0,1-4.65,0C28.27,27.68,28.47,26.14,28.54,25ZM33,23.93H30.82v2.21H33Z"/><path class="cls-1" d="M14.74,35.39c0,.41,0,.81,0,1.21a2.15,2.15,0,0,1-2,2.06c-.2,0-.41,0-.61,0C7.57,39,7.9,37.27,8,34a2,2,0,0,1,1.89-2,8.28,8.28,0,0,1,1.32-.08C14.22,31.87,14.77,32.42,14.74,35.39Zm-4.42-1.21v2.19h2.11V34.18Z"/><path class="cls-1" d="M28.48,35.24c0-1.18-.13-2.5,1.22-3a5.59,5.59,0,0,1,4.58.12,1.56,1.56,0,0,1,.8,1,11.07,11.07,0,0,1,0,3.94c-.63,2-2.57,1.3-4.07,1.41a2.12,2.12,0,0,1-2.34-1.52A8.08,8.08,0,0,1,28.48,35.24Zm2.31,1.12h2.13V34.2H30.79Z"/><path class="cls-1" d="M14.75,46c0,.82.17,2.27-1.13,2.57a10.37,10.37,0,0,1-4.57,0c-1.14-.27-1.49-2.65-1-4.64.3-1.19,1-1.68,2.56-1.72.53,0,1,0,1.58,0,1.79.07,2.53.85,2.54,2.64Zm-4.46.59h2.14V44.49H10.29Z"/><path class="cls-1" d="M28.52,45.45c0-2.74.55-3.29,3.35-3.28,1.17,0,2.69-.21,3,1.14a10.37,10.37,0,0,1,0,4.57c-.31,1.36-2.63,1.22-4.76.93-1.06-.14-1.56-1.09-1.57-2.51Zm2.27,1.13h2.14V44.49H30.79Z"/><path class="cls-1" d="M25.18,25.14a8.7,8.7,0,0,1-.73,2.46c-.85,1.28-4.63,1.26-5.63.06a3.29,3.29,0,0,1-.5-1.07,3.87,3.87,0,0,1-.05-.84c-.32-4.5,1.45-4.19,4.6-4.07C24.45,21.74,25,22.76,25.18,25.14Zm-2.49,1V23.93H20.57v2.22Z"/><path class="cls-1" d="M21.63,38.68c-2.81,0-3.36-.53-3.36-3.25,0-3,.52-3.55,3.36-3.55,2.6,0,3.37.65,3.37,2.81C25,38.24,24.63,38.68,21.63,38.68ZM20.58,34.2v2.17h2.1V34.2Z"/><path class="cls-1" d="M25.09,45.59a9.6,9.6,0,0,1-.39,2.18C24.21,48.93,23.09,49,22,48.94c-1.26,0-2.93.4-3.38-1.14a8.3,8.3,0,0,1,0-4.45c.5-1.65,2.27-1.12,3.59-1.18,1.06-.05,2.1.12,2.53,1.23A9.74,9.74,0,0,1,25.09,45.59Zm-4.53,1h2.11V44.49H20.56Z"/></g></g></svg>