<svg xmlns="http://www.w3.org/2000/svg" viewBox="0 0 76.63 39.79"><defs><style>.cls-1{fill:#fff;}</style></defs><title>sonarBlanco</title><g id="Capa_2" data-name="Capa 2"><g id="Capa_1-2" data-name="Capa 1"><path class="cls-1" d="M56.6,36.94H11.49a8.64,8.64,0,0,1,0-17.27h2.45a1.43,1.43,0,0,0,1.42-1.24,9.25,9.25,0,0,1,14.19-6.55,1.43,1.43,0,0,0,2.15-.82A11.16,11.16,0,0,1,49.77,5.59l.17-.17A16.92,16.92,0,0,1,52.05,3.8,14,14,0,0,0,29.53,8.62a12.11,12.11,0,0,0-16.77,8.2H11.49a11.49,11.49,0,1,0,0,23H56.6A13.8,13.8,0,0,0,67.77,34.1a17.21,17.21,0,0,1-5.37,1.17A11,11,0,0,1,56.6,36.94Z"/><path class="cls-1" d="M60.35,33.19a15,15,0,0,1-10-4.89h0A15.12,15.12,0,0,1,72.69,7.92a15.13,15.13,0,0,1-11.88,25.3ZM62.49,5.45l-.39,0a12.71,12.71,0,0,0-10,21.25h0A12.71,12.71,0,1,0,62.49,5.45Z"/><path class="cls-1" d="M67,18.52a3.82,3.82,0,0,0-1.6-1.39A16.67,16.67,0,0,0,61.78,16a3.24,3.24,0,0,1-1.3-.46A.69.69,0,0,1,60.2,15a.87.87,0,0,1,.34-.7,1.57,1.57,0,0,1,1-.29,2,2,0,0,1,1.29.39,1.92,1.92,0,0,1,.61,1.23l3.66-.21a3.85,3.85,0,0,0-1.5-2.85,5.64,5.64,0,0,0-2.92-.86v-1H60.31V11.8a6.08,6.08,0,0,0-1.46.38,3.75,3.75,0,0,0-1.69,1.36,3.31,3.31,0,0,0-.56,1.83,3.06,3.06,0,0,0,1.1,2.42,8.37,8.37,0,0,0,3.64,1.53,4.91,4.91,0,0,1,2,.73,1.15,1.15,0,0,1,.43.87,1.17,1.17,0,0,1-.45.91,1.9,1.9,0,0,1-1.28.39,2.07,2.07,0,0,1-1.71-.76,2.83,2.83,0,0,1-.49-1.38l-3.7.24a4.89,4.89,0,0,0,1.4,3.13,4.68,4.68,0,0,0,2.78,1.13v1.29H62.7V24.66a6.86,6.86,0,0,0,2.3-.5,4.21,4.21,0,0,0,1.87-1.55,4,4,0,0,0,.66-2.23A3.51,3.51,0,0,0,67,18.52Z"/></g></g></svg>