<svg xmlns="http://www.w3.org/2000/svg" viewBox="0 0 45.28 45.28"><defs><style>.cls-1{fill:#fff;}.cls-2{fill:none;stroke:#fff;stroke-miterlimit:10;stroke-width:2.45px;}</style></defs><title>telefono</title><g id="Capa_2" data-name="Capa 2"><g id="Capa_1-2" data-name="Capa 1"><g id="Pxtxtz"><path class="cls-1" d="M34.76,33.92a3.42,3.42,0,0,1-1.35,1.59A6.8,6.8,0,0,1,29.22,37a7.51,7.51,0,0,1-2.29-.41,18.78,18.78,0,0,1-6.45-3.69,35.41,35.41,0,0,1-6.62-7.77A24,24,0,0,1,11.22,20a11.79,11.79,0,0,1-.62-6.08,7.23,7.23,0,0,1,1.92-4,6.43,6.43,0,0,1,1.9-1.42,2,2,0,0,1,2.51.65c1.17,1.52,2.34,3,3.48,4.58a2.13,2.13,0,0,1-.51,3.07c-.67.52-1.35,1-2,1.54a1.1,1.1,0,0,1-.22.11,19.48,19.48,0,0,0,7.92,10.44l2.13-1.62a3.08,3.08,0,0,1,.62-.39,2.07,2.07,0,0,1,2.58.65c1.17,1.5,2.31,3,3.47,4.55a2.54,2.54,0,0,1,.46,1.27Z"/></g><circle class="cls-2" cx="22.64" cy="22.64" r="21.41"/></g></g></svg>