<svg xmlns="http://www.w3.org/2000/svg" viewBox="0 0 55.48 74.84"><defs><style>.cls-1{fill:#8697b8;}</style></defs><title>transferenciaGris</title><g id="Capa_2" data-name="Capa 2"><g id="Capa_1-2" data-name="Capa 1"><path class="cls-1" d="M27.61,64.78q-.64,0-1.29,0l-.83,0h0a27.26,27.26,0,1,1,2.12.08Zm-.05-51a23.78,23.78,0,0,0-1.81,47.48h0l.73,0a23.78,23.78,0,1,0,2.2-47.5C28.31,13.74,27.93,13.74,27.56,13.74Z"/><path class="cls-1" d="M37.3,38.24a6.68,6.68,0,0,0-2.82-2.45,29.17,29.17,0,0,0-6.42-2A5.57,5.57,0,0,1,25.77,33a1.21,1.21,0,0,1-.5-1,1.56,1.56,0,0,1,.6-1.23,2.72,2.72,0,0,1,1.8-.51,3.49,3.49,0,0,1,2.27.68A3.49,3.49,0,0,1,31,33.18l6.44-.37a6.8,6.8,0,0,0-2.64-5,10.12,10.12,0,0,0-5.13-1.51V24.5H25.47v1.91a9.92,9.92,0,0,0-2.56.67,6.48,6.48,0,0,0-3,2.39,5.78,5.78,0,0,0-1,3.22A5.36,5.36,0,0,0,20.88,37c1.28,1.12,3.41,2,6.41,2.69a8.8,8.8,0,0,1,3.5,1.28,2,2,0,0,1,0,3.13,3.34,3.34,0,0,1-2.26.69,3.6,3.6,0,0,1-3-1.35A4.93,4.93,0,0,1,24.62,41l-6.5.41a8.56,8.56,0,0,0,2.46,5.52,8.36,8.36,0,0,0,4.89,2v2.26h4.21V49a11.88,11.88,0,0,0,4-.88A7.32,7.32,0,0,0,37,45.43a7,7,0,0,0,1.18-3.92A6.16,6.16,0,0,0,37.3,38.24Z"/><path class="cls-1" d="M27.58,74.84a37.34,37.34,0,0,1-27-11.47A1.74,1.74,0,0,1,3.1,61a34,34,0,0,0,48,.93,1.74,1.74,0,0,1,2.41,2.52A37.29,37.29,0,0,1,27.58,74.84Z"/><path class="cls-1" d="M1.74,69.06h0A1.75,1.75,0,0,1,0,67.28l.1-5.15a1.74,1.74,0,0,1,1.44-1.68l5.46-1a1.74,1.74,0,0,1,.61,3.43l-4.05.72-.07,3.72A1.75,1.75,0,0,1,1.74,69.06Z"/><path class="cls-1" d="M53.3,14.42A1.77,1.77,0,0,1,52,13.89,34,34,0,0,0,4,13a1.74,1.74,0,1,1-2.42-2.51,37.48,37.48,0,0,1,52.94,1,1.74,1.74,0,0,1-1.26,2.95Z"/><path class="cls-1" d="M47.54,15.72a1.75,1.75,0,0,1-.3-3.47l4.65-.82L52,6.35a1.75,1.75,0,0,1,3.49.07l-.13,6.51a1.73,1.73,0,0,1-1.44,1.68l-6.06,1.08A1.63,1.63,0,0,1,47.54,15.72Z"/></g></g></svg>