<svg xmlns="http://www.w3.org/2000/svg" viewBox="0 0 35.39 47.74"><defs><style>.cls-1{fill:#fff;}</style></defs><title>transferencias</title><g id="Capa_2" data-name="Capa 2"><g id="Capa_1-2" data-name="Capa 1"><path class="cls-1" d="M17.61,41.32l-.82,0-.53,0h0a17.13,17.13,0,1,1,1.35.06Zm0-32.56a15.17,15.17,0,0,0-1.16,30.29h0l.46,0a15.16,15.16,0,1,0,1.4-30.29Z"/><path class="cls-1" d="M23.79,24.39A4.39,4.39,0,0,0,22,22.82a18.48,18.48,0,0,0-4.09-1.24,3.58,3.58,0,0,1-1.47-.52.78.78,0,0,1-.31-.61,1,1,0,0,1,.38-.78,1.73,1.73,0,0,1,1.15-.32,2.19,2.19,0,0,1,1.44.43,2.21,2.21,0,0,1,.69,1.38l4.11-.24a4.31,4.31,0,0,0-1.69-3.19,6.43,6.43,0,0,0-3.27-1V15.62H16.24v1.22a7.12,7.12,0,0,0-1.63.43,4.22,4.22,0,0,0-1.89,1.52,3.72,3.72,0,0,0-.63,2.06,3.44,3.44,0,0,0,1.23,2.72,9.45,9.45,0,0,0,4.09,1.71,5.63,5.63,0,0,1,2.23.82,1.3,1.3,0,0,1,.48,1,1.32,1.32,0,0,1-.51,1,2.12,2.12,0,0,1-1.44.43,2.3,2.3,0,0,1-1.92-.85,3.27,3.27,0,0,1-.55-1.54l-4.14.26a5.49,5.49,0,0,0,1.56,3.52,5.34,5.34,0,0,0,3.12,1.27v1.44h2.69V31.27a7.56,7.56,0,0,0,2.57-.56A4.67,4.67,0,0,0,23.6,29a4.5,4.5,0,0,0,.75-2.51A4,4,0,0,0,23.79,24.39Z"/><path class="cls-1" d="M17.59,47.74A23.83,23.83,0,0,1,.37,40.42,1.11,1.11,0,0,1,2,38.88a21.69,21.69,0,0,0,30.62.6,1.1,1.1,0,0,1,1.57,0,1.12,1.12,0,0,1,0,1.57A23.8,23.8,0,0,1,17.59,47.74Z"/><path class="cls-1" d="M1.11,44.05h0A1.12,1.12,0,0,1,0,42.91l.06-3.28A1.13,1.13,0,0,1,1,38.55l3.49-.61a1.11,1.11,0,0,1,1.29.9,1.12,1.12,0,0,1-.91,1.29l-2.58.45,0,2.38A1.11,1.11,0,0,1,1.11,44.05Z"/><path class="cls-1" d="M34,9.2a1.14,1.14,0,0,1-.81-.34,21.66,21.66,0,0,0-30.61-.6A1.11,1.11,0,1,1,1,6.66a23.91,23.91,0,0,1,33.77.66A1.11,1.11,0,0,1,34,9.2Z"/><path class="cls-1" d="M30.32,10a1.11,1.11,0,0,1-.19-2.2l3-.53.06-3.24a1.12,1.12,0,0,1,2.23,0L35.3,8.25a1.1,1.1,0,0,1-.91,1.07L30.52,10Z"/></g></g></svg>