<svg xmlns="http://www.w3.org/2000/svg" viewBox="0 0 26.86 22.37"><defs><style>.cls-1{fill:#fff;}</style></defs><title>twitter</title><g id="Capa_2" data-name="Capa 2"><g id="Capa_1-2" data-name="Capa 1"><path class="cls-1" d="M7,17.57l-.35-.1a5.75,5.75,0,0,1-4-3.48c-.09-.21-.28-.48-.07-.66s.42-.08.63-.09a1.43,1.43,0,0,0,.5,0L3.32,13A5.73,5.73,0,0,1,.55,8.17c0-.5.19-.61.64-.41s.6.25.9.37l.06-.07L2,7.81a5.81,5.81,0,0,1-.7-6.43c.25-.47.45-.5.79-.1a15.05,15.05,0,0,0,9.75,5.34c.72.1.77.13.72-.63a5.7,5.7,0,0,1,5.23-6,5.79,5.79,0,0,1,4.32,1.35.92.92,0,0,0,.9.2,10.81,10.81,0,0,0,2.51-1c.16-.09.33-.21.51-.05S26.1.83,26,1A5.71,5.71,0,0,1,25,2.82a.91.91,0,0,0-.19.32,2.47,2.47,0,0,0,.29-.06c.42-.15.83-.32,1.26-.44a.52.52,0,0,1,.42.06c.16.11.09.3,0,.45a10.35,10.35,0,0,1-2,2.25,1.56,1.56,0,0,0-.59,1.24c-.33,6.12-3,10.86-8.38,13.92a14.77,14.77,0,0,1-6.5,1.78,15.92,15.92,0,0,1-8.76-2c-.1-.05-.23-.08-.28-.17A.92.92,0,0,1,0,19.7c0-.23.21-.33.44-.34.68,0,1.37,0,2-.12a10,10,0,0,0,4.23-1.48Z"/></g></g></svg>