<svg xmlns="http://www.w3.org/2000/svg" viewBox="0 0 72.65 43.97"><defs><style>.cls-1{fill:none;stroke:#8697b8;stroke-linecap:round;stroke-linejoin:round;stroke-width:2.13px;}</style></defs><title>valores</title><g id="Capa_2" data-name="Capa 2"><g id="Capa_1-2" data-name="Capa 1"><path class="cls-1" d="M55.67,6.48l4.78-2.21a.59.59,0,0,1,.78.3l10.3,23.18a.59.59,0,0,1-.29.77l-4.77,2.21a.59.59,0,0,1-.78-.3L55.38,7.25A.59.59,0,0,1,55.67,6.48Z"/><path class="cls-1" d="M56.51,9.6l-3.16,1.61S46.39,7.39,45,7,41.19,4.85,39,5.82c-5.61,2.47-7.64,0-10.33,4.49A43.29,43.29,0,0,1,24,16.69.84.84,0,0,0,24.3,18a8.06,8.06,0,0,0,8.39-1c2-2,2.47-2,2.47-2s3.6.9,5.39-.9"/><path class="cls-1" d="M64.25,27.11l-2.14.05a22.14,22.14,0,0,1-4.94,3.59"/><path class="cls-1" d="M38.07,15.31l19.22,16a3.15,3.15,0,0,1,.41,4.42h0a3.14,3.14,0,0,1-4.42.4L41,25.81"/><path class="cls-1" d="M41,25.81l10.84,9a2.68,2.68,0,0,1,.35,3.78h0a2.68,2.68,0,0,1-3.78.35l-11-9.11"/><path class="cls-1" d="M37.41,29.85l10.12,8.49a1.22,1.22,0,0,1,.16,1.72l-.26.31a3.74,3.74,0,0,1-5.27.49l-7.9-6.52"/><rect class="cls-1" x="17.05" y="23.88" width="5.75" height="10.07" rx="2.87" transform="translate(23.59 -6.01) rotate(40.56)"/><rect class="cls-1" x="21.12" y="28.6" width="5.75" height="8.79" rx="2.7" transform="translate(27.22 -7.68) rotate(40.56)"/><rect class="cls-1" x="25.61" y="32.2" width="5.75" height="8.79" rx="2.7" transform="translate(30.64 -9.73) rotate(40.56)"/><rect class="cls-1" x="29.91" y="37.28" width="5.07" height="5.7" rx="2.53" transform="translate(33.89 -11.46) rotate(40.56)"/><path class="cls-1" d="M41.28,40.13a5.1,5.1,0,0,1-4.1,2.52,4,4,0,0,1-2.49-1.26"/><polyline class="cls-1" points="16.67 28.3 11.36 24.01 8.66 24.46"/><line class="cls-1" x1="15.91" y1="6.95" x2="33.86" y2="7.05"/><path class="cls-1" d="M12.2,1.12,17,3.32a.59.59,0,0,1,.29.77L7.07,27.4a.58.58,0,0,1-.78.29L1.4,25.37a.59.59,0,0,1-.29-.77L11.42,1.41A.58.58,0,0,1,12.2,1.12Z"/></g></g></svg>