<svg xmlns="http://www.w3.org/2000/svg" viewBox="0 0 68.17 42.4"><defs><style>.cls-1{fill:#8697b8;}</style></defs><title>vision</title><g id="Capa_2" data-name="Capa 2"><g id="Capa_1-2" data-name="Capa 1"><path class="cls-1" d="M34.7,42.4c-8.38,0-16.93-3.47-24.78-10.06A57.26,57.26,0,0,1,.21,21.9a1.27,1.27,0,0,1,0-1.4A56.89,56.89,0,0,1,9.92,10.06C18,3.25,26.91-.24,35.55,0c8,.22,16.09,3.85,23.52,10.48a55.59,55.59,0,0,1,8.89,10,1.24,1.24,0,0,1,0,1.36,55.35,55.35,0,0,1-8.89,10C51.64,38.54,43.5,42.16,35.55,42.38ZM2.79,21.2c2.64,3.53,15.35,19.18,32.69,18.68C51.36,39.44,63,24.59,65.39,21.2,63,17.81,51.36,3,35.48,2.51,18.1,2,5.43,17.67,2.79,21.2Z"/><path class="cls-1" d="M34.08,40.43A19.24,19.24,0,1,1,53.32,21.2,19.26,19.26,0,0,1,34.08,40.43Zm0-36A16.74,16.74,0,1,0,50.82,21.2,16.76,16.76,0,0,0,34.08,4.46Z"/><path class="cls-1" d="M34.08,28.77a7.58,7.58,0,1,1,7.58-7.57A7.58,7.58,0,0,1,34.08,28.77Zm0-12.65a5.08,5.08,0,1,0,5.08,5.08A5.08,5.08,0,0,0,34.08,16.12Z"/></g></g></svg>