<svg xmlns="http://www.w3.org/2000/svg" viewBox="0 0 49.38 43.36"><defs><style>.cls-1{fill:#8292b3;}</style></defs><title>viviendaGris</title><g id="Capa_2" data-name="Capa 2"><g id="Capa_1-2" data-name="Capa 1"><path class="cls-1" d="M6.43,10.73A1.62,1.62,0,0,1,4.81,9.11V3.91A3.92,3.92,0,0,1,8.72,0h4.75a1.62,1.62,0,0,1,0,3.24H8.72a.68.68,0,0,0-.67.67v5.2A1.61,1.61,0,0,1,6.43,10.73Z"/><path class="cls-1" d="M41.26,43.36H33.71a3.62,3.62,0,0,1-3.62-3.62V30.15a0,0,0,0,0,0,0H19.72a0,0,0,0,0,0,0v9.59a3.62,3.62,0,0,1-3.62,3.62H8.72a3.92,3.92,0,0,1-3.91-3.91v-18a1.62,1.62,0,1,1,3.24,0v18a.68.68,0,0,0,.67.67h7.35a.38.38,0,0,0,.38-.38V30.15a3.27,3.27,0,0,1,3.27-3.27H30.06a3.28,3.28,0,0,1,3.27,3.27v9.59a.38.38,0,0,0,.38.38h7.55a.67.67,0,0,0,.66-.67V21.17a1.62,1.62,0,1,1,3.24,0V39.45A3.91,3.91,0,0,1,41.26,43.36Z"/><path class="cls-1" d="M47.76,20.49a1.59,1.59,0,0,1-1-.32l-21.6-16a.75.75,0,0,0-.88,0L2.57,19.78a1.62,1.62,0,0,1-1.9-2.62L22.41,1.49a4,4,0,0,1,4.71,0l21.6,16.05a1.63,1.63,0,0,1,.34,2.27A1.64,1.64,0,0,1,47.76,20.49Z"/></g></g></svg>