<svg xmlns="http://www.w3.org/2000/svg" viewBox="0 0 39.09 27.61"><defs><style>.cls-1{fill:#fff;}</style></defs><title>youtube</title><g id="Capa_2" data-name="Capa 2"><g id="Capa_1-2" data-name="Capa 1"><path class="cls-1" d="M19.57,0C23.37,0,27.18,0,31,0a8,8,0,0,1,8,7.81c.12,4,.12,7.94,0,11.9a8,8,0,0,1-8.24,7.87H8.56c-4.86,0-8.31-3.14-8.47-8C0,15.55,0,11.47.13,7.4A7.87,7.87,0,0,1,7.78,0C11.71,0,15.64,0,19.57,0ZM14.25,13.82c0,1.6,0,3.2,0,4.81,0,.8.16.9.85.57,3.35-1.59,6.71-3.19,10.05-4.8.18-.08.42-.3.41-.44s-.25-.35-.43-.45c-3.34-1.71-6.69-3.4-10-5.1-.65-.33-.84-.21-.84.54C14.25,10.57,14.25,12.19,14.25,13.82Z"/></g></g></svg>