<?xml version="1.0" encoding="utf-8"?>
<!-- Generator: Adobe Illustrator 26.3.0, SVG Export Plug-In . SVG Version: 6.00 Build 0)  -->
<svg version="1.1" id="Layer_1" xmlns="http://www.w3.org/2000/svg" xmlns:xlink="http://www.w3.org/1999/xlink" x="0px" y="0px"
	 viewBox="0 0 500 500" style="enable-background:new 0 0 500 500;" xml:space="preserve">
<style type="text/css">
	.st0{fill:url(#SVGID_1_);}
	.st1{fill:url(#SVGID_00000090289683798691689450000009683013617605827771_);}
	.st2{fill:url(#SVGID_00000157269789002595751370000007724354514310610835_);}
	.st3{fill:url(#SVGID_00000073691175510822950830000008696061016563305121_);}
	.st4{fill:url(#SVGID_00000100349191616059021720000018301822905524666764_);}
	.st5{fill:url(#SVGID_00000013904871875009126270000010546966019324034485_);}
	.st6{fill:url(#SVGID_00000041267635503400761590000002160803417119341713_);}
	.st7{fill:url(#SVGID_00000119097545857495120330000003763911306684001981_);}
	.st8{fill:url(#SVGID_00000139988780761271355930000011907297902492780453_);}
	.st9{fill:#FFFFFF;}
	.st10{fill:url(#SVGID_00000113329972902688071340000003257080063756269973_);}
	.st11{fill:url(#SVGID_00000108987670099378889570000009654439134766160825_);}
</style>
<linearGradient id="SVGID_1_" gradientUnits="userSpaceOnUse" x1="0" y1="250" x2="500" y2="250">
	<stop  offset="0" style="stop-color:#009B4B"/>
	<stop  offset="1" style="stop-color:#1F7049"/>
</linearGradient>
<rect class="st0" width="500" height="500"/>
<g>
	
		<linearGradient id="SVGID_00000041297694391891921240000005043754798114378933_" gradientUnits="userSpaceOnUse" x1="280.7662" y1="43.5273" x2="201.0429" y2="165.5728">
		<stop  offset="0" style="stop-color:#FFDA2C"/>
		<stop  offset="0.4756" style="stop-color:#FDD82D"/>
		<stop  offset="0.6551" style="stop-color:#F6D12F"/>
		<stop  offset="0.7846" style="stop-color:#EAC633"/>
		<stop  offset="0.89" style="stop-color:#D9B539"/>
		<stop  offset="0.9797" style="stop-color:#C3A040"/>
		<stop  offset="1" style="stop-color:#BD9A42"/>
	</linearGradient>
	<path style="fill:url(#SVGID_00000041297694391891921240000005043754798114378933_);" d="M212,129.5l12.9-24
		c14.8-27.5,51-28.6,67.7-3.5l-3.6-6.6l-7.6-14.1c-15.2-28.1-51-30.7-70-7.8c-1.9,2.3-3.7,4.9-5.2,7.8l-22.9,41.9
		c0.7,12.5,4,27,9.3,42.2l13.2-24.3L212,129.5z"/>
	
		<linearGradient id="SVGID_00000152258861691378931160000003887813296279570109_" gradientUnits="userSpaceOnUse" x1="207.3441" y1="87.8979" x2="314.2155" y2="249.2528">
		<stop  offset="0" style="stop-color:#009B4B"/>
		<stop  offset="1" style="stop-color:#1F7049"/>
	</linearGradient>
	<path style="fill:url(#SVGID_00000152258861691378931160000003887813296279570109_);" d="M295.1,106.1l-0.3-0.6
		c-0.7-1.2-1.4-2.4-2.1-3.5c-16.7-25.1-52.8-23.9-67.7,3.5l-12.9,24l-6.3,11.6l-13.2,24.3c5.4,15.3,13.1,31.7,22.8,48.4
		c8.7,15,19.1,30.2,31,45.2l0,0c2.5,3.2,5.2,6.5,7.9,9.7c8.3-9.6,15.8-19.4,22.6-29.1c22.8-32.4,37.2-64.2,41.1-90.2l0-0.6
		c0-0.2,0,0.2,0,0L295.1,106.1z"/>
	
		<linearGradient id="SVGID_00000176725683553693982400000002250710966089909941_" gradientUnits="userSpaceOnUse" x1="317.5521" y1="273.3642" x2="195.5193" y2="468.6167">
		<stop  offset="0" style="stop-color:#009B4B"/>
		<stop  offset="1" style="stop-color:#1F7049"/>
	</linearGradient>
	<path style="fill:url(#SVGID_00000176725683553693982400000002250710966089909941_);" d="M257.9,272.9c7.9,9.2,16,17.7,24.2,25.7
		c36.2-12.5,72.3-22.4,107.6-17.1L323,157.8l-4.9-9c-3.7,26.2-18.4,58.4-41.2,90.8c-6.8,9.7-14.4,19.4-22.6,29.1
		c0.9,1.1,1.8,2.2,2.7,3.2C257.3,272.3,257.6,272.6,257.9,272.9z"/>
	
		<linearGradient id="SVGID_00000110449940131243939970000016401792166262435234_" gradientUnits="userSpaceOnUse" x1="390.1259" y1="324.0618" x2="274.183" y2="509.5704">
		<stop  offset="0" style="stop-color:#009B4B"/>
		<stop  offset="1" style="stop-color:#1F7049"/>
	</linearGradient>
	<path style="fill:url(#SVGID_00000110449940131243939970000016401792166262435234_);" d="M319,335.5c1.7,3.3,3.1,6.7,4.2,10.4
		c0.1,0.3,0.2,0.7,0.2,1c36.8-8.4,73.2-8.7,108.4,12.8l-10.2-19C388.1,324.7,353.7,326.8,319,335.5z"/>
	
		<linearGradient id="SVGID_00000109745785884972623100000018394260811402269863_" gradientUnits="userSpaceOnUse" x1="359.9469" y1="303.1122" x2="242.854" y2="490.4608">
		<stop  offset="0" style="stop-color:#009B4B"/>
		<stop  offset="1" style="stop-color:#1F7049"/>
	</linearGradient>
	<path style="fill:url(#SVGID_00000109745785884972623100000018394260811402269863_);" d="M296.6,311.6c4.1,2.4,8.3,5.4,11.7,8.9
		c34-9.8,67.8-14.3,100.7-3.1l-8.4-15.7C366.7,293.3,331.5,300.4,296.6,311.6z"/>
	
		<linearGradient id="SVGID_00000036946809969462290910000004115758518767344044_" gradientUnits="userSpaceOnUse" x1="54.5431" y1="299.8813" x2="224.5349" y2="478.0765">
		<stop  offset="0" style="stop-color:#FFDA2C"/>
		<stop  offset="0.4756" style="stop-color:#FDD82D"/>
		<stop  offset="0.6551" style="stop-color:#F6D12F"/>
		<stop  offset="0.7846" style="stop-color:#EAC633"/>
		<stop  offset="0.89" style="stop-color:#D9B539"/>
		<stop  offset="0.9797" style="stop-color:#C3A040"/>
		<stop  offset="1" style="stop-color:#BD9A42"/>
	</linearGradient>
	<path style="fill:url(#SVGID_00000036946809969462290910000004115758518767344044_);" d="M120.3,348.4
		c-15.8-3.6-31.5-10.5-46.9-21.9l-4.7,8.7c15.2,12.1,30.7,19.7,46.3,24C116.5,355.4,118.2,351.7,120.3,348.4z"/>
	
		<linearGradient id="SVGID_00000033344693340724928200000011773908408988242073_" gradientUnits="userSpaceOnUse" x1="36.9898" y1="317.7502" x2="207.0667" y2="496.0346">
		<stop  offset="0" style="stop-color:#FFDA2C"/>
		<stop  offset="0.4756" style="stop-color:#FDD82D"/>
		<stop  offset="0.6551" style="stop-color:#F6D12F"/>
		<stop  offset="0.7846" style="stop-color:#EAC633"/>
		<stop  offset="0.89" style="stop-color:#D9B539"/>
		<stop  offset="0.9797" style="stop-color:#C3A040"/>
		<stop  offset="1" style="stop-color:#BD9A42"/>
	</linearGradient>
	<path style="fill:url(#SVGID_00000033344693340724928200000011773908408988242073_);" d="M111,382.1c0-1.6,0.1-3.2,0.2-4.8
		c-16.8-5-33.4-13.9-49.8-28.3c-1.4,3.1-2.4,6.3-3.1,9.4c17.4,16,35.1,25.8,53.1,31C111.2,387,111,384.6,111,382.1z"/>
	
		<linearGradient id="SVGID_00000106146750801264687030000014821272871576945824_" gradientUnits="userSpaceOnUse" x1="23.357" y1="332.2719" x2="192.6223" y2="509.7055">
		<stop  offset="0" style="stop-color:#FFDA2C"/>
		<stop  offset="0.4756" style="stop-color:#FDD82D"/>
		<stop  offset="0.6551" style="stop-color:#F6D12F"/>
		<stop  offset="0.7846" style="stop-color:#EAC633"/>
		<stop  offset="0.89" style="stop-color:#D9B539"/>
		<stop  offset="0.9797" style="stop-color:#C3A040"/>
		<stop  offset="1" style="stop-color:#BD9A42"/>
	</linearGradient>
	<path style="fill:url(#SVGID_00000106146750801264687030000014821272871576945824_);" d="M58.1,378.2c4,20.3,20.6,37.1,42.6,37.1
		H120c-1-1.7-1.9-3.5-2.8-5.3C97.2,405.5,77.4,395.7,58.1,378.2z"/>
	<path class="st9" d="M282.1,298.6c4,3.9,8.1,7.8,12.1,11.4c0.9,0.5,1.4,1.1,2.3,1.6c34.9-11.2,70.1-18.3,104-9.9l-10.9-20.2
		C354.4,276.2,318.3,286.1,282.1,298.6z"/>
	<path class="st9" d="M135.4,331.9c-18.3-2-36.4-8-54.2-19.7l-7.7,14.3c15.4,11.4,31,18.3,46.9,21.9
		C124.3,341.8,129.4,336.2,135.4,331.9z"/>
	<path class="st9" d="M308.3,320.5c2.2,2.2,4.2,4.6,6,7.2c1.7,2.4,3.3,5.1,4.6,7.8c34.8-8.8,69.2-10.8,102.6,5.2L409,317.4
		C376.1,306.2,342.3,310.8,308.3,320.5z"/>
	<path class="st9" d="M115.1,359.2c-15.6-4.3-31.1-11.8-46.3-24l-5.7,10.5c-0.6,1.1-1.1,2.2-1.6,3.3c16.3,14.4,32.9,23.3,49.8,28.3
		C111.7,370.9,113,364.8,115.1,359.2z"/>
	
		<linearGradient id="SVGID_00000029750752057099898230000004361860419194363016_" gradientUnits="userSpaceOnUse" x1="371.8609" y1="274.6153" x2="204.3759" y2="469.3445">
		<stop  offset="0" style="stop-color:#009B4B"/>
		<stop  offset="1" style="stop-color:#1F7049"/>
	</linearGradient>
	<path style="fill:url(#SVGID_00000029750752057099898230000004361860419194363016_);" d="M442.2,385.1
		c-37.7-28.2-76.8-29.5-116.4-20.8c0.1,25-14.3,47.9-37,55.6c-9.5,3.2-19.3,3.3-28.4,0.9c-5.8-1.5-11.4-4.1-16.4-7.6
		c-3-2.1-5.8-4.4-8.4-7.1c-3.3-2.6-6.1-5.9-8.5-9.6c-3.3-5.1-5.7-10.7-7.4-15.7c-1.2-3.5-2-6.7-2.6-9.2c-0.1-0.7-0.3-1.3-0.4-1.9
		c-0.2-1.2-0.4-2.5-0.7-3.7c0,0,0-0.1,0-0.1l0,0c-1.1-4.5-2.8-8.8-4.7-12.8c-1.8-3.7-4-7.1-6.4-10.2c-4.1-5.3-9-9.9-14.6-13.3
		c-0.5-0.3-1-0.6-1.5-0.9c-0.1-0.1-0.2-0.1-0.4-0.2c-0.5-0.3-1-0.6-1.6-0.9c-0.5-0.3-1.1-0.5-1.7-0.8c-0.7-0.3-1.4-0.6-2-0.9
		c-0.5-0.2-1-0.4-1.6-0.6c-1.2-0.4-2.3-0.8-3.5-1.2c-0.3-0.1-0.6-0.2-0.9-0.2c-1-0.3-2-0.5-3-0.7c-0.5-0.1-0.9-0.2-1.4-0.2
		c-0.9-0.2-1.9-0.3-2.8-0.4c-0.4,0-0.8-0.1-1.3-0.1c-1.4-0.1-2.7-0.2-4.1-0.2c-10.7,0-20.7,3.6-29,9.6c-6,4.3-11.1,9.9-15.1,16.5
		c-2.1,3.4-3.8,7-5.2,10.8c-2.1,5.6-3.4,11.7-3.9,18.1c-0.1,1.6-0.2,3.2-0.2,4.8c0,2.5,0.2,4.9,0.4,7.3c0.8,7.4,2.8,14.3,5.8,20.6
		c0.9,1.8,1.8,3.6,2.8,5.3c3.3,5.6,7.5,10.5,12.3,14.6c8.1,6.8,17.9,11.1,28.6,11.9c1.2,0.1,2.3,0.1,3.5,0.1c0.9,0,1.8-0.1,2.7-0.1
		h148.5H329h68.2C426.5,441.8,446.7,413.4,442.2,385.1z"/>
	<path class="st9" d="M323.4,347c0.9,3.4,1.6,6.7,2,10.1c0.3,2.4,0.4,4.8,0.4,7.3c39.7-8.7,78.8-7.4,116.4,20.8
		c-0.9-5.5-2.7-11.1-5.5-16.4l-4.8-9C396.6,338.3,360.2,338.6,323.4,347z"/>
	<path class="st9" d="M111.4,389.4c-18-5.2-35.7-15-53.1-31c-1.5,6.7-1.5,13.4-0.2,19.8c19.3,17.5,39.1,27.3,59.1,31.8
		C114.2,403.7,112.2,396.8,111.4,389.4z"/>
	
		<linearGradient id="SVGID_00000167359180438134020910000014343911780146331532_" gradientUnits="userSpaceOnUse" x1="81.1683" y1="272.8704" x2="325.756" y2="272.8704">
		<stop  offset="0" style="stop-color:#FFDA2C"/>
		<stop  offset="0.4756" style="stop-color:#FDD82D"/>
		<stop  offset="0.6551" style="stop-color:#F6D12F"/>
		<stop  offset="0.7846" style="stop-color:#EAC633"/>
		<stop  offset="0.89" style="stop-color:#D9B539"/>
		<stop  offset="0.9797" style="stop-color:#C3A040"/>
		<stop  offset="1" style="stop-color:#BD9A42"/>
	</linearGradient>
	<path style="fill:url(#SVGID_00000167359180438134020910000014343911780146331532_);" d="M325.4,357.1c-0.4-3.4-1.1-6.7-2-10.1
		c-0.1-0.3-0.1-0.7-0.2-1c-1.1-3.7-2.5-7.2-4.2-10.4c-1.4-2.7-2.9-5.4-4.6-7.8c-1.8-2.6-3.9-5-6-7.2c-3.4-3.5-7.6-6.5-11.7-8.9
		c-0.9-0.6-1.4-1.2-2.3-1.6c-4.1-3.6-8.1-7.4-12.1-11.4c-8.2-8-16.3-16.5-24.2-25.7c-0.3-0.3-0.6-0.6-0.9-1c-0.9-1-1.8-2.1-2.7-3.2
		c-2.8-3.3-5.5-6.6-8.1-9.9c-11.9-15.1-22.3-30.4-31-45.4c-9.6-16.6-17.2-32.8-22.6-48c-5.4-15.3-8.6-29.6-9.3-42.2l-102.1,189
		c17.8,11.7,35.9,17.7,54.2,19.7c8.4-6.1,18.3-9.6,29-9.6c1.4,0,2.7,0.1,4.1,0.2c0.4,0,0.8,0.1,1.3,0.1c0.9,0.1,1.9,0.2,2.8,0.4
		c0.5,0.1,0.9,0.2,1.4,0.2c1,0.2,2,0.4,3,0.7c0.3,0.1,0.6,0.2,0.9,0.2c1.2,0.3,2.4,0.8,3.5,1.2c0.5,0.2,1,0.4,1.6,0.6
		c0.7,0.3,1.4,0.6,2,0.9c0.6,0.3,1.1,0.5,1.7,0.8c0.5,0.3,1,0.6,1.6,0.9c0.1,0.1,0.2,0.1,0.4,0.2c0.5,0.3,1,0.6,1.5,0.9
		c5.6,3.4,10.5,8,14.6,13.3c2.4,3.1,4.6,6.6,6.4,10.2c2,4,3.6,8.3,4.7,12.8l0,0c0,0,0,0,0,0.1c0.3,1.2,0.5,2.5,0.7,3.7
		c0.1,0.7,0.3,1.3,0.4,1.9c0.6,2.5,1.5,5.7,2.6,9.2c1.7,5,4.1,10.7,7.4,15.7c2.4,3.6,5.2,7,8.5,9.6c2.6,2.7,5.4,5.1,8.4,7.1
		c5.1,3.5,10.6,6.1,16.4,7.6c9.1,2.4,18.9,2.3,28.4-0.9c22.7-7.7,37.1-30.6,37-55.6C325.7,361.9,325.7,359.5,325.4,357.1z"/>
</g>
</svg>
