<?xml version="1.0" encoding="utf-8"?>
<!-- Generator: Adobe Illustrator 26.0.0, SVG Export Plug-In . SVG Version: 6.00 Build 0)  -->
<svg version="1.1" id="Capa_1" xmlns="http://www.w3.org/2000/svg" xmlns:xlink="http://www.w3.org/1999/xlink" x="0px" y="0px"
	 viewBox="0 0 1500 800" style="enable-background:new 0 0 1500 800;" xml:space="preserve">
<style type="text/css">
	.st0{fill:#11182A;}
	.st1{fill:url(#SVGID_1_);}
	.st2{fill:url(#SVGID_00000111875478099727783540000013841874576074946203_);}
	.st3{fill:url(#SVGID_00000009575212463992264330000015615816119564176268_);}
	.st4{fill:url(#SVGID_00000155840515769489557720000017460098503203699342_);}
	.st5{fill:url(#SVGID_00000155854123848204174700000014475741155755729058_);}
	.st6{fill:url(#SVGID_00000061470019320082245330000006605736779859462021_);}
	.st7{fill:url(#SVGID_00000057851104601125536360000004214985636916822695_);}
	.st8{fill:url(#SVGID_00000144319405284670206820000002733011437941983377_);}
	.st9{fill:url(#SVGID_00000019672215448310211140000009384711768219733121_);}
	.st10{fill:url(#SVGID_00000104686329471567467770000018434437779732500665_);}
	.st11{fill:url(#SVGID_00000155867181342105465130000017357882109783227286_);}
	.st12{fill:url(#SVGID_00000140720385845659244400000015390793788872373152_);}
	.st13{fill:url(#SVGID_00000145023687697716767460000010498103329506645179_);}
	.st14{fill:url(#SVGID_00000026878237279131766040000017171706135454983342_);}
	.st15{fill:url(#SVGID_00000018225696369392072430000001501451448068016539_);}
	.st16{fill:url(#SVGID_00000105422695884838124340000013833294233235566471_);}
	.st17{fill:url(#SVGID_00000167392691456243271200000001885987150052726706_);}
	.st18{fill:url(#SVGID_00000112622975765030621230000012603055258862852231_);}
	.st19{fill:url(#SVGID_00000118390748787788226900000002080545467831236016_);}
	.st20{fill:url(#SVGID_00000003791001435655022090000000940947397860735932_);}
	.st21{fill:url(#SVGID_00000025427203256984209710000002962461288487643819_);}
	.st22{fill:url(#SVGID_00000054230292448280345360000013780403753913555333_);}
	.st23{fill:url(#SVGID_00000025411907212844825950000012240010283590927500_);}
	.st24{fill:url(#SVGID_00000159439467138588400770000003760164949072288955_);}
	.st25{fill:url(#SVGID_00000103950087578942419740000013257943000628566148_);}
	.st26{fill:url(#SVGID_00000145026920068798399020000008212152593932783494_);}
	.st27{fill:url(#SVGID_00000124848595070937763650000016730484154019977864_);}
	.st28{fill:url(#SVGID_00000168837294316304967190000008756588859515229340_);}
	.st29{fill:url(#SVGID_00000101789872877786288940000003565120225100108171_);}
	.st30{fill:url(#SVGID_00000136403703315381447910000005962152168227762061_);}
	.st31{fill:url(#SVGID_00000036230555154792800520000012803541927509930158_);}
	.st32{fill:url(#SVGID_00000044856976936916481020000011471636375709334712_);}
	.st33{fill:url(#SVGID_00000092451405940598264560000003888248736254756766_);}
	.st34{fill:url(#SVGID_00000163046365311467133270000016219022698225063069_);}
	.st35{fill:url(#SVGID_00000107586955702724506560000010600588568534325646_);}
	.st36{fill:url(#SVGID_00000158027818539918110420000008550484298027292862_);}
	.st37{fill:url(#SVGID_00000133495373996144345230000015988531682690935731_);}
	.st38{fill:url(#SVGID_00000132065406100688109510000004042668126995928712_);}
	.st39{fill:url(#SVGID_00000183239865482184082470000008159352808601989021_);}
	.st40{fill:url(#SVGID_00000094618689236447552910000000295368832862234764_);}
	.st41{fill:#FFFFFF;}
	.st42{fill:url(#SVGID_00000021089868082131098400000005122638781603397800_);}
	.st43{fill:url(#SVGID_00000139990112800506025190000015802757925089515417_);}
</style>
<g>
	<rect class="st0" width="1500" height="800"/>
	<g>
		<g>
			
				<linearGradient id="SVGID_1_" gradientUnits="userSpaceOnUse" x1="568.9761" y1="337" x2="648.4" y2="337" gradientTransform="matrix(1 0 0 -1 0 802)">
				<stop  offset="0" style="stop-color:#0D943C"/>
				<stop  offset="1" style="stop-color:#036A41"/>
			</linearGradient>
			<path class="st1" d="M582.6,436.4c-15.8,12.8-18.2,36-5.4,51.8c1.6,2,3.4,3.8,5.4,5.4c9,7.9,20.7,12.2,32.7,11.9h33.1v-23.2
				h-33.1c-5.1,0.1-10.2-1.7-14-5.1c-6.8-5.5-7.8-15.4-2.3-22.2c0.7-0.8,1.4-1.6,2.3-2.3c3.9-3.4,8.9-5.2,14-5.1h33.1v-23.1h-33.1
				C603.3,424.2,591.6,428.5,582.6,436.4z"/>
			
				<linearGradient id="SVGID_00000041997722085316031680000006344048810755025594_" gradientUnits="userSpaceOnUse" x1="654.9944" y1="337.1" x2="747.7056" y2="337.1" gradientTransform="matrix(1 0 0 -1 0 802)">
				<stop  offset="0" style="stop-color:#0D943C"/>
				<stop  offset="1" style="stop-color:#036A41"/>
			</linearGradient>
			<path style="fill:url(#SVGID_00000041997722085316031680000006344048810755025594_);" d="M668.6,493.5c19,15.8,46.5,15.8,65.5,0
				c15.8-12.9,18.2-36.1,5.3-51.9c-1.6-2-3.4-3.7-5.3-5.3c-19-15.8-46.5-15.8-65.5,0c-15.8,12.9-18.2,36.1-5.3,51.9
				C664.9,490.1,666.7,491.9,668.6,493.5z M687.3,452.7c8.1-6.8,19.9-6.8,28.1,0c6.8,5.5,7.8,15.4,2.3,22.2
				c-0.7,0.9-1.5,1.6-2.3,2.3c-8.1,6.8-19.9,6.8-28.1,0c-6.8-5.5-7.8-15.4-2.3-22.2C685.7,454.1,686.5,453.4,687.3,452.7z"/>
			
				<linearGradient id="SVGID_00000181787627379101577100000002134810247273457057_" gradientUnits="userSpaceOnUse" x1="754.1944" y1="337.1" x2="833.6" y2="337.1" gradientTransform="matrix(1 0 0 -1 0 802)">
				<stop  offset="0" style="stop-color:#0D943C"/>
				<stop  offset="1" style="stop-color:#036A41"/>
			</linearGradient>
			<path style="fill:url(#SVGID_00000181787627379101577100000002134810247273457057_);" d="M767.8,493.5c9,7.9,20.7,12.2,32.7,11.9
				h33.1v-23.2h-33.1c-5.1,0.1-10.1-1.7-14-5.1c-6.8-5.5-7.8-15.4-2.3-22.2c0.7-0.9,1.5-1.6,2.3-2.3c3.9-3.4,8.9-5.2,14-5.1h33.1
				v-23.1h-33.1c-12-0.3-23.7,4-32.7,11.9c-15.8,12.9-18.2,36.1-5.3,51.9C764.1,490.2,765.9,491.9,767.8,493.5L767.8,493.5z"/>
			
				<linearGradient id="SVGID_00000130642333818239156680000007483316326820203180_" gradientUnits="userSpaceOnUse" x1="837.9" y1="337.1" x2="930.5" y2="337.1" gradientTransform="matrix(1 0 0 -1 0 802)">
				<stop  offset="0" style="stop-color:#0D943C"/>
				<stop  offset="1" style="stop-color:#036A41"/>
			</linearGradient>
			<path style="fill:url(#SVGID_00000130642333818239156680000007483316326820203180_);" d="M897.5,424.5l-59.6,80.8H871l6.2-8.5
				H904v8.5h26.5v-80.8H897.5z M886.4,484.4l17.7-24v24H886.4z"/>
			
				<linearGradient id="SVGID_00000164475969818928572100000001105144677829370767_" gradientUnits="userSpaceOnUse" x1="569.0597" y1="268.0518" x2="600.1597" y2="268.0518" gradientTransform="matrix(1 0 0 -1 0 802)">
				<stop  offset="0" style="stop-color:#0D943C"/>
				<stop  offset="1" style="stop-color:#036A41"/>
			</linearGradient>
			<path style="fill:url(#SVGID_00000164475969818928572100000001105144677829370767_);" d="M586.5,525.3c3.1,0,6.2,1.1,8.6,3.1
				l4.8-4.5c-3.7-3-8.5-4.6-13.3-4.3c-10.3,0-17.6,6.5-17.6,14.4l0,0c0,8,7.4,14.3,17.3,14.3c5.1,0.3,10.1-1.5,13.8-5l-4.8-4
				c-2.5,2.1-5.6,3.3-8.8,3.3c-5,0.4-9.4-3.4-9.8-8.5c0-0.1,0-0.2,0-0.3l0,0c0.3-5,4.6-8.9,9.6-8.6
				C586.4,525.3,586.5,525.3,586.5,525.3z"/>
			
				<linearGradient id="SVGID_00000106836827934646703820000017673945589230361786_" gradientUnits="userSpaceOnUse" x1="603.5459" y1="267.85" x2="639.3459" y2="267.85" gradientTransform="matrix(1 0 0 -1 0 802)">
				<stop  offset="0" style="stop-color:#0D943C"/>
				<stop  offset="1" style="stop-color:#036A41"/>
			</linearGradient>
			<path style="fill:url(#SVGID_00000106836827934646703820000017673945589230361786_);" d="M639.3,534.1L639.3,534.1
				c0-7.9-7.5-14.3-17.9-14.3s-17.9,6.5-17.9,14.4l0,0c0,7.9,7.5,14.3,17.9,14.3S639.3,542,639.3,534.1z M611.3,534.1L611.3,534.1
				c0-4.8,4.1-8.7,10.1-8.7s10.2,4,10.2,8.8l0,0c0,4.8-4.1,8.7-10.1,8.7S611.3,538.9,611.3,534.1z"/>
			
				<linearGradient id="SVGID_00000055688320381402255600000015930006633265673364_" gradientUnits="userSpaceOnUse" x1="644.4193" y1="267.85" x2="680.2401" y2="267.85" gradientTransform="matrix(1 0 0 -1 0 802)">
				<stop  offset="0" style="stop-color:#0D943C"/>
				<stop  offset="1" style="stop-color:#036A41"/>
			</linearGradient>
			<path style="fill:url(#SVGID_00000055688320381402255600000015930006633265673364_);" d="M680.2,534.1L680.2,534.1
				c0-7.9-7.5-14.3-17.9-14.3s-18,6.5-18,14.4l0,0c0,7.9,7.5,14.3,17.9,14.3C672.7,548.5,680.2,542,680.2,534.1z M672.5,534.1
				c0,4.8-4.1,8.7-10.1,8.7s-10.2-3.9-10.2-8.7l0,0c0-4.8,4.1-8.7,10.1-8.7S672.5,529.4,672.5,534.1L672.5,534.1z"/>
			
				<linearGradient id="SVGID_00000152962430034539881390000006094566518326748048_" gradientUnits="userSpaceOnUse" x1="686.8" y1="267.9" x2="713.4451" y2="267.9" gradientTransform="matrix(1 0 0 -1 0 802)">
				<stop  offset="0" style="stop-color:#0D943C"/>
				<stop  offset="1" style="stop-color:#036A41"/>
			</linearGradient>
			<path style="fill:url(#SVGID_00000152962430034539881390000006094566518326748048_);" d="M713.5,529.8c0-5.7-4.8-9.7-12.9-9.7
				h-13.8v28h7.4v-8.4h5.6C707.4,539.7,713.5,536.3,713.5,529.8L713.5,529.8z M706,530c0,2.4-2.2,4.2-5.9,4.2h-5.9v-8.6h5.6
				C703.5,525.7,705.9,527.1,706,530L706,530z"/>
			
				<linearGradient id="SVGID_00000024711369644325919840000013972350665454266507_" gradientUnits="userSpaceOnUse" x1="718.9446" y1="267.9" x2="744.5887" y2="267.9" gradientTransform="matrix(1 0 0 -1 0 802)">
				<stop  offset="0" style="stop-color:#0D943C"/>
				<stop  offset="1" style="stop-color:#036A41"/>
			</linearGradient>
			<polygon style="fill:url(#SVGID_00000024711369644325919840000013972350665454266507_);" points="744.4,525.6 744.4,520.1 
				718.9,520.1 718.9,548.1 744.6,548.1 744.6,542.6 726.3,542.6 726.3,536.7 742.2,536.7 742.2,531.3 726.3,531.3 726.3,525.6 			
				"/>
			
				<linearGradient id="SVGID_00000178905126656648435280000000175450372945396652_" gradientUnits="userSpaceOnUse" x1="751.0999" y1="267.85" x2="780.3" y2="267.85" gradientTransform="matrix(1 0 0 -1 0 802)">
				<stop  offset="0" style="stop-color:#0D943C"/>
				<stop  offset="1" style="stop-color:#036A41"/>
			</linearGradient>
			<path style="fill:url(#SVGID_00000178905126656648435280000000175450372945396652_);" d="M780.3,548.1l-8.2-10
				c4.3-1.3,7.1-4.1,7.1-8.7l0,0c0-5.7-4.8-9.2-12.7-9.2h-15.4v27.9h7.4v-8.9h5.8l7.1,8.9H780.3z M766,533.8h-7.5v-8.1h7.4
				c3.6,0,5.8,1.4,5.8,4l0,0C771.8,532.1,769.7,533.7,766,533.8L766,533.8z"/>
			
				<linearGradient id="SVGID_00000029752381285836328800000017033456850741486263_" gradientUnits="userSpaceOnUse" x1="783.1" y1="267.95" x2="818.7" y2="267.95" gradientTransform="matrix(1 0 0 -1 0 802)">
				<stop  offset="0" style="stop-color:#0D943C"/>
				<stop  offset="1" style="stop-color:#036A41"/>
			</linearGradient>
			<path style="fill:url(#SVGID_00000029752381285836328800000017033456850741486263_);" d="M811,548.1h7.7L804.4,520h-6.9
				l-14.4,28.1h7.6l3.1-6.3h14.3L811,548.1z M796.3,536.4l4.5-9.1l4.5,9.1H796.3z"/>
			
				<linearGradient id="SVGID_00000118394453193524121130000011115534713541751194_" gradientUnits="userSpaceOnUse" x1="817.2" y1="267.9" x2="845.1" y2="267.9" gradientTransform="matrix(1 0 0 -1 0 802)">
				<stop  offset="0" style="stop-color:#0D943C"/>
				<stop  offset="1" style="stop-color:#036A41"/>
			</linearGradient>
			<polygon style="fill:url(#SVGID_00000118394453193524121130000011115534713541751194_);" points="817.2,525.8 827.5,525.8 
				827.5,548.1 834.9,548.1 834.9,525.8 845.1,525.8 845.1,520.1 817.2,520.1 			"/>
			
				<linearGradient id="SVGID_00000160898043668830238050000006932152837320544184_" gradientUnits="userSpaceOnUse" x1="851.1216" y1="267.9" x2="858.5336" y2="267.9" gradientTransform="matrix(1 0 0 -1 0 802)">
				<stop  offset="0" style="stop-color:#0D943C"/>
				<stop  offset="1" style="stop-color:#036A41"/>
			</linearGradient>
			
				<rect x="851.1" y="520.1" style="fill:url(#SVGID_00000160898043668830238050000006932152837320544184_);" width="7.4" height="28"/>
			
				<linearGradient id="SVGID_00000000906383819323427540000001217709724584075697_" gradientUnits="userSpaceOnUse" x1="864.0628" y1="267.8" x2="897.834" y2="267.8" gradientTransform="matrix(1 0 0 -1 0 802)">
				<stop  offset="0" style="stop-color:#0D943C"/>
				<stop  offset="1" style="stop-color:#036A41"/>
			</linearGradient>
			<polygon style="fill:url(#SVGID_00000000906383819323427540000001217709724584075697_);" points="897.8,520.1 889.8,520.1 
				881.1,539.8 872.2,520.1 864.1,520.1 877.7,548.3 884.2,548.3 			"/>
			
				<linearGradient id="SVGID_00000157293000311826447000000012806369904688061857_" gradientUnits="userSpaceOnUse" x1="895.4507" y1="268.05" x2="931.0332" y2="268.05" gradientTransform="matrix(1 0 0 -1 0 802)">
				<stop  offset="0" style="stop-color:#0D943C"/>
				<stop  offset="1" style="stop-color:#036A41"/>
			</linearGradient>
			<path style="fill:url(#SVGID_00000157293000311826447000000012806369904688061857_);" d="M909.8,519.9L895.5,548h7.6l3.1-6.3
				h14.3l3.1,6.3h7.6l-14.4-28.1H909.8z M908.6,536.4l4.5-9.1l4.5,9.1H908.6z"/>
			
				<linearGradient id="SVGID_00000020383064934776176730000008673856950234986391_" gradientUnits="userSpaceOnUse" x1="569.4" y1="235.75" x2="588.2756" y2="235.75" gradientTransform="matrix(1 0 0 -1 0 802)">
				<stop  offset="0" style="stop-color:#0D943C"/>
				<stop  offset="1" style="stop-color:#036A41"/>
			</linearGradient>
			<path style="fill:url(#SVGID_00000020383064934776176730000008673856950234986391_);" d="M577.4,557.9h-8v16.7h8
				c6.5,0,10.9-3.6,10.9-8.3l0,0C588.3,561.5,583.8,557.9,577.4,557.9z M583.6,566.2c0,3-2.4,5-6.2,5h-3.5v-10.1h3.5
				C581.1,561.2,583.6,563.2,583.6,566.2L583.6,566.2z"/>
			
				<linearGradient id="SVGID_00000036947606588471375010000003817043960412746371_" gradientUnits="userSpaceOnUse" x1="592.2729" y1="235.8" x2="607.8729" y2="235.8" gradientTransform="matrix(1 0 0 -1 0 802)">
				<stop  offset="0" style="stop-color:#0D943C"/>
				<stop  offset="1" style="stop-color:#036A41"/>
			</linearGradient>
			<polygon style="fill:url(#SVGID_00000036947606588471375010000003817043960412746371_);" points="596.8,567.8 606.4,567.8 
				606.4,564.5 596.8,564.5 596.8,561.1 607.7,561.1 607.7,557.9 592.3,557.9 592.3,574.5 607.9,574.5 607.9,571.3 596.8,571.3 			
				"/>
			
				<linearGradient id="SVGID_00000142873354190774242180000004307959313783403675_" gradientUnits="userSpaceOnUse" x1="618.8704" y1="235.95" x2="640.7728" y2="235.95" gradientTransform="matrix(1 0 0 -1 0 802)">
				<stop  offset="0" style="stop-color:#0D943C"/>
				<stop  offset="1" style="stop-color:#036A41"/>
			</linearGradient>
			<path style="fill:url(#SVGID_00000142873354190774242180000004307959313783403675_);" d="M627.6,557.7l-8.8,16.7h4.7l1.9-3.7h8.7
				l1.9,3.7h4.8l-8.8-16.7H627.6z M626.9,567.6l2.7-5.4l2.7,5.4H626.9z"/>
			
				<linearGradient id="SVGID_00000125601719065513222570000002671196188499403160_" gradientUnits="userSpaceOnUse" x1="643.7281" y1="235.8" x2="661.0546" y2="235.8" gradientTransform="matrix(1 0 0 -1 0 802)">
				<stop  offset="0" style="stop-color:#0D943C"/>
				<stop  offset="1" style="stop-color:#036A41"/>
			</linearGradient>
			<polygon style="fill:url(#SVGID_00000125601719065513222570000002671196188499403160_);" points="656.6,564.5 648.2,564.5 
				648.2,557.9 643.7,557.9 643.7,574.5 648.2,574.5 648.2,567.8 656.6,567.8 656.6,574.5 661.1,574.5 661.1,557.9 656.6,557.9 			
				"/>
			
				<linearGradient id="SVGID_00000078045251772972530930000002330540373279424910_" gradientUnits="userSpaceOnUse" x1="665.1" y1="235.8" x2="686.9" y2="235.8" gradientTransform="matrix(1 0 0 -1 0 802)">
				<stop  offset="0" style="stop-color:#0D943C"/>
				<stop  offset="1" style="stop-color:#036A41"/>
			</linearGradient>
			<path style="fill:url(#SVGID_00000078045251772972530930000002330540373279424910_);" d="M676,557.6c-6.3,0-10.9,3.9-10.9,8.6
				l0,0c0,4.8,4.6,8.6,10.9,8.6c6.3,0,10.9-3.9,10.9-8.6l0,0C686.8,561.4,682.3,557.6,676,557.6z M682.2,566.2
				c-0.2,3.1-2.9,5.4-5.9,5.2c-0.1,0-0.1,0-0.2,0c-3.1,0.3-5.9-2-6.2-5.1v-0.1l0,0c0.2-3.1,2.8-5.4,5.9-5.3c0.1,0,0.2,0,0.3,0
				c3.1-0.3,5.9,2,6.2,5.1C682.2,566.1,682.2,566.2,682.2,566.2L682.2,566.2z"/>
			
				<linearGradient id="SVGID_00000083801585954525865080000003267451513526986394_" gradientUnits="userSpaceOnUse" x1="690.8" y1="235.75" x2="708.5078" y2="235.75" gradientTransform="matrix(1 0 0 -1 0 802)">
				<stop  offset="0" style="stop-color:#0D943C"/>
				<stop  offset="1" style="stop-color:#036A41"/>
			</linearGradient>
			<path style="fill:url(#SVGID_00000083801585954525865080000003267451513526986394_);" d="M707.9,563.4L707.9,563.4
				c0-3.4-2.9-5.5-7.7-5.5h-9.4v16.7h4.5v-5.4h3.6l4.4,5.3h5.3l-5-5.9C706,568.1,707.8,566,707.9,563.4z M703.3,563.6
				c0,1.4-1.3,2.4-3.5,2.4h-4.6v-4.8h4.6C702,561.2,703.4,562,703.3,563.6L703.3,563.6z"/>
			
				<linearGradient id="SVGID_00000015320403613451383680000004146957109117113990_" gradientUnits="userSpaceOnUse" x1="711.9377" y1="235.75" x2="729.717" y2="235.75" gradientTransform="matrix(1 0 0 -1 0 802)">
				<stop  offset="0" style="stop-color:#0D943C"/>
				<stop  offset="1" style="stop-color:#036A41"/>
			</linearGradient>
			<path style="fill:url(#SVGID_00000015320403613451383680000004146957109117113990_);" d="M729,563.4L729,563.4
				c0-3.4-2.9-5.5-7.7-5.5h-9.4v16.7h4.6v-5.4h3.5l4.4,5.3h5.3l-5-5.9C727.2,568.1,729,565.9,729,563.4z M724.5,563.6
				c0,1.4-1.3,2.4-3.5,2.4h-4.5v-4.8h4.5C723.2,561.2,724.5,562,724.5,563.6L724.5,563.6z"/>
			
				<linearGradient id="SVGID_00000028288054891464230990000013153578115010352810_" gradientUnits="userSpaceOnUse" x1="732.2" y1="235.8" x2="753.9594" y2="235.8" gradientTransform="matrix(1 0 0 -1 0 802)">
				<stop  offset="0" style="stop-color:#0D943C"/>
				<stop  offset="1" style="stop-color:#036A41"/>
			</linearGradient>
			<path style="fill:url(#SVGID_00000028288054891464230990000013153578115010352810_);" d="M743.1,557.6c-6.3,0-10.9,3.9-10.9,8.6
				l0,0c0,4.8,4.5,8.6,10.8,8.6s10.9-3.9,10.9-8.6l0,0C754,561.4,749.4,557.6,743.1,557.6z M749.2,566.2c-0.2,3.1-2.9,5.4-5.9,5.2
				c-0.1,0-0.1,0-0.2,0c-3.1,0.3-5.9-2-6.2-5.1v-0.1l0,0c0.2-3.1,2.9-5.4,6-5.2c0.1,0,0.1,0,0.2,0C746.2,560.7,749,563,749.2,566.2
				C749.2,566.2,749.2,566.2,749.2,566.2z"/>
			
				<linearGradient id="SVGID_00000003080881827502524090000011153635242901014924_" gradientUnits="userSpaceOnUse" x1="764.6" y1="235.8" x2="784.858" y2="235.8" gradientTransform="matrix(1 0 0 -1 0 802)">
				<stop  offset="0" style="stop-color:#0D943C"/>
				<stop  offset="1" style="stop-color:#036A41"/>
			</linearGradient>
			<polygon style="fill:url(#SVGID_00000003080881827502524090000011153635242901014924_);" points="774.8,564.6 769.9,557.9 
				764.6,557.9 772.5,568 772.5,574.5 777,574.5 777,567.9 784.9,557.9 779.7,557.9 			"/>
			
				<linearGradient id="SVGID_00000071551205153845722480000008108465946014068911_" gradientUnits="userSpaceOnUse" x1="795.5195" y1="235.7921" x2="814.4195" y2="235.7921" gradientTransform="matrix(1 0 0 -1 0 802)">
				<stop  offset="0" style="stop-color:#0D943C"/>
				<stop  offset="1" style="stop-color:#036A41"/>
			</linearGradient>
			<path style="fill:url(#SVGID_00000071551205153845722480000008108465946014068911_);" d="M806.2,571.4c-3,0.3-5.7-2-5.9-5
				c0-0.1,0-0.1,0-0.2l0,0c0.2-3,2.8-5.4,5.8-5.2h0.1c1.9,0,3.8,0.7,5.2,1.9l2.9-2.7c-2.3-1.8-5.2-2.7-8.1-2.6
				c-6.3,0-10.7,3.9-10.7,8.6l0,0c0,4.8,4.5,8.6,10.5,8.6c3.1,0.2,6.1-0.9,8.4-3l-2.9-2.4C810.1,570.7,808.1,571.4,806.2,571.4z"/>
			
				<linearGradient id="SVGID_00000065781274485041701540000002714418095352211135_" gradientUnits="userSpaceOnUse" x1="818" y1="235.75" x2="835.7077" y2="235.75" gradientTransform="matrix(1 0 0 -1 0 802)">
				<stop  offset="0" style="stop-color:#0D943C"/>
				<stop  offset="1" style="stop-color:#036A41"/>
			</linearGradient>
			<path style="fill:url(#SVGID_00000065781274485041701540000002714418095352211135_);" d="M835.1,563.4L835.1,563.4
				c0-3.4-2.9-5.5-7.7-5.5H818v16.7h4.5v-5.4h3.6l4.4,5.3h5.1l-5-5.9C833.2,568.1,835,566,835.1,563.4z M830.5,563.6
				c0,1.4-1.3,2.4-3.5,2.4h-4.6v-4.8h4.5C829.2,561.2,830.5,562,830.5,563.6z"/>
			
				<linearGradient id="SVGID_00000055672036265677640400000015123453484636171909_" gradientUnits="userSpaceOnUse" x1="844.4246" y1="247.6" x2="851.5506" y2="247.6" gradientTransform="matrix(1 0 0 -1 0 802)">
				<stop  offset="0" style="stop-color:#0D943C"/>
				<stop  offset="1" style="stop-color:#036A41"/>
			</linearGradient>
			<polygon style="fill:url(#SVGID_00000055672036265677640400000015123453484636171909_);" points="847.8,556.5 851.6,553.7 
				847.7,552.3 844.4,556.5 			"/>
			
				<linearGradient id="SVGID_00000005260359592594005390000013173522992685845439_" gradientUnits="userSpaceOnUse" x1="839.1337" y1="235.8" x2="854.7338" y2="235.8" gradientTransform="matrix(1 0 0 -1 0 802)">
				<stop  offset="0" style="stop-color:#0D943C"/>
				<stop  offset="1" style="stop-color:#036A41"/>
			</linearGradient>
			<polygon style="fill:url(#SVGID_00000005260359592594005390000013173522992685845439_);" points="843.6,567.8 853.3,567.8 
				853.3,564.5 843.6,564.5 843.6,561.1 854.6,561.1 854.6,557.9 839.1,557.9 839.1,574.5 854.7,574.5 854.7,571.3 843.6,571.3 			
				"/>
			
				<linearGradient id="SVGID_00000155144600170654972610000001120912527035145398_" gradientUnits="userSpaceOnUse" x1="858.7" y1="235.75" x2="877.5522" y2="235.75" gradientTransform="matrix(1 0 0 -1 0 802)">
				<stop  offset="0" style="stop-color:#0D943C"/>
				<stop  offset="1" style="stop-color:#036A41"/>
			</linearGradient>
			<path style="fill:url(#SVGID_00000155144600170654972610000001120912527035145398_);" d="M866.7,557.9h-8v16.7h8
				c6.4,0,10.9-3.6,10.9-8.3l0,0C877.6,561.5,873.2,557.9,866.7,557.9z M872.9,566.2c0,3-2.5,5-6.2,5h-3.5v-10.1h3.5
				C870.4,561.2,872.9,563.2,872.9,566.2L872.9,566.2z"/>
			
				<linearGradient id="SVGID_00000111157017466239078660000004631617776704074421_" gradientUnits="userSpaceOnUse" x1="881.8184" y1="235.75" x2="886.3184" y2="235.75" gradientTransform="matrix(1 0 0 -1 0 802)">
				<stop  offset="0" style="stop-color:#0D943C"/>
				<stop  offset="1" style="stop-color:#036A41"/>
			</linearGradient>
			
				<rect x="881.8" y="557.9" style="fill:url(#SVGID_00000111157017466239078660000004631617776704074421_);" width="4.5" height="16.7"/>
			
				<linearGradient id="SVGID_00000155846798144731352170000010689040423887459001_" gradientUnits="userSpaceOnUse" x1="889.9692" y1="235.8" x2="906.9382" y2="235.8" gradientTransform="matrix(1 0 0 -1 0 802)">
				<stop  offset="0" style="stop-color:#0D943C"/>
				<stop  offset="1" style="stop-color:#036A41"/>
			</linearGradient>
			<polygon style="fill:url(#SVGID_00000155846798144731352170000010689040423887459001_);" points="890,561.2 896.2,561.2 
				896.2,574.5 900.7,574.5 900.7,561.2 906.9,561.2 906.9,557.9 890,557.9 			"/>
			
				<linearGradient id="SVGID_00000003797762222919159020000015751191124774344624_" gradientUnits="userSpaceOnUse" x1="908.6" y1="235.8" x2="930.4" y2="235.8" gradientTransform="matrix(1 0 0 -1 0 802)">
				<stop  offset="0" style="stop-color:#0D943C"/>
				<stop  offset="1" style="stop-color:#036A41"/>
			</linearGradient>
			<path style="fill:url(#SVGID_00000003797762222919159020000015751191124774344624_);" d="M919.5,557.6c-6.3,0-10.9,3.9-10.9,8.6
				l0,0c0,4.8,4.6,8.6,10.9,8.6c6.3,0,10.9-3.9,10.9-8.6l0,0C930.4,561.4,925.8,557.6,919.5,557.6z M925.6,566.2
				c-0.2,3.1-2.9,5.4-5.9,5.2c-0.1,0-0.1,0-0.2,0c-3.1,0.3-5.9-2-6.2-5.1v-0.1l0,0c0.2-3.1,2.9-5.4,6-5.2c0.1,0,0.1,0,0.2,0
				C922.6,560.7,925.4,563,925.6,566.2C925.6,566.2,925.6,566.2,925.6,566.2z"/>
		</g>
		<g>
			
				<linearGradient id="SVGID_00000178896821699893691520000012053192447243786428_" gradientUnits="userSpaceOnUse" x1="757.6258" y1="419.7211" x2="738.0651" y2="449.6694" gradientTransform="matrix(1 0 0 1 0 -198)">
				<stop  offset="0" style="stop-color:#FFDD3A"/>
				<stop  offset="0.48" style="stop-color:#FDDB3A"/>
				<stop  offset="0.66" style="stop-color:#F7D43A"/>
				<stop  offset="0.79" style="stop-color:#EBC83B"/>
				<stop  offset="0.89" style="stop-color:#DBB73C"/>
				<stop  offset="0.98" style="stop-color:#C6A13D"/>
				<stop  offset="1" style="stop-color:#C19C3D"/>
			</linearGradient>
			<path style="fill:url(#SVGID_00000178896821699893691520000012053192447243786428_);" d="M740.7,242.7l3.2-5.9
				c2.3-4.7,8.1-6.7,12.8-4.3c1.6,0.8,2.9,2,3.9,3.5l-0.9-1.6l-1.9-3.5c-2.5-5.1-8.7-7.2-13.8-4.6c-1.3,0.7-2.5,1.6-3.4,2.8
				c-0.5,0.6-0.9,1.2-1.3,1.9l-5.6,10.3c0.3,3.6,1.1,7.1,2.3,10.4l3.2-6L740.7,242.7z"/>
			
				<linearGradient id="SVGID_00000059296076775291131120000015588623120809151368_" gradientUnits="userSpaceOnUse" x1="739.5747" y1="430.5028" x2="765.7982" y2="470.0983" gradientTransform="matrix(1 0 0 1 0 -198)">
				<stop  offset="0" style="stop-color:#0D943C"/>
				<stop  offset="1" style="stop-color:#036A41"/>
			</linearGradient>
			<path style="fill:url(#SVGID_00000059296076775291131120000015588623120809151368_);" d="M761.1,237l-0.1-0.1
				c-0.2-0.3-0.3-0.6-0.5-0.9c-2.8-4.4-8.7-5.8-13.2-2.9c-1.5,0.9-2.6,2.2-3.4,3.8l-3.2,5.9l-1.5,2.8l-3.2,6
				c1.5,4.1,3.4,8.1,5.6,11.8c2.3,3.9,4.8,7.6,7.6,11.1l0,0l1.9,2.4c2-2.3,3.9-4.8,5.6-7.1c5.6-7.9,9.1-15.8,10.1-22.1v-0.2l0,0
				L761.1,237z"/>
			
				<linearGradient id="SVGID_00000062185067160636973110000016051714729017704067_" gradientUnits="userSpaceOnUse" x1="766.468" y1="475.9899" x2="736.5195" y2="523.9026" gradientTransform="matrix(1 0 0 1 0 -198)">
				<stop  offset="0" style="stop-color:#0D943C"/>
				<stop  offset="1" style="stop-color:#036A41"/>
			</linearGradient>
			<path style="fill:url(#SVGID_00000062185067160636973110000016051714729017704067_);" d="M751.9,277.9c1.9,2.3,3.9,4.3,5.9,6.3
				c8.9-3.1,17.7-5.5,26.4-4.2l-16.4-30.4l-1.2-2.2c-0.9,6.4-4.5,14.3-10.1,22.3c-1.7,2.4-3.5,4.8-5.6,7.1l0.7,0.8L751.9,277.9z"/>
			
				<linearGradient id="SVGID_00000105401450542824157440000002762676833720648616_" gradientUnits="userSpaceOnUse" x1="784.3513" y1="488.4871" x2="755.9068" y2="534.0052" gradientTransform="matrix(1 0 0 1 0 -198)">
				<stop  offset="0" style="stop-color:#0D943C"/>
				<stop  offset="1" style="stop-color:#036A41"/>
			</linearGradient>
			<path style="fill:url(#SVGID_00000105401450542824157440000002762676833720648616_);" d="M766.9,293.3c0.4,0.8,0.8,1.7,1,2.6
				c0,0.1,0,0.2,0.1,0.2c9-2.1,18-2.1,26.6,3.1l-2.5-4.6C783.9,290.7,775.4,291.2,766.9,293.3z"/>
			
				<linearGradient id="SVGID_00000144335564975450510910000000343263141241019828_" gradientUnits="userSpaceOnUse" x1="776.9318" y1="483.3294" x2="748.1981" y2="529.2987" gradientTransform="matrix(1 0 0 1 0 -198)">
				<stop  offset="0" style="stop-color:#0D943C"/>
				<stop  offset="1" style="stop-color:#036A41"/>
			</linearGradient>
			<path style="fill:url(#SVGID_00000144335564975450510910000000343263141241019828_);" d="M761.4,287.4c1,0.6,2,1.3,2.9,2.2
				c8.4-2.4,16.6-3.5,24.7-0.8l-2.1-3.8C778.6,282.9,770,284.7,761.4,287.4z"/>
			
				<linearGradient id="SVGID_00000104685063655092483180000015783580648079292830_" gradientUnits="userSpaceOnUse" x1="702.0303" y1="482.5564" x2="743.7427" y2="526.2816" gradientTransform="matrix(1 0 0 1 0 -198)">
				<stop  offset="0" style="stop-color:#FFDD3A"/>
				<stop  offset="0.48" style="stop-color:#FDDB3A"/>
				<stop  offset="0.66" style="stop-color:#F7D43A"/>
				<stop  offset="0.79" style="stop-color:#EBC83B"/>
				<stop  offset="0.89" style="stop-color:#DBB73C"/>
				<stop  offset="0.98" style="stop-color:#C6A13D"/>
				<stop  offset="1" style="stop-color:#C19C3D"/>
			</linearGradient>
			<path style="fill:url(#SVGID_00000104685063655092483180000015783580648079292830_);" d="M718.2,296.5c-4.2-1-8.1-2.8-11.5-5.4
				l-1.2,2.1c3.3,2.7,7.2,4.7,11.4,5.9C717.2,298.2,717.6,297.3,718.2,296.5z"/>
			
				<linearGradient id="SVGID_00000124842931638760132130000016481217500573092002_" gradientUnits="userSpaceOnUse" x1="697.7927" y1="486.8779" x2="739.5167" y2="530.6147" gradientTransform="matrix(1 0 0 1 0 -198)">
				<stop  offset="0" style="stop-color:#FFDD3A"/>
				<stop  offset="0.48" style="stop-color:#FDDB3A"/>
				<stop  offset="0.66" style="stop-color:#F7D43A"/>
				<stop  offset="0.79" style="stop-color:#EBC83B"/>
				<stop  offset="0.89" style="stop-color:#DBB73C"/>
				<stop  offset="0.98" style="stop-color:#C6A13D"/>
				<stop  offset="1" style="stop-color:#C19C3D"/>
			</linearGradient>
			<path style="fill:url(#SVGID_00000124842931638760132130000016481217500573092002_);" d="M715.9,304.7c0-0.4,0-0.8,0.1-1.2
				c-4.5-1.4-8.7-3.8-12.2-7c-0.3,0.7-0.6,1.5-0.8,2.3c3.7,3.5,8.2,6.1,13,7.6C715.9,305.9,715.9,305.3,715.9,304.7z"/>
			
				<linearGradient id="SVGID_00000124842806066035208480000004368650836890858422_" gradientUnits="userSpaceOnUse" x1="694.3311" y1="490.5539" x2="735.8585" y2="534.0825" gradientTransform="matrix(1 0 0 1 0 -198)">
				<stop  offset="0" style="stop-color:#FFDD3A"/>
				<stop  offset="0.48" style="stop-color:#FDDB3A"/>
				<stop  offset="0.66" style="stop-color:#F7D43A"/>
				<stop  offset="0.79" style="stop-color:#EBC83B"/>
				<stop  offset="0.89" style="stop-color:#DBB73C"/>
				<stop  offset="0.98" style="stop-color:#C6A13D"/>
				<stop  offset="1" style="stop-color:#C19C3D"/>
			</linearGradient>
			<path style="fill:url(#SVGID_00000124842806066035208480000004368650836890858422_);" d="M702.9,303.8c0.8,5.1,5.2,9,10.4,9.1
				h4.7c-0.3-0.4-0.5-0.9-0.7-1.3C711.9,310.3,706.9,307.6,702.9,303.8z"/>
			<path class="st41" d="M757.9,284.2c1,1,2,1.9,3,2.8c0.2,0.1,0.4,0.3,0.6,0.4c8.6-2.8,17.2-4.5,25.5-2.4l-2.7-4.9
				C775.6,278.8,766.8,281.2,757.9,284.2z"/>
			<path class="st41" d="M721.9,292.4c-4.8-0.5-9.3-2.2-13.3-4.8l-1.9,3.5c3.4,2.6,7.3,4.4,11.5,5.4
				C719.1,294.9,720.4,293.5,721.9,292.4z"/>
			<path class="st41" d="M764.3,289.6c0.5,0.6,1,1.1,1.5,1.8c0.4,0.6,0.8,1.2,1.2,1.9c8.5-2.1,17-2.6,25.2,1.3l-3.1-5.8
				C780.9,286.1,772.6,287.2,764.3,289.6z"/>
			<path class="st41" d="M716.9,299.1c-4.2-1.2-8-3.2-11.4-5.9l-1.4,2.6c-0.2,0.3-0.3,0.5-0.4,0.8c3.5,3.2,7.7,5.6,12.2,6.9
				C716,302,716.4,300.5,716.9,299.1z"/>
			
				<linearGradient id="SVGID_00000055673489931929488990000009057306976650123417_" gradientUnits="userSpaceOnUse" x1="779.8674" y1="476.3438" x2="738.7681" y2="524.1176" gradientTransform="matrix(1 0 0 1 0 -198)">
				<stop  offset="0" style="stop-color:#0D943C"/>
				<stop  offset="1" style="stop-color:#036A41"/>
			</linearGradient>
			<path style="fill:url(#SVGID_00000055673489931929488990000009057306976650123417_);" d="M797.1,305.5
				c-9.3-6.9-18.8-7.2-28.6-5.1c0,6.1-3.5,11.8-9.1,13.6c-2.2,0.8-4.7,0.8-6.9,0.2c-1.4-0.4-2.8-1-4-1.9c-0.7-0.5-1.4-1.1-2.1-1.7
				c-0.8-0.6-1.5-1.4-2.1-2.3c-0.8-1.2-1.4-2.5-1.8-3.9c-0.3-0.8-0.5-1.6-0.6-2.3c0-0.2-0.1-0.3-0.1-0.5s-0.1-0.6-0.2-0.9l0,0
				c-0.3-1.1-0.7-2.1-1.2-3.1c-0.4-0.9-1-1.7-1.6-2.5c-1-1.3-2.2-2.4-3.6-3.3l-0.4-0.2h-0.1l-0.4-0.2l-0.4-0.3l-0.5-0.2l-0.4-0.2
				c-0.3-0.1-0.6-0.2-0.9-0.3h-0.2l-0.7-0.2l-0.3-0.1l-0.7-0.1H730c-0.3,0-0.7,0-1,0c-2.6,0-5.1,0.8-7.1,2.3c-1.5,1.1-2.7,2.5-3.7,4
				c-0.5,0.8-0.9,1.7-1.3,2.6c-0.5,1.4-0.8,2.9-0.9,4.4c0,0.4-0.1,0.8-0.1,1.2c0,0.6,0,1.2,0.1,1.8c0.2,1.8,0.7,3.5,1.4,5.1
				c0.2,0.4,0.4,0.9,0.7,1.3c0.8,1.4,1.8,2.6,3,3.6c2,1.7,4.4,2.7,7,2.9c0.3,0,0.6,0,0.9,0h0.6h56.5
				C793.3,319.4,798.2,312.4,797.1,305.5z"/>
			<path class="st41" d="M768,296.1c0.2,0.8,0.4,1.6,0.5,2.5c0.1,0.6,0.1,1.2,0.1,1.8c9.7-2.1,19.3-1.8,28.6,5.1
				c-0.2-1.4-0.7-2.8-1.4-4l-1.2-2.2C786,294,777,294,768,296.1z"/>
			<path class="st41" d="M716,306.5c-4.9-1.5-9.3-4.1-13-7.6c-0.3,1.6-0.3,3.3,0,4.9c4.1,3.8,9.1,6.5,14.5,7.8
				C716.7,310,716.2,308.3,716,306.5z"/>
			
				<linearGradient id="SVGID_00000090987786712309421840000011846729114286480043_" gradientUnits="userSpaceOnUse" x1="708.5615" y1="475.897" x2="768.6085" y2="475.897" gradientTransform="matrix(1 0 0 1 0 -198)">
				<stop  offset="0" style="stop-color:#FFDD3A"/>
				<stop  offset="0.48" style="stop-color:#FDDB3A"/>
				<stop  offset="0.66" style="stop-color:#F7D43A"/>
				<stop  offset="0.79" style="stop-color:#EBC83B"/>
				<stop  offset="0.89" style="stop-color:#DBB73C"/>
				<stop  offset="0.98" style="stop-color:#C6A13D"/>
				<stop  offset="1" style="stop-color:#C19C3D"/>
			</linearGradient>
			<path style="fill:url(#SVGID_00000090987786712309421840000011846729114286480043_);" d="M768.5,298.6c-0.1-0.8-0.3-1.7-0.5-2.5
				c0-0.1,0-0.2-0.1-0.2c-0.3-0.9-0.6-1.7-1-2.6c-0.3-0.7-0.7-1.3-1.2-1.9c-0.4-0.6-0.9-1.2-1.5-1.8c-0.9-0.8-1.8-1.6-2.9-2.2
				c-0.2-0.1-0.4-0.3-0.6-0.4c-1-0.9-2-1.8-3-2.8c-2-2-4-4-5.9-6.3l-0.2-0.2l-0.7-0.8c-0.7-0.8-1.4-1.6-2-2.4
				c-2.8-3.5-5.3-7.2-7.6-11.1c-2.2-3.7-4.1-7.7-5.6-11.8c-1.3-3.3-2-6.8-2.3-10.4l-25,46.3c4,2.7,8.5,4.3,13.3,4.8
				c2.1-1.5,4.6-2.3,7.1-2.3c0.3,0,0.7,0,1,0h0.3l0.7,0.1l0.3,0.1l0.7,0.2h0.2c0.3,0.1,0.6,0.2,0.9,0.3l0.4,0.2l0.5,0.2l0.4,0.2
				l0.4,0.2h0.1l0.4,0.2c1.4,0.9,2.6,2,3.6,3.3c0.6,0.8,1.1,1.6,1.6,2.5c0.5,1,0.9,2,1.2,3.1l0,0c0.1,0.3,0.1,0.6,0.2,0.9
				c0.1,0.3,0.1,0.3,0.1,0.5c0.2,0.6,0.4,1.4,0.6,2.3c0.4,1.4,1,2.7,1.8,4c0.6,0.9,1.3,1.7,2.1,2.3c0.6,0.7,1.3,1.2,2.1,1.7
				c1.2,0.9,2.6,1.5,4,1.9c2.3,0.6,4.7,0.5,6.9-0.2c5.6-1.9,9.2-7.5,9.2-13.6C768.6,299.8,768.6,299.2,768.5,298.6z"/>
		</g>
	</g>
</g>
</svg>
