<?xml version="1.0" encoding="utf-8"?>
<!-- Generator: Adobe Illustrator 26.0.0, SVG Export Plug-In . SVG Version: 6.00 Build 0)  -->
<svg version="1.1" id="Capa_1" xmlns="http://www.w3.org/2000/svg" xmlns:xlink="http://www.w3.org/1999/xlink" x="0px" y="0px"
	 viewBox="0 0 1500 800" style="enable-background:new 0 0 1500 800;" xml:space="preserve">
<style type="text/css">
	.st0{fill:#FFFFFF;}
	.st1{fill:url(#SVGID_1_);}
	.st2{fill:url(#SVGID_00000138556666559668655890000012728214685118385551_);}
	.st3{fill:url(#SVGID_00000026850760914593541130000009255609776201926078_);}
	.st4{fill:url(#SVGID_00000178926977736359854320000002842626690326945972_);}
	.st5{fill:url(#SVGID_00000108309427484510784430000015901176762461637789_);}
	.st6{fill:url(#SVGID_00000075161566803678157440000017164652716976959666_);}
	.st7{fill:url(#SVGID_00000163769623607627593330000007081585517772239294_);}
	.st8{fill:url(#SVGID_00000143608838870006748990000002538766202646526397_);}
	.st9{fill:url(#SVGID_00000173130242857384304320000013344235767431432073_);}
	.st10{fill:url(#SVGID_00000069385143565892958830000002947052099726893963_);}
	.st11{fill:url(#SVGID_00000089535830362942237980000013359185550247744898_);}
	.st12{fill:url(#SVGID_00000005987622291640275090000011390078866803283128_);}
	.st13{fill:url(#SVGID_00000150812591256863561080000018248606543702857871_);}
	.st14{fill:url(#SVGID_00000175302576294914405140000007230124656004523674_);}
	.st15{fill:url(#SVGID_00000183223930960885375780000006172613197914641289_);}
	.st16{fill:url(#SVGID_00000116222716415331252430000012368384361137286274_);}
	.st17{fill:url(#SVGID_00000111184621593438780710000010635835301161462448_);}
	.st18{fill:url(#SVGID_00000171700129276376650620000006920901322228168370_);}
	.st19{fill:url(#SVGID_00000163059488667383204100000007328375791556428677_);}
	.st20{fill:url(#SVGID_00000042706452044663847220000014342288542206892211_);}
	.st21{fill:url(#SVGID_00000129909401187937857750000003082729673709134478_);}
	.st22{fill:url(#SVGID_00000119091366578559103210000000632113666491518873_);}
	.st23{fill:url(#SVGID_00000170249884685736587660000017340286235943350719_);}
	.st24{fill:url(#SVGID_00000100367516998823670410000007916728785024202116_);}
	.st25{fill:url(#SVGID_00000118396351525212233740000012565189104132825517_);}
	.st26{fill:url(#SVGID_00000141440743800903249730000003625042466777405596_);}
	.st27{fill:url(#SVGID_00000108283339686920905670000003281018890506797221_);}
	.st28{fill:url(#SVGID_00000152963329783561267440000008025692541107477904_);}
	.st29{fill:url(#SVGID_00000048465589087576845170000003615088586640284586_);}
	.st30{fill:url(#SVGID_00000116957225737237610240000003495747773778306228_);}
	.st31{fill:url(#SVGID_00000103958760992588241600000002151974474049662863_);}
	.st32{fill:url(#SVGID_00000057139795825502752170000014078490320177769099_);}
	.st33{fill:url(#SVGID_00000106831847189077459000000010755398307846302362_);}
	.st34{fill:url(#SVGID_00000073708406685235017830000014766966333519191936_);}
	.st35{fill:url(#SVGID_00000098907220486258891170000004272778409388271494_);}
	.st36{fill:url(#SVGID_00000088101107689197943430000007371014460168699556_);}
	.st37{fill:url(#SVGID_00000083090303530523845940000016651982666755154059_);}
	.st38{fill:url(#SVGID_00000165228385707044542660000005015811177051268228_);}
	.st39{fill:url(#SVGID_00000110432066178775822970000002302584186554985134_);}
	.st40{fill:url(#SVGID_00000037682137021171804390000015503855723031092885_);}
	.st41{fill:url(#SVGID_00000122701216073678330650000004568867826085335971_);}
	.st42{fill:url(#SVGID_00000005950112894808305490000009745800887595685523_);}
</style>
<g>
	<rect x="0" class="st0" width="1500" height="800"/>
	<g>
		<g>
			
				<linearGradient id="SVGID_1_" gradientUnits="userSpaceOnUse" x1="574.3761" y1="662.9999" x2="653.8" y2="662.9999" gradientTransform="matrix(1 0 0 1 0 -198)">
				<stop  offset="0" style="stop-color:#0D943C"/>
				<stop  offset="1" style="stop-color:#036A41"/>
			</linearGradient>
			<path class="st1" d="M588,436.4c-15.8,12.8-18.2,36-5.4,51.8c1.6,2,3.4,3.8,5.4,5.4c9,7.9,20.7,12.2,32.7,11.9h33.1v-23.2h-33.1
				c-5.1,0.1-10.2-1.7-14-5.1c-6.8-5.5-7.8-15.4-2.3-22.2c0.7-0.8,1.4-1.6,2.3-2.3c3.9-3.4,8.9-5.2,14-5.1h33.1v-23.1h-33.1
				C608.7,424.2,597,428.5,588,436.4z"/>
			
				<linearGradient id="SVGID_00000167369006329323720210000009143009811469793183_" gradientUnits="userSpaceOnUse" x1="660.3944" y1="662.9" x2="753.1056" y2="662.9" gradientTransform="matrix(1 0 0 1 0 -198)">
				<stop  offset="0" style="stop-color:#0D943C"/>
				<stop  offset="1" style="stop-color:#036A41"/>
			</linearGradient>
			<path style="fill:url(#SVGID_00000167369006329323720210000009143009811469793183_);" d="M674,493.5c19,15.8,46.5,15.8,65.5,0
				c15.8-12.9,18.2-36.1,5.3-51.9c-1.6-2-3.4-3.7-5.3-5.3c-19-15.8-46.5-15.8-65.5,0c-15.8,12.9-18.2,36.1-5.3,51.9
				C670.3,490.1,672.1,491.9,674,493.5z M692.7,452.7c8.1-6.8,19.9-6.8,28.1,0c6.8,5.5,7.8,15.4,2.3,22.2c-0.7,0.9-1.5,1.6-2.3,2.3
				c-8.1,6.8-19.9,6.8-28.1,0c-6.8-5.5-7.8-15.4-2.3-22.2C691.1,454.1,691.9,453.4,692.7,452.7z"/>
			
				<linearGradient id="SVGID_00000134236193018489126460000005532044203797058749_" gradientUnits="userSpaceOnUse" x1="759.5944" y1="662.9" x2="839" y2="662.9" gradientTransform="matrix(1 0 0 1 0 -198)">
				<stop  offset="0" style="stop-color:#0D943C"/>
				<stop  offset="1" style="stop-color:#036A41"/>
			</linearGradient>
			<path style="fill:url(#SVGID_00000134236193018489126460000005532044203797058749_);" d="M773.2,493.5c9,7.9,20.7,12.2,32.7,11.9
				H839v-23.2h-33.1c-5.1,0.1-10.1-1.7-14-5.1c-6.8-5.5-7.8-15.4-2.3-22.2c0.7-0.9,1.5-1.6,2.3-2.3c3.9-3.4,8.9-5.2,14-5.1H839
				v-23.1h-33.1c-12-0.3-23.7,4-32.7,11.9c-15.8,12.9-18.2,36.1-5.3,51.9C769.5,490.2,771.3,491.9,773.2,493.5L773.2,493.5z"/>
			
				<linearGradient id="SVGID_00000181768120362436653830000007654535854167836036_" gradientUnits="userSpaceOnUse" x1="843.3" y1="662.9" x2="935.9" y2="662.9" gradientTransform="matrix(1 0 0 1 0 -198)">
				<stop  offset="0" style="stop-color:#0D943C"/>
				<stop  offset="1" style="stop-color:#036A41"/>
			</linearGradient>
			<path style="fill:url(#SVGID_00000181768120362436653830000007654535854167836036_);" d="M902.9,424.5l-59.6,80.8h33.1l6.2-8.5
				h26.8v8.5h26.5v-80.8H902.9z M891.8,484.4l17.7-24v24H891.8z"/>
			
				<linearGradient id="SVGID_00000162353167983689737800000012719360347773321361_" gradientUnits="userSpaceOnUse" x1="574.4597" y1="731.9482" x2="605.5597" y2="731.9482" gradientTransform="matrix(1 0 0 1 0 -198)">
				<stop  offset="0" style="stop-color:#0D943C"/>
				<stop  offset="1" style="stop-color:#036A41"/>
			</linearGradient>
			<path style="fill:url(#SVGID_00000162353167983689737800000012719360347773321361_);" d="M591.9,525.3c3.1,0,6.2,1.1,8.6,3.1
				l4.8-4.5c-3.7-3-8.5-4.6-13.3-4.3c-10.3,0-17.6,6.5-17.6,14.4l0,0c0,8,7.4,14.3,17.3,14.3c5.1,0.3,10.1-1.5,13.8-5l-4.8-4
				c-2.5,2.1-5.6,3.3-8.8,3.3c-5,0.4-9.4-3.4-9.8-8.5c0-0.1,0-0.2,0-0.3l0,0c0.3-5,4.6-8.9,9.6-8.6
				C591.8,525.3,591.9,525.3,591.9,525.3z"/>
			
				<linearGradient id="SVGID_00000064336317466141975460000006452822240885867944_" gradientUnits="userSpaceOnUse" x1="608.9459" y1="732.15" x2="644.746" y2="732.15" gradientTransform="matrix(1 0 0 1 0 -198)">
				<stop  offset="0" style="stop-color:#0D943C"/>
				<stop  offset="1" style="stop-color:#036A41"/>
			</linearGradient>
			<path style="fill:url(#SVGID_00000064336317466141975460000006452822240885867944_);" d="M644.7,534.1L644.7,534.1
				c0-7.9-7.5-14.3-17.9-14.3s-17.9,6.5-17.9,14.4l0,0c0,7.9,7.5,14.3,17.9,14.3S644.7,542,644.7,534.1z M616.7,534.1L616.7,534.1
				c0-4.8,4.1-8.7,10.1-8.7s10.2,4,10.2,8.8l0,0c0,4.8-4.1,8.7-10.1,8.7S616.7,538.9,616.7,534.1z"/>
			
				<linearGradient id="SVGID_00000173841669805551026510000000386400505867394749_" gradientUnits="userSpaceOnUse" x1="649.8193" y1="732.15" x2="685.6401" y2="732.15" gradientTransform="matrix(1 0 0 1 0 -198)">
				<stop  offset="0" style="stop-color:#0D943C"/>
				<stop  offset="1" style="stop-color:#036A41"/>
			</linearGradient>
			<path style="fill:url(#SVGID_00000173841669805551026510000000386400505867394749_);" d="M685.6,534.1L685.6,534.1
				c0-7.9-7.5-14.3-17.9-14.3s-18,6.5-18,14.4l0,0c0,7.9,7.5,14.3,17.9,14.3C678.1,548.5,685.6,542,685.6,534.1z M677.9,534.1
				c0,4.8-4.1,8.7-10.1,8.7s-10.2-3.9-10.2-8.7l0,0c0-4.8,4.1-8.7,10.1-8.7S677.9,529.4,677.9,534.1L677.9,534.1z"/>
			
				<linearGradient id="SVGID_00000123440278653961347150000017027714987336739254_" gradientUnits="userSpaceOnUse" x1="692.2" y1="732.1" x2="718.8452" y2="732.1" gradientTransform="matrix(1 0 0 1 0 -198)">
				<stop  offset="0" style="stop-color:#0D943C"/>
				<stop  offset="1" style="stop-color:#036A41"/>
			</linearGradient>
			<path style="fill:url(#SVGID_00000123440278653961347150000017027714987336739254_);" d="M718.9,529.8c0-5.7-4.8-9.7-12.9-9.7
				h-13.8v28h7.4v-8.4h5.6C712.8,539.7,718.9,536.3,718.9,529.8L718.9,529.8z M711.4,530c0,2.4-2.2,4.2-5.9,4.2h-5.9v-8.6h5.6
				C708.9,525.7,711.3,527.1,711.4,530L711.4,530z"/>
			
				<linearGradient id="SVGID_00000048476573158015202200000003712854484651953072_" gradientUnits="userSpaceOnUse" x1="724.3446" y1="732.1" x2="749.9887" y2="732.1" gradientTransform="matrix(1 0 0 1 0 -198)">
				<stop  offset="0" style="stop-color:#0D943C"/>
				<stop  offset="1" style="stop-color:#036A41"/>
			</linearGradient>
			<polygon style="fill:url(#SVGID_00000048476573158015202200000003712854484651953072_);" points="749.8,525.6 749.8,520.1 
				724.3,520.1 724.3,548.1 750,548.1 750,542.6 731.7,542.6 731.7,536.7 747.6,536.7 747.6,531.3 731.7,531.3 731.7,525.6 			"/>
			
				<linearGradient id="SVGID_00000078723466531160254110000004385708986895997062_" gradientUnits="userSpaceOnUse" x1="756.4999" y1="732.15" x2="785.7" y2="732.15" gradientTransform="matrix(1 0 0 1 0 -198)">
				<stop  offset="0" style="stop-color:#0D943C"/>
				<stop  offset="1" style="stop-color:#036A41"/>
			</linearGradient>
			<path style="fill:url(#SVGID_00000078723466531160254110000004385708986895997062_);" d="M785.7,548.1l-8.2-10
				c4.3-1.3,7.1-4.1,7.1-8.7l0,0c0-5.7-4.8-9.2-12.7-9.2h-15.4v27.9h7.4v-8.9h5.8l7.1,8.9H785.7z M771.4,533.8h-7.5v-8.1h7.4
				c3.6,0,5.8,1.4,5.8,4l0,0C777.2,532.1,775.1,533.7,771.4,533.8L771.4,533.8z"/>
			
				<linearGradient id="SVGID_00000128461744984049713810000014334565406725992590_" gradientUnits="userSpaceOnUse" x1="788.5" y1="732.05" x2="824.1" y2="732.05" gradientTransform="matrix(1 0 0 1 0 -198)">
				<stop  offset="0" style="stop-color:#0D943C"/>
				<stop  offset="1" style="stop-color:#036A41"/>
			</linearGradient>
			<path style="fill:url(#SVGID_00000128461744984049713810000014334565406725992590_);" d="M816.4,548.1h7.7L809.8,520h-6.9
				l-14.4,28.1h7.6l3.1-6.3h14.3L816.4,548.1z M801.7,536.4l4.5-9.1l4.5,9.1H801.7z"/>
			
				<linearGradient id="SVGID_00000003106169415766621940000004336944254390699660_" gradientUnits="userSpaceOnUse" x1="822.6" y1="732.1" x2="850.5" y2="732.1" gradientTransform="matrix(1 0 0 1 0 -198)">
				<stop  offset="0" style="stop-color:#0D943C"/>
				<stop  offset="1" style="stop-color:#036A41"/>
			</linearGradient>
			<polygon style="fill:url(#SVGID_00000003106169415766621940000004336944254390699660_);" points="822.6,525.8 832.9,525.8 
				832.9,548.1 840.3,548.1 840.3,525.8 850.5,525.8 850.5,520.1 822.6,520.1 			"/>
			
				<linearGradient id="SVGID_00000090282391367634622270000015849583490410030985_" gradientUnits="userSpaceOnUse" x1="856.5216" y1="732.1" x2="863.9337" y2="732.1" gradientTransform="matrix(1 0 0 1 0 -198)">
				<stop  offset="0" style="stop-color:#0D943C"/>
				<stop  offset="1" style="stop-color:#036A41"/>
			</linearGradient>
			
				<rect x="856.5" y="520.1" style="fill:url(#SVGID_00000090282391367634622270000015849583490410030985_);" width="7.4" height="28"/>
			
				<linearGradient id="SVGID_00000177470770920748123910000002893100831528531616_" gradientUnits="userSpaceOnUse" x1="869.4628" y1="732.2" x2="903.234" y2="732.2" gradientTransform="matrix(1 0 0 1 0 -198)">
				<stop  offset="0" style="stop-color:#0D943C"/>
				<stop  offset="1" style="stop-color:#036A41"/>
			</linearGradient>
			<polygon style="fill:url(#SVGID_00000177470770920748123910000002893100831528531616_);" points="903.2,520.1 895.2,520.1 
				886.5,539.8 877.6,520.1 869.5,520.1 883.1,548.3 889.6,548.3 			"/>
			
				<linearGradient id="SVGID_00000058555960783398942690000017100521052456260009_" gradientUnits="userSpaceOnUse" x1="900.8507" y1="731.95" x2="936.4332" y2="731.95" gradientTransform="matrix(1 0 0 1 0 -198)">
				<stop  offset="0" style="stop-color:#0D943C"/>
				<stop  offset="1" style="stop-color:#036A41"/>
			</linearGradient>
			<path style="fill:url(#SVGID_00000058555960783398942690000017100521052456260009_);" d="M915.2,519.9L900.9,548h7.6l3.1-6.3
				h14.3l3.1,6.3h7.6l-14.4-28.1H915.2z M914,536.4l4.5-9.1l4.5,9.1H914z"/>
			
				<linearGradient id="SVGID_00000043426755319951598730000002396517904319645067_" gradientUnits="userSpaceOnUse" x1="574.8" y1="764.25" x2="593.6756" y2="764.25" gradientTransform="matrix(1 0 0 1 0 -198)">
				<stop  offset="0" style="stop-color:#0D943C"/>
				<stop  offset="1" style="stop-color:#036A41"/>
			</linearGradient>
			<path style="fill:url(#SVGID_00000043426755319951598730000002396517904319645067_);" d="M582.8,557.9h-8v16.7h8
				c6.5,0,10.9-3.6,10.9-8.3l0,0C593.7,561.5,589.2,557.9,582.8,557.9z M589,566.2c0,3-2.4,5-6.2,5h-3.5v-10.1h3.5
				C586.5,561.2,589,563.2,589,566.2L589,566.2z"/>
			
				<linearGradient id="SVGID_00000140733665229221684410000013797101832421534124_" gradientUnits="userSpaceOnUse" x1="597.6729" y1="764.2" x2="613.2729" y2="764.2" gradientTransform="matrix(1 0 0 1 0 -198)">
				<stop  offset="0" style="stop-color:#0D943C"/>
				<stop  offset="1" style="stop-color:#036A41"/>
			</linearGradient>
			<polygon style="fill:url(#SVGID_00000140733665229221684410000013797101832421534124_);" points="602.2,567.8 611.8,567.8 
				611.8,564.5 602.2,564.5 602.2,561.1 613.1,561.1 613.1,557.9 597.7,557.9 597.7,574.5 613.3,574.5 613.3,571.3 602.2,571.3 			
				"/>
			
				<linearGradient id="SVGID_00000051357927173075053940000014846704438041735078_" gradientUnits="userSpaceOnUse" x1="624.2704" y1="764.05" x2="646.1729" y2="764.05" gradientTransform="matrix(1 0 0 1 0 -198)">
				<stop  offset="0" style="stop-color:#0D943C"/>
				<stop  offset="1" style="stop-color:#036A41"/>
			</linearGradient>
			<path style="fill:url(#SVGID_00000051357927173075053940000014846704438041735078_);" d="M633,557.7l-8.8,16.7h4.7l1.9-3.7h8.7
				l1.9,3.7h4.8l-8.8-16.7H633z M632.3,567.6l2.7-5.4l2.7,5.4H632.3z"/>
			
				<linearGradient id="SVGID_00000164501281301971719330000015811247959729838525_" gradientUnits="userSpaceOnUse" x1="649.1281" y1="764.2" x2="666.4547" y2="764.2" gradientTransform="matrix(1 0 0 1 0 -198)">
				<stop  offset="0" style="stop-color:#0D943C"/>
				<stop  offset="1" style="stop-color:#036A41"/>
			</linearGradient>
			<polygon style="fill:url(#SVGID_00000164501281301971719330000015811247959729838525_);" points="662,564.5 653.6,564.5 
				653.6,557.9 649.1,557.9 649.1,574.5 653.6,574.5 653.6,567.8 662,567.8 662,574.5 666.5,574.5 666.5,557.9 662,557.9 			"/>
			
				<linearGradient id="SVGID_00000039844554233351717470000018061832893835148683_" gradientUnits="userSpaceOnUse" x1="670.5" y1="764.2" x2="692.3" y2="764.2" gradientTransform="matrix(1 0 0 1 0 -198)">
				<stop  offset="0" style="stop-color:#0D943C"/>
				<stop  offset="1" style="stop-color:#036A41"/>
			</linearGradient>
			<path style="fill:url(#SVGID_00000039844554233351717470000018061832893835148683_);" d="M681.4,557.6c-6.3,0-10.9,3.9-10.9,8.6
				l0,0c0,4.8,4.6,8.6,10.9,8.6c6.3,0,10.9-3.9,10.9-8.6l0,0C692.2,561.4,687.7,557.6,681.4,557.6z M687.6,566.2
				c-0.2,3.1-2.9,5.4-5.9,5.2c-0.1,0-0.1,0-0.2,0c-3.1,0.3-5.9-2-6.2-5.1v-0.1l0,0c0.2-3.1,2.8-5.4,5.9-5.3c0.1,0,0.2,0,0.3,0
				c3.1-0.3,5.9,2,6.2,5.1C687.6,566.1,687.6,566.2,687.6,566.2L687.6,566.2z"/>
			
				<linearGradient id="SVGID_00000134218905296648298190000015603981547363859643_" gradientUnits="userSpaceOnUse" x1="696.2" y1="764.25" x2="713.9078" y2="764.25" gradientTransform="matrix(1 0 0 1 0 -198)">
				<stop  offset="0" style="stop-color:#0D943C"/>
				<stop  offset="1" style="stop-color:#036A41"/>
			</linearGradient>
			<path style="fill:url(#SVGID_00000134218905296648298190000015603981547363859643_);" d="M713.3,563.4L713.3,563.4
				c0-3.4-2.9-5.5-7.7-5.5h-9.4v16.7h4.5v-5.4h3.6l4.4,5.3h5.3l-5-5.9C711.4,568.1,713.2,566,713.3,563.4z M708.7,563.6
				c0,1.4-1.3,2.4-3.5,2.4h-4.6v-4.8h4.6C707.4,561.2,708.8,562,708.7,563.6L708.7,563.6z"/>
			
				<linearGradient id="SVGID_00000147913888877912401060000000165369491956834202_" gradientUnits="userSpaceOnUse" x1="717.3377" y1="764.25" x2="735.117" y2="764.25" gradientTransform="matrix(1 0 0 1 0 -198)">
				<stop  offset="0" style="stop-color:#0D943C"/>
				<stop  offset="1" style="stop-color:#036A41"/>
			</linearGradient>
			<path style="fill:url(#SVGID_00000147913888877912401060000000165369491956834202_);" d="M734.4,563.4L734.4,563.4
				c0-3.4-2.9-5.5-7.7-5.5h-9.4v16.7h4.6v-5.4h3.5l4.4,5.3h5.3l-5-5.9C732.6,568.1,734.4,565.9,734.4,563.4z M729.9,563.6
				c0,1.4-1.3,2.4-3.5,2.4h-4.5v-4.8h4.5C728.6,561.2,729.9,562,729.9,563.6L729.9,563.6z"/>
			
				<linearGradient id="SVGID_00000183929729083505444870000009540286752994880906_" gradientUnits="userSpaceOnUse" x1="737.6" y1="764.2" x2="759.3594" y2="764.2" gradientTransform="matrix(1 0 0 1 0 -198)">
				<stop  offset="0" style="stop-color:#0D943C"/>
				<stop  offset="1" style="stop-color:#036A41"/>
			</linearGradient>
			<path style="fill:url(#SVGID_00000183929729083505444870000009540286752994880906_);" d="M748.5,557.6c-6.3,0-10.9,3.9-10.9,8.6
				l0,0c0,4.8,4.5,8.6,10.8,8.6s10.9-3.9,10.9-8.6l0,0C759.4,561.4,754.8,557.6,748.5,557.6z M754.6,566.2c-0.2,3.1-2.9,5.4-5.9,5.2
				c-0.1,0-0.1,0-0.2,0c-3.1,0.3-5.9-2-6.2-5.1v-0.1l0,0c0.2-3.1,2.9-5.4,6-5.2c0.1,0,0.1,0,0.2,0
				C751.6,560.7,754.4,563,754.6,566.2L754.6,566.2z"/>
			
				<linearGradient id="SVGID_00000104688892596188401790000005713398029409613245_" gradientUnits="userSpaceOnUse" x1="770" y1="764.2" x2="790.258" y2="764.2" gradientTransform="matrix(1 0 0 1 0 -198)">
				<stop  offset="0" style="stop-color:#0D943C"/>
				<stop  offset="1" style="stop-color:#036A41"/>
			</linearGradient>
			<polygon style="fill:url(#SVGID_00000104688892596188401790000005713398029409613245_);" points="780.2,564.6 775.3,557.9 
				770,557.9 777.9,568 777.9,574.5 782.4,574.5 782.4,567.9 790.3,557.9 785.1,557.9 			"/>
			
				<linearGradient id="SVGID_00000112606166726646582470000006990263098822007458_" gradientUnits="userSpaceOnUse" x1="800.9195" y1="764.2079" x2="819.8195" y2="764.2079" gradientTransform="matrix(1 0 0 1 0 -198)">
				<stop  offset="0" style="stop-color:#0D943C"/>
				<stop  offset="1" style="stop-color:#036A41"/>
			</linearGradient>
			<path style="fill:url(#SVGID_00000112606166726646582470000006990263098822007458_);" d="M811.6,571.4c-3,0.3-5.7-2-5.9-5
				c0-0.1,0-0.1,0-0.2l0,0c0.2-3,2.8-5.4,5.8-5.2h0.1c1.9,0,3.8,0.7,5.2,1.9l2.9-2.7c-2.3-1.8-5.2-2.7-8.1-2.6
				c-6.3,0-10.7,3.9-10.7,8.6l0,0c0,4.8,4.5,8.6,10.5,8.6c3.1,0.2,6.1-0.9,8.4-3l-2.9-2.4C815.5,570.7,813.5,571.4,811.6,571.4z"/>
			
				<linearGradient id="SVGID_00000107563424272464651890000008194022855775884930_" gradientUnits="userSpaceOnUse" x1="823.4" y1="764.25" x2="841.1077" y2="764.25" gradientTransform="matrix(1 0 0 1 0 -198)">
				<stop  offset="0" style="stop-color:#0D943C"/>
				<stop  offset="1" style="stop-color:#036A41"/>
			</linearGradient>
			<path style="fill:url(#SVGID_00000107563424272464651890000008194022855775884930_);" d="M840.5,563.4L840.5,563.4
				c0-3.4-2.9-5.5-7.7-5.5h-9.4v16.7h4.5v-5.4h3.6l4.4,5.3h5.1l-5-5.9C838.6,568.1,840.4,566,840.5,563.4z M835.9,563.6
				c0,1.4-1.3,2.4-3.5,2.4h-4.6v-4.8h4.5C834.6,561.2,835.9,562,835.9,563.6z"/>
			
				<linearGradient id="SVGID_00000078753769828115006380000016255850939871860126_" gradientUnits="userSpaceOnUse" x1="849.8246" y1="752.4" x2="856.9506" y2="752.4" gradientTransform="matrix(1 0 0 1 0 -198)">
				<stop  offset="0" style="stop-color:#0D943C"/>
				<stop  offset="1" style="stop-color:#036A41"/>
			</linearGradient>
			<polygon style="fill:url(#SVGID_00000078753769828115006380000016255850939871860126_);" points="853.2,556.5 857,553.7 
				853.1,552.3 849.8,556.5 			"/>
			
				<linearGradient id="SVGID_00000068636054716024279170000001704152521839843996_" gradientUnits="userSpaceOnUse" x1="844.5338" y1="764.2" x2="860.1338" y2="764.2" gradientTransform="matrix(1 0 0 1 0 -198)">
				<stop  offset="0" style="stop-color:#0D943C"/>
				<stop  offset="1" style="stop-color:#036A41"/>
			</linearGradient>
			<polygon style="fill:url(#SVGID_00000068636054716024279170000001704152521839843996_);" points="849,567.8 858.7,567.8 
				858.7,564.5 849,564.5 849,561.1 860,561.1 860,557.9 844.5,557.9 844.5,574.5 860.1,574.5 860.1,571.3 849,571.3 			"/>
			
				<linearGradient id="SVGID_00000171720104349882355290000001722070816854919599_" gradientUnits="userSpaceOnUse" x1="864.1" y1="764.25" x2="882.9522" y2="764.25" gradientTransform="matrix(1 0 0 1 0 -198)">
				<stop  offset="0" style="stop-color:#0D943C"/>
				<stop  offset="1" style="stop-color:#036A41"/>
			</linearGradient>
			<path style="fill:url(#SVGID_00000171720104349882355290000001722070816854919599_);" d="M872.1,557.9h-8v16.7h8
				c6.4,0,10.9-3.6,10.9-8.3l0,0C883,561.5,878.6,557.9,872.1,557.9z M878.3,566.2c0,3-2.5,5-6.2,5h-3.5v-10.1h3.5
				C875.8,561.2,878.3,563.2,878.3,566.2L878.3,566.2z"/>
			
				<linearGradient id="SVGID_00000133524634287492771890000013933506964426060715_" gradientUnits="userSpaceOnUse" x1="887.2184" y1="764.25" x2="891.7184" y2="764.25" gradientTransform="matrix(1 0 0 1 0 -198)">
				<stop  offset="0" style="stop-color:#0D943C"/>
				<stop  offset="1" style="stop-color:#036A41"/>
			</linearGradient>
			
				<rect x="887.2" y="557.9" style="fill:url(#SVGID_00000133524634287492771890000013933506964426060715_);" width="4.5" height="16.7"/>
			
				<linearGradient id="SVGID_00000138542859757164684620000002853239127943374466_" gradientUnits="userSpaceOnUse" x1="895.3692" y1="764.2" x2="912.3382" y2="764.2" gradientTransform="matrix(1 0 0 1 0 -198)">
				<stop  offset="0" style="stop-color:#0D943C"/>
				<stop  offset="1" style="stop-color:#036A41"/>
			</linearGradient>
			<polygon style="fill:url(#SVGID_00000138542859757164684620000002853239127943374466_);" points="895.4,561.2 901.6,561.2 
				901.6,574.5 906.1,574.5 906.1,561.2 912.3,561.2 912.3,557.9 895.4,557.9 			"/>
			
				<linearGradient id="SVGID_00000044891658118162549060000011209626592755353010_" gradientUnits="userSpaceOnUse" x1="914" y1="764.2" x2="935.8" y2="764.2" gradientTransform="matrix(1 0 0 1 0 -198)">
				<stop  offset="0" style="stop-color:#0D943C"/>
				<stop  offset="1" style="stop-color:#036A41"/>
			</linearGradient>
			<path style="fill:url(#SVGID_00000044891658118162549060000011209626592755353010_);" d="M924.9,557.6c-6.3,0-10.9,3.9-10.9,8.6
				l0,0c0,4.8,4.6,8.6,10.9,8.6c6.3,0,10.9-3.9,10.9-8.6l0,0C935.8,561.4,931.2,557.6,924.9,557.6z M931,566.2
				c-0.2,3.1-2.9,5.4-5.9,5.2c-0.1,0-0.1,0-0.2,0c-3.1,0.3-5.9-2-6.2-5.1v-0.1l0,0c0.2-3.1,2.9-5.4,6-5.2c0.1,0,0.1,0,0.2,0
				C928,560.7,930.8,563,931,566.2L931,566.2z"/>
		</g>
		<g>
			
				<linearGradient id="SVGID_00000038406896852359827310000009583282940463925914_" gradientUnits="userSpaceOnUse" x1="763.0258" y1="382.2789" x2="743.4651" y2="352.3306" gradientTransform="matrix(1 0 0 -1 0 604)">
				<stop  offset="0" style="stop-color:#FFDD3A"/>
				<stop  offset="0.48" style="stop-color:#FDDB3A"/>
				<stop  offset="0.66" style="stop-color:#F7D43A"/>
				<stop  offset="0.79" style="stop-color:#EBC83B"/>
				<stop  offset="0.89" style="stop-color:#DBB73C"/>
				<stop  offset="0.98" style="stop-color:#C6A13D"/>
				<stop  offset="1" style="stop-color:#C19C3D"/>
			</linearGradient>
			<path style="fill:url(#SVGID_00000038406896852359827310000009583282940463925914_);" d="M746.1,242.7l3.2-5.9
				c2.3-4.7,8.1-6.7,12.8-4.3c1.6,0.8,2.9,2,3.9,3.5l-0.9-1.6l-1.9-3.5c-2.5-5.1-8.7-7.2-13.8-4.6c-1.3,0.7-2.5,1.6-3.4,2.8
				c-0.5,0.6-0.9,1.2-1.3,1.9l-5.6,10.3c0.3,3.6,1.1,7.1,2.3,10.4l3.2-6L746.1,242.7z"/>
			
				<linearGradient id="SVGID_00000002370201561081229880000000750258536137557922_" gradientUnits="userSpaceOnUse" x1="744.9747" y1="371.4972" x2="771.1982" y2="331.9017" gradientTransform="matrix(1 0 0 -1 0 604)">
				<stop  offset="0" style="stop-color:#0D943C"/>
				<stop  offset="1" style="stop-color:#036A41"/>
			</linearGradient>
			<path style="fill:url(#SVGID_00000002370201561081229880000000750258536137557922_);" d="M766.5,237l-0.1-0.1
				c-0.2-0.3-0.3-0.6-0.5-0.9c-2.8-4.4-8.7-5.8-13.2-2.9c-1.5,0.9-2.6,2.2-3.4,3.8l-3.2,5.9l-1.5,2.8l-3.2,6
				c1.5,4.1,3.4,8.1,5.6,11.8c2.3,3.9,4.8,7.6,7.6,11.1l0,0l1.9,2.4c2-2.3,3.9-4.8,5.6-7.1c5.6-7.9,9.1-15.8,10.1-22.1v-0.2l0,0
				L766.5,237z"/>
			
				<linearGradient id="SVGID_00000170970186708672837400000011701158215496547770_" gradientUnits="userSpaceOnUse" x1="771.868" y1="326.0101" x2="741.9194" y2="278.0974" gradientTransform="matrix(1 0 0 -1 0 604)">
				<stop  offset="0" style="stop-color:#0D943C"/>
				<stop  offset="1" style="stop-color:#036A41"/>
			</linearGradient>
			<path style="fill:url(#SVGID_00000170970186708672837400000011701158215496547770_);" d="M757.3,277.9c1.9,2.3,3.9,4.3,5.9,6.3
				c8.9-3.1,17.7-5.5,26.4-4.2l-16.4-30.4l-1.2-2.2c-0.9,6.4-4.5,14.3-10.1,22.3c-1.7,2.4-3.5,4.8-5.6,7.1l0.7,0.8L757.3,277.9z"/>
			
				<linearGradient id="SVGID_00000039839858308623375560000006004566944637257101_" gradientUnits="userSpaceOnUse" x1="789.7513" y1="313.5129" x2="761.3068" y2="267.9948" gradientTransform="matrix(1 0 0 -1 0 604)">
				<stop  offset="0" style="stop-color:#0D943C"/>
				<stop  offset="1" style="stop-color:#036A41"/>
			</linearGradient>
			<path style="fill:url(#SVGID_00000039839858308623375560000006004566944637257101_);" d="M772.3,293.3c0.4,0.8,0.8,1.7,1,2.6
				c0,0.1,0,0.2,0.1,0.2c9-2.1,18-2.1,26.6,3.1l-2.5-4.6C789.3,290.7,780.8,291.2,772.3,293.3z"/>
			
				<linearGradient id="SVGID_00000091001212331723838610000014899173245634939311_" gradientUnits="userSpaceOnUse" x1="782.3318" y1="318.6706" x2="753.5981" y2="272.7013" gradientTransform="matrix(1 0 0 -1 0 604)">
				<stop  offset="0" style="stop-color:#0D943C"/>
				<stop  offset="1" style="stop-color:#036A41"/>
			</linearGradient>
			<path style="fill:url(#SVGID_00000091001212331723838610000014899173245634939311_);" d="M766.8,287.4c1,0.6,2,1.3,2.9,2.2
				c8.4-2.4,16.6-3.5,24.7-0.8l-2.1-3.8C784,282.9,775.4,284.7,766.8,287.4z"/>
			
				<linearGradient id="SVGID_00000094620570862932318530000012135932267962023332_" gradientUnits="userSpaceOnUse" x1="707.4303" y1="319.4436" x2="749.1427" y2="275.7184" gradientTransform="matrix(1 0 0 -1 0 604)">
				<stop  offset="0" style="stop-color:#FFDD3A"/>
				<stop  offset="0.48" style="stop-color:#FDDB3A"/>
				<stop  offset="0.66" style="stop-color:#F7D43A"/>
				<stop  offset="0.79" style="stop-color:#EBC83B"/>
				<stop  offset="0.89" style="stop-color:#DBB73C"/>
				<stop  offset="0.98" style="stop-color:#C6A13D"/>
				<stop  offset="1" style="stop-color:#C19C3D"/>
			</linearGradient>
			<path style="fill:url(#SVGID_00000094620570862932318530000012135932267962023332_);" d="M723.6,296.5c-4.2-1-8.1-2.8-11.5-5.4
				l-1.2,2.1c3.3,2.7,7.2,4.7,11.4,5.9C722.6,298.2,723,297.3,723.6,296.5z"/>
			
				<linearGradient id="SVGID_00000076602650785092133910000016834808678898371502_" gradientUnits="userSpaceOnUse" x1="703.1927" y1="315.1221" x2="744.9167" y2="271.3853" gradientTransform="matrix(1 0 0 -1 0 604)">
				<stop  offset="0" style="stop-color:#FFDD3A"/>
				<stop  offset="0.48" style="stop-color:#FDDB3A"/>
				<stop  offset="0.66" style="stop-color:#F7D43A"/>
				<stop  offset="0.79" style="stop-color:#EBC83B"/>
				<stop  offset="0.89" style="stop-color:#DBB73C"/>
				<stop  offset="0.98" style="stop-color:#C6A13D"/>
				<stop  offset="1" style="stop-color:#C19C3D"/>
			</linearGradient>
			<path style="fill:url(#SVGID_00000076602650785092133910000016834808678898371502_);" d="M721.3,304.7c0-0.4,0-0.8,0.1-1.2
				c-4.5-1.4-8.7-3.8-12.2-7c-0.3,0.7-0.6,1.5-0.8,2.3c3.7,3.5,8.2,6.1,13,7.6C721.3,305.9,721.3,305.3,721.3,304.7z"/>
			
				<linearGradient id="SVGID_00000064355516160958937100000002533154798998503586_" gradientUnits="userSpaceOnUse" x1="699.7311" y1="311.4461" x2="741.2585" y2="267.9175" gradientTransform="matrix(1 0 0 -1 0 604)">
				<stop  offset="0" style="stop-color:#FFDD3A"/>
				<stop  offset="0.48" style="stop-color:#FDDB3A"/>
				<stop  offset="0.66" style="stop-color:#F7D43A"/>
				<stop  offset="0.79" style="stop-color:#EBC83B"/>
				<stop  offset="0.89" style="stop-color:#DBB73C"/>
				<stop  offset="0.98" style="stop-color:#C6A13D"/>
				<stop  offset="1" style="stop-color:#C19C3D"/>
			</linearGradient>
			<path style="fill:url(#SVGID_00000064355516160958937100000002533154798998503586_);" d="M708.3,303.8c0.8,5.1,5.2,9,10.4,9.1
				h4.7c-0.3-0.4-0.5-0.9-0.7-1.3C717.3,310.3,712.3,307.6,708.3,303.8z"/>
			<path class="st0" d="M763.3,284.2c1,1,2,1.9,3,2.8c0.2,0.1,0.4,0.3,0.6,0.4c8.6-2.8,17.2-4.5,25.5-2.4l-2.7-4.9
				C781,278.8,772.2,281.2,763.3,284.2z"/>
			<path class="st0" d="M727.3,292.4c-4.8-0.5-9.3-2.2-13.3-4.8l-1.9,3.5c3.4,2.6,7.3,4.4,11.5,5.4
				C724.5,294.9,725.8,293.5,727.3,292.4z"/>
			<path class="st0" d="M769.7,289.6c0.5,0.6,1,1.1,1.5,1.8c0.4,0.6,0.8,1.2,1.2,1.9c8.5-2.1,17-2.6,25.2,1.3l-3.1-5.8
				C786.3,286.1,778,287.2,769.7,289.6z"/>
			<path class="st0" d="M722.3,299.1c-4.2-1.2-8-3.2-11.4-5.9l-1.4,2.6c-0.2,0.3-0.3,0.5-0.4,0.8c3.5,3.2,7.7,5.6,12.2,6.9
				C721.4,302,721.8,300.5,722.3,299.1z"/>
			
				<linearGradient id="SVGID_00000104702704368047502240000017583245420608569010_" gradientUnits="userSpaceOnUse" x1="785.2674" y1="325.6562" x2="744.1682" y2="277.8824" gradientTransform="matrix(1 0 0 -1 0 604)">
				<stop  offset="0" style="stop-color:#0D943C"/>
				<stop  offset="1" style="stop-color:#036A41"/>
			</linearGradient>
			<path style="fill:url(#SVGID_00000104702704368047502240000017583245420608569010_);" d="M802.5,305.5
				c-9.3-6.9-18.8-7.2-28.6-5.1c0,6.1-3.5,11.8-9.1,13.6c-2.2,0.8-4.7,0.8-6.9,0.2c-1.4-0.4-2.8-1-4-1.9c-0.7-0.5-1.4-1.1-2.1-1.7
				c-0.8-0.6-1.5-1.4-2.1-2.3c-0.8-1.2-1.4-2.5-1.8-3.9c-0.3-0.8-0.5-1.6-0.6-2.3c0-0.2-0.1-0.3-0.1-0.5s-0.1-0.6-0.2-0.9l0,0
				c-0.3-1.1-0.7-2.1-1.2-3.1c-0.4-0.9-1-1.7-1.6-2.5c-1-1.3-2.2-2.4-3.6-3.3l-0.4-0.2h-0.1l-0.4-0.2l-0.4-0.3l-0.5-0.2l-0.4-0.2
				c-0.3-0.1-0.6-0.2-0.9-0.3h-0.2l-0.7-0.2l-0.3-0.1l-0.7-0.1h-0.2c-0.3,0-0.7,0-1,0c-2.6,0-5.1,0.8-7.1,2.3
				c-1.5,1.1-2.7,2.5-3.7,4c-0.5,0.8-0.9,1.7-1.3,2.6c-0.5,1.4-0.8,2.9-0.9,4.4c0,0.4-0.1,0.8-0.1,1.2c0,0.6,0,1.2,0.1,1.8
				c0.2,1.8,0.7,3.5,1.4,5.1c0.2,0.4,0.4,0.9,0.7,1.3c0.8,1.4,1.8,2.6,3,3.6c2,1.7,4.4,2.7,7,2.9c0.3,0,0.6,0,0.9,0h0.6h56.5
				C798.7,319.4,803.6,312.4,802.5,305.5z"/>
			<path class="st0" d="M773.4,296.1c0.2,0.8,0.4,1.6,0.5,2.5c0.1,0.6,0.1,1.2,0.1,1.8c9.7-2.1,19.3-1.8,28.6,5.1
				c-0.2-1.4-0.7-2.8-1.4-4l-1.2-2.2C791.4,294,782.4,294,773.4,296.1z"/>
			<path class="st0" d="M721.4,306.5c-4.9-1.5-9.3-4.1-13-7.6c-0.3,1.6-0.3,3.3,0,4.9c4.1,3.8,9.1,6.5,14.5,7.8
				C722.1,310,721.6,308.3,721.4,306.5z"/>
			
				<linearGradient id="SVGID_00000121971546139108153470000012569722771310069383_" gradientUnits="userSpaceOnUse" x1="713.9615" y1="326.103" x2="774.0085" y2="326.103" gradientTransform="matrix(1 0 0 -1 0 604)">
				<stop  offset="0" style="stop-color:#FFDD3A"/>
				<stop  offset="0.48" style="stop-color:#FDDB3A"/>
				<stop  offset="0.66" style="stop-color:#F7D43A"/>
				<stop  offset="0.79" style="stop-color:#EBC83B"/>
				<stop  offset="0.89" style="stop-color:#DBB73C"/>
				<stop  offset="0.98" style="stop-color:#C6A13D"/>
				<stop  offset="1" style="stop-color:#C19C3D"/>
			</linearGradient>
			<path style="fill:url(#SVGID_00000121971546139108153470000012569722771310069383_);" d="M773.9,298.6c-0.1-0.8-0.3-1.7-0.5-2.5
				c0-0.1,0-0.2-0.1-0.2c-0.3-0.9-0.6-1.7-1-2.6c-0.3-0.7-0.7-1.3-1.2-1.9c-0.4-0.6-0.9-1.2-1.5-1.8c-0.9-0.8-1.8-1.6-2.9-2.2
				c-0.2-0.1-0.4-0.3-0.6-0.4c-1-0.9-2-1.8-3-2.8c-2-2-4-4-5.9-6.3l-0.2-0.2l-0.7-0.8c-0.7-0.8-1.4-1.6-2-2.4
				c-2.8-3.5-5.3-7.2-7.6-11.1c-2.2-3.7-4.1-7.7-5.6-11.8c-1.3-3.3-2-6.8-2.3-10.4l-25,46.3c4,2.7,8.5,4.3,13.3,4.8
				c2.1-1.5,4.6-2.3,7.1-2.3c0.3,0,0.7,0,1,0h0.3l0.7,0.1l0.3,0.1l0.7,0.2h0.2c0.3,0.1,0.6,0.2,0.9,0.3l0.4,0.2l0.5,0.2l0.4,0.2
				l0.4,0.2h0.1l0.4,0.2c1.4,0.9,2.6,2,3.6,3.3c0.6,0.8,1.1,1.6,1.6,2.5c0.5,1,0.9,2,1.2,3.1l0,0c0.1,0.3,0.1,0.6,0.2,0.9
				c0.1,0.3,0.1,0.3,0.1,0.5c0.2,0.6,0.4,1.4,0.6,2.3c0.4,1.4,1,2.7,1.8,4c0.6,0.9,1.3,1.7,2.1,2.3c0.6,0.7,1.3,1.2,2.1,1.7
				c1.2,0.9,2.6,1.5,4,1.9c2.3,0.6,4.7,0.5,6.9-0.2c5.6-1.9,9.2-7.5,9.2-13.6C774,299.8,774,299.2,773.9,298.6z"/>
		</g>
	</g>
</g>
</svg>
