<?xml version="1.0" encoding="utf-8"?>
<!-- Generator: Adobe Illustrator 26.0.0, SVG Export Plug-In . SVG Version: 6.00 Build 0)  -->
<svg version="1.1" id="Capa_1" xmlns="http://www.w3.org/2000/svg" xmlns:xlink="http://www.w3.org/1999/xlink" x="0px" y="0px"
	 viewBox="0 0 599.4 599.9" style="enable-background:new 0 0 599.4 599.9;" xml:space="preserve">
<style type="text/css">
	.st0{fill:#E7E7E7;}
	.st1{fill:#ECECEC;}
	.st2{opacity:0.2;fill:#F5F5F5;enable-background:new    ;}
	.st3{fill:#007CFF;}
	.st4{fill:#FFFFFF;stroke:#EFCC3B;stroke-miterlimit:10;}
	.st5{fill:url(#SVGID_1_);}
	.st6{fill:url(#SVGID_00000183247490563287075380000000920754526530003901_);}
	.st7{fill:url(#SVGID_00000137133538782581257180000015798157025562639797_);}
	.st8{fill:url(#SVGID_00000004528217968412364400000017040448880419509890_);}
	.st9{fill:url(#SVGID_00000159444297253606979050000000853787168780284549_);}
	.st10{opacity:0.2;fill:#00115D;enable-background:new    ;}
	.st11{fill:#06773F;}
	.st12{fill:#1A2E35;}
	.st13{fill:#00115D;}
	.st14{fill:url(#SVGID_00000137114883732358042340000005081803417015355017_);}
	.st15{fill:url(#SVGID_00000042702389204490638840000015547787267616160923_);}
	.st16{opacity:0.1;enable-background:new    ;}
	.st17{opacity:0.2;enable-background:new    ;}
	.st18{fill:#FFFFFF;}
	.st19{clip-path:url(#SVGID_00000109737351502694350100000008644678150095247264_);}
	.st20{fill:url(#SVGID_00000124149637584553428160000003564616791353902234_);}
	.st21{fill:url(#SVGID_00000072270813040726406390000009121945626265533586_);}
	.st22{fill:url(#SVGID_00000152252843334081159620000009837172150641618064_);}
	.st23{fill:url(#SVGID_00000180360429304509514370000005761996508223621015_);}
	.st24{fill:url(#SVGID_00000065771306591937921720000000123660067913866377_);}
	.st25{fill:url(#SVGID_00000100382177105776965260000012414487900997809837_);}
	.st26{fill:url(#SVGID_00000109727148714800757710000017391913458293042105_);}
	.st27{fill:url(#SVGID_00000148651567528434775690000008367262044744828060_);}
	.st28{fill:url(#SVGID_00000167382994640159419670000009652503866300935822_);}
	.st29{clip-path:url(#SVGID_00000054981145124425212720000015753096965106142616_);}
	.st30{opacity:0.3;fill:#FFFFFF;enable-background:new    ;}
	.st31{clip-path:url(#SVGID_00000036222621556967029780000013863755893216394641_);}
	.st32{fill:url(#SVGID_00000132771813601146691770000004862443945007458954_);}
	.st33{fill:url(#SVGID_00000134250634447317229650000010296403216600840119_);}
	.st34{fill:url(#SVGID_00000098899806497333104310000005811185875054737546_);}
	.st35{fill:url(#SVGID_00000079477423662443478410000010347709940534129332_);}
	.st36{opacity:0.1;fill:#FFFFFF;enable-background:new    ;}
	.st37{fill:url(#SVGID_00000062189173286801609800000009537517231119656320_);}
	.st38{fill:url(#SVGID_00000179605025851450492200000004880314457045712278_);}
	.st39{fill:url(#SVGID_00000147904964586608077970000009549613135216274571_);}
	.st40{fill:url(#SVGID_00000075876890586236448420000004588215387013116338_);}
	.st41{fill:url(#SVGID_00000173858669173878923010000002615304792228248504_);}
	.st42{fill:#09853E;}
	.st43{fill:url(#SVGID_00000115476198000169102920000001786508849747214731_);}
	.st44{fill:url(#SVGID_00000088116571863911784470000016421344223714136707_);}
	.st45{fill:url(#SVGID_00000143593187170288745500000007963928430326737827_);}
	.st46{fill:url(#SVGID_00000119811091794326928280000011139221681652407684_);}
	.st47{fill:#81B79F;}
	.st48{fill:url(#SVGID_00000070834357415861508320000009872977074216749221_);}
	.st49{fill:url(#SVGID_00000178163462388254737800000017954179943846027653_);}
</style>
<g id="Capa_2_00000152982291488494108680000003752002989124252808_">
	<g id="Capa_1-2">
		<path class="st0" d="M72.4,160.4c0,0,6.6-7,15.9-7.4c6.5-6,18.6-5,21.3-1c9.6-6.4,20.2-8.4,29.6,3.6
			c-1.3-13.2-15.8-40.6-60.6-17.7c-4-3.7-5.3-4.9-5.3-4.9s-1.8-5.3-3-5.5s0,5.8,0,5.8c-2.3-0.5-4.8,0-6.7,1.4c0,0-1.3-6-2.3-5.3
			s-0.5,6.3-0.5,6.3s-0.7,1.6-2.9,6.6C7.5,139.1,5.2,170,9.2,182.6c3.9-14.7,14.4-17.1,25.7-15.1c0.8-4.7,11.5-10.5,19.9-7.6
			C63.6,156.5,72.4,160.4,72.4,160.4z"/>
		<path class="st0" d="M138.6,88.3c0,0,6-2.6,11.9-0.3c5.7-2,12.9,1.9,13.5,5.1c7.7-1.4,14.8,0.2,17.5,10.2
			c2.7-8.5,1.1-29.5-33-27.2c-1.5-3.4-2-4.5-2-4.5s0.3-3.8-0.4-4.2s-1.6,3.6-1.6,3.6c-1.3-0.9-3-1.3-4.6-0.9c0,0,0.8-4.1,0-3.9
			s-2,3.8-2,3.8s-0.9,0.8-3.6,3.3c-30.4-15.4-40.2,3.2-41,12.1c6.4-8.1,13.6-6.8,20-2.5c1.8-2.7,10-3.4,14.4,0.7
			C134.1,83.6,138.6,88.3,138.6,88.3z"/>
		<path class="st0" d="M547.6,194.2c0,0,6-2.6,11.9-0.3c5.7-2,12.9,1.9,13.5,5.1c7.7-1.4,14.8,0.2,17.5,10.1
			c2.7-8.5,1.1-29.5-33-27.2c-1.5-3.4-2-4.5-2-4.5s0.3-3.8-0.4-4.2s-1.6,3.6-1.6,3.6c-1.3-0.9-3-1.3-4.5-0.9c0,0,0.8-4.1,0-3.9
			s-2,3.8-2,3.8s-0.8,0.8-3.6,3.3c-30.4-15.4-40.2,3.2-41,12.1c6.4-8.1,13.5-6.8,20-2.5c1.8-2.7,10-3.4,14.4,0.6
			C543.2,189.5,547.6,194.2,547.6,194.2z"/>
		<path class="st0" d="M30.3,56.6c1.4-1.2,3.2-1.8,5.1-1.7c2.2-1.6,5.8-0.9,6.5,0.4c3.1-1.6,6.4-1.9,8.9,2.1
			c0.1-4-3.4-12.9-17.8-7.4c-1.1-1.3-1.5-1.7-1.5-1.7s-0.4-1.7-0.7-1.8s-0.2,1.8-0.2,1.8c-0.3-0.1-0.7-0.1-1.1-0.1
			c-0.3,0-0.7,0.1-1,0.3c0,0-0.2-1.9-0.5-1.7s-0.4,1.9-0.4,1.9s-0.3,0.5-1.1,1.9c-15.2-2.7-17,6.7-16.2,10.6c1.7-4.4,5-4.7,8.3-3.7
			c0.4-1.4,3.9-2.8,6.3-1.6C26.8,55.5,28.7,55.7,30.3,56.6z"/>
		<path class="st0" d="M520.4,76.3c-14.6,13.2-40.8,24.2-46.9-3.8c6.7,1.6,13.6,2.7,20.4,3.4c-0.7,2.6,2.7,7.1,8.1,6.8
			c4.7-0.2,7.5-3.5,5.3-6C511.7,76.8,516,76.7,520.4,76.3z"/>
		<path class="st0" d="M533.7,73.4c4.1-1.5,8.1-3.2,12-5.1c-0.9,3.2,2.9,5,7.3,3.2c5-2,6.2-7.5,4.5-9.6c5.9-3.5,11.7-7.4,17.1-11.6
			C580.9,78.2,552.5,79.3,533.7,73.4z"/>
		<path class="st1" d="M462.6,94.1L460,104c-4.7-6.3-7.2-12.6-7.4-17.6C452.6,86.4,455.6,90.2,462.6,94.1z"/>
		<path class="st1" d="M479.6,100.3L467.1,112c-2.1-2-4.1-4.1-5.9-6.4l2.8-10.8C468.9,97.3,474.2,99.2,479.6,100.3z"/>
		<path class="st1" d="M491,102l10.7,28.5c-12.5-3-24-9-33.5-17.5l13.2-12.3C484.6,101.3,487.8,101.7,491,102z"/>
		<path class="st1" d="M519.3,100.8l-14.2,30.4l-1.6-0.3l-10.8-28.8C501.6,102.6,510.5,102.2,519.3,100.8z"/>
		<path class="st1" d="M526.2,99.6l21.5,29.8l-0.9,0.2c-13.1,3.5-26.8,4.2-40.2,1.9l14.4-31C522.8,100.3,524.5,100,526.2,99.6z"/>
		<path class="st1" d="M556.6,90.8l-7.5,37.9l-21.3-29.4c2.1-0.4,4.2-0.9,6.4-1.4C541.9,96.2,549.4,93.8,556.6,90.8z"/>
		<path class="st1" d="M560.5,89.1l26.7,17.8c-7.9,9.3-19.9,16.9-36.4,21.8l7.6-38.5C559.1,89.7,559.8,89.4,560.5,89.1z"/>
		<path class="st1" d="M580.4,75.9l10.5,26c-0.8,1.3-1.7,2.5-2.7,3.7l-26.1-17.3C568.8,85.1,574.9,80.9,580.4,75.9z"/>
		<path class="st1" d="M593.6,42.7c1.2,3.1,2.2,6.3,3.1,9.6l-2.8-0.8C594.5,48.6,594.4,45.6,593.6,42.7z"/>
		<path class="st1" d="M599.1,65.3l-12,2.8c3.2-4.5,5.5-9.7,6.6-15.1l3.5,1.1C598.1,57.7,598.7,61.5,599.1,65.3z"/>
		<path class="st1" d="M591.9,100.3l-10.4-25.6c1.5-1.5,2.8-3.1,4.1-4.7l13.6-3.2C600.2,79,597.9,90.4,591.9,100.3z"/>
		<ellipse id="_Path_" class="st2" cx="298.5" cy="582.5" rx="298.5" ry="17.4"/>
		<path class="st3" d="M233.8,569.2l-24.3,1.8l-0.7-9l21.9-1.6l-0.7-9.3l-21.9,1.6l-0.5-7.2l23.6-1.7l-0.7-9.7l-37.8,2.8l2.6,34.6
			H234L233.8,569.2z"/>
		<path class="st3" d="M279.5,563c-0.6-1-1.4-1.9-2.2-2.7c-0.7-0.8-1.5-1.6-2.4-2.2c-1.2-0.7-2.5-1.1-3.8-1.4
			c1.7-0.5,3.3-1.2,4.8-2.2c5.9-4.4,7-12.8,2.6-18.7c-1.5-1.9-3.6-3.2-5.9-3.8c-3.3-0.6-6.7-0.8-10.1-0.4l-23.5,1.7l2.8,38H256
			l-0.9-12l1.2-0.1c1.2-0.1,2.5,0.2,3.5,0.8c1.2,0.9,2.1,2,2.8,3.3l5.1,7.9h16.8L279.5,563z M266.3,547.9c-0.5,0.8-1.3,1.4-2.2,1.6
			c-1.2,0.4-2.4,0.7-3.7,0.9l-6,0.4l-0.7-9.3l6.2-0.5c2.6-0.2,4.4,0.1,5.3,0.8c1,0.8,1.6,2,1.7,3.3
			C267.1,546.1,266.9,547.1,266.3,547.9L266.3,547.9z"/>
		<path class="st3" d="M329,559.3c-0.6-1-1.4-1.9-2.2-2.7c-1.5-2-3.8-3.3-6.2-3.6c1.7-0.5,3.3-1.2,4.8-2.2c3.8-2.5,5.8-7,5.3-11.5
			c-0.1-2.6-1-5.2-2.7-7.2c-1.5-1.9-3.5-3.2-5.9-3.8c-3.3-0.6-6.7-0.8-10.1-0.4l-23.5,1.7l3.1,41.7h14.2l-1.1-15.6l1.2-0.1
			c1.2-0.1,2.5,0.2,3.5,0.8c1.2,0.9,2.1,2,2.8,3.3l7.4,11.6h16.7L329,559.3z M315.9,544.2c-0.5,0.8-1.3,1.4-2.2,1.6
			c-1.2,0.4-2.4,0.7-3.7,0.9l-6,0.5l-0.7-9.3l6.2-0.5c2.6-0.2,4.4,0.1,5.3,0.8c1,0.8,1.6,2,1.6,3.3
			C316.7,542.5,316.4,543.4,315.9,544.2L315.9,544.2z"/>
		<path class="st4" d="M233.8,569.2l-24.3,1.8l-0.7-9l21.9-1.6l-0.7-9.3l-21.9,1.6l-0.5-7.2l23.6-1.7l-0.7-9.7l-37.8,2.8l2.6,34.6
			H234L233.8,569.2z"/>
		<path class="st4" d="M279.4,563c-0.6-1-1.4-1.9-2.2-2.7c-0.7-0.8-1.5-1.6-2.4-2.2c-1.2-0.7-2.5-1.1-3.8-1.4
			c1.7-0.5,3.3-1.2,4.8-2.2c5.9-4.4,7-12.8,2.6-18.7c-1.5-1.9-3.6-3.2-5.9-3.8c-3.3-0.6-6.7-0.8-10.1-0.4l-23.5,1.7l2.8,38h14.2
			l-0.9-12l1.2-0.1c1.2-0.1,2.5,0.2,3.5,0.8c1.2,0.9,2.1,2,2.8,3.3l5.1,7.9h16.8L279.4,563z M266.2,547.9c-0.5,0.8-1.3,1.4-2.2,1.6
			c-1.2,0.4-2.4,0.7-3.7,0.9l-6,0.4l-0.7-9.3l6.2-0.5c2.6-0.2,4.4,0.1,5.3,0.8c1,0.8,1.6,2,1.7,3.3
			C267,546.1,266.8,547.1,266.2,547.9L266.2,547.9z"/>
		<g>
			<path class="st3" d="M439.8,548.7c2.8-4.2,3.1-9.5,0.9-14c-1.1-2.1-2.9-3.8-5.1-4.7c-3.2-1.2-6.5-1.9-9.9-2.1l-23.4-2.3l-4.5,45
				h14.3l1.6-16.5l1.2,0.1c1.2,0.1,2.4,0.6,3.3,1.4c1,1.1,1.7,2.4,2.2,3.8l4.7,11.2h15.3l-3.5-8.8c-0.5-1.1-1-2.1-1.7-3
				c-0.6-0.9-1.2-1.8-2-2.6c-1.1-0.8-2.2-1.5-3.5-2c1.8-0.2,3.5-0.6,5.1-1.3C436.9,551.9,438.5,550.5,439.8,548.7z M427.8,542.1
				c-0.1,1-0.5,1.9-1.1,2.5c-0.6,0.7-1.5,1.1-2.4,1.2c-1.3,0.2-2.5,0.3-3.8,0.2l-5.9-0.6l0.9-9.2l6.2,0.6c2.6,0.2,4.3,0.8,5.1,1.7
				C427.6,539.5,428,540.8,427.8,542.1L427.8,542.1z"/>
			<path class="st4" d="M439.8,548.7c2.8-4.2,3.1-9.5,0.9-14c-1.1-2.1-2.9-3.8-5.1-4.7c-3.2-1.2-6.5-1.9-9.9-2.1l-23.4-2.3l-4.5,45
				h14.3l1.6-16.5l1.2,0.1c1.2,0.1,2.4,0.6,3.3,1.4c1,1.1,1.7,2.4,2.2,3.8l4.7,11.2h15.3l-3.5-8.8c-0.5-1.1-1-2.1-1.7-3
				c-0.6-0.9-1.2-1.8-2-2.6c-1.1-0.8-2.2-1.5-3.5-2c1.8-0.2,3.5-0.6,5.1-1.3C436.9,551.9,438.5,550.5,439.8,548.7z M427.8,542.1
				c-0.1,1-0.5,1.9-1.1,2.5c-0.6,0.7-1.5,1.1-2.4,1.2c-1.3,0.2-2.5,0.3-3.8,0.2l-5.9-0.6l0.9-9.2l6.2,0.6c2.6,0.2,4.3,0.8,5.1,1.7
				C427.6,539.5,428,540.8,427.8,542.1L427.8,542.1z"/>
		</g>
		
			<linearGradient id="SVGID_1_" gradientUnits="userSpaceOnUse" x1="383.0334" y1="135.416" x2="389.8" y2="135.416" gradientTransform="matrix(1 0 0 -1 0 602)">
			<stop  offset="0" style="stop-color:#0D943C"/>
			<stop  offset="1" style="stop-color:#036A41"/>
		</linearGradient>
		<path class="st5" d="M386.7,460.1c3,4.1,5.1,14-0.1,15.2s-3.1-14.9-3.1-14.9C382.2,459,383.4,455.5,386.7,460.1z"/>
		
			<linearGradient id="SVGID_00000183945015187781713650000004564353548076889478_" gradientUnits="userSpaceOnUse" x1="372.3259" y1="52.3786" x2="380.4889" y2="52.3786" gradientTransform="matrix(1 0 0 -1 0 602)">
			<stop  offset="0" style="stop-color:#0D943C"/>
			<stop  offset="1" style="stop-color:#036A41"/>
		</linearGradient>
		<path style="fill:url(#SVGID_00000183945015187781713650000004564353548076889478_);" d="M375.4,544.4c3.2,2.3,7.2,9,3.7,11.2
			s-6-10.2-6-10.2C371.8,544.7,371.8,541.9,375.4,544.4z"/>
		
			<linearGradient id="SVGID_00000016781969454496322080000013869405247388588214_" gradientUnits="userSpaceOnUse" x1="307.619" y1="51.5595" x2="316.054" y2="51.5595" gradientTransform="matrix(1 0 0 -1 0 602)">
			<stop  offset="0" style="stop-color:#0D943C"/>
			<stop  offset="1" style="stop-color:#036A41"/>
		</linearGradient>
		<path style="fill:url(#SVGID_00000016781969454496322080000013869405247388588214_);" d="M316,547.2c-0.2,4-3.8,10.9-7.5,9.1
			s5.5-10.5,5.5-10.5C313.9,544.3,316.3,542.8,316,547.2z"/>
		
			<linearGradient id="SVGID_00000009569010212908409820000013980128852984823955_" gradientUnits="userSpaceOnUse" x1="380.3343" y1="142.4902" x2="393.5415" y2="142.4902" gradientTransform="matrix(1 0 0 -1 0 602)">
			<stop  offset="0" style="stop-color:#0D943C"/>
			<stop  offset="1" style="stop-color:#036A41"/>
		</linearGradient>
		<path style="fill:url(#SVGID_00000009569010212908409820000013980128852984823955_);" d="M385.1,453.5c5.2,0.7,11.8,6.3,6.5,11.1
			s-9.9-8.5-9.9-8.5C379.6,456,379.4,452.7,385.1,453.5z"/>
		
			<linearGradient id="SVGID_00000001642377164774248390000009630482760493167232_" gradientUnits="userSpaceOnUse" x1="305.0871" y1="97.7855" x2="386.0571" y2="97.7855" gradientTransform="matrix(1 0 0 -1 0 602)">
			<stop  offset="0" style="stop-color:#0D943C"/>
			<stop  offset="1" style="stop-color:#036A41"/>
		</linearGradient>
		<path style="fill:url(#SVGID_00000001642377164774248390000009630482760493167232_);" d="M385.1,458.6c4.8,26.5-10,56.3-5.7,84.9
			c1.2,7.9-11.4-0.4-11.4-0.4s-29.2-2.8-37.1,0.2c-1.4,7.4-22.1,12.3-23.4-1.8s-2.4-49.3-2.4-49.3S363,452.3,385.1,458.6z"/>
		<path class="st10" d="M315.1,485.7c-6.2,3.9-10.1,6.6-10.1,6.6s0.3,10.2,0.9,21.9c13.5-8.2,25-21.5,25-21.5
			C326,489.5,320.7,487.2,315.1,485.7z"/>
		<path class="st11" d="M313.8,544.8c-1.1,14.1-14.2,34.1-9.5,40.1s82,5.4,92.3,0s-23.6-27.8-23-46.4
			C314.9,523.1,313.8,544.8,313.8,544.8z"/>
		<path class="st12" d="M314.1,579.5c-6.9-6.9-18.9,0.2-20.7,8.5c13.7,2.9,23.2-1.3,23.2-1.3C316.9,584.1,315.9,581.5,314.1,579.5z"
			/>
		<path class="st12" d="M389.2,577.7c6.9-6.9,18.9,0.2,20.7,8.5c-13.7,2.9-23.2-1.3-23.2-1.3C386.5,582.3,387.4,579.7,389.2,577.7z"
			/>
		<path class="st12" d="M372.6,579.3c6.5-8.3,17.8,0.2,19.5,10.2c-13,3.5-21.9-1.5-21.9-1.5S369.8,582.9,372.6,579.3z"/>
		<path class="st12" d="M357.6,578.3c15.2-2.2,17.6,4.6,11.8,13.2c-16.2,0.3-18.7-3.5-18.7-3.5S346.9,579.8,357.6,578.3z"/>
		<path class="st13" d="M170.1,410.3c-5,1.3-12.8,7.6-9.6,11.8s11.9-9.6,11.9-9.6C174.3,412.3,175.6,408.9,170.1,410.3z"/>
		<path class="st11" d="M131,479c-3.9,0.9-10.1,5.8-7.6,9s9.3-7.3,9.3-7.3C134.2,480.6,135.3,478,131,479z"/>
		<path class="st11" d="M180.2,517c-2.6,3-4.7,10.6-0.7,11.8s3.1-11.4,3.1-11.4C183.7,516.4,183,513.7,180.2,517z"/>
		<path class="st11" d="M219.8,480.8c-2.9,2.7-6,10-2.2,11.6s4.6-11,4.6-11C223.4,480.6,223,477.8,219.8,480.8z"/>
		<path class="st13" d="M175.6,406.2c-4.5-2.7-13.1-2.6-12,4.5s13.1-0.3,13.1-0.3C178.2,411.7,180.5,409.2,175.6,406.2z"/>
		
			<linearGradient id="SVGID_00000011012889790720195760000000611405160458225831_" gradientUnits="userSpaceOnUse" x1="129.505" y1="145.5404" x2="224.3871" y2="145.5404" gradientTransform="matrix(1 0 0 -1 0 602)">
			<stop  offset="0" style="stop-color:#0D943C"/>
			<stop  offset="1" style="stop-color:#036A41"/>
		</linearGradient>
		<path style="fill:url(#SVGID_00000011012889790720195760000000611405160458225831_);" d="M191.4,393.9
			c-20.6,17.4-39,62.1-60.5,81.4c-5.9,5.3,9,6.9,9,6.9s27.9,12.9,32,20.2c-3.7,6.5,9.2,23.6,19.2,13.5s33.3-36.5,33.3-36.5
			S212.5,403.1,191.4,393.9z"/>
		<path class="st12" d="M89.1,526.9c-5.7-8-18.6-2.9-21.8,5c13.1,5.1,23.1,2.5,23.1,2.5C91.1,531.8,90.6,529.1,89.1,526.9z"/>
		<path class="st11" d="M182.4,516c-9.2,10.7-2.5,49-9.6,51.7S52.2,549.6,93.1,521c9.5-6.7,31.3-24.8,37.7-42.3
			C191.1,486.2,182.4,516,182.4,516z"/>
		<path class="st12" d="M168,558.3c8.6,4.7,5,18.2-2.5,22.2c-6.6-12.4-5.2-22.7-5.2-22.7C162.9,557,165.6,557.1,168,558.3z"/>
		<path class="st12" d="M98.3,536.1c-6-12-21.3-3.9-25.7,4.8c9.4,9.5,23.4,3.8,23.4,3.8S100.4,540.2,98.3,536.1z"/>
		<path class="st12" d="M110.7,543c-12.6-8.8-23.2,1.4-21.9,11.7c14.3,7.5,23.7,0.1,23.7,0.1S119.6,549.2,110.7,543z"/>
		
			<linearGradient id="SVGID_00000076604181027312009840000002039075631089957518_" gradientUnits="userSpaceOnUse" x1="142.6535" y1="314.1717" x2="476.992" y2="314.1717" gradientTransform="matrix(1 0 0 -1 0 602)">
			<stop  offset="0" style="stop-color:#0D943C"/>
			<stop  offset="1" style="stop-color:#036A41"/>
		</linearGradient>
		<path style="fill:url(#SVGID_00000076604181027312009840000002039075631089957518_);" d="M271.5,501.2
			c79,13.6,133.3-36.8,192.9-159.8c33.2-68.5-7.2-115.5-29.3-124.3c10-22.1-0.1-56.1-14.6-70.7c5.4,4.6,14-0.2,14-0.2
			c-10.7-5.9-25.2-58.9-89.8-71.5c-58.9-11.5-88.5,21.4-110,33.5c0,0,4.8,8.7,14.6,8.7c-18.6,8.9-35.8,33.4-37.4,61.7
			c-23.8,0.9-72.1,31.4-69.1,107.4C148.4,422.8,192.5,487.7,271.5,501.2z"/>
		<path class="st16" d="M250.4,161.3c20.6-2.8,41.2,3.2,50.9,11.9C280.9,164.8,250.4,161.3,250.4,161.3z"/>
		<path class="st16" d="M346.2,187.7c17.7-3.7,35.8,0.1,44.8,7C372.8,188.8,346.2,187.7,346.2,187.7z"/>
		<path class="st16" d="M274.5,173.1c7.9-4.2,16.7-3.4,22.9,2C289.8,173.8,282.2,173.2,274.5,173.1z"/>
		<path class="st17" d="M142.8,284.3c14.3-16.7,26-39.9,28.2-54.2c-7,0.5-13.9,1.6-20.6,3.6C145.2,247.6,142.2,264.4,142.8,284.3z"
			/>
		<path class="st17" d="M476.7,283c-5.1-2.8-10.5-5.1-16-7c-1.4,12.5,2.4,33.1,9.6,51.4C476.1,311.1,477.8,296.2,476.7,283z"/>
		<path class="st16" d="M254.7,174.9c-3.5-7.2-9.9-11.8-16.9-11.5c-5.1,0.2-19.4,0.8-8.9,24.9C240.6,215,269.6,205.4,254.7,174.9z"
			/>
		<path class="st16" d="M411.2,186.1c5.9-2.6,11.2-1.5,13.5,3.4c1.6,3.6,6.2,13.8-13.4,23.5C389.6,223.8,385.9,197.3,411.2,186.1z"
			/>
		<path class="st18" d="M316.5,164.2c-1.1,2.5-2.7,4.8-4.8,6.6c-2.1,1.8-5.2,2-7.4,0.3c-7.1-5.4-17.7-10.2-30.5-12.3
			c-3.2-0.5-5.4-3.5-4.9-6.7c0.1-0.6,0.3-1.2,0.5-1.7v-0.1C281.6,126.7,326,141.7,316.5,164.2z"/>
		<path class="st12" d="M298,149.1c7.5-9,22,2.5,16.9,11.1C309.1,170,288.8,160.1,298,149.1z"/>
		<path class="st18" d="M385.1,186.1c-12.9-1.9-26-2.4-39-1.5c-4.4,0.3-8.5-1.9-10.8-5.7c-1.5-2.5-2.5-5.2-2.9-8.1
			c-5.3-32,56.5-37.7,65-3.7c0.5,2.1,0.9,4.3,1.1,6.5c0.5,6.4-4.2,12-10.6,12.5C387,186.3,386.1,186.3,385.1,186.1z"/>
		<path class="st12" d="M354.2,162c-3.6-5.1-13.5-0.2-10.6,4.8S359,168.8,354.2,162z"/>
		<path class="st12" d="M238.8,174.9c18.6,25,57,29.2,94.8,33s75.6,0,80.7-12.8c-2.9,27.2-11.8,67.8-96.3,54
			C224.7,233.8,238.8,174.9,238.8,174.9z"/>
		<g>
			<g>
				<defs>
					<path id="SVGID_00000112597099877701854660000016949053305234068387_" d="M238.8,174.9c18.6,25,57,29.2,94.8,33
						s75.6,0,80.7-12.8c-2.9,27.2-11.8,67.8-96.3,54C224.7,233.8,238.8,174.9,238.8,174.9z"/>
				</defs>
				<clipPath id="SVGID_00000103265878744581449820000010618492640243241602_">
					<use xlink:href="#SVGID_00000112597099877701854660000016949053305234068387_"  style="overflow:visible;"/>
				</clipPath>
				<g style="clip-path:url(#SVGID_00000103265878744581449820000010618492640243241602_);">
					
						<linearGradient id="SVGID_00000172423077645440809140000005630803372354432128_" gradientUnits="userSpaceOnUse" x1="231.1871" y1="238.5878" x2="398.287" y2="238.5878">
						<stop  offset="0" style="stop-color:#FFDD3A"/>
						<stop  offset="0.48" style="stop-color:#FDDB3A"/>
						<stop  offset="0.66" style="stop-color:#F7D43A"/>
						<stop  offset="0.79" style="stop-color:#EBC83B"/>
						<stop  offset="0.89" style="stop-color:#DBB73C"/>
						<stop  offset="0.98" style="stop-color:#C6A13D"/>
						<stop  offset="1" style="stop-color:#C19C3D"/>
					</linearGradient>
					<path style="fill:url(#SVGID_00000172423077645440809140000005630803372354432128_);" d="M231.2,223.8
						c21.9-12.6,54.6-14.4,89.8,6.9c20.5-6.8,63.4-11.9,77.3,27.6C306.8,278.3,231.2,223.8,231.2,223.8z"/>
					<path class="st18" d="M324.4,204.9c-2,7.4-10.6,12.8-17.7,11.1c-11.8-2.9-10.8-14.1-10.8-14.1L324.4,204.9z"/>
					<path class="st18" d="M289.2,200.3c-2.9,6.2-12.1,9-17.3,7c-6.9-2.6-7.3-14.1-7.3-14.1L289.2,200.3z"/>
					<path class="st18" d="M263.7,190.4c-3.8,3.9-11.2,4.4-15,0.8c-3.7-3.2-4.5-8.6-1.9-12.7L263.7,190.4z"/>
					<path class="st18" d="M332.9,206.3c0.7,6.8,7.6,11.2,14,12.4c5.8,1.1,11.6-10.9,11.6-10.9L332.9,206.3z"/>
					<path class="st18" d="M366.8,206.1c1.3,5.3,5.6,9.5,8.6,8.6c5.1-1.6,4-9.6,4-9.6L366.8,206.1z"/>
					<path class="st18" d="M389,204.8c1.3,3.4,5.6,5.5,8.9,4.4c3.1-1,4.9-4,4.4-7.2L389,204.8z"/>
					<path class="st18" d="M309.7,252.5c1.9-7.4,10.5-12.9,17.6-11.2c11.8,2.9,10.9,14,10.9,14L309.7,252.5z"/>
					<path class="st18" d="M351,256.2c0.2-6.8,7.5-13.1,13.1-13.3c7.4-0.3,12.3,10.1,12.3,10.1L351,256.2z"/>
					<path class="st18" d="M382.4,248.9c-0.2-7.3,2.6-14.2,5.7-13.9c5.2,0.5,6.3,11.3,6.3,11.3L382.4,248.9z"/>
					<path class="st18" d="M294.6,247.8c1.6-8.5-3.7-15.8-9.6-19c-5.4-2.9-15,10.2-15,10.2L294.6,247.8z"/>
					<path class="st18" d="M261.2,229.8c2-5.1,1-11-2.1-12c-5.2-1.6-8.9,5.5-8.9,5.5L261.2,229.8z"/>
					<path class="st18" d="M253.3,223.5c2.1-3,1.5-7.8-1.3-9.8c-2.5-2-6.1-1.9-8.4,0.3L253.3,223.5z"/>
				</g>
			</g>
		</g>
		
			<linearGradient id="SVGID_00000065049377984984269830000012060721716323849661_" gradientUnits="userSpaceOnUse" x1="205.7171" y1="453.1946" x2="229.3866" y2="453.1946" gradientTransform="matrix(1 0 0 -1 0 602)">
			<stop  offset="0" style="stop-color:#0D943C"/>
			<stop  offset="1" style="stop-color:#036A41"/>
		</linearGradient>
		<path style="fill:url(#SVGID_00000065049377984984269830000012060721716323849661_);" d="M226.3,137.6
			c-8.9,12-16.6,21.3-20.6,23.2c8.3,4,13.6,0.8,13.6,0.8S236.1,124.5,226.3,137.6z"/>
		
			<linearGradient id="SVGID_00000141432387820125873320000003070310039061998268_" gradientUnits="userSpaceOnUse" x1="310.5494" y1="530.8314" x2="368.9367" y2="530.8314" gradientTransform="matrix(1 0 0 -1 0 602)">
			<stop  offset="0" style="stop-color:#0D943C"/>
			<stop  offset="1" style="stop-color:#036A41"/>
		</linearGradient>
		<path style="fill:url(#SVGID_00000141432387820125873320000003070310039061998268_);" d="M367.3,81.6c-11.1-9.1-38-6.3-55.9-23.9
			c-3.2,8.7,3.8,15,3.8,15S380,91.9,367.3,81.6z"/>
		
			<linearGradient id="SVGID_00000053542361555636057160000011177603825174098367_" gradientUnits="userSpaceOnUse" x1="332.6299" y1="530.0573" x2="368.9592" y2="530.0573" gradientTransform="matrix(1 0 0 -1 0 602)">
			<stop  offset="0" style="stop-color:#0D943C"/>
			<stop  offset="1" style="stop-color:#036A41"/>
		</linearGradient>
		<path style="fill:url(#SVGID_00000053542361555636057160000011177603825174098367_);" d="M368,81.6c-6.8-8.8-23.8-5.3-34.7-22.4
			c-1.4,5-0.7,10.4,2,14.8C335.3,74.1,375.7,91.6,368,81.6z"/>
		
			<linearGradient id="SVGID_00000093856499859331278700000013799355533724899471_" gradientUnits="userSpaceOnUse" x1="27.5071" y1="344.6303" x2="78.0612" y2="344.6303" gradientTransform="matrix(1 0 0 -1 0 602)">
			<stop  offset="0" style="stop-color:#0D943C"/>
			<stop  offset="1" style="stop-color:#036A41"/>
		</linearGradient>
		<path style="fill:url(#SVGID_00000093856499859331278700000013799355533724899471_);" d="M75.2,236.5
			c-13.3,5.4-23.6,30.4-47.6,37.8c6.1,6.9,15,3.8,15,3.8S90.3,230.3,75.2,236.5z"/>
		
			<linearGradient id="SVGID_00000133531655602365872350000012152224148900519865_" gradientUnits="userSpaceOnUse" x1="45.0371" y1="216.0558" x2="73.8771" y2="216.0558" gradientTransform="matrix(1 0 0 -1 0 602)">
			<stop  offset="0" style="stop-color:#0D943C"/>
			<stop  offset="1" style="stop-color:#036A41"/>
		</linearGradient>
		<path style="fill:url(#SVGID_00000133531655602365872350000012152224148900519865_);" d="M45,358.3c0,32.1,18.6,33,17.9,58.1
			c8.5-3.6,10.9-13.8,10.9-13.8S45.1,341.9,45,358.3z"/>
		
			<linearGradient id="SVGID_00000018198836911714331220000016049560098763328679_" gradientUnits="userSpaceOnUse" x1="551.6111" y1="277.0319" x2="587.887" y2="277.0319" gradientTransform="matrix(1 0 0 -1 0 602)">
			<stop  offset="0" style="stop-color:#0D943C"/>
			<stop  offset="1" style="stop-color:#036A41"/>
		</linearGradient>
		<path style="fill:url(#SVGID_00000018198836911714331220000016049560098763328679_);" d="M553.6,296.1c8.5,11.6,16,31.7,34.3,58.3
			c-8,4.7-15.4-6-15.4-6S544,282.9,553.6,296.1z"/>
		
			<linearGradient id="SVGID_00000008137404132037137200000005545055326318428088_" gradientUnits="userSpaceOnUse" x1="28.9871" y1="348.9428" x2="76.3871" y2="348.9428" gradientTransform="matrix(1 0 0 -1 0 602)">
			<stop  offset="0" style="stop-color:#0D943C"/>
			<stop  offset="1" style="stop-color:#036A41"/>
		</linearGradient>
		<path style="fill:url(#SVGID_00000008137404132037137200000005545055326318428088_);" d="M76.4,234.2C66,238,49.2,265.1,29,266.6
			c3.8,3.6,8.8,5.5,14,5.3C43,271.9,69.4,259.6,76.4,234.2z"/>
		
			<linearGradient id="SVGID_00000102522208376854328260000017002037091479169181_" gradientUnits="userSpaceOnUse" x1="106.7671" y1="273.5997" x2="133.5159" y2="273.5997" gradientTransform="matrix(1 0 0 -1 0 602)">
			<stop  offset="0" style="stop-color:#0D943C"/>
			<stop  offset="1" style="stop-color:#036A41"/>
		</linearGradient>
		<path style="fill:url(#SVGID_00000102522208376854328260000017002037091479169181_);" d="M109.8,311.5c9,6.4,6.2,23.6,23.7,33.8
			c-5,1.6-10.3,1.1-14.9-1.4C118.6,343.8,99.5,304.1,109.8,311.5z"/>
		<path class="st12" d="M292.8,84.2c-3.3,9.6-15.4,19.1-31.2,20.2c-9-3.7-29.6-38.1-26.6-57.6S276.7,1.4,284.4,0
			c7.1-1.3-23.6,30.3-22.1,47S292.8,84.2,292.8,84.2z"/>
		<path class="st12" d="M384.4,104.4c-0.4,8.3,6,19.2,17.8,24.8c8-0.2,34.1-20.2,37.6-36S424.7,51,416,42.6
			c-4.6-4.5,8.9,30.2,2.8,42.6S384.4,104.4,384.4,104.4z"/>
		<g>
			<g>
				<defs>
					<path id="SVGID_00000146461003247370689890000014675685275788804527_" d="M292.8,84.2c-3.3,9.6-15.4,19.1-31.2,20.2
						c-9-3.7-29.6-38.1-26.6-57.6S276.7,1.4,284.4,0c7.1-1.3-23.6,30.3-22.1,47S292.8,84.2,292.8,84.2z"/>
				</defs>
				<clipPath id="SVGID_00000134218795328203724970000013619210294246937785_">
					<use xlink:href="#SVGID_00000146461003247370689890000014675685275788804527_"  style="overflow:visible;"/>
				</clipPath>
				<g style="clip-path:url(#SVGID_00000134218795328203724970000013619210294246937785_);">
					<path class="st30" d="M250,101.9c-0.6,0-1.1-0.2-1.6-0.6c-0.6-0.6-0.9-1.3-1-2.1c-0.4-3,0.9-6.3,3.7-8.8
						c2.1-1.8,4.4-3.2,6.9-4.4l1.2-0.6c6-3.2,11.7-7.1,16.8-11.7c2.2-1.9,4.2-4.1,4.5-6.7c0.1-0.3,0-0.7-0.1-1
						c-0.3-0.3-0.8-0.4-1.2-0.4c-7.6-0.6-14.8,3.7-20.2,7.5c-1,0.7-2,1.4-2.9,2.1c-5.1,3.7-10.4,7.4-16.6,9.1
						c-2.1,0.7-4.5,0.8-6.6,0.2c-2.4-0.7-4-2.7-4.2-5.2c0-2.4,1.8-4.6,5.3-6.4c4.1-2,8.4-3.7,12.8-5c2-0.7,3.9-1.3,5.9-2
						c5.3-2,11.9-4.9,16.4-10.2c0.9-1.1,1.9-2.7,1.4-4c-0.3-0.7-0.9-1.2-1.5-1.6c-2.4-1.4-5.5-1.8-9.6-1.1
						c-6.3,1.1-12.1,3.9-16.9,8.1c-0.9,0.8-1.7,1.6-2.6,2.4c-2,2.2-4.4,4.1-7,5.5c-3.9,1.9-9.5,1.6-11.8-2.3
						c-1.9-3.2-0.6-7.4,1.7-9.8c2.5-2.6,5.9-3.8,9-4.6c4-1.1,8.1-1.8,12-2.5c6.2-1.1,12.7-2.2,18.6-4.8c2-0.8,3.9-2,5.5-3.5
						c0.4-0.3,0.7-0.7,0.8-1.2c0-0.3,0-0.6-0.2-0.8c-0.8-0.7-1.9-1-3-1c-8.9-0.2-17.9-0.2-26.7,0c-3.3,0.1-5.4-1.1-5.6-3.1
						c-0.1-1.3,0.7-2.6,2.4-3.8c5.2-3.5,11.2-5.6,17.5-5.9c3.9-0.1,7.9,0.2,11.7,0.9c4.5,0.6,9.1,1.2,13.6,0.7
						c1.1-0.1,2.7-0.4,3.4-1.5c1-1.5-0.3-3.9-2.1-5.2c-3.6-2.7-7.9-4-12.5-5.2c-2.9-0.7-5.7-1.7-8.5-2.8c-1.2-0.5-2.2-1.4-2.6-2.7
						c-0.1-0.6,0-1.2,0.5-1.6c0.4-0.4,1-0.7,1.6-0.8c7.6-1.7,15.5-0.7,22.4,3c3.4,1.8,5.3,4.2,5.4,6.7c0,0.3-0.2,0.6-0.6,0.6l0,0
						c-0.3,0-0.6-0.2-0.6-0.5l0,0c-0.1-2.6-2.7-4.5-4.8-5.7c-6.6-3.5-14.2-4.6-21.5-2.9c-0.3,0-0.7,0.2-1,0.4
						c-0.1,0.1-0.2,0.3-0.1,0.5c0.3,0.8,1,1.5,1.8,1.8c2.7,1.1,5.5,2.1,8.3,2.8c4.5,1.3,9.1,2.6,12.9,5.4c2.3,1.8,3.9,4.7,2.4,6.9
						c-1,1.5-2.9,1.9-4.2,2c-4.6,0.5-9.4-0.1-13.9-0.7c-3.8-0.6-7.6-0.9-11.5-0.9c-6,0.3-11.9,2.2-16.9,5.7c-1.4,1-2,1.8-1.9,2.7
						c0.2,2,3.7,2,4.4,2c8.9-0.1,17.9-0.1,26.8,0c1.4,0,2.8,0.4,3.9,1.4c0.4,0.5,0.6,1.1,0.5,1.7c-0.1,0.8-0.5,1.5-1.1,2
						c-1.7,1.6-3.7,2.8-5.9,3.7c-6,2.6-12.5,3.8-18.9,4.9c-3.9,0.7-8,1.4-11.9,2.5c-2.9,0.8-6.1,1.9-8.4,4.3c-2,2-3.2,5.6-1.6,8.3
						c2,3.3,6.8,3.5,10.2,1.8c2.5-1.4,4.8-3.2,6.8-5.3c0.9-0.8,1.7-1.7,2.6-2.4c5-4.4,11-7.3,17.5-8.4c4.4-0.8,7.8-0.3,10.4,1.2
						c0.9,0.5,1.6,1.2,2,2.1c0.6,1.5,0.1,3.3-1.6,5.2c-4.7,5.6-11.5,8.6-16.9,10.6c-1.9,0.7-3.9,1.4-5.9,2c-4.3,1.4-8.5,3-12.6,5
						c-3.1,1.6-4.7,3.4-4.6,5.3s1.7,3.5,3.4,4c2,0.5,4,0.5,5.9-0.2c6-1.6,11.2-5.3,16.2-8.9c1-0.7,2-1.4,2.9-2.1
						c5.6-3.9,13.1-8.3,21-7.7c0.8,0,1.5,0.3,2,0.9c0.4,0.5,0.5,1.2,0.4,1.9c-0.4,3.1-2.6,5.4-4.9,7.5c-5.2,4.6-10.9,8.5-17,11.8
						l-1.2,0.6c-2.4,1.1-4.6,2.6-6.6,4.2c-2.4,2.3-3.7,5.2-3.3,7.7c0,0.5,0.2,1,0.6,1.3c0.9,0.8,2.6-0.4,3.3-0.9l3.5-2.8
						c7.5-5.9,15.2-12.1,23.5-17c11-6.5,21.7-10.1,31.7-10.6c0.3,0,0.6,0.2,0.6,0.6l0,0c0,0.3-0.2,0.6-0.6,0.6
						c-9.9,0.4-20.4,3.9-31.2,10.4c-8.3,4.9-16,11-23.4,16.9l-3.5,2.8C252.4,101.3,251.2,101.8,250,101.9z"/>
				</g>
			</g>
		</g>
		<g>
			<g>
				<defs>
					<path id="SVGID_00000134963534096771037770000002444409363867504305_" d="M384.4,104.4c-0.4,8.3,6,19.2,17.8,24.8
						c8-0.2,34.1-20.2,37.6-36S424.7,51,416,42.6c-4.6-4.5,8.9,30.2,2.8,42.6S384.4,104.4,384.4,104.4z"/>
				</defs>
				<clipPath id="SVGID_00000017487839339574705170000017241105888624081328_">
					<use xlink:href="#SVGID_00000134963534096771037770000002444409363867504305_"  style="overflow:visible;"/>
				</clipPath>
				<g style="clip-path:url(#SVGID_00000017487839339574705170000017241105888624081328_);">
					<path class="st30" d="M418,132.1c-1.2,0-2.3-0.9-3.2-1.7l-0.4-0.3c-1.5-1.2-3.1-2.3-4.8-3.3c-5.7-3.5-12.9-7.9-17.1-20
						C389.4,98,378,94.5,368,91.5l-3.1-1c-0.3-0.1-0.5-0.4-0.4-0.7l0,0c0.1-0.3,0.4-0.5,0.8-0.4c1,0.3,2.1,0.6,3.1,0.9
						c10.3,3.1,22,6.6,25.4,16.1c4.1,11.6,11,15.9,16.6,19.3c1.7,1,3.4,2.1,5,3.4l0.4,0.3c0.9,0.8,1.9,1.6,2.7,1.3
						c0.4-0.2,0.7-0.5,0.8-0.9c0.9-1.9,0.3-4.5-1.5-7c-1.6-1.9-3.4-3.6-5.4-5.1l-1-0.8c-5.1-4.2-9.8-8.9-13.9-14
						c-1.8-2.3-3.5-4.8-3.2-7.4c0-0.6,0.3-1.2,0.8-1.5c0.7-0.3,1.4-0.4,2.1-0.2c7.8,1.6,14,7,18.6,11.6c0.8,0.8,1.6,1.6,2.4,2.4
						c4.1,4.2,8.3,8.6,13.7,11.4c1.7,1,3.7,1.6,5.7,1.7l0,0c1.7,0,3.6-0.8,4.1-2.3c0.5-1.9-1.5-4-3.3-5.4c-3.5-2.7-7.3-5.1-11.1-7.3
						c-1.8-1-3.5-2.1-5.2-3.2c-4.8-3-10.7-7.2-14-13c-1.5-2.6-1-4-0.3-4.8c0.6-0.6,1.5-1.1,2.4-1.2c2.9-0.6,6.2-0.1,10.3,1.7
						c5.9,2.5,11.1,6.4,15.1,11.3c0.7,0.9,1.3,1.8,2,2.7c1.5,2.3,3.3,4.3,5.4,6c3,2.3,7.8,3.3,10.3,1.2c2.1-1.7,1.7-4.8,0.2-6.9
						c-1.7-2.5-4.6-4.2-7.2-5.6c-3.5-1.9-7.3-3.5-11-5.1c-5.9-2.5-11.9-5.2-17.1-8.8c-1.9-1.2-3.5-2.8-4.9-4.5
						c-0.5-0.6-0.7-1.3-0.7-2c0.1-0.5,0.3-1,0.8-1.2c1-0.7,2.8-0.6,4.2-0.2c8.6,2.2,17.3,4.5,25.9,6.9c2,0.6,4.2,0.7,4.6-0.4
						c0.2-0.6-0.2-1.4-1.3-2.5c-4.2-4.2-9.4-7.3-15.1-9c-3.7-1-7.5-1.8-11.3-2.3c-4.6-0.5-9.2-1.5-13.5-3c-1.4-0.5-3-1.3-3.6-2.7
						c-0.3-0.7-0.3-1.5,0-2.2c0.9-1.4,2.2-2.5,3.9-2.9c4.3-1.3,9-1.2,13.6-1c2.9,0.1,5.8,0.1,8.6-0.1c0.8,0,1.6-0.4,2.1-1
						c0-0.1,0.1-0.2,0-0.3c-0.2-0.3-0.5-0.5-0.8-0.6c-6.7-3.2-14.2-4.2-21.6-3c-2.3,0.4-5.1,1.2-5.8,3.3c-0.1,0.3-0.4,0.5-0.8,0.4
						l0,0c-0.3-0.1-0.5-0.5-0.4-0.8c0.7-2.1,3-3.5,6.7-4.1c7.6-1.2,15.3,0,22.2,3.4c0.5,0.2,1,0.6,1.3,1s0.3,1,0.1,1.5
						c-0.5,1-1.9,1.5-3.1,1.6c-2.9,0.2-5.9,0.2-8.8,0.1c-4.7-0.1-9.1-0.3-13.2,1c-1.3,0.3-2.4,1.1-3.1,2.2c-0.2,0.4-0.2,0.8,0,1.2
						c0.4,1,1.9,1.7,2.9,2.1c4.3,1.4,8.8,2.4,13.3,3c3.9,0.5,7.7,1.3,11.5,2.3c5.9,1.8,11.2,5,15.6,9.3c0.5,0.6,2.2,2.2,1.5,3.8
						s-2.9,2-6.1,1.1c-8.6-2.4-17.2-4.8-25.8-6.9c-1-0.4-2.2-0.4-3.2,0c-0.1,0.1-0.2,0.2-0.2,0.4c0,0.4,0.2,0.8,0.5,1.1
						c1.3,1.7,2.8,3.1,4.6,4.2c5.1,3.6,11.1,6.2,16.9,8.7c3.7,1.6,7.5,3.2,11,5.1c2.8,1.5,5.8,3.3,7.6,6s2.1,6.4-0.5,8.5
						c-3,2.5-8.5,1.3-11.9-1.2c-2.2-1.8-4.1-3.9-5.6-6.3c-0.6-0.9-1.3-1.8-1.9-2.6c-3.9-4.8-8.9-8.6-14.6-11
						c-3.8-1.6-6.9-2.2-9.5-1.6c-0.6,0.1-1.3,0.4-1.7,0.8c-0.8,0.9-0.2,2.3,0.5,3.4c3.2,5.5,9,9.6,13.6,12.5
						c1.7,1.1,3.5,2.1,5.2,3.2c3.9,2.2,7.7,4.7,11.3,7.4c3,2.4,4.3,4.7,3.8,6.7c-0.5,1.9-2.7,3.2-5.2,3.2h-0.1
						c-2.2-0.1-4.3-0.7-6.2-1.8c-5.6-2.9-9.9-7.4-14-11.6c-0.8-0.8-1.6-1.6-2.4-2.4c-4.4-4.5-10.5-9.8-18-11.3
						c-0.4-0.1-0.8-0.1-1.2,0c-0.2,0.2-0.3,0.4-0.3,0.6c-0.3,2.2,1.2,4.4,2.9,6.5c4,5.1,8.6,9.8,13.7,14l1,0.8
						c2.1,1.5,4,3.3,5.6,5.3c2.1,2.8,2.7,5.9,1.6,8.2c-0.3,0.7-0.8,1.2-1.5,1.5C418.5,132,418.3,132.1,418,132.1z"/>
				</g>
			</g>
		</g>
		<path class="st12" d="M277.6,137.4c37.1,14.3,40.7,24.4,44.4,20.4s1.8-21.1-6.8-28.1s-12.4-3.5-10-0.7
			c-12.4-9.1-26.5-10.3-30.9-8.9s0.7,4.5,0.7,4.5S249.1,126.5,277.6,137.4z"/>
		<path class="st12" d="M392,159.7c-50.7-0.8-59,7.3-61.9,2.1s5.8-20.4,19-23.6s16.4,1.5,12.5,3.1c18.6-3.7,36.2,0.5,41,3.5
			s-2.5,3.9-2.5,3.9S431,160.4,392,159.7z"/>
		
			<linearGradient id="SVGID_00000098190787537341039110000016885778568858776238_" gradientUnits="userSpaceOnUse" x1="289.3524" y1="524.0818" x2="296.2769" y2="524.0818" gradientTransform="matrix(1 0 0 -1 0 602)">
			<stop  offset="0" style="stop-color:#0D943C"/>
			<stop  offset="1" style="stop-color:#036A41"/>
		</linearGradient>
		<path style="fill:url(#SVGID_00000098190787537341039110000016885778568858776238_);" d="M290.5,83.9c-2-4.7-1.9-14.8,3.5-14.8
			s-0.3,15.2-0.3,15.2C294.7,86,292.8,89,290.5,83.9z"/>
		
			<linearGradient id="SVGID_00000119082341114289811980000013196480615152798615_" gradientUnits="userSpaceOnUse" x1="206.2638" y1="424.4214" x2="217.9263" y2="424.4214" gradientTransform="matrix(1 0 0 -1 0 602)">
			<stop  offset="0" style="stop-color:#0D943C"/>
			<stop  offset="1" style="stop-color:#036A41"/>
		</linearGradient>
		<path style="fill:url(#SVGID_00000119082341114289811980000013196480615152798615_);" d="M214,184.2c-4.5-2.5-10.5-10.6-6.3-13.8
			s9,12.3,9,12.3C218.5,183.3,218.9,186.9,214,184.2z"/>
		
			<linearGradient id="SVGID_00000093139942141872063870000007950181233611578526_" gradientUnits="userSpaceOnUse" x1="282.589" y1="521.4192" x2="295.2357" y2="521.4192" gradientTransform="matrix(1 0 0 -1 0 602)">
			<stop  offset="0" style="stop-color:#0D943C"/>
			<stop  offset="1" style="stop-color:#036A41"/>
		</linearGradient>
		<path style="fill:url(#SVGID_00000093139942141872063870000007950181233611578526_);" d="M291.3,87.1c-4.7-2.1-11.4-9.6-7.5-13.2
			s10.1,11.4,10.1,11.4C295.7,85.8,296.4,89.3,291.3,87.1z"/>
		
			<linearGradient id="SVGID_00000111159748701072292830000014682289996589977011_" gradientUnits="userSpaceOnUse" x1="381.6783" y1="503.524" x2="401.3615" y2="503.524" gradientTransform="matrix(1 0 0 -1 0 602)">
			<stop  offset="0" style="stop-color:#0D943C"/>
			<stop  offset="1" style="stop-color:#036A41"/>
		</linearGradient>
		<path style="fill:url(#SVGID_00000111159748701072292830000014682289996589977011_);" d="M387.1,107.1
			c6.9-1.9,17.7-10.9,13.1-16.7s-16.3,13.7-16.3,13.7C381.3,104.4,379.6,109.2,387.1,107.1z"/>
		<path class="st36" d="M313.2,261.8c76.2,11.4,102,47.2,96.8,76.8c-4.2,23.8-14.4,6.5-14.4,6.5s3.1,56.3-29.5,84.6
			c-10.4,9-8.4-4.3-8.4-4.3s-32.1,55.7-71.2,50.4c-57.2-7.8-59.6-67.3-59.6-67.3s-11.1,16.8-20.2-7.3c-10-26.5-10.2-61.5,2.6-87.7
			C191.3,324.4,187.6,243,313.2,261.8z"/>
		<path class="st36" d="M316.1,267.4c-58.9-10.9-86.9,6-90.4,26.2c-2.9,16.3,8.9,7.6,8.9,7.6s-16.3,35.4,0.6,61.4
			c5.4,8.3,7.2-0.8,7.2-0.8s9.7,43.5,39.9,49.4c44.1,8.6,56.5-30.2,56.5-30.2s7.3,17.4,19.5,1.6s21.1-42.8,21.3-57.2
			C390.2,336.7,413.2,285.3,316.1,267.4z"/>
		
			<linearGradient id="SVGID_00000111887724712627626680000000835611002475788475_" gradientUnits="userSpaceOnUse" x1="36.2371" y1="308.9875" x2="225.2401" y2="308.9875" gradientTransform="matrix(1 0 0 -1 0 602)">
			<stop  offset="0" style="stop-color:#0D943C"/>
			<stop  offset="1" style="stop-color:#036A41"/>
		</linearGradient>
		<path style="fill:url(#SVGID_00000111887724712627626680000000835611002475788475_);" d="M211.7,247.4c-0.3,0.7-0.6,0.8-0.9,0.8
			h-0.9l-1.8-0.1h-3.6l-3.7,0.2c-1.2,0.1-2.4,0.2-3.7,0.3c-5,0.6-10,1.5-14.8,2.9c-10.4,3-20.4,7.4-29.6,13
			c-10,5.9-19.4,12.8-28,20.6c-9,7.9-17.3,16.6-24.8,25.9l7.5-21.6l1.1,8.7l1.4,8.5c0.6,2.7,1.2,5.5,1.8,8.1s1.3,5.2,2.2,7.6
			c1.3,4.4,3.1,8.7,5.3,12.8c0.4,1,1,1.6,1.4,2.4c0.2,0.3,0.4,0.7,0.7,1c0.2,0.3,0.4,0.6,0.7,0.8l0.6,0.6c0.1,0.1,0.3,0.1,0.4,0.2
			s0.1-0.1,0.1-0.1c0-0.1,0-0.1,0-0.2c-0.1-0.2-0.2-0.4-0.3-0.6c-0.1-0.1-0.3-0.5-0.5-0.7l-0.3-0.4l-0.6-0.7l-0.7-0.8
			c16.6,16.7,16.6,43.8-0.2,60.4c-16.7,16.6-43.8,16.6-60.4-0.2l0,0l-0.9-1l-0.8-0.9l-0.7-0.9c-0.5-0.5-1-1.2-1.3-1.7
			c-0.6-0.9-1.2-1.8-1.8-2.6s-1-1.5-1.5-2.3s-1-1.6-1.3-2.2c-0.7-1.4-1.5-2.8-2.2-4.1l-1.8-3.9c-0.6-1.3-1-2.5-1.5-3.7
			s-1-2.5-1.4-3.6c-0.8-2.3-1.6-4.8-2.2-7c-2.4-8.5-4.1-17.3-4.9-26.1c-0.5-4.2-0.7-8.2-1-12.3s-0.2-8-0.3-11.9
			c0.1-3.9,0.2-7.8,0.3-11.6l0.8-11.4l0.4-5.4c0.4-6.1,2.9-11.9,7.2-16.3c9.8-12.6,20.5-24.3,32.2-35.1c12-11,25-20.8,38.9-29.3
			c14.6-8.9,30.3-15.8,46.7-20.6c8.6-2.4,17.3-4.2,26.1-5.2c2.2-0.2,4.5-0.5,6.7-0.6s4.5-0.3,6.8-0.4s4.5-0.1,6.8-0.1l3.4,0.1
			l1.7,0.1c0.7,0,1.3,0.4,1.6,0.9c10.9,15.5,12.4,35.7,4.1,52.7L211.7,247.4z"/>
		
			<linearGradient id="SVGID_00000026158820391524104640000014754794079642677916_" gradientUnits="userSpaceOnUse" x1="412.5518" y1="273.3261" x2="575.4914" y2="273.3261" gradientTransform="matrix(1 0 0 -1 0 602)">
			<stop  offset="0" style="stop-color:#0D943C"/>
			<stop  offset="1" style="stop-color:#036A41"/>
		</linearGradient>
		<path style="fill:url(#SVGID_00000026158820391524104640000014754794079642677916_);" d="M432.4,215.9c0.4-0.5,1-0.6,1.6-0.5
			l1.4,0.4l2.8,0.7l5.6,1.6c3.7,1.1,7.4,2.3,11.1,3.6c7.4,2.6,14.6,5.6,21.7,8.9c14.5,6.8,28,15.3,40.4,25.4
			c12.6,10.3,23.8,22.2,33.3,35.4c9.4,13.2,17,27.6,22.7,42.9l0.5,1.2c2.4,6.6,2.7,13.8,0.6,20.5l0,0c-1,4.8-2.4,9.5-4.1,14.1
			c-1.6,4.2-3.5,8.4-5.7,12.4c-2.1,3.9-4.3,7.5-6.6,11s-4.7,6.7-7.1,9.8c-4.8,6-9.9,11.7-15.4,17.1c-2.7,2.6-5.4,5.2-8.3,7.7
			c-1.4,1.2-2.9,2.5-4.4,3.7l-2.4,1.8l-1.3,1c-0.5,0.4-0.8,0.6-1.8,1.2c-20.2,12.2-46.5,5.8-58.7-14.4
			c-12.2-20.2-5.8-46.5,14.4-58.7c-0.4,0.3,0,0.1,0.1,0.1s0.4-0.1,0.6-0.2l1.3-0.6c0.9-0.4,1.9-0.9,2.8-1.4c1.9-1,3.8-2.1,5.7-3.2
			c3.6-2.2,7.1-4.5,10.5-7.1c1.6-1.2,3-2.4,4.4-3.6s2.6-2.4,3.7-3.5s2-2.2,2.8-3.1l2-2.5l0,0l1.1,21.7c-3.7-9.4-8.7-18.2-14.7-26.3
			c-6-8.1-13-15.3-20.8-21.5c-8.1-6.4-16.9-11.8-26.2-16.2c-4.8-2.3-9.7-4.3-14.7-6c-2.5-0.9-5.1-1.7-7.7-2.5l-3.9-1.1l-2-0.5
			l-1-0.2c-0.3-0.1-0.6-0.3-0.8-1.1l-2.1-10.4C409.5,252.3,416.6,230.5,432.4,215.9z"/>
		<path class="st36" d="M209,189.2c-0.7,3.1-5.5,4.8-10.7,3.7s-9-4.6-8.3-7.7s5.5-4.8,10.7-3.7S209.6,186.1,209,189.2z"/>
		<path class="st36" d="M188,195.4c-0.1,2.1-3,3.7-6.5,3.5s-6.2-2-6.2-4s3-3.7,6.5-3.5S188,193.3,188,195.4z"/>
		<path class="st36" d="M366.6,87.5c-1.1,1.1-4,0.1-6.5-2.3s-3.7-5.3-2.7-6.4s4-0.1,6.5,2.3S367.6,86.4,366.6,87.5z"/>
		<path class="st36" d="M325.3,128.8c-2.3,0.8-5.2-1.8-6.5-5.7s-0.4-7.7,2-8.4s5.2,1.8,6.5,5.7S327.7,128,325.3,128.8z"/>
		<path class="st36" d="M313.4,117.1c-1.4,0.7-3.5-0.6-4.8-3s-1-4.9,0.4-5.6s3.5,0.6,4.8,3S314.8,116.4,313.4,117.1z"/>
		<path class="st36" d="M114.4,337.9c-1.8,1-4.7-0.6-6.4-3.7s-1.6-6.4,0.2-7.4s4.7,0.6,6.4,3.7S116.2,336.9,114.4,337.9z"/>
		<path class="st36" d="M100.7,326.5c-1.3,0.2-2.7-1.4-3-3.6s0.4-4.1,1.8-4.4s2.7,1.4,3,3.6S102,326.3,100.7,326.5z"/>
		
			<linearGradient id="SVGID_00000054247545856111455450000016065676885745919386_" gradientUnits="userSpaceOnUse" x1="79.3982" y1="367.8" x2="85.729" y2="367.8" gradientTransform="matrix(1 0 0 -1 0 602)">
			<stop  offset="0" style="stop-color:#0D943C"/>
			<stop  offset="1" style="stop-color:#036A41"/>
		</linearGradient>
		<path style="fill:url(#SVGID_00000054247545856111455450000016065676885745919386_);" d="M80,237.3c-1-0.9-0.7-2.9,0.7-4.6
			s3.4-2.4,4.4-1.6s0.7,2.9-0.7,4.6S81,238.1,80,237.3z"/>
		<path class="st36" d="M64.5,386.4c-3.5,1.6-8.5-1.7-11.2-7.5s-2.2-11.8,1.3-13.4s8.5,1.7,11.2,7.5S68,384.7,64.5,386.4z"/>
		<path class="st36" d="M195.6,281.5c-2-2.4-1.1-6.3,1.9-8.9s7.1-2.7,9.1-0.4s1.1,6.3-1.9,8.9S197.6,283.9,195.6,281.5z"/>
		<path class="st36" d="M196.9,265c-0.3-1.8,1.4-3.6,3.8-4s4.5,0.8,4.8,2.6s-1.4,3.6-3.8,4S197.2,266.8,196.9,265z"/>
		<path class="st36" d="M217.4,268.7c-1.4-0.3-2.3-1.7-2-3.1s1.7-2.3,3.1-2s2.3,1.7,2,3.1c0,0.2-0.1,0.4-0.2,0.6
			C219.9,268.5,218.6,269.1,217.4,268.7z"/>
		<path class="st36" d="M557.4,369.8c1.4,1.8,0.7,5.8-1.5,8.9s-5.2,4.2-6.6,2.4s-0.7-5.8,1.5-8.9S556,368,557.4,369.8z"/>
		<path class="st36" d="M556.2,382.2c1,1,0.9,3.6-0.3,5.9s-3,3.4-4,2.5s-0.9-3.6,0.3-5.9S555.1,381.3,556.2,382.2z"/>
		<path class="st36" d="M141.7,483c1.1,2-0.1,5.8-2.8,8.5s-5.8,3.4-6.9,1.4s0.1-5.8,2.8-8.5S140.6,481,141.7,483z"/>
		<path class="st36" d="M138.7,495.1c0.9,1.1,0.4,3.7-1.1,5.8s-3.5,2.9-4.4,1.8s-0.4-3.7,1.1-5.8S137.8,494,138.7,495.1z"/>
		<path class="st36" d="M515.6,429.1c0,2.2-3,4.9-6.9,6s-7,0.3-7.1-1.9s3-4.9,6.9-6C512.4,426.1,515.5,426.9,515.6,429.1z"/>
		<path class="st36" d="M367.4,532.2c2.1,0.6,3.8,4.3,3.9,8.3s-1.7,6.8-3.8,6.3s-3.8-4.3-3.9-8.3S365.3,531.7,367.4,532.2z"/>
		<path class="st36" d="M405.2,288.6c2.5-1,6.2,0.9,8.4,4.3s1.9,7-0.6,8s-6.2-0.9-8.4-4.4S402.7,289.6,405.2,288.6z"/>
		<path class="st36" d="M356.7,549.5c3.7-0.1,8.8,4.2,11.2,9.6s1.5,10-2.2,10.1s-8.7-4.2-11.3-9.6S353,549.6,356.7,549.5z"/>
		<path class="st36" d="M568.5,358.9c0.6,0.7,0.3,3.1-0.8,5.2s-2.3,3.3-3,2.5s-0.3-3.1,0.8-5.2S567.9,358.2,568.5,358.9z"/>
		<path class="st36" d="M479.2,239.6c1.7-1.5,6.2-0.8,9.9,1.6s5.3,5.6,3.6,7.1s-6.2,0.8-9.9-1.6S477.5,241.1,479.2,239.6z"/>
		<path class="st18" d="M155.3,453.2l-73.4,2.6l-1.2-33.6l70.2-90.9L186,330l3.3,90.3l18.2-0.6l1.2,31.7l-18.2,0.6l1,27.5l-35.1,1.2
			L155.3,453.2z M154.1,421.5l-1.7-46.2l-37.1,47.6L154.1,421.5z"/>
		
			<linearGradient id="SVGID_00000016046077470282131350000018134015881289993093_" gradientUnits="userSpaceOnUse" x1="79.7871" y1="196.6" x2="209.3871" y2="196.6" gradientTransform="matrix(1 0 0 -1 0 602)">
			<stop  offset="0" style="stop-color:#0D943C"/>
			<stop  offset="1" style="stop-color:#036A41"/>
		</linearGradient>
		<path style="fill:url(#SVGID_00000016046077470282131350000018134015881289993093_);" d="M156.3,481.4c-0.4,0-0.7-0.3-0.8-0.7
			l-1-26.7l-72.7,2.6c-0.4,0-0.8-0.3-0.8-0.7l-1.2-33.6c0-0.2,0-0.4,0.2-0.5l70.2-90.9c0.1-0.2,0.4-0.3,0.6-0.3l35.2-1.2
			c0.4,0,0.8,0.3,0.8,0.7l3.2,89.5l17.4-0.6c0.4,0,0.8,0.3,0.8,0.7l0,0l1.2,31.7c0,0.2-0.1,0.4-0.2,0.6c-0.1,0.1-0.3,0.2-0.5,0.2
			l-17.4,0.6l1,26.7c0,0.2-0.1,0.4-0.2,0.6c-0.1,0.1-0.3,0.2-0.5,0.2L156.3,481.4L156.3,481.4z M155.3,452.4c0.4,0,0.8,0.3,0.8,0.7
			l1,26.7l33.6-1.2l-1-26.7c0-0.2,0.1-0.4,0.2-0.5c0.1-0.1,0.3-0.2,0.5-0.2l17.4-0.6l-1.1-30.1l-17.4,0.6c-0.4,0-0.8-0.3-0.8-0.7
			l-3.3-89.5l-34,1.2l-69.8,90.4l1.2,32.5L155.3,452.4L155.3,452.4z M115.3,423.6c-0.3,0-0.6-0.2-0.7-0.4c-0.1-0.3-0.1-0.6,0.1-0.8
			l37.1-47.6c0.3-0.3,0.8-0.4,1.1-0.1c0.2,0.1,0.3,0.3,0.3,0.6l1.7,46.2c0,0.2-0.1,0.4-0.2,0.5c-0.1,0.2-0.3,0.2-0.5,0.2
			L115.3,423.6L115.3,423.6z M151.7,377.4L117,422.1l36.4-1.3L151.7,377.4z"/>
		<path class="st18" d="M219.5,404.3c-1-27.9,3.2-47.6,12.8-59.1c9.5-11.5,24.4-17.6,44.7-18.3c9.8-0.3,17.8,0.6,24.2,2.8
			c5.8,1.9,11.1,5,15.7,9c3.9,3.5,7.2,7.5,9.8,12c2.6,4.7,4.6,9.7,6,14.9c3.1,11.1,4.9,22.6,5.3,34.1c1,26.7-2.8,46.3-11.2,59
			c-8.5,12.7-23.6,19.4-45.3,20.1c-12.2,0.4-22.1-1.2-29.8-4.9c-7.8-3.7-14.4-9.5-19.1-16.7c-3.7-5.3-6.7-12.6-9-21.9
			C221.1,425.2,219.8,414.7,219.5,404.3z M259.5,403c0.7,18.7,2.8,31.4,6.3,38.1s8.4,10,14.6,9.8c4-0.1,7.8-1.8,10.5-4.7
			c2.9-3,4.9-7.7,6.1-14s1.5-16.1,1.1-29.4c-0.7-19.5-2.8-32.5-6.3-39.1s-8.5-9.8-15.1-9.6c-6.7,0.2-11.4,3.8-14.1,10.8
			S258.8,384.5,259.5,403L259.5,403z"/>
		
			<linearGradient id="SVGID_00000078039259748052221670000017780615447025708441_" gradientUnits="userSpaceOnUse" x1="218.6456" y1="199.1779" x2="339.0433" y2="199.1779" gradientTransform="matrix(1 0 0 -1 0 602)">
			<stop  offset="0" style="stop-color:#0D943C"/>
			<stop  offset="1" style="stop-color:#036A41"/>
		</linearGradient>
		<path style="fill:url(#SVGID_00000078039259748052221670000017780615447025708441_);" d="M277.8,479.6c-10.6,0-19.5-1.7-26.4-5
			c-7.9-3.8-14.6-9.7-19.4-16.9c-3.7-5.3-6.8-12.8-9.1-22.2c-2.4-10.2-3.8-20.7-4.1-31.2c-1-28,3.3-48,12.9-59.6
			s24.9-17.9,45.3-18.6c9.8-0.3,18,0.6,24.5,2.9c5.9,1.9,11.3,5,16,9.1c3.9,3.5,7.3,7.6,10,12.2c2.7,4.7,4.7,9.8,6.1,15.1
			c3.2,11.2,4.9,22.7,5.3,34.3c1,26.7-2.8,46.7-11.4,59.4s-24,19.7-46,20.5C280.3,479.6,279,479.6,277.8,479.6z M220.3,404.3
			c0.3,10.4,1.6,20.7,4,30.9c2.3,9.2,5.2,16.5,8.9,21.6c4.7,7.1,11.2,12.7,18.9,16.4c7.5,3.6,17.4,5.2,29.5,4.8
			c21.4-0.8,36.5-7.4,44.7-19.8s12.1-32.2,11.1-58.5c-0.4-11.5-2.2-22.9-5.3-33.9c-1.4-5.1-3.4-10.1-6-14.7
			c-2.6-4.4-5.9-8.4-9.7-11.8c-4.5-3.9-9.7-6.9-15.3-8.8c-6.2-2.2-14.3-3.1-23.9-2.8c-20,0.7-34.9,6.8-44.2,18
			S219.3,376.7,220.3,404.3L220.3,404.3z M279.8,451.7c-6.2,0-11.1-3.4-14.7-10.2s-5.7-19.7-6.4-38.5l0,0
			c-0.7-18.5,0.4-31.5,3.1-38.5c2.8-7.2,7.8-11,14.8-11.3c6.8-0.2,12.1,3.1,15.8,10c3.6,6.7,5.7,20,6.4,39.5
			c0.5,13.3,0.1,23.2-1.1,29.6s-3.3,11.3-6.3,14.4c-2.8,3.1-6.8,4.9-11,5H279.8z M260.3,403c0.7,18.5,2.8,31.2,6.2,37.8
			s7.9,9.6,13.9,9.4c3.8-0.1,7.4-1.7,10-4.5c2.8-2.9,4.8-7.5,5.9-13.6s1.5-16.1,1-29.2c-0.7-19.3-2.8-32.4-6.2-38.8
			s-8.1-9.4-14.4-9.1s-10.8,3.6-13.4,10.3S259.6,384.7,260.3,403L260.3,403z"/>
		<path class="st42" d="M246,333.7l10,7l0,0c0.1,0.1,0.2,0.2,0.1,0.3l-0.6,6.7l-0.1-0.1l3.9,3.1l-4.1-2.9l-0.1-0.1l0,0l0.2-6.7
			l0.2,0.3l-10.4-6.3L246,333.7z"/>
		
			<linearGradient id="SVGID_00000060000838468402611870000009531554698795343495_" gradientUnits="userSpaceOnUse" x1="245.5471" y1="260.25" x2="252.8371" y2="260.25" gradientTransform="matrix(1 0 0 -1 0 602)">
			<stop  offset="0" style="stop-color:#0D943C"/>
			<stop  offset="1" style="stop-color:#036A41"/>
		</linearGradient>
		<path style="fill:url(#SVGID_00000060000838468402611870000009531554698795343495_);" d="M252.9,339l-3,4.1l0,0c0,0,0,0.1-0.1,0.1
			l-4.2,2.2l3.9-2.8l-0.1,0.1l2.2-4.6L252.9,339z"/>
		
			<linearGradient id="SVGID_00000080165478841428078090000006996639562199149499_" gradientUnits="userSpaceOnUse" x1="289.0771" y1="148" x2="298.8871" y2="148" gradientTransform="matrix(1 0 0 -1 0 602)">
			<stop  offset="0" style="stop-color:#0D943C"/>
			<stop  offset="1" style="stop-color:#036A41"/>
		</linearGradient>
		<path style="fill:url(#SVGID_00000080165478841428078090000006996639562199149499_);" d="M291,446.2l5.8,7l0.1,0.1
			c0,0,0.1,0.1,0.1,0.2l1.9,8.3l-3-7.9l0.1,0.2l-7-5.9L291,446.2z"/>
		
			<linearGradient id="SVGID_00000152235207749872274310000006168585894515847554_" gradientUnits="userSpaceOnUse" x1="293.7471" y1="152.25" x2="305.3471" y2="152.25" gradientTransform="matrix(1 0 0 -1 0 602)">
			<stop  offset="0" style="stop-color:#0D943C"/>
			<stop  offset="1" style="stop-color:#036A41"/>
		</linearGradient>
		<polygon style="fill:url(#SVGID_00000152235207749872274310000006168585894515847554_);" points="293.8,450.2 305.4,447.9 
			294.2,451.6 		"/>
		<path class="st18" d="M425.7,443.7l-73.4,2.6l-1.2-33.6l70.2-90.9l35.1-1.2l3.3,90.3l18.2-0.6l1.2,31.7l-18.2,0.6l1,27.5
			l-35.1,1.2L425.7,443.7z M424.6,412l-1.7-46.2l-37.1,47.6L424.6,412z"/>
		
			<linearGradient id="SVGID_00000135670844525118958630000005677127628643070388_" gradientUnits="userSpaceOnUse" x1="350.1871" y1="206.15" x2="479.7871" y2="206.15" gradientTransform="matrix(1 0 0 -1 0 602)">
			<stop  offset="0" style="stop-color:#0D943C"/>
			<stop  offset="1" style="stop-color:#036A41"/>
		</linearGradient>
		<path style="fill:url(#SVGID_00000135670844525118958630000005677127628643070388_);" d="M426.7,471.9c-0.4,0-0.8-0.3-0.8-0.7
			l-1-26.7l-72.7,2.5c-0.4,0-0.8-0.3-0.8-0.7l0,0l-1.2-33.6c0-0.2,0-0.4,0.2-0.5l70.2-90.9c0.1-0.2,0.4-0.3,0.6-0.3l35.1-1.2
			c0.4,0,0.8,0.3,0.8,0.7l0,0l3.3,89.5l17.4-0.6c0.4,0,0.8,0.3,0.8,0.7l0,0l1.2,31.7c0,0.4-0.3,0.8-0.7,0.8l0,0l-17.4,0.6l1,26.7
			c0,0.4-0.3,0.8-0.8,0.8L426.7,471.9L426.7,471.9z M425.7,442.9c0.4,0,0.8,0.3,0.8,0.8l1,26.7l33.6-1.2l-1-26.7
			c0-0.4,0.3-0.8,0.7-0.8l0,0l17.4-0.6l-1.1-30.1l-17.4,0.6c-0.4,0-0.8-0.3-0.8-0.7l0,0l-3.3-89.5l-34,1.2L351.8,413l1.2,32.5
			L425.7,442.9L425.7,442.9z M385.7,414.1c-0.3,0-0.6-0.2-0.7-0.4c-0.1-0.3-0.1-0.6,0.1-0.8l37.1-47.6c0.3-0.3,0.7-0.4,1.1-0.1
			c0.2,0.1,0.3,0.4,0.3,0.6l1.7,46.2c0,0.4-0.3,0.8-0.7,0.8L385.7,414.1L385.7,414.1z M422.2,367.9l-34.8,44.6l36.4-1.3L422.2,367.9
			z"/>
		<path class="st47" d="M422.6,367.8l9.2-4.5l-0.3,0.5l-1.3-8.8l0,0c0-0.1,0-0.3,0.2-0.4l11.5-8l-0.1,0.1l-0.6-11.3l0.9,11.3
			c0,0.1,0,0.1-0.1,0.1l-11.2,8.4l0.1-0.4l1.6,8.8c0,0.2-0.1,0.4-0.3,0.5l0,0l-9,4.9L422.6,367.8z"/>
		
			<linearGradient id="SVGID_00000053543255890002865770000005547077408911231630_" gradientUnits="userSpaceOnUse" x1="81.2871" y1="162.55" x2="115.3471" y2="162.55" gradientTransform="matrix(1 0 0 -1 0 602)">
			<stop  offset="0" style="stop-color:#0D943C"/>
			<stop  offset="1" style="stop-color:#036A41"/>
		</linearGradient>
		<path style="fill:url(#SVGID_00000053543255890002865770000005547077408911231630_);" d="M81.3,455.3l11.8-13.9l0,0
			c0.1-0.1,0.3-0.2,0.5-0.2l8.5,1.3h-0.2l9.4-5.2l-0.1,0.1l4.2-14.6l-3.8,14.7c0,0,0,0.1-0.1,0.1l-9.2,5.6c-0.1,0-0.1,0.1-0.2,0l0,0
			l-8.6-1.1l0.5-0.2l-11.4,14.2L81.3,455.3z"/>
		
			<linearGradient id="SVGID_00000137811871525575438100000017801737699470466433_" gradientUnits="userSpaceOnUse" x1="110.9198" y1="168.25" x2="127.6671" y2="168.25" gradientTransform="matrix(1 0 0 -1 0 602)">
			<stop  offset="0" style="stop-color:#0D943C"/>
			<stop  offset="1" style="stop-color:#036A41"/>
		</linearGradient>
		<path style="fill:url(#SVGID_00000137811871525575438100000017801737699470466433_);" d="M116.1,423.1l-4.4,14.5v-0.3l4.6,7.1
			l-0.1-0.1l11.6,0.2l-11.6,0.2c-0.1,0-0.1,0-0.1-0.1l-5-6.8c-0.1-0.1-0.1-0.2-0.1-0.3l0,0l3.6-14.7L116.1,423.1z"/>
		<path class="st47" d="M433.4,353.1l-2.9-4.3h0.1l-4.2-1.4l4.2,1.1l0,0l0,0l3.8,3.5L433.4,353.1z"/>
		<path class="st12" d="M115.8,347.5c3-7,24.5-0.5,29.2,8.2c-7.3,0.7-17.7,7.1-25.9,5.1C114.4,359.6,113.7,352.5,115.8,347.5z"/>
		<path class="st12" d="M110.8,358.5c5.5-6.6,26.6,7.4,28.8,18.2c-8.1-1.6-21.4,2-29.5-2.9C105.4,371,107,363.1,110.8,358.5z"/>
		<path class="st12" d="M103.7,374.9c7.6-4,21.7,17,19.7,27.9c-6.9-4.6-20.5-6.3-26.2-14C93.9,384.5,98.4,377.7,103.7,374.9z"/>
		<path class="st12" d="M89.1,389c6.8,0.5,7.5,20.4,1.6,26.9c-2.7-6-11.1-12.8-11.8-20.3C78.5,391.4,84.3,388.7,89.1,389z"/>
		<path class="st12" d="M478.7,371.9c0-7.6-22.4-10.1-30.1-3.9c6.5,3.5,13.5,13.5,21.9,14.8C475.3,383.5,478.7,377.2,478.7,371.9z"
			/>
		<path class="st12" d="M477.1,389.5c-3.3-7.9-27.5-0.8-32.9,9c8.2,0.9,19.8,8.2,29.1,5.9C478.6,403.1,479.5,395.1,477.1,389.5z"/>
		<path class="st12" d="M479.1,401.8c-5.4-6.6-26.6,7.1-29,17.9c8.1-1.5,21.3,2.2,29.5-2.6C484.3,414.4,482.9,406.5,479.1,401.8z"/>
		<path class="st12" d="M488.4,427c-3.9-5.6-19.7,2.2-23.9,10.4c6.5-0.7,16.7,5,23.4,1.7C491.8,437.2,491.1,430.9,488.4,427z"/>
		<g>
			<path class="st3" d="M390.1,545.6c-0.5-7.3-3-12.9-7.4-16.7s-10.4-5.4-18-4.8c-7.4,0.6-13,3.1-16.9,7.5s-5.5,10.4-5,17.9
				c0.4,5.3,1.8,9.7,4.1,13.1c2.1,3.2,5.2,5.7,8.8,7.2c4.2,1.5,8.6,2,13,1.5c4.4-0.2,8.7-1.5,12.5-3.8c3.2-2.1,5.7-5,7.2-8.5
				C389.9,555.4,390.5,550.9,390.1,545.6z M374.3,557.3c-3.5,4.1-9.6,4.7-13.8,1.2c-0.1-0.1-0.2-0.1-0.2-0.2c-1.9-1.9-3-5.1-3.3-9.8
				c-0.3-4.6,0.3-8,1.9-10.2c1.5-2.1,4-3.4,6.6-3.5c2.7-0.3,5.3,0.6,7.3,2.5c1.9,1.9,3,4.9,3.3,9.2
				C376.4,551.6,375.8,555.2,374.3,557.3L374.3,557.3z"/>
			<path class="st4" d="M390.1,545.6c-0.5-7.3-3-12.9-7.4-16.7s-10.4-5.4-18-4.8c-7.4,0.6-13,3.1-16.9,7.5s-5.5,10.4-5,17.9
				c0.4,5.3,1.8,9.7,4.1,13.1c2.1,3.2,5.2,5.7,8.8,7.2c4.2,1.5,8.6,2,13,1.5c4.4-0.2,8.7-1.5,12.5-3.8c3.2-2.1,5.7-5,7.2-8.5
				C389.9,555.4,390.5,550.9,390.1,545.6z M374.3,557.3c-3.5,4.1-9.6,4.7-13.8,1.2c-0.1-0.1-0.2-0.1-0.2-0.2c-1.9-1.9-3-5.1-3.3-9.8
				c-0.3-4.6,0.3-8,1.9-10.2c1.5-2.1,4-3.4,6.6-3.5c2.7-0.3,5.3,0.6,7.3,2.5c1.9,1.9,3,4.9,3.3,9.2
				C376.4,551.6,375.8,555.2,374.3,557.3L374.3,557.3z"/>
		</g>
		<path class="st4" d="M328.9,559.3c-0.6-1-1.4-1.9-2.2-2.7c-1.5-2-3.8-3.3-6.2-3.6c1.7-0.5,3.3-1.2,4.8-2.2c3.8-2.5,5.8-7,5.3-11.5
			c-0.1-2.6-1-5.2-2.7-7.2c-1.5-1.9-3.5-3.2-5.9-3.8c-3.3-0.6-6.7-0.8-10.1-0.4l-23.5,1.7l3.1,41.7h14.2l-1.1-15.6l1.2-0.1
			c1.2-0.1,2.5,0.2,3.5,0.8c1.2,0.9,2.1,2,2.8,3.3l7.4,11.6h16.7L328.9,559.3z M315.8,544.2c-0.5,0.8-1.3,1.4-2.2,1.6
			c-1.2,0.4-2.4,0.7-3.7,0.9l-6,0.5l-0.7-9.3l6.2-0.5c2.6-0.2,4.4,0.1,5.3,0.8c1,0.8,1.6,2,1.6,3.3
			C316.6,542.5,316.3,543.4,315.8,544.2L315.8,544.2z"/>
	</g>
</g>
</svg>
