<svg xmlns="http://www.w3.org/2000/svg" xmlns:xlink="http://www.w3.org/1999/xlink" viewBox="0 0 320.99 104.87"><defs><style>.cls-1{fill:url(#linear-gradient);}.cls-2{fill:url(#linear-gradient-2);}.cls-3{fill:url(#linear-gradient-3);}.cls-4{fill:url(#linear-gradient-4);}.cls-5{fill:url(#linear-gradient-5);}.cls-6{fill:url(#linear-gradient-6);}.cls-7{fill:url(#linear-gradient-7);}.cls-8{fill:url(#linear-gradient-8);}.cls-9{fill:url(#linear-gradient-9);}.cls-10{fill:url(#linear-gradient-10);}.cls-11{fill:url(#linear-gradient-11);}.cls-12{fill:url(#linear-gradient-12);}.cls-13{fill:url(#linear-gradient-13);}.cls-14{fill:url(#linear-gradient-14);}.cls-15{fill:url(#linear-gradient-15);}.cls-16{fill:url(#linear-gradient-16);}.cls-17{fill:url(#linear-gradient-17);}.cls-18{fill:url(#linear-gradient-18);}.cls-19{fill:url(#linear-gradient-19);}.cls-20{fill:url(#linear-gradient-20);}.cls-21{fill:url(#linear-gradient-21);}.cls-22{fill:url(#linear-gradient-22);}.cls-23{fill:url(#linear-gradient-23);}.cls-24{fill:url(#linear-gradient-24);}.cls-25{fill:url(#linear-gradient-25);}.cls-26{fill:url(#linear-gradient-26);}.cls-27{fill:url(#linear-gradient-27);}.cls-28{fill:url(#linear-gradient-28);}.cls-29{fill:url(#linear-gradient-29);}.cls-30{fill:url(#linear-gradient-30);}.cls-31{fill:url(#linear-gradient-31);}.cls-32{fill:url(#linear-gradient-32);}.cls-33{fill:url(#linear-gradient-33);}</style><linearGradient id="linear-gradient" x1="125.9" y1="37.7" x2="168.72" y2="37.7" gradientUnits="userSpaceOnUse"><stop offset="0" stop-color="#fff"/><stop offset="0.44" stop-color="#fdfdfd"/><stop offset="0.61" stop-color="#f6f6f7"/><stop offset="0.73" stop-color="#eaebeb"/><stop offset="0.83" stop-color="#d9dadb"/><stop offset="0.91" stop-color="#c3c5c6"/><stop offset="0.98" stop-color="#a8abad"/><stop offset="1" stop-color="#a1a4a6"/></linearGradient><linearGradient id="linear-gradient-2" x1="172.28" y1="37.7" x2="222.24" y2="37.7" xlink:href="#linear-gradient"/><linearGradient id="linear-gradient-3" x1="225.81" y1="37.7" x2="268.63" y2="37.7" xlink:href="#linear-gradient"/><linearGradient id="linear-gradient-4" x1="270.91" y1="37.7" x2="320.87" y2="37.7" xlink:href="#linear-gradient"/><linearGradient id="linear-gradient-5" x1="125.94" y1="74.89" x2="142.69" y2="74.89" xlink:href="#linear-gradient"/><linearGradient id="linear-gradient-6" x1="144.54" y1="74.89" x2="163.84" y2="74.89" xlink:href="#linear-gradient"/><linearGradient id="linear-gradient-7" x1="166.57" y1="74.89" x2="185.86" y2="74.89" xlink:href="#linear-gradient"/><linearGradient id="linear-gradient-8" x1="189.41" y1="74.89" x2="203.77" y2="74.89" xlink:href="#linear-gradient"/><linearGradient id="linear-gradient-9" x1="206.72" y1="74.89" x2="220.54" y2="74.89" xlink:href="#linear-gradient"/><linearGradient id="linear-gradient-10" x1="224.08" y1="74.89" x2="239.77" y2="74.89" xlink:href="#linear-gradient"/><linearGradient id="linear-gradient-11" x1="241.26" y1="74.84" x2="260.5" y2="74.84" xlink:href="#linear-gradient"/><linearGradient id="linear-gradient-12" x1="259.66" y1="74.89" x2="274.7" y2="74.89" xlink:href="#linear-gradient"/><linearGradient id="linear-gradient-13" x1="277.93" y1="74.89" x2="281.92" y2="74.89" xlink:href="#linear-gradient"/><linearGradient id="linear-gradient-14" x1="284.9" y1="74.95" x2="303.1" y2="74.95" xlink:href="#linear-gradient"/><linearGradient id="linear-gradient-15" x1="301.75" y1="74.84" x2="320.99" y2="74.84" xlink:href="#linear-gradient"/><linearGradient id="linear-gradient-16" x1="126.14" y1="92.25" x2="136.31" y2="92.25" xlink:href="#linear-gradient"/><linearGradient id="linear-gradient-17" x1="138.46" y1="92.25" x2="146.86" y2="92.25" xlink:href="#linear-gradient"/><linearGradient id="linear-gradient-18" x1="152.79" y1="92.21" x2="164.48" y2="92.21" xlink:href="#linear-gradient"/><linearGradient id="linear-gradient-19" x1="166.17" y1="92.25" x2="175.5" y2="92.25" xlink:href="#linear-gradient"/><linearGradient id="linear-gradient-20" x1="177.65" y1="92.25" x2="189.38" y2="92.25" xlink:href="#linear-gradient"/><linearGradient id="linear-gradient-21" x1="191.53" y1="92.25" x2="201.06" y2="92.25" xlink:href="#linear-gradient"/><linearGradient id="linear-gradient-22" x1="202.91" y1="92.25" x2="212.45" y2="92.25" xlink:href="#linear-gradient"/><linearGradient id="linear-gradient-23" x1="213.81" y1="92.25" x2="225.53" y2="92.25" xlink:href="#linear-gradient"/><linearGradient id="linear-gradient-24" x1="231.27" y1="92.25" x2="242.18" y2="92.25" xlink:href="#linear-gradient"/><linearGradient id="linear-gradient-25" x1="247.92" y1="92.25" x2="258.1" y2="92.25" xlink:href="#linear-gradient"/><linearGradient id="linear-gradient-26" x1="260.03" y1="92.25" x2="269.56" y2="92.25" xlink:href="#linear-gradient"/><linearGradient id="linear-gradient-27" x1="274.25" y1="85.92" x2="278.09" y2="85.92" xlink:href="#linear-gradient"/><linearGradient id="linear-gradient-28" x1="271.41" y1="92.25" x2="279.81" y2="92.25" xlink:href="#linear-gradient"/><linearGradient id="linear-gradient-29" x1="281.96" y1="92.25" x2="292.13" y2="92.25" xlink:href="#linear-gradient"/><linearGradient id="linear-gradient-30" x1="294.39" y1="92.25" x2="296.81" y2="92.25" xlink:href="#linear-gradient"/><linearGradient id="linear-gradient-31" x1="298.78" y1="92.25" x2="307.92" y2="92.25" xlink:href="#linear-gradient"/><linearGradient id="linear-gradient-32" x1="308.81" y1="92.25" x2="320.54" y2="92.25" xlink:href="#linear-gradient"/><linearGradient id="linear-gradient-33" x1="0" y1="52.44" x2="105.36" y2="52.44" xlink:href="#linear-gradient"/></defs><title>logoDegradado</title><g id="Capa_2" data-name="Capa 2"><g id="Capa_1-2" data-name="Capa 1"><path class="cls-1" d="M133.21,22.3q-7.32,6.38-7.31,15.4t7.31,15.41a26,26,0,0,0,17.66,6.38h17.85V47H150.87a11.13,11.13,0,0,1-7.56-2.74,8.51,8.51,0,0,1,0-13.2,11.13,11.13,0,0,1,7.56-2.74h17.85V15.92H150.87A25.93,25.93,0,0,0,133.21,22.3Z"/><path class="cls-2" d="M179.6,53.11a27.65,27.65,0,0,0,35.33,0q7.31-6.39,7.31-15.41t-7.31-15.4a27.65,27.65,0,0,0-35.33,0q-7.32,6.38-7.32,15.4T179.6,53.11Zm10.1-22a11.81,11.81,0,0,1,15.13,0,8.51,8.51,0,0,1,0,13.2,11.81,11.81,0,0,1-15.13,0,8.51,8.51,0,0,1,0-13.2Z"/><path class="cls-3" d="M233.13,53.11a26,26,0,0,0,17.66,6.38h17.84V47H250.79a11.17,11.17,0,0,1-7.57-2.74,8.51,8.51,0,0,1,0-13.2,11.17,11.17,0,0,1,7.57-2.74h17.84V15.92H250.79a25.9,25.9,0,0,0-17.66,6.38q-7.32,6.38-7.32,15.4T233.13,53.11Z"/><path class="cls-4" d="M303,15.92,270.91,59.49h17.84l3.37-4.57H306.6v4.57h14.27V15.92Zm-6,32.29,9.54-12.94V48.21Z"/><path class="cls-5" d="M135.38,70.16a7.43,7.43,0,0,1,4.64,1.7l2.54-2.43a10.42,10.42,0,0,0-7.16-2.32c-5.57,0-9.46,3.5-9.46,7.78v0c0,4.32,4,7.74,9.31,7.74A10.18,10.18,0,0,0,142.69,80l-2.54-2.13a7.21,7.21,0,0,1-4.77,1.77c-3.11,0-5.27-2.15-5.27-4.74v0C130.11,72.27,132.32,70.16,135.38,70.16Z"/><path class="cls-6" d="M163.84,74.89v0c0-4.28-4-7.74-9.62-7.74s-9.68,3.5-9.68,7.78v0c0,4.28,4,7.74,9.63,7.74S163.84,79.18,163.84,74.89Zm-15.12,0v0c0-2.58,2.23-4.69,5.45-4.69s5.49,2.15,5.49,4.73v0c0,2.58-2.23,4.69-5.44,4.69S148.72,77.48,148.72,74.89Z"/><path class="cls-7" d="M185.86,74.89v0c0-4.28-4-7.74-9.61-7.74s-9.68,3.5-9.68,7.78v0c0,4.28,4,7.74,9.62,7.74S185.86,79.18,185.86,74.89Zm-4.17,0c0,2.58-2.23,4.69-5.44,4.69s-5.5-2.15-5.5-4.74v0c0-2.58,2.23-4.69,5.44-4.69s5.5,2.15,5.5,4.73Z"/><path class="cls-8" d="M203.77,72.57c0-3.08-2.62-5.21-7-5.21h-7.41V82.42h4V77.91h3c4.07,0,7.34-1.81,7.34-5.3Zm-4,.11c0,1.29-1.17,2.28-3.17,2.28H193.4V70.35h3.08c2,0,3.25.8,3.25,2.29Z"/><polygon class="cls-9" points="220.41 70.31 220.41 67.36 206.72 67.36 206.72 82.42 220.54 82.42 220.54 79.48 210.69 79.48 210.69 76.31 219.24 76.31 219.24 73.37 210.69 73.37 210.69 70.31 220.41 70.31"/><path class="cls-10" d="M239.77,82.42l-4.44-5.37c2.31-.71,3.89-2.24,3.89-4.67v0c0-3.09-2.56-5-6.84-5h-8.3V82.42h4V77.6h3.14l3.89,4.82Zm-7.65-7.74h-4.05V70.35h4c1.94,0,3.14.74,3.14,2.16v0C235.18,73.82,234.06,74.68,232.12,74.68Z"/><path class="cls-11" d="M256.33,82.42h4.17l-7.78-15.16H249l-7.78,15.16h4.07L247,79.05h7.68Zm-7.91-6.3,2.41-4.88,2.41,4.88Z"/><polygon class="cls-12" points="259.66 70.42 265.18 70.42 265.18 82.42 269.18 82.42 269.18 70.42 274.7 70.42 274.7 67.36 259.66 67.36 259.66 70.42"/><rect class="cls-13" x="277.93" y="67.36" width="3.99" height="15.06"/><polygon class="cls-14" points="303.11 67.36 298.8 67.36 294.06 77.97 289.31 67.36 284.9 67.36 292.24 82.53 295.77 82.53 303.11 67.36"/><path class="cls-15" d="M309.53,67.26l-7.78,15.16h4.07l1.66-3.37h7.67l1.66,3.37H321l-7.78-15.16Zm-.63,8.86,2.42-4.88,2.41,4.88Z"/><path class="cls-16" d="M130.45,87.76h-4.31v9h4.31c3.46,0,5.86-2,5.86-4.48v0C136.31,89.69,133.91,87.76,130.45,87.76Zm3.32,4.51c0,1.59-1.34,2.68-3.32,2.68h-1.88V89.54h1.88c2,0,3.32,1.11,3.32,2.71Z"/><polygon class="cls-17" points="140.87 93.09 146.07 93.09 146.07 91.34 140.87 91.34 140.87 89.51 146.78 89.51 146.78 87.76 138.46 87.76 138.46 96.73 146.86 96.73 146.86 94.98 140.87 94.98 140.87 93.09"/><path class="cls-18" d="M157.51,87.69l-4.72,9h2.47l1-2h4.67l1,2h2.54l-4.73-9ZM157.14,93l1.46-2.91L160.07,93Z"/><polygon class="cls-19" points="173.08 91.31 168.6 91.31 168.6 87.76 166.17 87.76 166.17 96.73 168.6 96.73 168.6 93.13 173.08 93.13 173.08 96.73 175.5 96.73 175.5 87.76 173.08 87.76 173.08 91.31"/><path class="cls-20" d="M183.53,87.6c-3.4,0-5.88,2.09-5.88,4.65v0c0,2.55,2.45,4.62,5.85,4.62s5.88-2.09,5.88-4.64v0C189.38,89.67,186.93,87.6,183.53,87.6Zm3.31,4.67c0,1.54-1.36,2.79-3.31,2.79a3.06,3.06,0,0,1-3.34-2.81v0c0-1.54,1.36-2.8,3.31-2.8a3.07,3.07,0,0,1,3.34,2.83Z"/><path class="cls-21" d="M200.73,90.74v0c0-1.85-1.56-3-4.16-3h-5v9H194V93.86h1.91l2.36,2.87h2.84l-2.69-3.2A2.9,2.9,0,0,0,200.73,90.74Zm-2.46.11c0,.75-.68,1.27-1.86,1.27H194V89.54h2.41c1.19,0,1.91.44,1.91,1.28Z"/><path class="cls-22" d="M212.12,90.74v0c0-1.85-1.57-3-4.17-3h-5v9h2.43V93.86h1.91l2.36,2.87h2.84l-2.7-3.2A2.91,2.91,0,0,0,212.12,90.74Zm-2.46.11c0,.75-.68,1.27-1.86,1.27h-2.46V89.54h2.41c1.18,0,1.91.44,1.91,1.28Z"/><path class="cls-23" d="M219.69,87.6c-3.41,0-5.88,2.09-5.88,4.65v0c0,2.55,2.44,4.62,5.85,4.62s5.87-2.09,5.87-4.64v0C225.53,89.67,223.09,87.6,219.69,87.6ZM223,92.27c0,1.54-1.36,2.79-3.31,2.79s-3.34-1.28-3.34-2.81v0c0-1.54,1.35-2.8,3.31-2.8A3.07,3.07,0,0,1,223,92.25Z"/><polygon class="cls-24" points="236.74 91.36 234.11 87.76 231.27 87.76 235.51 93.19 235.51 96.73 237.94 96.73 237.94 93.16 242.18 87.76 239.42 87.76 236.74 91.36"/><path class="cls-25" d="M253.65,95.06a3,3,0,0,1-3.2-2.81v0a3,3,0,0,1,3.2-2.8,4.53,4.53,0,0,1,2.82,1L258,89a6.43,6.43,0,0,0-4.35-1.39c-3.39,0-5.75,2.09-5.75,4.65v0c0,2.58,2.41,4.62,5.65,4.62a6.28,6.28,0,0,0,4.53-1.61L256.55,94A4.43,4.43,0,0,1,253.65,95.06Z"/><path class="cls-26" d="M269.23,90.74v0c0-1.85-1.56-3-4.16-3h-5v9h2.42V93.86h1.91l2.36,2.87h2.84l-2.69-3.2A2.9,2.9,0,0,0,269.23,90.74Zm-2.46.11c0,.75-.68,1.27-1.86,1.27h-2.46V89.54h2.42c1.18,0,1.9.44,1.9,1.28Z"/><polygon class="cls-27" points="276.08 87.05 278.09 85.51 276.03 84.78 274.25 87.05 276.08 87.05"/><polygon class="cls-28" points="273.82 93.09 279.02 93.09 279.02 91.34 273.82 91.34 273.82 89.51 279.73 89.51 279.73 87.76 271.41 87.76 271.41 96.73 279.81 96.73 279.81 94.98 273.82 94.98 273.82 93.09"/><path class="cls-29" d="M286.26,87.76H282v9h4.3c3.47,0,5.87-2,5.87-4.48v0C292.13,89.69,289.73,87.76,286.26,87.76Zm3.33,4.51c0,1.59-1.34,2.68-3.33,2.68h-1.87V89.54h1.87c2,0,3.33,1.11,3.33,2.71Z"/><rect class="cls-30" x="294.39" y="87.76" width="2.43" height="8.98"/><polygon class="cls-31" points="298.78 89.58 302.14 89.58 302.14 96.73 304.56 96.73 304.56 89.58 307.92 89.58 307.92 87.76 298.78 87.76 298.78 89.58"/><path class="cls-32" d="M314.69,87.6c-3.4,0-5.88,2.09-5.88,4.65v0c0,2.55,2.44,4.62,5.85,4.62s5.88-2.09,5.88-4.64v0C320.54,89.67,318.09,87.6,314.69,87.6ZM318,92.27c0,1.54-1.36,2.79-3.31,2.79a3.06,3.06,0,0,1-3.34-2.81v0c0-1.54,1.35-2.8,3.31-2.8A3.07,3.07,0,0,1,318,92.25Z"/><path class="cls-33" d="M60.77,104.86q-15.48,0-31,0a14.14,14.14,0,0,1-10.52-4.55,22.22,22.22,0,0,1-1.78-2.2.83.83,0,0,0-.79-.39c-1.25,0-2.49,0-3.74,0a12.55,12.55,0,0,1-12.28-9A14.42,14.42,0,0,1,2,77q11.34-20.88,22.6-41.81L35.09,15.88q2.49-4.58,5-9.13A12.25,12.25,0,0,1,48.21.34,12,12,0,0,1,61.49,6c1.2,2,2.26,4.11,3.39,6.17C67,16.11,69.11,20,71.29,23.92c.82,1.46,1.51,3,2.35,4.43s1.64,3,2.46,4.55l2.43,4.51L81,41.92l2.46,4.56L85.84,51q8.79,16.32,17.57,32.64a15,15,0,0,1,1.93,8C105,97.65,101,103.21,95,104.53a13.81,13.81,0,0,1-2.8.32q-15.74,0-31.46,0ZM34.13,21.32,8.44,68.84a1.81,1.81,0,0,0,.19.17A31.34,31.34,0,0,0,21.06,73.5a1.83,1.83,0,0,0,1.06-.27,13.68,13.68,0,0,1,11.37-1.66,15,15,0,0,1,9.75,8.86,38.56,38.56,0,0,1,1.6,5.26,16.64,16.64,0,0,0,4.73,8.36c3,2.68,6.37,4.2,10.41,3.85A12.37,12.37,0,0,0,69,92.77a15.48,15.48,0,0,0,2.88-12.48,14.56,14.56,0,0,0-7-10.48A6.37,6.37,0,0,1,63.77,69,114.36,114.36,0,0,1,52.43,57.14,104.06,104.06,0,0,1,40.36,39,63.07,63.07,0,0,1,34.81,24.6C34.56,23.55,34.37,22.49,34.13,21.32Zm26.68,81.8H92.45a10,10,0,0,0,6.82-2.6,12.6,12.6,0,0,0,4.31-10.77,1.12,1.12,0,0,0-.4-.74,31.7,31.7,0,0,0-18.25-6.24,47.26,47.26,0,0,0-9.71.84c-1.29.23-1.29.22-1.41,1.5v.06A16.87,16.87,0,0,1,69.5,94.9a14,14,0,0,1-12.82,4.61c-4.11-.59-7.29-2.87-9.94-5.9A17.45,17.45,0,0,1,43,85.37,16.44,16.44,0,0,0,38,76a12.13,12.13,0,0,0-7.67-3.24,12,12,0,0,0-9,3.31c-4.8,4.52-6.06,10.14-4.47,16.38A14,14,0,0,0,25,102.22a13.1,13.1,0,0,0,5.52.91C40.61,103.1,50.71,103.12,60.81,103.12Zm-7-47c.16-.18.26-.29.36-.42a94.61,94.61,0,0,0,8.88-12.53A55.28,55.28,0,0,0,69.86,26.8a2.92,2.92,0,0,0-.33-2.46A13,13,0,0,1,68.8,23c-1.76-3.23-3.41-6.52-5.3-9.66a9.11,9.11,0,0,0-9.11-4.6A9.41,9.41,0,0,0,46.72,14c-2.78,5.07-5.51,10.17-8.27,15.26a1.15,1.15,0,0,0-.07,1,81.87,81.87,0,0,0,6.94,13.93A104.34,104.34,0,0,0,53.84,56.12ZM71.43,27.9c-3,11.37-9.19,20.76-16.5,29.66,2,2.15,4,4.27,6,6.43a1.05,1.05,0,0,0,1.3.31,94.27,94.27,0,0,1,14.29-3.87,42.6,42.6,0,0,1,10-.7l2.07.1C82.9,49.18,77.19,38.6,71.43,27.9ZM60.67,8.11a11.25,11.25,0,0,0-2.78-3.75,10,10,0,0,0-8.77-2.44,10.4,10.4,0,0,0-7.36,5.43c-2,3.53-3.9,7.1-5.83,10.67a2.18,2.18,0,0,0-.24,1.2c.19,1.5.42,3,.72,4.49.25,1.24.63,2.45,1,3.82.21-.35.33-.53.43-.73,2.44-4.51,4.88-9,7.33-13.55a11.83,11.83,0,0,1,3.26-3.91A10.65,10.65,0,0,1,56.78,7.1C58.1,7.31,59.38,7.77,60.67,8.11ZM100,80.81c-.72-1.33-1.42-2.68-2.17-4a1.64,1.64,0,0,0-.73-.65,31,31,0,0,0-12.22-2.42,78.35,78.35,0,0,0-7.93.6c-1.6.18-3.18.6-4.82.92.24.58.44,1,.63,1.54s.35,1,.53,1.44C82.45,76.28,91.39,76.36,100,80.81ZM94.14,70c-.66-1.22-1.28-2.39-1.93-3.54a1,1,0,0,0-.57-.36,38,38,0,0,0-11.16-.46,61.49,61.49,0,0,0-10.92,2.14c-1,.29-2.06.6-3.1.91.91.78,1.75,1.52,2.62,2.23a.71.71,0,0,0,.56,0,64.55,64.55,0,0,1,11.11-2.08,36.71,36.71,0,0,1,9,.25C91.16,69.35,92.61,69.7,94.14,70ZM2.57,79.73c-.21.73-.44,1.37-.58,2a.91.91,0,0,0,.28.7,35.72,35.72,0,0,0,11.21,6.74c.33.12.66.21,1,.32,0-.86,0-1.64,0-2.42a.72.72,0,0,0-.59-.86,32.49,32.49,0,0,1-8.38-4.32C4.55,81.24,3.62,80.52,2.57,79.73ZM4.66,75.8a33.92,33.92,0,0,0,10.91,5.66l1.28-2.72a33.75,33.75,0,0,1-11-5.16Zm11.5,20.34.14-.36c-.26-.2-.48-.5-.77-.58A34.61,34.61,0,0,1,3.25,88.84l-.87-.67c1.28,3.88,3.71,6.64,7.74,7.53A40.23,40.23,0,0,0,16.16,96.14Z"/></g></g></svg>