<?xml version="1.0" encoding="utf-8"?>
<!-- Generator: Adobe Illustrator 26.0.0, SVG Export Plug-In . SVG Version: 6.00 Build 0)  -->
<svg version="1.1" id="Capa_1" xmlns="http://www.w3.org/2000/svg" xmlns:xlink="http://www.w3.org/1999/xlink" x="0px" y="0px"
	 viewBox="0 0 271.4 91.2" style="enable-background:new 0 0 271.4 91.2;" xml:space="preserve">
<style type="text/css">
	.st0{fill:url(#SVGID_1_);}
	.st1{fill:url(#SVGID_00000035515149647874634020000009240769993930153103_);}
	.st2{fill:url(#SVGID_00000093869198293256864230000005306428603725249956_);}
	.st3{fill:url(#SVGID_00000074428251161603765420000015653124319820396704_);}
	.st4{fill:url(#SVGID_00000173143095904057089980000009816396693363941048_);}
	.st5{fill:url(#SVGID_00000093152727232307372010000005783611758912379030_);}
	.st6{fill:url(#SVGID_00000096762188660128072050000009655252385943724191_);}
	.st7{fill:url(#SVGID_00000086664003260178810300000007589004039527301028_);}
	.st8{fill:#FFFFFF;}
	.st9{fill:url(#SVGID_00000002353519045860643530000016562120339743768716_);}
	.st10{fill:url(#SVGID_00000083086871474839065790000011753017439694440600_);}
</style>
<g id="Capa_2_00000028293275838268937070000012014165573722463874_">
	<g id="Capa_1-2_00000009561994199629379530000009115132246918331523_">
		<g>
			
				<linearGradient id="SVGID_1_" gradientUnits="userSpaceOnUse" x1="51.8903" y1="96.2655" x2="33.3842" y2="67.9317" gradientTransform="matrix(1 0 0 -1 0 94)">
				<stop  offset="0" style="stop-color:#FFDD3A"/>
				<stop  offset="0.48" style="stop-color:#FDDB3A"/>
				<stop  offset="0.66" style="stop-color:#F7D43A"/>
				<stop  offset="0.79" style="stop-color:#EBC83B"/>
				<stop  offset="0.89" style="stop-color:#DBB73C"/>
				<stop  offset="0.98" style="stop-color:#C6A13D"/>
				<stop  offset="1" style="stop-color:#C19C3D"/>
			</linearGradient>
			<path class="st0" d="M35.9,17.7l3-5.6C41.1,7.6,46.6,5.8,51,8c1.5,0.7,2.8,1.9,3.7,3.3l-0.8-1.5l-1.8-3.3
				C49.7,1.7,43.9-0.3,39,2.1c-1.3,0.6-2.4,1.5-3.2,2.6c-0.5,0.6-0.9,1.2-1.2,1.8l-5.3,9.7c0.3,3.4,1,6.7,2.2,9.8l3.1-5.7L35.9,17.7
				z"/>
			
				<linearGradient id="SVGID_00000060013799498073983070000004708810892216902317_" gradientUnits="userSpaceOnUse" x1="34.8339" y1="85.9869" x2="59.6437" y2="48.5259" gradientTransform="matrix(1 0 0 -1 0 94)">
				<stop  offset="0" style="stop-color:#0D943C"/>
				<stop  offset="1" style="stop-color:#036A41"/>
			</linearGradient>
			<path style="fill:url(#SVGID_00000060013799498073983070000004708810892216902317_);" d="M55.2,12.2l-0.1-0.1
				c-0.2-0.3-0.3-0.6-0.5-0.8c-2.7-4.2-8.3-5.4-12.5-2.8c-1.4,0.9-2.5,2.1-3.2,3.6l-3,5.6l-1.5,2.7L31.4,26
				c1.4,3.9,3.2,7.6,5.3,11.2c2.1,3.7,4.5,7.2,7.2,10.5l0,0l1.8,2.3c1.9-2.2,3.7-4.5,5.3-6.8c5.3-7.5,8.6-14.9,9.6-20.9v-0.1l0,0
				L55.2,12.2z"/>
			
				<linearGradient id="SVGID_00000007396513900401599200000007282556266718927799_" gradientUnits="userSpaceOnUse" x1="60.4273" y1="42.9209" x2="32.0935" y2="-2.4088" gradientTransform="matrix(1 0 0 -1 0 94)">
				<stop  offset="0" style="stop-color:#0D943C"/>
				<stop  offset="1" style="stop-color:#036A41"/>
			</linearGradient>
			<path style="fill:url(#SVGID_00000007396513900401599200000007282556266718927799_);" d="M46.6,51c1.8,2.2,3.7,4.1,5.6,6
				c8.4-2.9,16.8-5.2,25-4L61.7,24.2l-1.1-2.1c-0.9,6.1-4.3,13.6-9.6,21.1c-1.6,2.3-3.3,4.5-5.3,6.8l0.6,0.7L46.6,51z"/>
			
				<linearGradient id="SVGID_00000011007580921111047280000014348548431177531803_" gradientUnits="userSpaceOnUse" x1="77.2525" y1="31.1562" x2="50.3414" y2="-11.9081" gradientTransform="matrix(1 0 0 -1 0 94)">
				<stop  offset="0" style="stop-color:#0D943C"/>
				<stop  offset="1" style="stop-color:#036A41"/>
			</linearGradient>
			<path style="fill:url(#SVGID_00000011007580921111047280000014348548431177531803_);" d="M60.7,65.5c0.4,0.8,0.7,1.6,1,2.4
				c0,0.1,0,0.2,0.1,0.2c8.6-2,17-2,25.2,3l-2.4-4.4C76.8,63,68.8,63.5,60.7,65.5z"/>
			
				<linearGradient id="SVGID_00000151542471124183769780000000870715689306246328_" gradientUnits="userSpaceOnUse" x1="70.2533" y1="36.0232" x2="43.0686" y2="-7.468" gradientTransform="matrix(1 0 0 -1 0 94)">
				<stop  offset="0" style="stop-color:#0D943C"/>
				<stop  offset="1" style="stop-color:#036A41"/>
			</linearGradient>
			<path style="fill:url(#SVGID_00000151542471124183769780000000870715689306246328_);" d="M55.5,60c1,0.6,1.9,1.3,2.7,2.1
				c7.9-2.3,15.7-3.3,23.4-0.7l-2-3.6C71.8,55.7,63.7,57.4,55.5,60z"/>
			
				<linearGradient id="SVGID_00000029733780658822892190000002712423011717877656_" gradientUnits="userSpaceOnUse" x1="-0.6397" y1="36.7699" x2="38.8241" y2="-4.5981" gradientTransform="matrix(1 0 0 -1 0 94)">
				<stop  offset="0" style="stop-color:#FFDD3A"/>
				<stop  offset="0.48" style="stop-color:#FDDB3A"/>
				<stop  offset="0.66" style="stop-color:#F7D43A"/>
				<stop  offset="0.79" style="stop-color:#EBC83B"/>
				<stop  offset="0.89" style="stop-color:#DBB73C"/>
				<stop  offset="0.98" style="stop-color:#C6A13D"/>
				<stop  offset="1" style="stop-color:#C19C3D"/>
			</linearGradient>
			<path style="fill:url(#SVGID_00000029733780658822892190000002712423011717877656_);" d="M14.6,68.5c-3.9-0.9-7.7-2.6-10.9-5.1
				l-1.1,2C5.8,68,9.5,69.9,13.4,71C13.7,70.1,14.1,69.3,14.6,68.5z"/>
			
				<linearGradient id="SVGID_00000036253632645994658380000014950423218261249941_" gradientUnits="userSpaceOnUse" x1="-4.722" y1="32.6115" x2="34.7527" y2="-8.7675" gradientTransform="matrix(1 0 0 -1 0 94)">
				<stop  offset="0" style="stop-color:#FFDD3A"/>
				<stop  offset="0.48" style="stop-color:#FDDB3A"/>
				<stop  offset="0.66" style="stop-color:#F7D43A"/>
				<stop  offset="0.79" style="stop-color:#EBC83B"/>
				<stop  offset="0.89" style="stop-color:#DBB73C"/>
				<stop  offset="0.98" style="stop-color:#C6A13D"/>
				<stop  offset="1" style="stop-color:#C19C3D"/>
			</linearGradient>
			<path style="fill:url(#SVGID_00000036253632645994658380000014950423218261249941_);" d="M12.5,76.3c0-0.4,0-0.8,0.1-1.1
				C8.2,73.9,4.3,71.7,1,68.6c-0.3,0.7-0.6,1.4-0.7,2.2c3.5,3.3,7.7,5.8,12.3,7.2C12.5,77.5,12.5,76.9,12.5,76.3z"/>
			
				<linearGradient id="SVGID_00000044154715457853967280000018010838877375941555_" gradientUnits="userSpaceOnUse" x1="-7.8968" y1="29.2294" x2="31.3919" y2="-11.9526" gradientTransform="matrix(1 0 0 -1 0 94)">
				<stop  offset="0" style="stop-color:#FFDD3A"/>
				<stop  offset="0.48" style="stop-color:#FDDB3A"/>
				<stop  offset="0.66" style="stop-color:#F7D43A"/>
				<stop  offset="0.79" style="stop-color:#EBC83B"/>
				<stop  offset="0.89" style="stop-color:#DBB73C"/>
				<stop  offset="0.98" style="stop-color:#C6A13D"/>
				<stop  offset="1" style="stop-color:#C19C3D"/>
			</linearGradient>
			<path style="fill:url(#SVGID_00000044154715457853967280000018010838877375941555_);" d="M0.2,75.4C1,80.3,5.1,83.9,10,84h4.5
				c-0.2-0.4-0.4-0.8-0.7-1.2C8.7,81.6,4,79,0.2,75.4z"/>
			<path class="st8" d="M52.2,56.9c0.9,0.9,1.9,1.8,2.8,2.6c0.2,0.1,0.4,0.2,0.5,0.4c8.1-2.6,16.3-4.3,24.1-2.3L77.2,53
				C69,51.7,60.6,54,52.2,56.9z"/>
			<path class="st8" d="M18.1,64.7c-4.5-0.5-8.8-2.1-12.6-4.6l-1.8,3.3c3.2,2.4,6.9,4.2,10.9,5.1C15.5,67,16.7,65.7,18.1,64.7z"/>
			<path class="st8" d="M58.3,62c0.5,0.5,1,1.1,1.4,1.7c0.4,0.6,0.8,1.2,1.1,1.8c8.1-2,16-2.5,23.8,1.3l-2.9-5.5
				C74,58.7,66.2,59.8,58.3,62z"/>
			<path class="st8" d="M13.4,71c-3.9-1.1-7.6-3-10.8-5.6l-1.3,2.4c-0.1,0.3-0.3,0.5-0.4,0.8c3.3,3,7.3,5.3,11.6,6.6
				C12.6,73.7,12.9,72.3,13.4,71z"/>
			
				<linearGradient id="SVGID_00000012441136615887251500000012844848917528328102_" gradientUnits="userSpaceOnUse" x1="73.0385" y1="42.6191" x2="34.1547" y2="-2.5793" gradientTransform="matrix(1 0 0 -1 0 94)">
				<stop  offset="0" style="stop-color:#0D943C"/>
				<stop  offset="1" style="stop-color:#036A41"/>
			</linearGradient>
			<path style="fill:url(#SVGID_00000012441136615887251500000012844848917528328102_);" d="M89.3,77c-8.8-6.6-17.8-6.8-27-4.8
				c0,5.8-3.3,11.1-8.6,12.9c-2.1,0.7-4.4,0.8-6.6,0.2c-1.4-0.4-2.7-1-3.8-1.8c-0.7-0.5-1.4-1-1.9-1.7c-0.8-0.6-1.4-1.4-2-2.2
				c-0.7-1.1-1.3-2.4-1.7-3.6c-0.3-0.8-0.5-1.5-0.6-2.1c0-0.2-0.1-0.3-0.1-0.4c0-0.2-0.1-0.6-0.2-0.9l0,0c-0.3-1-0.6-2-1.1-3
				c-0.4-0.8-0.9-1.6-1.5-2.4c-0.9-1.2-2.1-2.3-3.4-3.1L30.5,64h-0.1L30,63.8l-0.4-0.3l-0.5-0.2l-0.4-0.1c-0.3-0.1-0.5-0.2-0.8-0.3
				h-0.2l-0.7-0.2l-0.3-0.1l-0.7-0.1h-0.3c-0.3,0-0.6,0-0.9,0c-2.4,0-4.8,0.8-6.7,2.2c-1.4,1-2.6,2.3-3.5,3.8
				c-0.5,0.8-0.9,1.6-1.2,2.5c-0.5,1.4-0.8,2.8-0.9,4.2c0,0.4-0.1,0.7-0.1,1.1c0,0.6,0,1.1,0.1,1.7c0.2,1.7,0.6,3.3,1.3,4.8
				c0.2,0.4,0.4,0.8,0.7,1.2c0.8,1.3,1.7,2.4,2.9,3.4c1.9,1.6,4.2,2.6,6.6,2.7c0.3,0,0.5,0,0.8,0h0.6h53.4
				C85.7,90.2,90.4,83.6,89.3,77z"/>
			<path class="st8" d="M61.8,68.2c0.2,0.8,0.4,1.5,0.5,2.3c0.1,0.6,0.1,1.2,0.1,1.7c9.2-2,18.3-1.7,27,4.8
				c-0.2-1.3-0.7-2.6-1.3-3.8L87,71.2C78.8,66.2,70.3,66.2,61.8,68.2z"/>
			<path class="st8" d="M12.6,78c-4.6-1.4-8.8-3.9-12.3-7.2c-0.3,1.5-0.3,3.1,0,4.6C4.1,79,8.8,81.6,14,82.8
				C13.2,81.3,12.8,79.7,12.6,78z"/>
			
				<linearGradient id="SVGID_00000106832656526415761020000008065931261672480664_" gradientUnits="userSpaceOnUse" x1="5.5413" y1="43.0266" x2="62.3512" y2="43.0266" gradientTransform="matrix(1 0 0 -1 0 94)">
				<stop  offset="0" style="stop-color:#FFDD3A"/>
				<stop  offset="0.48" style="stop-color:#FDDB3A"/>
				<stop  offset="0.66" style="stop-color:#F7D43A"/>
				<stop  offset="0.79" style="stop-color:#EBC83B"/>
				<stop  offset="0.89" style="stop-color:#DBB73C"/>
				<stop  offset="0.98" style="stop-color:#C6A13D"/>
				<stop  offset="1" style="stop-color:#C19C3D"/>
			</linearGradient>
			<path style="fill:url(#SVGID_00000106832656526415761020000008065931261672480664_);" d="M62.2,70.5c-0.1-0.8-0.3-1.6-0.5-2.3
				c0-0.1,0-0.2-0.1-0.2c-0.2-0.8-0.6-1.7-1-2.4c-0.3-0.6-0.7-1.2-1.1-1.8c-0.4-0.6-0.9-1.2-1.4-1.7c-0.8-0.8-1.7-1.5-2.7-2.1
				c-0.2-0.1-0.4-0.3-0.5-0.4c-0.9-0.8-1.9-1.7-2.8-2.6c-1.9-1.8-3.8-3.8-5.6-6l-0.2-0.2L45.7,50c-0.6-0.8-1.3-1.5-1.9-2.3
				c-2.6-3.3-5-6.8-7.2-10.5c-2.1-3.5-3.9-7.3-5.3-11.1c-1.2-3.1-1.9-6.4-2.2-9.8L5.5,60.1c3.8,2.5,8.1,4.1,12.6,4.6
				c2-1.4,4.3-2.2,6.7-2.2c0.3,0,0.6,0,0.9,0h0.3l0.7,0.1l0.3,0.1l0.7,0.2H28c0.3,0.1,0.5,0.2,0.8,0.3l0.4,0.1l0.5,0.2l0.4,0.2
				l0.4,0.2h0.1l0.4,0.2c1.3,0.8,2.5,1.9,3.4,3.1c0.6,0.7,1.1,1.5,1.5,2.4c0.5,0.9,0.8,1.9,1.1,3l0,0c0.1,0.3,0.1,0.6,0.2,0.9
				c0.1,0.3,0.1,0.3,0.1,0.4c0.1,0.6,0.3,1.3,0.6,2.1c0.4,1.3,1,2.6,1.7,3.8c0.5,0.8,1.2,1.6,2,2.2c0.6,0.6,1.2,1.2,1.9,1.7
				c1.2,0.8,2.5,1.4,3.8,1.8c2.2,0.6,4.4,0.5,6.6-0.2c5.3-1.8,8.7-7.1,8.7-12.8C62.3,71.7,62.3,71.1,62.2,70.5z"/>
		</g>
		<g>
			<path class="st8" d="M111.4,20.2c-7.3,5.9-8.4,16.5-2.5,23.8c0.7,0.9,1.6,1.7,2.5,2.5c4.2,3.6,9.5,5.6,15,5.5h15.2V41.2h-15.2
				c-2.4,0.1-4.7-0.8-6.4-2.3c-3.1-2.5-3.6-7.1-1-10.2c0.3-0.4,0.7-0.7,1-1c1.8-1.6,4.1-2.4,6.4-2.3h15.2V14.7h-15.2
				C120.9,14.6,115.5,16.5,111.4,20.2z"/>
			<path class="st8" d="M150.9,46.4c8.7,7.2,21.4,7.2,30.1,0c7.3-5.9,8.3-16.6,2.4-23.8c-0.7-0.9-1.6-1.7-2.4-2.4
				c-8.7-7.3-21.4-7.3-30.1,0c-7.3,5.9-8.3,16.6-2.4,23.8C149.2,44.8,150,45.7,150.9,46.4z M159.5,27.7c3.7-3.1,9.2-3.1,12.9,0
				c3.1,2.5,3.6,7.1,1.1,10.2c-0.3,0.4-0.7,0.7-1.1,1.1c-3.7,3.1-9.2,3.1-12.9,0c-3.1-2.5-3.6-7.1-1-10.2
				C158.7,28.3,159.1,28,159.5,27.7z"/>
			<path class="st8" d="M196.4,46.4c4.2,3.6,9.5,5.6,15,5.5h15.2V41.2h-15.2c-2.4,0.1-4.7-0.8-6.4-2.3c-3.1-2.5-3.6-7.1-1.1-10.2
				c0.3-0.4,0.7-0.7,1.1-1.1c1.8-1.6,4.1-2.4,6.4-2.3h15.2V14.7h-15.2c-5.5-0.1-10.9,1.8-15,5.5c-7.3,5.9-8.3,16.6-2.4,23.8
				C194.7,44.9,195.5,45.7,196.4,46.4L196.4,46.4z"/>
			<path class="st8" d="M256,14.7l-27.4,37.1h15.2l2.9-3.9H259v3.9h12.2V14.7H256z M250.9,42.2l8.1-11v11H250.9z"/>
			<path class="st8" d="M113.2,61c1.4,0,2.8,0.5,4,1.4l2.2-2.1c-1.7-1.4-3.9-2.1-6.1-2c-4.7,0-8.1,3-8.1,6.6l0,0
				c0,3.7,3.4,6.6,7.9,6.6c2.3,0.1,4.6-0.7,6.3-2.3l-2.2-1.8c-1.1,1-2.6,1.5-4.1,1.5c-2.3,0.2-4.3-1.6-4.5-3.9c0-0.1,0-0.1,0-0.2
				l0,0C108.8,62.6,110.8,60.9,113.2,61C113.1,61,113.2,61,113.2,61z"/>
			<path class="st8" d="M137.4,65L137.4,65c0-3.6-3.4-6.6-8.2-6.6s-8.2,3-8.2,6.6l0,0c0,3.6,3.4,6.6,8.2,6.6S137.4,68.7,137.4,65z
				 M124.6,65L124.6,65c0-2.2,1.9-4,4.6-4c2.7,0,4.7,1.8,4.7,4l0,0c0,2.2-1.9,4-4.6,4C126.5,69.1,124.6,67.2,124.6,65z"/>
			<path class="st8" d="M156.2,65L156.2,65c0-3.6-3.4-6.6-8.2-6.6s-8.3,3-8.3,6.6l0,0c0,3.6,3.4,6.6,8.2,6.6S156.2,68.7,156.2,65z
				 M152.7,65c0,2.2-1.9,4-4.6,4s-4.7-1.8-4.7-4l0,0c0-2.2,1.9-4,4.6-4S152.7,62.9,152.7,65L152.7,65z"/>
			<path class="st8" d="M171.5,63.1c0-2.6-2.2-4.4-5.9-4.4h-6.3v12.8h3.4v-3.9h2.6C168.7,67.6,171.5,66.1,171.5,63.1L171.5,63.1z
				 M168,63.1c0,1.1-1,1.9-2.7,1.9h-2.7v-3.9h2.6C166.9,61.2,168,61.8,168,63.1L168,63.1z"/>
			<polygon class="st8" points="185.7,61.1 185.7,58.6 174,58.6 174,71.4 185.8,71.4 185.8,68.9 177.4,68.9 177.4,66.2 184.7,66.2 
				184.7,63.7 177.4,63.7 177.4,61.1 			"/>
			<path class="st8" d="M202.2,71.4l-3.8-4.6c2-0.6,3.3-1.9,3.3-4l0,0c0-2.6-2.2-4.2-5.8-4.2h-7.1v12.8h3.4v-4.1h2.7l3.3,4.1H202.2z
				 M195.6,64.9h-3.4v-3.7h3.4c1.7,0,2.7,0.6,2.7,1.8l0,0C198.2,64.1,197.3,64.8,195.6,64.9L195.6,64.9z"/>
			<path class="st8" d="M216.3,71.4h3.6l-6.6-12.9h-3.2l-6.6,12.9h3.5l1.4-2.9h6.6L216.3,71.4z M209.5,66.1l2.1-4.2l2.1,4.2H209.5z"
				/>
			<polygon class="st8" points="219.1,61.2 223.8,61.2 223.8,71.4 227.2,71.4 227.2,61.2 231.9,61.2 231.9,58.6 219.1,58.6 			"/>
			<rect x="234.7" y="58.6" class="st8" width="3.4" height="12.8"/>
			<polygon class="st8" points="256.1,58.6 252.5,58.6 248.4,67.7 244.4,58.6 240.6,58.6 246.9,71.5 249.9,71.5 			"/>
			<path class="st8" d="M261.6,58.5L255,71.4h3.5l1.4-2.9h6.6l1.4,2.9h3.5l-6.6-12.9L261.6,58.5z M261.1,66.1l2.1-4.2l2.1,4.2H261.1
				z"/>
			<path class="st8" d="M109,75.9h-3.7v7.7h3.7c3,0,5-1.7,5-3.8l0,0C114,77.6,111.9,75.9,109,75.9z M111.8,79.8
				c0,1.4-1.1,2.3-2.8,2.3h-1.6v-4.6h1.6C110.7,77.5,111.8,78.4,111.8,79.8L111.8,79.8z"/>
			<polygon class="st8" points="117.9,80.5 122.3,80.5 122.3,79 117.9,79 117.9,77.4 122.9,77.4 122.9,75.9 115.8,75.9 115.8,83.6 
				123,83.6 123,82.1 117.9,82.1 			"/>
			<path class="st8" d="M132.1,75.9l-4,7.7h2.2l0.9-1.7h4l0.9,1.7h2.2l-4-7.7H132.1z M131.7,80.4l1.2-2.5l1.2,2.5H131.7z"/>
			<polygon class="st8" points="145.3,79 141.5,79 141.5,75.9 139.5,75.9 139.5,83.6 141.5,83.6 141.5,80.5 145.3,80.5 145.3,83.6 
				147.4,83.6 147.4,75.9 145.3,75.9 			"/>
			<path class="st8" d="M154.3,75.8c-2.9,0-5,1.8-5,4l0,0c0,2.2,2.1,3.9,5,3.9s5-1.8,5-4l0,0C159.2,77.6,157.2,75.8,154.3,75.8z
				 M157.1,79.8c-0.1,1.4-1.3,2.5-2.7,2.4c0,0-0.1,0-0.1,0c-1.4,0.1-2.7-0.9-2.8-2.3c0,0,0,0,0-0.1l0,0c0.1-1.4,1.3-2.5,2.7-2.4
				c0,0,0.1,0,0.1,0C155.7,77.2,157,78.3,157.1,79.8C157.1,79.7,157.1,79.8,157.1,79.8L157.1,79.8z"/>
			<path class="st8" d="M168.9,78.5L168.9,78.5c0-1.6-1.3-2.5-3.5-2.5h-4.3v7.7h2.1v-2.5h1.6l2,2.4h2.4l-2.3-2.7
				C168,80.7,168.9,79.7,168.9,78.5z M166.8,78.6c0,0.6-0.6,1.1-1.6,1.1h-2.1v-2.2h2.1C166.2,77.5,166.9,77.9,166.8,78.6L166.8,78.6
				z"/>
			<path class="st8" d="M178.6,78.5L178.6,78.5c0-1.6-1.3-2.5-3.5-2.5h-4.3v7.7h2.1v-2.5h1.6l2,2.4h2.4l-2.3-2.7
				C177.8,80.6,178.6,79.7,178.6,78.5z M176.5,78.6c0,0.6-0.6,1.1-1.6,1.1h-2.1v-2.2h2C175.9,77.5,176.6,77.9,176.5,78.6L176.5,78.6
				z"/>
			<path class="st8" d="M185.1,75.8c-2.9,0-5,1.8-5,4l0,0c0,2.2,2.1,3.9,5,3.9s5-1.8,5-4l0,0C190.1,77.6,188,75.8,185.1,75.8z
				 M187.9,79.8c-0.1,1.4-1.3,2.5-2.7,2.4c0,0-0.1,0-0.1,0c-1.4,0.1-2.7-0.9-2.8-2.3c0,0,0,0,0-0.1l0,0c0.1-1.4,1.3-2.5,2.7-2.4
				c0,0,0.1,0,0.1,0C186.5,77.3,187.8,78.3,187.9,79.8C187.9,79.8,187.9,79.8,187.9,79.8z"/>
			<polygon class="st8" points="199.6,79 197.4,75.9 195,75.9 198.6,80.6 198.6,83.6 200.6,83.6 200.6,80.6 204.3,75.9 201.9,75.9 
							"/>
			<path class="st8" d="M214,82.2c-1.4,0.1-2.6-0.9-2.7-2.3c0,0,0-0.1,0-0.1l0,0c0.1-1.4,1.3-2.5,2.7-2.4c0,0,0,0,0.1,0
				c0.9,0,1.7,0.3,2.4,0.9l1.3-1.2c-1-0.8-2.4-1.3-3.7-1.2c-2.9,0-4.9,1.8-4.9,4l0,0c0,2.2,2.1,3.9,4.8,3.9c1.4,0.1,2.8-0.4,3.9-1.4
				l-1.3-1.1C215.8,81.9,215,82.2,214,82.2z"/>
			<path class="st8" d="M227.3,78.5L227.3,78.5c0-1.6-1.3-2.5-3.5-2.5h-4.3v7.7h2.1v-2.5h1.7l2,2.4h2.4l-2.3-2.7
				C226.5,80.7,227.3,79.7,227.3,78.5z M225.2,78.6c0,0.6-0.6,1.1-1.6,1.1h-2.1v-2.2h2C224.6,77.5,225.2,77.9,225.2,78.6z"/>
			<polygon class="st8" points="233.2,75.3 234.9,74 233.1,73.4 231.6,75.3 			"/>
			<polygon class="st8" points="231.2,80.5 235.7,80.5 235.7,79 231.2,79 231.2,77.4 236.3,77.4 236.3,75.9 229.2,75.9 229.2,83.6 
				236.3,83.6 236.3,82.1 231.2,82.1 			"/>
			<path class="st8" d="M241.8,75.9h-3.7v7.7h3.7c3,0,5-1.7,5-3.8l0,0C246.8,77.6,244.8,75.9,241.8,75.9z M244.7,79.8
				c0,1.4-1.1,2.3-2.8,2.3h-1.6v-4.6h1.6C243.5,77.5,244.7,78.4,244.7,79.8L244.7,79.8z"/>
			<rect x="248.8" y="75.9" class="st8" width="2.1" height="7.6"/>
			<polygon class="st8" points="252.5,77.5 255.4,77.5 255.4,83.6 257.5,83.6 257.5,77.5 260.3,77.5 260.3,75.9 252.5,75.9 			"/>
			<path class="st8" d="M266.1,75.8c-2.9,0-5,1.8-5,4l0,0c0,2.2,2.1,3.9,5,3.9c2.9,0,5-1.8,5-4l0,0C271.1,77.6,269,75.8,266.1,75.8z
				 M268.9,79.8c-0.1,1.4-1.3,2.5-2.7,2.4c0,0-0.1,0-0.1,0c-1.4,0.1-2.7-0.9-2.8-2.3c0,0,0,0,0-0.1l0,0c0.1-1.4,1.3-2.5,2.7-2.4
				c0,0,0.1,0,0.1,0C267.5,77.3,268.8,78.3,268.9,79.8C268.9,79.8,268.9,79.8,268.9,79.8z"/>
		</g>
	</g>
</g>
</svg>
