<?xml version="1.0" encoding="utf-8"?>
<!-- Generator: Adobe Illustrator 26.0.0, SVG Export Plug-In . SVG Version: 6.00 Build 0)  -->
<svg version="1.1" id="Capa_1" xmlns="http://www.w3.org/2000/svg" xmlns:xlink="http://www.w3.org/1999/xlink" x="0px" y="0px"
	 viewBox="0 0 91.2 91.2" style="enable-background:new 0 0 91.2 91.2;" xml:space="preserve">
<style type="text/css">
	.st0{fill:url(#SVGID_1_);}
	.st1{fill:url(#SVGID_00000050632604196126804330000005091029706193734312_);}
	.st2{fill:url(#SVGID_00000132772280387648244260000011454547647583180198_);}
	.st3{fill:url(#SVGID_00000073000475518288274820000000698525925497960865_);}
	.st4{fill:url(#SVGID_00000090290708463745971350000008285751327448738957_);}
	.st5{fill:url(#SVGID_00000139257375972310589880000001328521090510089632_);}
	.st6{fill:url(#SVGID_00000029011719787609421670000008729086603839431860_);}
	.st7{fill:url(#SVGID_00000080183291499776326910000000472682049594646446_);}
	.st8{fill:#FFFFFF;}
	.st9{fill:url(#SVGID_00000103948327172918523080000009452489654289748366_);}
	.st10{fill:url(#SVGID_00000009548108467385336380000004505286882788177557_);}
	.st11{fill:none;}
</style>
<g>
	<g>
		
			<linearGradient id="SVGID_1_" gradientUnits="userSpaceOnUse" x1="52.6707" y1="95.6702" x2="34.3946" y2="67.6887" gradientTransform="matrix(1 0 0 -1 0 94)">
			<stop  offset="0" style="stop-color:#FFDD3A"/>
			<stop  offset="0.48" style="stop-color:#FDDB3A"/>
			<stop  offset="0.66" style="stop-color:#F7D43A"/>
			<stop  offset="0.79" style="stop-color:#EBC83B"/>
			<stop  offset="0.89" style="stop-color:#DBB73C"/>
			<stop  offset="0.98" style="stop-color:#C6A13D"/>
			<stop  offset="1" style="stop-color:#C19C3D"/>
		</linearGradient>
		<path class="st0" d="M36.9,18l3-5.5c2.2-4.4,7.5-6.2,12-4.1c1.5,0.7,2.7,1.9,3.6,3.3l-0.8-1.5L52.9,7C50.5,2.2,44.7,0.3,40,2.6
			c-1.2,0.6-2.3,1.5-3.2,2.6c-0.5,0.6-0.9,1.2-1.2,1.8l-5.3,9.6c0.3,3.3,1,6.6,2.2,9.7l3-5.6L36.9,18z"/>
		
			<linearGradient id="SVGID_00000116209896360010058780000011454396101187547828_" gradientUnits="userSpaceOnUse" x1="35.8263" y1="85.5194" x2="60.3277" y2="48.5241" gradientTransform="matrix(1 0 0 -1 0 94)">
			<stop  offset="0" style="stop-color:#0D943C"/>
			<stop  offset="1" style="stop-color:#036A41"/>
		</linearGradient>
		<path style="fill:url(#SVGID_00000116209896360010058780000011454396101187547828_);" d="M55.9,12.7l-0.1-0.1
			c-0.2-0.3-0.3-0.6-0.5-0.8C52.7,7.6,47.2,6.3,43.1,9c-1.4,0.9-2.5,2.1-3.2,3.5l-3,5.5l-1.4,2.7l-3,5.6c1.4,3.8,3.1,7.5,5.2,11.1
			c2.1,3.6,4.5,7.1,7.1,10.4l0,0l1.8,2.2c1.9-2.2,3.6-4.4,5.2-6.7c5.2-7.4,8.5-14.7,9.4-20.7v-0.1l0,0L55.9,12.7z"/>
		
			<linearGradient id="SVGID_00000124130932891630138910000004148427576516331401_" gradientUnits="userSpaceOnUse" x1="61.1016" y1="42.9888" x2="33.12" y2="-1.7773" gradientTransform="matrix(1 0 0 -1 0 94)">
			<stop  offset="0" style="stop-color:#0D943C"/>
			<stop  offset="1" style="stop-color:#036A41"/>
		</linearGradient>
		<path style="fill:url(#SVGID_00000124130932891630138910000004148427576516331401_);" d="M47.4,50.9c1.8,2.2,3.7,4.1,5.5,5.9
			c8.3-2.9,16.6-5.1,24.7-3.9L62.3,24.5l-1.1-2.1c-0.9,6-4.2,13.4-9.4,20.8c-1.6,2.2-3.2,4.5-5.2,6.7l0.6,0.7L47.4,50.9z"/>
		
			<linearGradient id="SVGID_00000006693693376199486310000009208390389727679128_" gradientUnits="userSpaceOnUse" x1="77.7176" y1="31.3704" x2="51.1411" y2="-11.1586" gradientTransform="matrix(1 0 0 -1 0 94)">
			<stop  offset="0" style="stop-color:#0D943C"/>
			<stop  offset="1" style="stop-color:#036A41"/>
		</linearGradient>
		<path style="fill:url(#SVGID_00000006693693376199486310000009208390389727679128_);" d="M61.4,65.3c0.4,0.8,0.7,1.6,1,2.4
			c0,0.1,0,0.2,0.1,0.2c8.5-1.9,16.8-2,24.9,2.9l-2.3-4.3C77.3,62.8,69.4,63.3,61.4,65.3z"/>
		
			<linearGradient id="SVGID_00000054954910496618609950000015395712123269839752_" gradientUnits="userSpaceOnUse" x1="70.8054" y1="36.1768" x2="43.9587" y2="-6.7736" gradientTransform="matrix(1 0 0 -1 0 94)">
			<stop  offset="0" style="stop-color:#0D943C"/>
			<stop  offset="1" style="stop-color:#036A41"/>
		</linearGradient>
		<path style="fill:url(#SVGID_00000054954910496618609950000015395712123269839752_);" d="M56.3,59.8c1,0.6,1.9,1.2,2.7,2
			c7.8-2.2,15.6-3.2,23.1-0.7l-1.9-3.6C72.4,55.6,64.3,57.2,56.3,59.8z"/>
		
			<linearGradient id="SVGID_00000082356577002824955380000004218270859222568630_" gradientUnits="userSpaceOnUse" x1="0.7937" y1="36.9143" x2="39.7669" y2="-3.9394" gradientTransform="matrix(1 0 0 -1 0 94)">
			<stop  offset="0" style="stop-color:#FFDD3A"/>
			<stop  offset="0.48" style="stop-color:#FDDB3A"/>
			<stop  offset="0.66" style="stop-color:#F7D43A"/>
			<stop  offset="0.79" style="stop-color:#EBC83B"/>
			<stop  offset="0.89" style="stop-color:#DBB73C"/>
			<stop  offset="0.98" style="stop-color:#C6A13D"/>
			<stop  offset="1" style="stop-color:#C19C3D"/>
		</linearGradient>
		<path style="fill:url(#SVGID_00000082356577002824955380000004218270859222568630_);" d="M15.9,68.2c-3.9-0.9-7.6-2.6-10.7-5
			l-1.1,2c3.1,2.5,6.7,4.4,10.6,5.5C15,69.8,15.4,69,15.9,68.2z"/>
		
			<linearGradient id="SVGID_00000017488130872913215890000009740378186775997365_" gradientUnits="userSpaceOnUse" x1="-3.2379" y1="32.8076" x2="35.7461" y2="-8.057" gradientTransform="matrix(1 0 0 -1 0 94)">
			<stop  offset="0" style="stop-color:#FFDD3A"/>
			<stop  offset="0.48" style="stop-color:#FDDB3A"/>
			<stop  offset="0.66" style="stop-color:#F7D43A"/>
			<stop  offset="0.79" style="stop-color:#EBC83B"/>
			<stop  offset="0.89" style="stop-color:#DBB73C"/>
			<stop  offset="0.98" style="stop-color:#C6A13D"/>
			<stop  offset="1" style="stop-color:#C19C3D"/>
		</linearGradient>
		<path style="fill:url(#SVGID_00000017488130872913215890000009740378186775997365_);" d="M13.7,75.9c0-0.4,0-0.7,0.1-1.1
			c-4.2-1.3-8.1-3.5-11.4-6.5c-0.3,0.7-0.5,1.4-0.7,2.2c3.4,3.3,7.6,5.7,12.2,7.1C13.8,77.1,13.7,76.5,13.7,75.9z"/>
		
			<linearGradient id="SVGID_00000028283158890577261170000015632606837108227972_" gradientUnits="userSpaceOnUse" x1="-6.3731" y1="29.4675" x2="32.4271" y2="-11.2025" gradientTransform="matrix(1 0 0 -1 0 94)">
			<stop  offset="0" style="stop-color:#FFDD3A"/>
			<stop  offset="0.48" style="stop-color:#FDDB3A"/>
			<stop  offset="0.66" style="stop-color:#F7D43A"/>
			<stop  offset="0.79" style="stop-color:#EBC83B"/>
			<stop  offset="0.89" style="stop-color:#DBB73C"/>
			<stop  offset="0.98" style="stop-color:#C6A13D"/>
			<stop  offset="1" style="stop-color:#C19C3D"/>
		</linearGradient>
		<path style="fill:url(#SVGID_00000028283158890577261170000015632606837108227972_);" d="M1.6,75c0.8,4.8,4.9,8.4,9.7,8.5h4.4
			c-0.2-0.4-0.4-0.8-0.6-1.2C10,81.1,5.4,78.6,1.6,75z"/>
		<path class="st8" d="M53,56.8c0.9,0.9,1.8,1.8,2.8,2.6c0.2,0.1,0.4,0.2,0.5,0.4c8-2.6,16.1-4.2,23.8-2.3l-2.5-4.6
			C69.5,51.7,61.3,53.9,53,56.8z"/>
		<path class="st8" d="M19.3,64.4c-4.4-0.5-8.7-2-12.4-4.5l-1.8,3.2c3.2,2.4,6.8,4.1,10.7,5C16.8,66.7,17.9,65.4,19.3,64.4z"/>
		<path class="st8" d="M59,61.8c0.5,0.5,1,1.1,1.4,1.7c0.4,0.6,0.8,1.2,1.1,1.8c8-2,15.8-2.5,23.5,1.2l-2.9-5.4
			C74.5,58.5,66.8,59.6,59,61.8z"/>
		<path class="st8" d="M14.7,70.7c-3.9-1.1-7.5-2.9-10.6-5.5l-1.3,2.4c-0.1,0.2-0.3,0.5-0.4,0.7c3.3,3,7.2,5.2,11.4,6.5
			C13.9,73.4,14.2,72,14.7,70.7z"/>
		
			<linearGradient id="SVGID_00000036225477603973723110000008773132496281971586_" gradientUnits="userSpaceOnUse" x1="73.5559" y1="42.6908" x2="35.1556" y2="-1.9457" gradientTransform="matrix(1 0 0 -1 0 94)">
			<stop  offset="0" style="stop-color:#0D943C"/>
			<stop  offset="1" style="stop-color:#036A41"/>
		</linearGradient>
		<path style="fill:url(#SVGID_00000036225477603973723110000008773132496281971586_);" d="M89.7,76.6C81,70.1,72.1,69.9,63,71.9
			c0,5.7-3.2,11-8.5,12.8c-2.1,0.7-4.4,0.8-6.5,0.2c-1.3-0.4-2.6-0.9-3.8-1.7c-0.7-0.5-1.3-1-1.9-1.6c-0.8-0.6-1.4-1.3-1.9-2.2
			c-0.7-1.1-1.3-2.3-1.7-3.6c-0.3-0.8-0.5-1.5-0.6-2.1c0-0.2-0.1-0.3-0.1-0.4c0-0.2-0.1-0.6-0.2-0.9l0,0c-0.2-1-0.6-2-1.1-2.9
			c-0.4-0.8-0.9-1.6-1.5-2.3c-0.9-1.2-2.1-2.2-3.4-3l-0.3-0.2h-0.1l-0.4-0.2l-0.4-0.3l-0.5-0.2l-0.4-0.1c-0.3-0.1-0.5-0.2-0.8-0.3
			h-0.2l-0.7-0.2l-0.3-0.1l-0.6-0.1h-0.3c-0.3,0-0.6,0-0.9,0c-2.4,0-4.7,0.8-6.7,2.2c-1.4,1-2.6,2.3-3.5,3.8
			c-0.5,0.8-0.9,1.6-1.2,2.5c-0.5,1.3-0.8,2.7-0.9,4.2c0,0.4-0.1,0.7-0.1,1.1c0,0.6,0,1.1,0.1,1.7c0.2,1.6,0.6,3.2,1.3,4.7
			c0.2,0.4,0.4,0.8,0.6,1.2c0.7,1.3,1.7,2.4,2.8,3.3c1.8,1.6,4.1,2.5,6.5,2.7c0.3,0,0.5,0,0.8,0h0.6h52.8
			C86.1,89.6,90.7,83.1,89.7,76.6z"/>
		<path class="st8" d="M62.4,67.9c0.2,0.8,0.4,1.5,0.5,2.3c0.1,0.6,0.1,1.1,0.1,1.7c9.1-2,18.1-1.7,26.7,4.8
			c-0.2-1.3-0.6-2.6-1.3-3.8l-1.1-2.1C79.2,65.9,70.9,66,62.4,67.9z"/>
		<path class="st8" d="M13.8,77.6c-4.6-1.4-8.7-3.8-12.2-7.1c-0.3,1.5-0.3,3,0,4.5c3.8,3.6,8.5,6.1,13.6,7.3
			C14.5,80.8,14,79.3,13.8,77.6z"/>
		
			<linearGradient id="SVGID_00000135671551562006884660000010998297472515214491_" gradientUnits="userSpaceOnUse" x1="6.8979" y1="43.0932" x2="63.0015" y2="43.0932" gradientTransform="matrix(1 0 0 -1 0 94)">
			<stop  offset="0" style="stop-color:#FFDD3A"/>
			<stop  offset="0.48" style="stop-color:#FDDB3A"/>
			<stop  offset="0.66" style="stop-color:#F7D43A"/>
			<stop  offset="0.79" style="stop-color:#EBC83B"/>
			<stop  offset="0.89" style="stop-color:#DBB73C"/>
			<stop  offset="0.98" style="stop-color:#C6A13D"/>
			<stop  offset="1" style="stop-color:#C19C3D"/>
		</linearGradient>
		<path style="fill:url(#SVGID_00000135671551562006884660000010998297472515214491_);" d="M62.9,70.2c-0.1-0.8-0.2-1.6-0.5-2.3
			c0-0.1,0-0.2-0.1-0.2c-0.2-0.8-0.6-1.6-1-2.4c-0.3-0.6-0.7-1.2-1.1-1.8c-0.4-0.6-0.9-1.1-1.4-1.7c-0.8-0.8-1.7-1.5-2.7-2
			c-0.2-0.1-0.4-0.3-0.5-0.4c-0.9-0.8-1.8-1.7-2.8-2.6c-1.9-1.8-3.7-3.8-5.5-5.9l-0.2-0.2l-0.6-0.7c-0.6-0.8-1.3-1.5-1.8-2.3
			c-2.6-3.3-5-6.7-7.1-10.4c-2.1-3.5-3.8-7.2-5.2-11c-1.2-3.1-1.9-6.4-2.2-9.7L6.9,59.9c3.7,2.5,8,4,12.4,4.5
			c1.9-1.4,4.3-2.2,6.7-2.2c0.3,0,0.6,0,0.9,0h0.3l0.6,0.1l0.3,0.1l0.7,0.2h0.2c0.3,0.1,0.5,0.2,0.8,0.3l0.4,0.1l0.5,0.2l0.4,0.2
			l0.4,0.2h0.1l0.3,0.2c1.3,0.8,2.4,1.8,3.4,3c0.6,0.7,1.1,1.5,1.5,2.3c0.5,0.9,0.8,1.9,1.1,2.9l0,0c0.1,0.3,0.1,0.6,0.2,0.9
			s0.1,0.3,0.1,0.4c0.1,0.6,0.3,1.3,0.6,2.1c0.4,1.3,1,2.6,1.7,3.7c0.5,0.8,1.2,1.6,1.9,2.2c0.6,0.6,1.2,1.2,1.9,1.6
			c1.1,0.8,2.4,1.4,3.8,1.7c2.1,0.6,4.4,0.5,6.5-0.2c5.3-1.7,8.6-7,8.6-12.7C63,71.3,63,70.8,62.9,70.2z"/>
	</g>
	<rect y="0" class="st11" width="91.2" height="91.2"/>
</g>
</svg>
