<?xml version="1.0" encoding="utf-8"?>
<!-- Generator: Adobe Illustrator 26.0.0, SVG Export Plug-In . SVG Version: 6.00 Build 0)  -->
<svg version="1.1" id="Capa_1" xmlns="http://www.w3.org/2000/svg" xmlns:xlink="http://www.w3.org/1999/xlink" x="0px" y="0px"
	 viewBox="0 0 271.4 91.2" style="enable-background:new 0 0 271.4 91.2;" xml:space="preserve">
<style type="text/css">
	.st0{fill:url(#SVGID_1_);}
	.st1{fill:url(#SVGID_00000086667718087709912700000016107385311878336701_);}
	.st2{fill:url(#SVGID_00000110442117045057370890000010041272257378332312_);}
	.st3{fill:url(#SVGID_00000067923469133037175940000006397529849804696717_);}
	.st4{fill:url(#SVGID_00000087401341517735349640000016873404202476385975_);}
	.st5{fill:url(#SVGID_00000045618823109056065830000000623034634169009308_);}
	.st6{fill:url(#SVGID_00000029738176911832679540000005340641308261385896_);}
	.st7{fill:url(#SVGID_00000014597890535663461570000006659992149070541704_);}
	.st8{fill:#FFFFFF;}
	.st9{fill:url(#SVGID_00000151537139961811155330000010762039390056966039_);}
	.st10{fill:url(#SVGID_00000037688313958830228170000001409303142629426595_);}
	.st11{fill:url(#SVGID_00000170255873803116835500000011865315597886622593_);}
	.st12{fill:url(#SVGID_00000100350621166264920320000000807653736706064831_);}
	.st13{fill:url(#SVGID_00000090984614831914719910000008626750145170806400_);}
	.st14{fill:url(#SVGID_00000122705039147726929100000003267531412996393351_);}
	.st15{fill:url(#SVGID_00000138556539556306478680000003779047250176379535_);}
	.st16{fill:url(#SVGID_00000145017134494231100980000010851651278696146053_);}
	.st17{fill:url(#SVGID_00000113326611641187407670000008665874207431876759_);}
	.st18{fill:url(#SVGID_00000098930906030412844870000017811540109049395089_);}
	.st19{fill:url(#SVGID_00000018204845587561106820000006522227427228396962_);}
	.st20{fill:url(#SVGID_00000073705379816115603220000004652652425946818226_);}
	.st21{fill:url(#SVGID_00000119832519101249206020000011098522810189516455_);}
	.st22{fill:url(#SVGID_00000070091892851999714820000007726875144031497351_);}
	.st23{fill:url(#SVGID_00000076584740016430722450000015653038477356915383_);}
	.st24{fill:url(#SVGID_00000008833349767984962930000007902911077788271279_);}
	.st25{fill:url(#SVGID_00000051378345664100340380000002837504424597496241_);}
	.st26{fill:url(#SVGID_00000150078272261622286820000016301575625053112196_);}
	.st27{fill:url(#SVGID_00000026144669227091739870000011928703706241879693_);}
	.st28{fill:url(#SVGID_00000135664746733726022890000007913674604892907909_);}
	.st29{fill:url(#SVGID_00000133518187024778766000000005633931618057574578_);}
	.st30{fill:url(#SVGID_00000148623872385398704430000017300225163208153254_);}
	.st31{fill:url(#SVGID_00000004516206947136270690000011833547882426264206_);}
	.st32{fill:url(#SVGID_00000183932271590623139600000009390495782867448450_);}
	.st33{fill:url(#SVGID_00000078761700359534065980000011972887971871513508_);}
	.st34{fill:url(#SVGID_00000022550538180231855550000008778221817193376397_);}
	.st35{fill:url(#SVGID_00000169528397953804651070000003059911863156085385_);}
	.st36{fill:url(#SVGID_00000124856317829951292270000017760315262363062930_);}
	.st37{fill:url(#SVGID_00000165913057374863687960000012796843062302155394_);}
	.st38{fill:url(#SVGID_00000080197010445540315430000008692956557220616322_);}
	.st39{fill:url(#SVGID_00000078010236410125452310000014400112030225176747_);}
	.st40{fill:url(#SVGID_00000010292773598788196230000014227877761888046490_);}
	.st41{fill:url(#SVGID_00000109711875280776216390000012385670398643922071_);}
	.st42{fill:url(#SVGID_00000085945476174319448230000009885360990194500999_);}
</style>
<g id="Capa_2_00000028293275838268937070000012014165573722463874_">
	<g id="Capa_1-2_00000009561994199629379530000009115132246918331523_">
		<g>
			
				<linearGradient id="SVGID_1_" gradientUnits="userSpaceOnUse" x1="51.8903" y1="96.2655" x2="33.3842" y2="67.9317" gradientTransform="matrix(1 0 0 -1 0 94)">
				<stop  offset="0" style="stop-color:#FFDD3A"/>
				<stop  offset="0.48" style="stop-color:#FDDB3A"/>
				<stop  offset="0.66" style="stop-color:#F7D43A"/>
				<stop  offset="0.79" style="stop-color:#EBC83B"/>
				<stop  offset="0.89" style="stop-color:#DBB73C"/>
				<stop  offset="0.98" style="stop-color:#C6A13D"/>
				<stop  offset="1" style="stop-color:#C19C3D"/>
			</linearGradient>
			<path class="st0" d="M35.9,17.7l3-5.6C41.1,7.6,46.6,5.8,51,8c1.5,0.7,2.8,1.9,3.7,3.3l-0.8-1.5l-1.8-3.3
				C49.7,1.7,43.9-0.3,39,2.1c-1.3,0.6-2.4,1.5-3.2,2.6c-0.5,0.6-0.9,1.2-1.2,1.8l-5.3,9.7c0.3,3.4,1,6.7,2.2,9.8l3.1-5.7L35.9,17.7
				z"/>
			
				<linearGradient id="SVGID_00000049188193531300095010000007996847042757633719_" gradientUnits="userSpaceOnUse" x1="34.8339" y1="85.9869" x2="59.6437" y2="48.5259" gradientTransform="matrix(1 0 0 -1 0 94)">
				<stop  offset="0" style="stop-color:#0D943C"/>
				<stop  offset="1" style="stop-color:#036A41"/>
			</linearGradient>
			<path style="fill:url(#SVGID_00000049188193531300095010000007996847042757633719_);" d="M55.2,12.2l-0.1-0.1
				c-0.2-0.3-0.3-0.6-0.5-0.8c-2.7-4.2-8.3-5.4-12.5-2.8c-1.4,0.9-2.5,2.1-3.2,3.6l-3,5.6l-1.5,2.7L31.4,26
				c1.4,3.9,3.2,7.6,5.3,11.2c2.1,3.7,4.5,7.2,7.2,10.5l0,0l1.8,2.3c1.9-2.2,3.7-4.5,5.3-6.8c5.3-7.5,8.6-14.9,9.6-20.9v-0.1l0,0
				L55.2,12.2z"/>
			
				<linearGradient id="SVGID_00000114056709630826816220000005916665075480607632_" gradientUnits="userSpaceOnUse" x1="60.4273" y1="42.9209" x2="32.0935" y2="-2.4088" gradientTransform="matrix(1 0 0 -1 0 94)">
				<stop  offset="0" style="stop-color:#0D943C"/>
				<stop  offset="1" style="stop-color:#036A41"/>
			</linearGradient>
			<path style="fill:url(#SVGID_00000114056709630826816220000005916665075480607632_);" d="M46.6,51c1.8,2.2,3.7,4.1,5.6,6
				c8.4-2.9,16.8-5.2,25-4L61.7,24.2l-1.1-2.1c-0.9,6.1-4.3,13.6-9.6,21.1c-1.6,2.3-3.3,4.5-5.3,6.8l0.6,0.7L46.6,51z"/>
			
				<linearGradient id="SVGID_00000138559829194330069000000014801110511882979757_" gradientUnits="userSpaceOnUse" x1="77.2525" y1="31.1562" x2="50.3414" y2="-11.9081" gradientTransform="matrix(1 0 0 -1 0 94)">
				<stop  offset="0" style="stop-color:#0D943C"/>
				<stop  offset="1" style="stop-color:#036A41"/>
			</linearGradient>
			<path style="fill:url(#SVGID_00000138559829194330069000000014801110511882979757_);" d="M60.7,65.5c0.4,0.8,0.7,1.6,1,2.4
				c0,0.1,0,0.2,0.1,0.2c8.6-2,17-2,25.2,3l-2.4-4.4C76.8,63,68.8,63.5,60.7,65.5z"/>
			
				<linearGradient id="SVGID_00000036965593260812057460000006850050763309400715_" gradientUnits="userSpaceOnUse" x1="70.2533" y1="36.0232" x2="43.0686" y2="-7.468" gradientTransform="matrix(1 0 0 -1 0 94)">
				<stop  offset="0" style="stop-color:#0D943C"/>
				<stop  offset="1" style="stop-color:#036A41"/>
			</linearGradient>
			<path style="fill:url(#SVGID_00000036965593260812057460000006850050763309400715_);" d="M55.5,60c1,0.6,1.9,1.3,2.7,2.1
				c7.9-2.3,15.7-3.3,23.4-0.7l-2-3.6C71.8,55.7,63.7,57.4,55.5,60z"/>
			
				<linearGradient id="SVGID_00000036931371208284052800000011043244216304016044_" gradientUnits="userSpaceOnUse" x1="-0.6397" y1="36.7699" x2="38.8241" y2="-4.5981" gradientTransform="matrix(1 0 0 -1 0 94)">
				<stop  offset="0" style="stop-color:#FFDD3A"/>
				<stop  offset="0.48" style="stop-color:#FDDB3A"/>
				<stop  offset="0.66" style="stop-color:#F7D43A"/>
				<stop  offset="0.79" style="stop-color:#EBC83B"/>
				<stop  offset="0.89" style="stop-color:#DBB73C"/>
				<stop  offset="0.98" style="stop-color:#C6A13D"/>
				<stop  offset="1" style="stop-color:#C19C3D"/>
			</linearGradient>
			<path style="fill:url(#SVGID_00000036931371208284052800000011043244216304016044_);" d="M14.6,68.5c-3.9-0.9-7.7-2.6-10.9-5.1
				l-1.1,2C5.8,68,9.5,69.9,13.4,71C13.7,70.1,14.1,69.3,14.6,68.5z"/>
			
				<linearGradient id="SVGID_00000056411369738088279500000011442180180917920683_" gradientUnits="userSpaceOnUse" x1="-4.722" y1="32.6115" x2="34.7527" y2="-8.7675" gradientTransform="matrix(1 0 0 -1 0 94)">
				<stop  offset="0" style="stop-color:#FFDD3A"/>
				<stop  offset="0.48" style="stop-color:#FDDB3A"/>
				<stop  offset="0.66" style="stop-color:#F7D43A"/>
				<stop  offset="0.79" style="stop-color:#EBC83B"/>
				<stop  offset="0.89" style="stop-color:#DBB73C"/>
				<stop  offset="0.98" style="stop-color:#C6A13D"/>
				<stop  offset="1" style="stop-color:#C19C3D"/>
			</linearGradient>
			<path style="fill:url(#SVGID_00000056411369738088279500000011442180180917920683_);" d="M12.5,76.3c0-0.4,0-0.8,0.1-1.1
				C8.2,73.9,4.3,71.7,1,68.6c-0.3,0.7-0.6,1.4-0.7,2.2c3.5,3.3,7.7,5.8,12.3,7.2C12.5,77.5,12.5,76.9,12.5,76.3z"/>
			
				<linearGradient id="SVGID_00000154400257805519042790000012400215835981879197_" gradientUnits="userSpaceOnUse" x1="-7.8968" y1="29.2294" x2="31.3919" y2="-11.9526" gradientTransform="matrix(1 0 0 -1 0 94)">
				<stop  offset="0" style="stop-color:#FFDD3A"/>
				<stop  offset="0.48" style="stop-color:#FDDB3A"/>
				<stop  offset="0.66" style="stop-color:#F7D43A"/>
				<stop  offset="0.79" style="stop-color:#EBC83B"/>
				<stop  offset="0.89" style="stop-color:#DBB73C"/>
				<stop  offset="0.98" style="stop-color:#C6A13D"/>
				<stop  offset="1" style="stop-color:#C19C3D"/>
			</linearGradient>
			<path style="fill:url(#SVGID_00000154400257805519042790000012400215835981879197_);" d="M0.2,75.4C1,80.3,5.1,83.9,10,84h4.5
				c-0.2-0.4-0.4-0.8-0.7-1.2C8.7,81.6,4,79,0.2,75.4z"/>
			<path class="st8" d="M52.2,56.9c0.9,0.9,1.9,1.8,2.8,2.6c0.2,0.1,0.4,0.2,0.5,0.4c8.1-2.6,16.3-4.3,24.1-2.3L77.2,53
				C69,51.7,60.6,54,52.2,56.9z"/>
			<path class="st8" d="M18.1,64.7c-4.5-0.5-8.8-2.1-12.6-4.6l-1.8,3.3c3.2,2.4,6.9,4.2,10.9,5.1C15.5,67,16.7,65.7,18.1,64.7z"/>
			<path class="st8" d="M58.3,62c0.5,0.5,1,1.1,1.4,1.7c0.4,0.6,0.8,1.2,1.1,1.8c8.1-2,16-2.5,23.8,1.3l-2.9-5.5
				C74,58.7,66.2,59.8,58.3,62z"/>
			<path class="st8" d="M13.4,71c-3.9-1.1-7.6-3-10.8-5.6l-1.3,2.4c-0.1,0.3-0.3,0.5-0.4,0.8c3.3,3,7.3,5.3,11.6,6.6
				C12.6,73.7,12.9,72.3,13.4,71z"/>
			
				<linearGradient id="SVGID_00000124851061429919993300000003160272453598489731_" gradientUnits="userSpaceOnUse" x1="73.0385" y1="42.6191" x2="34.1547" y2="-2.5793" gradientTransform="matrix(1 0 0 -1 0 94)">
				<stop  offset="0" style="stop-color:#0D943C"/>
				<stop  offset="1" style="stop-color:#036A41"/>
			</linearGradient>
			<path style="fill:url(#SVGID_00000124851061429919993300000003160272453598489731_);" d="M89.3,77c-8.8-6.6-17.8-6.8-27-4.8
				c0,5.8-3.3,11.1-8.6,12.9c-2.1,0.7-4.4,0.8-6.6,0.2c-1.4-0.4-2.7-1-3.8-1.8c-0.7-0.5-1.4-1-1.9-1.7c-0.8-0.6-1.4-1.4-2-2.2
				c-0.7-1.1-1.3-2.4-1.7-3.6c-0.3-0.8-0.5-1.5-0.6-2.1c0-0.2-0.1-0.3-0.1-0.4c0-0.2-0.1-0.6-0.2-0.9l0,0c-0.3-1-0.6-2-1.1-3
				c-0.4-0.8-0.9-1.6-1.5-2.4c-0.9-1.2-2.1-2.3-3.4-3.1L30.5,64h-0.1L30,63.8l-0.4-0.3l-0.5-0.2l-0.4-0.1c-0.3-0.1-0.5-0.2-0.8-0.3
				h-0.2l-0.7-0.2l-0.3-0.1l-0.7-0.1h-0.3c-0.3,0-0.6,0-0.9,0c-2.4,0-4.8,0.8-6.7,2.2c-1.4,1-2.6,2.3-3.5,3.8
				c-0.5,0.8-0.9,1.6-1.2,2.5c-0.5,1.4-0.8,2.8-0.9,4.2c0,0.4-0.1,0.7-0.1,1.1c0,0.6,0,1.1,0.1,1.7c0.2,1.7,0.6,3.3,1.3,4.8
				c0.2,0.4,0.4,0.8,0.7,1.2c0.8,1.3,1.7,2.4,2.9,3.4c1.9,1.6,4.2,2.6,6.6,2.7c0.3,0,0.5,0,0.8,0h0.6h53.4
				C85.7,90.2,90.4,83.6,89.3,77z"/>
			<path class="st8" d="M61.8,68.2c0.2,0.8,0.4,1.5,0.5,2.3c0.1,0.6,0.1,1.2,0.1,1.7c9.2-2,18.3-1.7,27,4.8
				c-0.2-1.3-0.7-2.6-1.3-3.8L87,71.2C78.8,66.2,70.3,66.2,61.8,68.2z"/>
			<path class="st8" d="M12.6,78c-4.6-1.4-8.8-3.9-12.3-7.2c-0.3,1.5-0.3,3.1,0,4.6C4.1,79,8.8,81.6,14,82.8
				C13.2,81.3,12.8,79.7,12.6,78z"/>
			
				<linearGradient id="SVGID_00000079486780316290218810000017345786699534211246_" gradientUnits="userSpaceOnUse" x1="5.5413" y1="43.0266" x2="62.3512" y2="43.0266" gradientTransform="matrix(1 0 0 -1 0 94)">
				<stop  offset="0" style="stop-color:#FFDD3A"/>
				<stop  offset="0.48" style="stop-color:#FDDB3A"/>
				<stop  offset="0.66" style="stop-color:#F7D43A"/>
				<stop  offset="0.79" style="stop-color:#EBC83B"/>
				<stop  offset="0.89" style="stop-color:#DBB73C"/>
				<stop  offset="0.98" style="stop-color:#C6A13D"/>
				<stop  offset="1" style="stop-color:#C19C3D"/>
			</linearGradient>
			<path style="fill:url(#SVGID_00000079486780316290218810000017345786699534211246_);" d="M62.2,70.5c-0.1-0.8-0.3-1.6-0.5-2.3
				c0-0.1,0-0.2-0.1-0.2c-0.2-0.8-0.6-1.7-1-2.4c-0.3-0.6-0.7-1.2-1.1-1.8c-0.4-0.6-0.9-1.2-1.4-1.7c-0.8-0.8-1.7-1.5-2.7-2.1
				c-0.2-0.1-0.4-0.3-0.5-0.4c-0.9-0.8-1.9-1.7-2.8-2.6c-1.9-1.8-3.8-3.8-5.6-6l-0.2-0.2L45.7,50c-0.6-0.8-1.3-1.5-1.9-2.3
				c-2.6-3.3-5-6.8-7.2-10.5c-2.1-3.5-3.9-7.3-5.3-11.1c-1.2-3.1-1.9-6.4-2.2-9.8L5.5,60.1c3.8,2.5,8.1,4.1,12.6,4.6
				c2-1.4,4.3-2.2,6.7-2.2c0.3,0,0.6,0,0.9,0h0.3l0.7,0.1l0.3,0.1l0.7,0.2H28c0.3,0.1,0.5,0.2,0.8,0.3l0.4,0.1l0.5,0.2l0.4,0.2
				l0.4,0.2h0.1l0.4,0.2c1.3,0.8,2.5,1.9,3.4,3.1c0.6,0.7,1.1,1.5,1.5,2.4c0.5,0.9,0.8,1.9,1.1,3l0,0c0.1,0.3,0.1,0.6,0.2,0.9
				c0.1,0.3,0.1,0.3,0.1,0.4c0.1,0.6,0.3,1.3,0.6,2.1c0.4,1.3,1,2.6,1.7,3.8c0.5,0.8,1.2,1.6,2,2.2c0.6,0.6,1.2,1.2,1.9,1.7
				c1.2,0.8,2.5,1.4,3.8,1.8c2.2,0.6,4.4,0.5,6.6-0.2c5.3-1.8,8.7-7.1,8.7-12.8C62.3,71.7,62.3,71.1,62.2,70.5z"/>
		</g>
		<g>
			
				<linearGradient id="SVGID_00000045591255714363246110000004812124854914188722_" gradientUnits="userSpaceOnUse" x1="105.1211" y1="33.303" x2="141.607" y2="33.303">
				<stop  offset="0" style="stop-color:#0D943C"/>
				<stop  offset="1" style="stop-color:#036A41"/>
			</linearGradient>
			<path style="fill:url(#SVGID_00000045591255714363246110000004812124854914188722_);" d="M111.4,20.2c-7.3,5.9-8.4,16.5-2.5,23.8
				c0.7,0.9,1.6,1.7,2.5,2.5c4.2,3.6,9.5,5.6,15,5.5h15.2V41.2h-15.2c-2.4,0.1-4.7-0.8-6.4-2.3c-3.1-2.5-3.6-7.1-1-10.2
				c0.3-0.4,0.7-0.7,1-1c1.8-1.6,4.1-2.4,6.4-2.3h15.2V14.7h-15.2C120.9,14.6,115.5,16.5,111.4,20.2z"/>
			
				<linearGradient id="SVGID_00000044174415384068981030000001618161660519335574_" gradientUnits="userSpaceOnUse" x1="144.6306" y1="33.2492" x2="187.1964" y2="33.2492">
				<stop  offset="0" style="stop-color:#0D943C"/>
				<stop  offset="1" style="stop-color:#036A41"/>
			</linearGradient>
			<path style="fill:url(#SVGID_00000044174415384068981030000001618161660519335574_);" d="M150.9,46.4c8.7,7.2,21.4,7.2,30.1,0
				c7.3-5.9,8.3-16.6,2.4-23.8c-0.7-0.9-1.6-1.7-2.4-2.4c-8.7-7.3-21.4-7.3-30.1,0c-7.3,5.9-8.3,16.6-2.4,23.8
				C149.2,44.8,150,45.7,150.9,46.4z M159.5,27.7c3.7-3.1,9.2-3.1,12.9,0c3.1,2.5,3.6,7.1,1.1,10.2c-0.3,0.4-0.7,0.7-1.1,1.1
				c-3.7,3.1-9.2,3.1-12.9,0c-3.1-2.5-3.6-7.1-1-10.2C158.7,28.3,159.1,28,159.5,27.7z"/>
			
				<linearGradient id="SVGID_00000089539599873769872570000010863526547668166022_" gradientUnits="userSpaceOnUse" x1="190.201" y1="33.287" x2="226.6741" y2="33.287">
				<stop  offset="0" style="stop-color:#0D943C"/>
				<stop  offset="1" style="stop-color:#036A41"/>
			</linearGradient>
			<path style="fill:url(#SVGID_00000089539599873769872570000010863526547668166022_);" d="M196.4,46.4c4.2,3.6,9.5,5.6,15,5.5
				h15.2V41.2h-15.2c-2.4,0.1-4.7-0.8-6.4-2.3c-3.1-2.5-3.6-7.1-1.1-10.2c0.3-0.4,0.7-0.7,1.1-1.1c1.8-1.6,4.1-2.4,6.4-2.3h15.2
				V14.7h-15.2c-5.5-0.1-10.9,1.8-15,5.5c-7.3,5.9-8.3,16.6-2.4,23.8C194.7,44.9,195.5,45.7,196.4,46.4L196.4,46.4z"/>
			
				<linearGradient id="SVGID_00000008146447336381770510000006133127931836002714_" gradientUnits="userSpaceOnUse" x1="228.6112" y1="33.2651" x2="271.1611" y2="33.2651">
				<stop  offset="0" style="stop-color:#0D943C"/>
				<stop  offset="1" style="stop-color:#036A41"/>
			</linearGradient>
			<path style="fill:url(#SVGID_00000008146447336381770510000006133127931836002714_);" d="M256,14.7l-27.4,37.1h15.2l2.9-3.9H259
				v3.9h12.2V14.7H256z M250.9,42.2l8.1-11v11H250.9z"/>
			
				<linearGradient id="SVGID_00000032645188993004060970000013350296110519968677_" gradientUnits="userSpaceOnUse" x1="105.1638" y1="64.9906" x2="119.4347" y2="64.9906">
				<stop  offset="0" style="stop-color:#0D943C"/>
				<stop  offset="1" style="stop-color:#036A41"/>
			</linearGradient>
			<path style="fill:url(#SVGID_00000032645188993004060970000013350296110519968677_);" d="M113.2,61c1.4,0,2.8,0.5,4,1.4l2.2-2.1
				c-1.7-1.4-3.9-2.1-6.1-2c-4.7,0-8.1,3-8.1,6.6l0,0c0,3.7,3.4,6.6,7.9,6.6c2.3,0.1,4.6-0.7,6.3-2.3l-2.2-1.8
				c-1.1,1-2.6,1.5-4.1,1.5c-2.3,0.2-4.3-1.6-4.5-3.9c0-0.1,0-0.1,0-0.2l0,0C108.8,62.6,110.8,60.9,113.2,61
				C113.1,61,113.2,61,113.2,61z"/>
			
				<linearGradient id="SVGID_00000021811967823068693380000010878458877924297614_" gradientUnits="userSpaceOnUse" x1="120.9996" y1="65.0572" x2="137.4374" y2="65.0572">
				<stop  offset="0" style="stop-color:#0D943C"/>
				<stop  offset="1" style="stop-color:#036A41"/>
			</linearGradient>
			<path style="fill:url(#SVGID_00000021811967823068693380000010878458877924297614_);" d="M137.4,65L137.4,65
				c0-3.6-3.4-6.6-8.2-6.6s-8.2,3-8.2,6.6l0,0c0,3.6,3.4,6.6,8.2,6.6S137.4,68.7,137.4,65z M124.6,65L124.6,65c0-2.2,1.9-4,4.6-4
				c2.7,0,4.7,1.8,4.7,4l0,0c0,2.2-1.9,4-4.6,4C126.5,69.1,124.6,67.2,124.6,65z"/>
			
				<linearGradient id="SVGID_00000049190836478978156170000005018162349195329963_" gradientUnits="userSpaceOnUse" x1="139.7685" y1="65.0572" x2="156.2172" y2="65.0572">
				<stop  offset="0" style="stop-color:#0D943C"/>
				<stop  offset="1" style="stop-color:#036A41"/>
			</linearGradient>
			<path style="fill:url(#SVGID_00000049190836478978156170000005018162349195329963_);" d="M156.2,65L156.2,65
				c0-3.6-3.4-6.6-8.2-6.6s-8.3,3-8.3,6.6l0,0c0,3.6,3.4,6.6,8.2,6.6S156.2,68.7,156.2,65z M152.7,65c0,2.2-1.9,4-4.6,4
				s-4.7-1.8-4.7-4l0,0c0-2.2,1.9-4,4.6-4S152.7,62.9,152.7,65L152.7,65z"/>
			
				<linearGradient id="SVGID_00000062193182885269537330000018274674969339235481_" gradientUnits="userSpaceOnUse" x1="159.2377" y1="65.0298" x2="171.473" y2="65.0298">
				<stop  offset="0" style="stop-color:#0D943C"/>
				<stop  offset="1" style="stop-color:#036A41"/>
			</linearGradient>
			<path style="fill:url(#SVGID_00000062193182885269537330000018274674969339235481_);" d="M171.5,63.1c0-2.6-2.2-4.4-5.9-4.4h-6.3
				v12.8h3.4v-3.9h2.6C168.7,67.6,171.5,66.1,171.5,63.1L171.5,63.1z M168,63.1c0,1.1-1,1.9-2.7,1.9h-2.7v-3.9h2.6
				C166.9,61.2,168,61.8,168,63.1L168,63.1z"/>
			
				<linearGradient id="SVGID_00000080198590985806061860000004192746681998385542_" gradientUnits="userSpaceOnUse" x1="173.9901" y1="65.0298" x2="185.7657" y2="65.0298">
				<stop  offset="0" style="stop-color:#0D943C"/>
				<stop  offset="1" style="stop-color:#036A41"/>
			</linearGradient>
			<polygon style="fill:url(#SVGID_00000080198590985806061860000004192746681998385542_);" points="185.7,61.1 185.7,58.6 
				174,58.6 174,71.4 185.8,71.4 185.8,68.9 177.4,68.9 177.4,66.2 184.7,66.2 184.7,63.7 177.4,63.7 177.4,61.1 			"/>
			
				<linearGradient id="SVGID_00000064355358080857077230000005365660641697471627_" gradientUnits="userSpaceOnUse" x1="188.7534" y1="65.0517" x2="202.1597" y2="65.0517">
				<stop  offset="0" style="stop-color:#0D943C"/>
				<stop  offset="1" style="stop-color:#036A41"/>
			</linearGradient>
			<path style="fill:url(#SVGID_00000064355358080857077230000005365660641697471627_);" d="M202.2,71.4l-3.8-4.6
				c2-0.6,3.3-1.9,3.3-4l0,0c0-2.6-2.2-4.2-5.8-4.2h-7.1v12.8h3.4v-4.1h2.7l3.3,4.1H202.2z M195.6,64.9h-3.4v-3.7h3.4
				c1.7,0,2.7,0.6,2.7,1.8l0,0C198.2,64.1,197.3,64.8,195.6,64.9L195.6,64.9z"/>
			
				<linearGradient id="SVGID_00000093172698713942755850000013797944188642555065_" gradientUnits="userSpaceOnUse" x1="203.4621" y1="64.986" x2="219.8232" y2="64.986">
				<stop  offset="0" style="stop-color:#0D943C"/>
				<stop  offset="1" style="stop-color:#036A41"/>
			</linearGradient>
			<path style="fill:url(#SVGID_00000093172698713942755850000013797944188642555065_);" d="M216.3,71.4h3.6l-6.6-12.9h-3.2
				l-6.6,12.9h3.5l1.4-2.9h6.6L216.3,71.4z M209.5,66.1l2.1-4.2l2.1,4.2H209.5z"/>
			
				<linearGradient id="SVGID_00000127738790151707871410000002133362627423190152_" gradientUnits="userSpaceOnUse" x1="219.1119" y1="65.0298" x2="231.9272" y2="65.0298">
				<stop  offset="0" style="stop-color:#0D943C"/>
				<stop  offset="1" style="stop-color:#036A41"/>
			</linearGradient>
			<polygon style="fill:url(#SVGID_00000127738790151707871410000002133362627423190152_);" points="219.1,61.2 223.8,61.2 
				223.8,71.4 227.2,71.4 227.2,61.2 231.9,61.2 231.9,58.6 219.1,58.6 			"/>
			
				<linearGradient id="SVGID_00000170990696851396376630000014223147594590317747_" gradientUnits="userSpaceOnUse" x1="234.6851" y1="65.0298" x2="238.0886" y2="65.0298">
				<stop  offset="0" style="stop-color:#0D943C"/>
				<stop  offset="1" style="stop-color:#036A41"/>
			</linearGradient>
			
				<rect x="234.7" y="58.6" style="fill:url(#SVGID_00000170990696851396376630000014223147594590317747_);" width="3.4" height="12.8"/>
			
				<linearGradient id="SVGID_00000029033299702001851380000010646136682658242708_" gradientUnits="userSpaceOnUse" x1="240.6276" y1="65.0736" x2="256.1351" y2="65.0736">
				<stop  offset="0" style="stop-color:#0D943C"/>
				<stop  offset="1" style="stop-color:#036A41"/>
			</linearGradient>
			<polygon style="fill:url(#SVGID_00000029033299702001851380000010646136682658242708_);" points="256.1,58.6 252.5,58.6 
				248.4,67.7 244.4,58.6 240.6,58.6 246.9,71.5 249.9,71.5 			"/>
			
				<linearGradient id="SVGID_00000054239328841896687440000007326793585712828801_" gradientUnits="userSpaceOnUse" x1="255.0407" y1="64.986" x2="271.38" y2="64.986">
				<stop  offset="0" style="stop-color:#0D943C"/>
				<stop  offset="1" style="stop-color:#036A41"/>
			</linearGradient>
			<path style="fill:url(#SVGID_00000054239328841896687440000007326793585712828801_);" d="M261.6,58.5L255,71.4h3.5l1.4-2.9h6.6
				l1.4,2.9h3.5l-6.6-12.9L261.6,58.5z M261.1,66.1l2.1-4.2l2.1,4.2H261.1z"/>
			
				<linearGradient id="SVGID_00000074423143197483867670000006024392099868123806_" gradientUnits="userSpaceOnUse" x1="105.317" y1="79.7767" x2="113.9846" y2="79.7767">
				<stop  offset="0" style="stop-color:#0D943C"/>
				<stop  offset="1" style="stop-color:#036A41"/>
			</linearGradient>
			<path style="fill:url(#SVGID_00000074423143197483867670000006024392099868123806_);" d="M109,75.9h-3.7v7.7h3.7c3,0,5-1.7,5-3.8
				l0,0C114,77.6,111.9,75.9,109,75.9z M111.8,79.8c0,1.4-1.1,2.3-2.8,2.3h-1.6v-4.6h1.6C110.7,77.5,111.8,78.4,111.8,79.8
				L111.8,79.8z"/>
			
				<linearGradient id="SVGID_00000053506209111365599390000017735839192549792669_" gradientUnits="userSpaceOnUse" x1="115.8232" y1="79.7767" x2="122.9805" y2="79.7767">
				<stop  offset="0" style="stop-color:#0D943C"/>
				<stop  offset="1" style="stop-color:#036A41"/>
			</linearGradient>
			<polygon style="fill:url(#SVGID_00000053506209111365599390000017735839192549792669_);" points="117.9,80.5 122.3,80.5 
				122.3,79 117.9,79 117.9,77.4 122.9,77.4 122.9,75.9 115.8,75.9 115.8,83.6 123,83.6 123,82.1 117.9,82.1 			"/>
			
				<linearGradient id="SVGID_00000164492382026266428440000012295095357034290333_" gradientUnits="userSpaceOnUse" x1="128.0366" y1="79.722" x2="138.094" y2="79.722">
				<stop  offset="0" style="stop-color:#0D943C"/>
				<stop  offset="1" style="stop-color:#036A41"/>
			</linearGradient>
			<path style="fill:url(#SVGID_00000164492382026266428440000012295095357034290333_);" d="M132.1,75.9l-4,7.7h2.2l0.9-1.7h4
				l0.9,1.7h2.2l-4-7.7H132.1z M131.7,80.4l1.2-2.5l1.2,2.5H131.7z"/>
			
				<linearGradient id="SVGID_00000041273779871543150290000000367203563057423527_" gradientUnits="userSpaceOnUse" x1="139.4511" y1="79.7767" x2="147.4073" y2="79.7767">
				<stop  offset="0" style="stop-color:#0D943C"/>
				<stop  offset="1" style="stop-color:#036A41"/>
			</linearGradient>
			<polygon style="fill:url(#SVGID_00000041273779871543150290000000367203563057423527_);" points="145.3,79 141.5,79 141.5,75.9 
				139.5,75.9 139.5,83.6 141.5,83.6 141.5,80.5 145.3,80.5 145.3,83.6 147.4,83.6 147.4,75.9 145.3,75.9 			"/>
			
				<linearGradient id="SVGID_00000052818708004628916610000010245147069666310315_" gradientUnits="userSpaceOnUse" x1="149.2678" y1="79.7603" x2="159.2705" y2="79.7603">
				<stop  offset="0" style="stop-color:#0D943C"/>
				<stop  offset="1" style="stop-color:#036A41"/>
			</linearGradient>
			<path style="fill:url(#SVGID_00000052818708004628916610000010245147069666310315_);" d="M154.3,75.8c-2.9,0-5,1.8-5,4l0,0
				c0,2.2,2.1,3.9,5,3.9s5-1.8,5-4l0,0C159.2,77.6,157.2,75.8,154.3,75.8z M157.1,79.8c-0.1,1.4-1.3,2.5-2.7,2.4c0,0-0.1,0-0.1,0
				c-1.4,0.1-2.7-0.9-2.8-2.3c0,0,0,0,0-0.1l0,0c0.1-1.4,1.3-2.5,2.7-2.4c0,0,0.1,0,0.1,0C155.7,77.2,157,78.3,157.1,79.8
				C157.1,79.7,157.1,79.8,157.1,79.8L157.1,79.8z"/>
			
				<linearGradient id="SVGID_00000172399811950349716120000010002530538871552412_" gradientUnits="userSpaceOnUse" x1="161.0653" y1="79.7986" x2="169.1967" y2="79.7986">
				<stop  offset="0" style="stop-color:#0D943C"/>
				<stop  offset="1" style="stop-color:#036A41"/>
			</linearGradient>
			<path style="fill:url(#SVGID_00000172399811950349716120000010002530538871552412_);" d="M168.9,78.5L168.9,78.5
				c0-1.6-1.3-2.5-3.5-2.5h-4.3v7.7h2.1v-2.5h1.6l2,2.4h2.4l-2.3-2.7C168,80.7,168.9,79.7,168.9,78.5z M166.8,78.6
				c0,0.6-0.6,1.1-1.6,1.1h-2.1v-2.2h2.1C166.2,77.5,166.9,77.9,166.8,78.6L166.8,78.6z"/>
			
				<linearGradient id="SVGID_00000119101992672094957520000001132814091783026591_" gradientUnits="userSpaceOnUse" x1="170.7726" y1="79.7986" x2="178.9367" y2="79.7986">
				<stop  offset="0" style="stop-color:#0D943C"/>
				<stop  offset="1" style="stop-color:#036A41"/>
			</linearGradient>
			<path style="fill:url(#SVGID_00000119101992672094957520000001132814091783026591_);" d="M178.6,78.5L178.6,78.5
				c0-1.6-1.3-2.5-3.5-2.5h-4.3v7.7h2.1v-2.5h1.6l2,2.4h2.4l-2.3-2.7C177.8,80.6,178.6,79.7,178.6,78.5z M176.5,78.6
				c0,0.6-0.6,1.1-1.6,1.1h-2.1v-2.2h2C175.9,77.5,176.6,77.9,176.5,78.6L176.5,78.6z"/>
			
				<linearGradient id="SVGID_00000057865335131729217230000012954398089047202689_" gradientUnits="userSpaceOnUse" x1="180.0749" y1="79.7603" x2="190.0667" y2="79.7603">
				<stop  offset="0" style="stop-color:#0D943C"/>
				<stop  offset="1" style="stop-color:#036A41"/>
			</linearGradient>
			<path style="fill:url(#SVGID_00000057865335131729217230000012954398089047202689_);" d="M185.1,75.8c-2.9,0-5,1.8-5,4l0,0
				c0,2.2,2.1,3.9,5,3.9s5-1.8,5-4l0,0C190.1,77.6,188,75.8,185.1,75.8z M187.9,79.8c-0.1,1.4-1.3,2.5-2.7,2.4c0,0-0.1,0-0.1,0
				c-1.4,0.1-2.7-0.9-2.8-2.3c0,0,0,0,0-0.1l0,0c0.1-1.4,1.3-2.5,2.7-2.4c0,0,0.1,0,0.1,0C186.5,77.3,187.8,78.3,187.9,79.8
				C187.9,79.8,187.9,79.8,187.9,79.8z"/>
			
				<linearGradient id="SVGID_00000042729999930382756780000005577214427848866487_" gradientUnits="userSpaceOnUse" x1="194.9586" y1="79.7767" x2="204.261" y2="79.7767">
				<stop  offset="0" style="stop-color:#0D943C"/>
				<stop  offset="1" style="stop-color:#036A41"/>
			</linearGradient>
			<polygon style="fill:url(#SVGID_00000042729999930382756780000005577214427848866487_);" points="199.6,79 197.4,75.9 195,75.9 
				198.6,80.6 198.6,83.6 200.6,83.6 200.6,80.6 204.3,75.9 201.9,75.9 			"/>
			
				<linearGradient id="SVGID_00000134931787290154148390000002732114034958652569_" gradientUnits="userSpaceOnUse" x1="209.1529" y1="79.7816" x2="217.8314" y2="79.7816">
				<stop  offset="0" style="stop-color:#0D943C"/>
				<stop  offset="1" style="stop-color:#036A41"/>
			</linearGradient>
			<path style="fill:url(#SVGID_00000134931787290154148390000002732114034958652569_);" d="M214,82.2c-1.4,0.1-2.6-0.9-2.7-2.3
				c0,0,0-0.1,0-0.1l0,0c0.1-1.4,1.3-2.5,2.7-2.4c0,0,0,0,0.1,0c0.9,0,1.7,0.3,2.4,0.9l1.3-1.2c-1-0.8-2.4-1.3-3.7-1.2
				c-2.9,0-4.9,1.8-4.9,4l0,0c0,2.2,2.1,3.9,4.8,3.9c1.4,0.1,2.8-0.4,3.9-1.4l-1.3-1.1C215.8,81.9,215,82.2,214,82.2z"/>
			
				<linearGradient id="SVGID_00000094583100277915627150000011699869266644637095_" gradientUnits="userSpaceOnUse" x1="219.473" y1="79.7986" x2="227.6043" y2="79.7986">
				<stop  offset="0" style="stop-color:#0D943C"/>
				<stop  offset="1" style="stop-color:#036A41"/>
			</linearGradient>
			<path style="fill:url(#SVGID_00000094583100277915627150000011699869266644637095_);" d="M227.3,78.5L227.3,78.5
				c0-1.6-1.3-2.5-3.5-2.5h-4.3v7.7h2.1v-2.5h1.7l2,2.4h2.4l-2.3-2.7C226.5,80.7,227.3,79.7,227.3,78.5z M225.2,78.6
				c0,0.6-0.6,1.1-1.6,1.1h-2.1v-2.2h2C224.6,77.5,225.2,77.9,225.2,78.6z"/>
			
				<linearGradient id="SVGID_00000087406470723779388620000014624011334034439040_" gradientUnits="userSpaceOnUse" x1="231.6098" y1="74.3759" x2="234.882" y2="74.3759">
				<stop  offset="0" style="stop-color:#0D943C"/>
				<stop  offset="1" style="stop-color:#036A41"/>
			</linearGradient>
			<polygon style="fill:url(#SVGID_00000087406470723779388620000014624011334034439040_);" points="233.2,75.3 234.9,74 
				233.1,73.4 231.6,75.3 			"/>
			
				<linearGradient id="SVGID_00000013881529810593773330000001117821876331224989_" gradientUnits="userSpaceOnUse" x1="229.1803" y1="79.7767" x2="236.3485" y2="79.7767">
				<stop  offset="0" style="stop-color:#0D943C"/>
				<stop  offset="1" style="stop-color:#036A41"/>
			</linearGradient>
			<polygon style="fill:url(#SVGID_00000013881529810593773330000001117821876331224989_);" points="231.2,80.5 235.7,80.5 
				235.7,79 231.2,79 231.2,77.4 236.3,77.4 236.3,75.9 229.2,75.9 229.2,83.6 236.3,83.6 236.3,82.1 231.2,82.1 			"/>
			
				<linearGradient id="SVGID_00000135651926588530185280000002873032755017444489_" gradientUnits="userSpaceOnUse" x1="238.1652" y1="79.7767" x2="246.822" y2="79.7767">
				<stop  offset="0" style="stop-color:#0D943C"/>
				<stop  offset="1" style="stop-color:#036A41"/>
			</linearGradient>
			<path style="fill:url(#SVGID_00000135651926588530185280000002873032755017444489_);" d="M241.8,75.9h-3.7v7.7h3.7
				c3,0,5-1.7,5-3.8l0,0C246.8,77.6,244.8,75.9,241.8,75.9z M244.7,79.8c0,1.4-1.1,2.3-2.8,2.3h-1.6v-4.6h1.6
				C243.5,77.5,244.7,78.4,244.7,79.8L244.7,79.8z"/>
			
				<linearGradient id="SVGID_00000040574151722342995910000000704857081027345819_" gradientUnits="userSpaceOnUse" x1="248.7808" y1="79.7713" x2="250.8492" y2="79.7713">
				<stop  offset="0" style="stop-color:#0D943C"/>
				<stop  offset="1" style="stop-color:#036A41"/>
			</linearGradient>
			
				<rect x="248.8" y="75.9" style="fill:url(#SVGID_00000040574151722342995910000000704857081027345819_);" width="2.1" height="7.6"/>
			
				<linearGradient id="SVGID_00000102539036855705525060000006992257586523580324_" gradientUnits="userSpaceOnUse" x1="252.5236" y1="79.7767" x2="260.3157" y2="79.7767">
				<stop  offset="0" style="stop-color:#0D943C"/>
				<stop  offset="1" style="stop-color:#036A41"/>
			</linearGradient>
			<polygon style="fill:url(#SVGID_00000102539036855705525060000006992257586523580324_);" points="252.5,77.5 255.4,77.5 
				255.4,83.6 257.5,83.6 257.5,77.5 260.3,77.5 260.3,75.9 252.5,75.9 			"/>
			
				<linearGradient id="SVGID_00000040547315590853335330000011029016098192018608_" gradientUnits="userSpaceOnUse" x1="261.0708" y1="79.7603" x2="271.0736" y2="79.7603">
				<stop  offset="0" style="stop-color:#0D943C"/>
				<stop  offset="1" style="stop-color:#036A41"/>
			</linearGradient>
			<path style="fill:url(#SVGID_00000040547315590853335330000011029016098192018608_);" d="M266.1,75.8c-2.9,0-5,1.8-5,4l0,0
				c0,2.2,2.1,3.9,5,3.9c2.9,0,5-1.8,5-4l0,0C271.1,77.6,269,75.8,266.1,75.8z M268.9,79.8c-0.1,1.4-1.3,2.5-2.7,2.4
				c0,0-0.1,0-0.1,0c-1.4,0.1-2.7-0.9-2.8-2.3c0,0,0,0,0-0.1l0,0c0.1-1.4,1.3-2.5,2.7-2.4c0,0,0.1,0,0.1,0
				C267.5,77.3,268.8,78.3,268.9,79.8C268.9,79.8,268.9,79.8,268.9,79.8z"/>
		</g>
	</g>
</g>
</svg>
