<?xml version="1.0" encoding="utf-8"?>
<!-- Generator: Adobe Illustrator 26.0.0, SVG Export Plug-In . SVG Version: 6.00 Build 0)  -->
<svg version="1.1" id="Capa_1" xmlns="http://www.w3.org/2000/svg" xmlns:xlink="http://www.w3.org/1999/xlink" x="0px" y="0px"
	 viewBox="0 0 800 1700" style="enable-background:new 0 0 800 1700;" xml:space="preserve">
<style type="text/css">
	.st0{clip-path:url(#SVGID_00000044874801602666366920000017238522699612126623_);}
	.st1{fill:#00A254;}
	.st2{fill:url(#SVGID_00000181798591282055076600000004686396591615298732_);}
	.st3{fill:url(#SVGID_00000150065943674841902090000011523515103311644834_);}
	.st4{fill:url(#SVGID_00000183210326980714426620000015524603075156340636_);}
	.st5{fill:url(#SVGID_00000059294872492126226250000015657916211226542725_);}
	.st6{fill:#FBCD3C;}
</style>
<g>
	<defs>
		<rect id="SVGID_1_" width="800" height="1700"/>
	</defs>
	<clipPath id="SVGID_00000062161847161517923530000016400127617378391962_">
		<use xlink:href="#SVGID_1_"  style="overflow:visible;"/>
	</clipPath>
	<g style="clip-path:url(#SVGID_00000062161847161517923530000016400127617378391962_);">
		<rect x="680.5" y="-24.6" class="st1" width="119.5" height="146.4"/>
		
			<linearGradient id="SVGID_00000080920503931403267280000015841521092095052730_" gradientUnits="userSpaceOnUse" x1="640.4942" y1="2375.7871" x2="-63.5258" y2="1298.0171" gradientTransform="matrix(1 0 0 -1 0 1700)">
			<stop  offset="0" style="stop-color:#FFD818"/>
			<stop  offset="0.48" style="stop-color:#FDD619"/>
			<stop  offset="0.66" style="stop-color:#F8CF1B"/>
			<stop  offset="0.79" style="stop-color:#EEC320"/>
			<stop  offset="0.89" style="stop-color:#E0B227"/>
			<stop  offset="0.98" style="stop-color:#CD9C2F"/>
			<stop  offset="1" style="stop-color:#C99731"/>
		</linearGradient>
		<path style="fill:url(#SVGID_00000080920503931403267280000015841521092095052730_);" d="M78.3,107.6l99.1-224.7
			C291-374.8,567.5-385.7,695.1-150.2l-27.3-61.9l-58.3-132.2c-116.2-263.5-390.5-287.8-535.8-73c-15.5,23.1-28.9,47.5-40.1,73
			L-141.6,48.9c5.4,117.6,30.3,253.4,71.3,395.9L30.3,216.4L78.3,107.6z"/>
		
			<linearGradient id="SVGID_00000134940240732355050470000014121305473537991605_" gradientUnits="userSpaceOnUse" x1="-42.4787" y1="1961.6609" x2="950.7013" y2="462.1508" gradientTransform="matrix(1 0 0 -1 0 1700)">
			<stop  offset="0" style="stop-color:#008F31"/>
			<stop  offset="1" style="stop-color:#006A3C"/>
		</linearGradient>
		<path style="fill:url(#SVGID_00000134940240732355050470000014121305473537991605_);" d="M713.9-111.8l-2.3-5.2
			c-5.1-11.6-10.7-22.6-16.4-33.2C567.5-385.7,291-374.8,177.4-117.1L78.3,107.6l-48,108.8L-70.4,444.8
			C-29,588.5,30.2,742.1,104.3,898.3c66.9,141,146.2,283.1,237.1,424.4l0,0c19.2,29.8,39.9,60.6,60.5,90.8
			c63.1-90.4,121.1-181.8,173.3-272.6c174.4-303.7,285-602.4,314.7-846.3l0.3-5.7c0.2-1.8-0.2,1.8,0,0L713.9-111.8z"/>
		
			<linearGradient id="SVGID_00000148633271035116945590000008076275840834076584_" gradientUnits="userSpaceOnUse" x1="852.7668" y1="290.7958" x2="-264.3331" y2="-1496.5645" gradientTransform="matrix(1 0 0 -1 0 1700)">
			<stop  offset="0" style="stop-color:#008F31"/>
			<stop  offset="1" style="stop-color:#006A3C"/>
		</linearGradient>
		<path style="fill:url(#SVGID_00000148633271035116945590000008076275840834076584_);" d="M429.3,1453.1
			c60.6,86.2,122.6,166.3,185.2,241c277.1-117.2,553.2-210,823-160.2l-510-1160.7L890.2,289c-28.2,245.5-140.6,548.2-315,852
			c-52.2,90.9-110.1,182.2-173.3,272.6c6.9,10.1,13.8,20.4,20.6,30.2C424.8,1447,427.1,1449.9,429.3,1453.1z"/>
		
			<linearGradient id="SVGID_00000096050746454055116510000008470544332013386400_" gradientUnits="userSpaceOnUse" x1="1214.7811" y1="-48.3306" x2="269.1711" y2="-1561.3007" gradientTransform="matrix(1 0 0 -1 0 1700)">
			<stop  offset="0" style="stop-color:#008F31"/>
			<stop  offset="1" style="stop-color:#006A3C"/>
		</linearGradient>
		<path style="fill:url(#SVGID_00000096050746454055116510000008470544332013386400_);" d="M725.2,1816.1
			c31.1,22.9,63.4,50.5,89.5,83.4c260.5-91.5,518.9-134.2,770.8-28.9l-64.6-147.1C1261.6,1644.1,992.5,1711,725.2,1816.1z"/>
		<path class="st1" d="M614.5,1694.1c30.8,36.8,61.7,72.7,92.7,106.6c7.2,4.6,11,10.3,18,15.5c267.3-105.1,536.4-172,795.6-92.5
			l-83.4-189.7C1167.7,1484,891.6,1576.9,614.5,1694.1z"/>
		<path class="st6" d="M945.5,2242.6c-3-31.9-8.1-63.5-15.3-94.7c-0.7-3.2-1.2-6.3-1.9-9.5c-8.1-33.4-18.8-66.1-32-97.9
			c-10.3-25.1-22.2-49.6-35.6-73.2c-13.6-23.7-29-46.4-46-67.8c-26.1-32.9-58.4-60.5-89.5-83.4c-7-5.2-10.8-10.8-18-15.5
			c-31-33.9-61.9-69.8-92.7-106.6c-62.6-74.7-124.6-154.8-185.2-241c-2.2-3.2-4.5-6.1-6.7-9.3c-6.9-9.8-13.7-20.1-20.6-30.2
			c-21.1-30.8-42.2-62.3-61.7-92.6c-91-141.3-170.5-284.8-237.4-425.9C29.2,739.9-29.1,587.7-70.4,444.8
			c-41.5-143.5-65.8-277.6-71.3-395.9l-781.5,1772.5c136.2,109.7,274.8,165.8,414.9,185c64-57,140.1-90.4,222-90.4
			c10.5,0.1,20.9,0.7,31.3,1.8c3.3,0.3,6.5,0.8,9.7,1.3c7.2,1,14.4,2.2,21.5,3.7c3.5,0.8,7,1.5,10.5,2.3c7.7,1.9,15.2,4.2,22.8,6.6
			c2.4,0.8,4.9,1.4,7.2,2.3c9.1,3.3,18.1,7.1,27,11.2c4,1.8,7.9,3.9,11.9,5.9c5.2,2.7,10.5,5.5,15.6,8.4c4.2,2.4,8.5,4.9,12.7,7.6
			s8,5.3,12,8.1c0.9,0.6,1.8,1.2,2.7,1.8c3.9,2.7,7.8,5.3,11.6,8.1c42.5,32.1,80,74.7,111.6,124.5c19.2,30.5,35.7,62.6,49.1,96.1
			c15.7,38.7,27.9,78.9,36.3,119.8l0.1,0.1l0.1,0.6c2.3,11.3,3.9,23,5.7,34.6c0.9,6.1,2.2,12.1,3,18.3c4.6,23.7,11.2,53.7,20.2,86.2
			c13.1,47.3,31.5,100,56.5,147.4c18,34.1,39.5,65.5,65,89.8c19.2,24.3,40.8,46.7,64.4,66.8c38.7,32.8,81.2,56.8,125.7,71.2
			c69.7,22.7,144.3,21.9,217-8.3c174.1-72.2,283.8-287.4,283.3-521.6C948.3,2288.1,947.6,2265.4,945.5,2242.6z"/>
	</g>
</g>
</svg>
