<svg id="Capa_1" data-name="Capa 1" xmlns="http://www.w3.org/2000/svg" xmlns:xlink="http://www.w3.org/1999/xlink" viewBox="0 0 800 1700"><defs><style>.cls-1{fill:none;}.cls-2{clip-path:url(#clip-path);}.cls-3{fill:#00a254;}.cls-4{fill:url(#linear-gradient);}.cls-5{fill:url(#linear-gradient-2);}.cls-6{fill:url(#linear-gradient-3);}.cls-7{fill:url(#linear-gradient-4);}.cls-8{fill:#fbcd3c;}.cls-9{fill:#fff;}</style><clipPath id="clip-path"><rect class="cls-1" width="800" height="1700"/></clipPath><linearGradient id="linear-gradient" x1="640.49" y1="-675.79" x2="-63.53" y2="401.98" gradientUnits="userSpaceOnUse"><stop offset="0" stop-color="#ffd818"/><stop offset="0.48" stop-color="#fdd619"/><stop offset="0.66" stop-color="#f8cf1b"/><stop offset="0.79" stop-color="#eec320"/><stop offset="0.89" stop-color="#e0b227"/><stop offset="0.98" stop-color="#cd9c2f"/><stop offset="1" stop-color="#c99731"/></linearGradient><linearGradient id="linear-gradient-2" x1="-42.48" y1="-261.66" x2="950.7" y2="1237.85" gradientUnits="userSpaceOnUse"><stop offset="0" stop-color="#008f31"/><stop offset="1" stop-color="#006a3c"/></linearGradient><linearGradient id="linear-gradient-3" x1="852.76" y1="1409.2" x2="-264.34" y2="3196.56" xlink:href="#linear-gradient-2"/><linearGradient id="linear-gradient-4" x1="1214.78" y1="1748.33" x2="269.17" y2="3261.3" xlink:href="#linear-gradient-2"/></defs><g class="cls-2"><rect class="cls-3" x="680.53" y="-24.59" width="119.47" height="146.45"/><path class="cls-4" d="M78.32,107.59l99.06-224.68C291-374.75,567.49-385.67,695.14-150.25l-27.29-61.91L609.58-344.34C493.42-607.8,219.13-632.1,73.76-417.3a463.07,463.07,0,0,0-40.09,73L-141.65,48.9c5.45,117.55,30.3,253.42,71.29,395.91L30.33,216.42Z"/><path class="cls-5" d="M713.89-111.85l-2.31-5.24c-5.12-11.62-10.68-22.55-16.44-33.16C567.49-385.67,291-374.75,177.38-117.09L78.32,107.59l-48,108.83L-70.36,444.81C-29,588.47,30.21,742.13,104.3,898.33c66.9,141.05,146.16,283.14,237.12,424.43h0c19.23,29.75,39.87,60.6,60.55,90.83,63.12-90.44,121.09-181.76,173.27-272.64,174.36-303.73,285-602.41,314.7-846.29l.26-5.67c.23-1.81-.22,1.79,0,0Z"/><path class="cls-6" d="M429.31,1453.06c60.6,86.19,122.64,166.29,185.21,241,277.11-117.18,553.16-210,823-160.15l-510-1160.67L890.2,289c-28.25,245.47-140.6,548.23-315,852-52.18,90.88-110.15,182.2-173.27,272.64,6.9,10.1,13.79,20.41,20.64,30.21C424.83,1447,427.09,1449.91,429.31,1453.06Z"/><path class="cls-7" d="M725.21,1816.13c31.1,22.94,63.4,50.54,89.51,83.45,260.5-91.51,518.87-134.18,770.77-28.87l-64.64-147.09C1261.58,1644.09,992.54,1711,725.21,1816.13Z"/><path class="cls-3" d="M614.52,1694.07c30.81,36.8,61.71,72.7,92.71,106.58,7.23,4.64,10.95,10.3,18,15.48,267.33-105.1,536.37-172,795.64-92.51l-83.36-189.7C1167.68,1484,891.63,1576.89,614.52,1694.07Z"/><path class="cls-8" d="M945.45,2242.65a742.58,742.58,0,0,0-15.27-94.72c-.72-3.16-1.15-6.33-1.91-9.47a666.67,666.67,0,0,0-32-97.91,636.68,636.68,0,0,0-35.58-73.16,545.52,545.52,0,0,0-46-67.81c-26.11-32.91-58.41-60.51-89.51-83.45-7-5.18-10.75-10.84-18-15.48-31-33.88-61.9-69.78-92.71-106.58-62.57-74.72-124.61-154.82-185.21-241-2.22-3.15-4.48-6.09-6.7-9.26-6.85-9.8-13.74-20.11-20.64-30.21-21.09-30.83-42.17-62.33-61.71-92.61-91-141.29-170.52-284.81-237.42-425.86C29.21,739.88-29.07,587.69-70.36,444.81-111.83,301.3-136.17,167.19-141.65,48.9L-923.12,1821.4c136.22,109.67,274.77,165.82,414.94,185,64-57,140.09-90.4,222-90.4a301.29,301.29,0,0,1,31.33,1.81c3.26.33,6.47.84,9.7,1.28q10.83,1.49,21.49,3.73c3.51.75,7,1.47,10.49,2.33,7.67,1.91,15.24,4.17,22.76,6.64,2.4.8,4.86,1.41,7.24,2.26,9.14,3.27,18.13,7.07,27,11.17,4,1.85,7.95,3.92,11.9,5.94,5.25,2.68,10.46,5.47,15.6,8.42,4.25,2.45,8.49,4.94,12.67,7.57s8,5.32,12,8.07c.9.61,1.81,1.18,2.7,1.81,3.87,2.7,7.81,5.27,11.61,8.14,42.48,32.08,80,74.65,111.59,124.5A598.81,598.81,0,0,1,71,2205.76a684,684,0,0,1,36.32,119.83l.07.08.07.59c2.3,11.32,3.94,23,5.72,34.65.94,6.12,2.22,12.08,3,18.28,4.56,23.72,11.21,53.71,20.23,86.21,13.13,47.33,31.48,100,56.5,147.4,18,34.13,39.46,65.49,65,89.8a468.13,468.13,0,0,0,64.38,66.75c38.72,32.77,81.2,56.76,125.69,71.22,69.73,22.66,144.26,21.88,217-8.3,174.07-72.21,283.83-287.45,283.32-521.59C948.3,2288.12,947.59,2265.45,945.45,2242.65Z"/></g><path class="cls-9" d="M751.12,780.09a1.5,1.5,0,0,0,0-3,1.5,1.5,0,0,0,0,3Z"/></svg>