<svg xmlns="http://www.w3.org/2000/svg" viewBox="0 0 53.79 31.95"><g id="Capa_2" data-name="Capa 2"><g id="Capa_1-2" data-name="Capa 1"><path d="M53.08,19.19l-6.08-1a.27.27,0,0,1-.18-.11.22.22,0,0,1,0-.08l0-.08a.89.89,0,0,0,0-.23L48.66,7a.64.64,0,0,0,.08-.19.78.78,0,0,0,0-.34l.11-.68a.25.25,0,0,1,.25-.22l3.31-.1a.89.89,0,1,0,0-1.78l-3.31.1a2,2,0,0,0-2,1.69h0c-1.33-.38-4-1.12-7.25-1.91-4.61-1.12-7.35.47-7.83.78l-1.56.78L27.59.42A.9.9,0,0,0,26.37.13L6.62,12.28l0,0L.42,15.94a.9.9,0,0,0-.29,1.22l8.8,14.36a.88.88,0,0,0,.21.22l.07.06a1,1,0,0,0,.5.15,1,1,0,0,0,.44-.15h0l13.36-8.41,6.82,1.1a4,4,0,0,0,.69.06A4.36,4.36,0,0,0,33.11,24L43.3,18.61a2.27,2.27,0,0,1,1.71-.2l.1,0a1.86,1.86,0,0,0,.31.67,2,2,0,0,0,1.33.83l6.09,1h.1a.89.89,0,0,0,.14-1.76ZM23.24,21.47h0L10,29.8l-.6-1L6.89,24.72l-.07-.07L2.11,17,7.35,14h0l.12-.07h0l19-11.74L28.89,6l-6.62,3.3a3.68,3.68,0,0,0-1.34,1.12.89.89,0,0,0-.27-.15A5.72,5.72,0,0,0,13.77,13c-.11.2-.2.41-.29.62a8.25,8.25,0,0,0-.36,1.75,5.82,5.82,0,0,0,4.1,5.81l.57.16a6.1,6.1,0,0,0,1,.1,5.76,5.76,0,0,0,5.68-4.88.81.81,0,0,0-.06-.41A4,4,0,0,0,25,16c1.09-.33,3.86-1.09,5.42-1.52a1.06,1.06,0,0,1,.84,1.92Zm-2.86-7.81a3.61,3.61,0,0,0,2.46,2.39,1.57,1.57,0,0,0-.09.23,3.8,3.8,0,0,1-.42,1.27,4,4,0,0,1-4.33,2,4.44,4.44,0,0,1-1.25-.45,4,4,0,0,1-1.7-4.51l.14-.39a3.39,3.39,0,0,1,.18-.39,3.94,3.94,0,0,1,4.73-1.89,1,1,0,0,0,.17,0A3.69,3.69,0,0,0,20.38,13.66Zm24.86,3a4,4,0,0,0-2.77.38L32.28,22.44a2.66,2.66,0,0,1-1.64.27l-4.85-.79,6.37-4a2.83,2.83,0,0,0-2.26-5.13c-1.56.43-4.35,1.2-5.46,1.53a1.87,1.87,0,0,1-1.37-3.46L32.93,6l.12-.13s2.24-1.55,6.44-.55c3.35.85,6.13,1.61,7.37,1.95Z"/></g></g></svg>